<svg width="200" height="168" viewBox="0 0 200 168" fill="none" xmlns="http://www.w3.org/2000/svg">
<g clip-path="url(#clip0_302_2387)">
<path d="M138.72 115.48H125.82V72.3401H137.26C137.75 72.5901 138.23 72.8501 138.72 73.1001V115.48Z" fill="#689DD0"/>
<path d="M181.58 130.78H168.68V81.29H180.12C180.61 81.58 181.09 81.87 181.58 82.16V130.77V130.78Z" fill="#009196"/>
<path d="M163.45 123.7H144.54V51.1699H161.31C162.02 51.5999 162.74 52.0199 163.45 52.4499V123.7Z" fill="#006EAF"/>
<path d="M161.42 51.1299H142.51V123.66H161.42V51.1299Z" fill="#0090EF"/>
<path d="M179.94 81.29H167.34V116.42H179.94V81.29Z" fill="#00AFB4"/>
<path d="M136.93 72.3401H121.13V119.79H136.93V72.3401Z" fill="#79B8F2"/>
<path d="M82.8299 161.97C68.7399 162.11 54.6499 162.25 40.5599 162.39C43.4699 154.2 46.3799 146.01 49.2899 137.82C57.3199 137.82 65.36 137.82 73.39 137.82C76.54 145.87 79.6899 153.91 82.8399 161.96L82.8299 161.97Z" fill="#2F3844" stroke="#1E0E00" stroke-width="0.5" stroke-miterlimit="10"/>
<path d="M80.4699 167.12H43.1599C42.2899 165.55 41.4299 163.97 40.5599 162.4H82.8299C82.0399 163.97 81.2599 165.55 80.4699 167.12Z" fill="#394452" stroke="#1E0E00" stroke-width="0.5" stroke-miterlimit="10"/>
<path d="M2.25995 126.04C14.1399 108.84 26.01 91.6301 37.89 74.4301C57.93 75.7801 77.96 77.1301 98 78.4801C103.74 69.8301 109.47 61.1901 115.21 52.5401C121.19 52.6301 127.17 52.7201 133.15 52.8101C142.85 40.7401 152.54 28.6701 162.24 16.6001C164.02 17.5001 165.79 18.4001 167.57 19.3001C156.58 32.7201 145.59 46.1401 134.61 59.5601C128.87 59.6501 123.14 59.7401 117.4 59.8301C111.58 68.7501 105.77 77.6601 99.95 86.5801C80.16 85.8601 60.36 85.1401 40.57 84.4201C29.99 99.2801 19.4 114.14 8.81996 129.01C6.63996 128.02 4.45995 127.03 2.27995 126.04H2.25995Z" fill="#132E6F"/>
<path d="M145.14 18.19L168.76 33.78C168.76 33.78 179.14 0.50998 179.15 0.47998C167.81 6.37998 156.48 12.29 145.14 18.19Z" fill="#132E6F"/>
<path d="M77.1699 17.38C71.8899 23.03 73.5699 27.54 65.9499 49.61C63.6699 56.21 63.3499 56.31 62.2899 60.12C59.3999 70.55 59.1099 79.6 59.3399 85.74C59.0199 80.03 59.2999 70.54 63.7099 60.12C65.8199 55.14 68.3599 51.13 70.6799 48.08C69.0899 53.14 67.5699 59.29 66.6699 66.38C65.6399 74.45 65.6699 81.6 66.0799 87.4C83.0799 85.83 100.09 84.25 117.09 82.68C118.74 76.31 118.83 71.22 118.62 67.8C118.28 62.08 116.96 58.53 116.49 50.09C116.32 46.9 116.33 44.3 116.37 42.65C116.26 52.45 118.75 58.12 121.21 61.54C121.21 61.54 125.5 67.5 126.16 72.66C126.43 74.78 126.05 76.77 126.05 76.77C125.93 77.38 125.79 77.87 125.7 78.19C126.38 74.8 126.85 69.83 125.23 64.38C124.05 60.42 122.58 58.98 121.22 55.05C118.95 48.54 119.99 43.93 119.92 39.7C119.73 28.14 111.15 12.82 99.1399 10.06C91.2999 8.26002 82.3199 11.88 77.1799 17.38H77.1699Z" fill="url(#paint0_linear_302_2387)" stroke="#1E0E00" stroke-width="0.5" stroke-miterlimit="10"/>
<path d="M108.13 66.4099H86.66C82.2748 66.4099 78.72 69.9648 78.72 74.3499V79.4899C78.72 83.875 82.2748 87.4299 86.66 87.4299H108.13C112.515 87.4299 116.07 83.875 116.07 79.4899V74.3499C116.07 69.9648 112.515 66.4099 108.13 66.4099Z" fill="#8B80A4"/>
<path d="M81.02 56.95C82.64 59.9 84.33 64.1499 83.49 68.7599C82.77 72.7399 80.65 74.3199 79.89 76.5499C78.48 80.7199 81.5 88.22 99.66 102.76C114.08 84 116.74 76.82 114.94 74.66C113.77 73.25 111.04 74.39 108.87 72.3C106.23 69.75 106.64 64.57 107.75 59.78C98.84 58.84 89.92 57.89 81.01 56.95H81.02Z" fill="#F3D3C4" stroke="#1E0E00" stroke-width="0.5" stroke-miterlimit="10"/>
<path d="M79.9 49.8599C80 51.5999 80.33 54.5099 81.6 57.7599C85.16 66.8799 94.5 74.6499 100.26 72.4299C102.51 71.5599 103.96 69.6699 104.71 68.5899C107.57 64.5299 106.99 60.0799 106.82 58.9899C97.85 55.9499 88.87 52.9099 79.9 49.8699V49.8599Z" fill="url(#paint1_linear_302_2387)"/>
<path d="M72.4999 33.38C72.7399 37.48 73.4499 44.51 75.8799 51.1C76.6999 53.32 77.38 55.42 79.17 57.06C80.83 58.58 82.8499 60.19 85.2499 61.72C91.6299 65.77 95.0499 67.41 97.7699 67.15C102.07 66.73 105 63.42 107.75 60.3C108.57 59.38 111.55 55.94 113.48 50.5C114.76 46.87 115.01 43.97 115.31 40.19C115.56 36.98 115.9 32.66 115.25 29.13C113.83 21.42 106.67 11.83 97.1799 10.77C86.8999 9.62001 75.2099 18.77 72.4999 33.38Z" fill="#F3D3C4" stroke="#1E0E00" stroke-width="0.75" stroke-miterlimit="10"/>
<path d="M103.81 54.1601L103.01 54.8301C102.55 55.2201 101.97 55.4101 101.37 55.3801C100.91 55.3601 100.36 55.3401 99.7399 55.3401C96.7399 55.3201 95.6499 55.6601 93.8599 55.2701C93.1999 55.1201 92.1799 54.8201 90.9999 54.1001" stroke="#1E0E00" stroke-width="0.5" stroke-miterlimit="10"/>
<g opacity="0.78" filter="url(#filter0_d_302_2387)">
<path d="M97.9999 52.48C98.1999 52.72 98.5099 53 98.9299 53.07C99.4699 53.16 99.6099 52.8 100.16 52.82C100.97 52.86 101.26 53.68 101.93 53.56C102.24 53.5 102.43 53.27 102.47 53.31C102.53 53.37 102.11 53.84 101.73 54.24C100.54 54.15 99.5699 54.16 98.8799 54.19C97.7899 54.24 96.9999 54.35 95.7899 54.19C95.1299 54.1 94.1199 53.9 94.1199 53.7C94.1199 53.5 95.0799 53.49 96.5699 53.01C97.1899 52.81 97.6799 52.61 97.9899 52.47L97.9999 52.48Z" fill="url(#paint2_linear_302_2387)"/>
</g>
<g opacity="0.78" filter="url(#filter1_d_302_2387)">
<path d="M95.9999 57.5799C96.8299 58.0399 97.4199 58.3499 98.2799 58.4299C98.6599 58.4599 99.37 58.5199 100.14 58.1799C101.32 57.6499 101.81 56.5599 101.93 56.2399C101.08 56.4199 100.1 56.5499 98.9899 56.5899C96.7899 56.6599 94.9399 56.2899 93.6099 55.8899C94.5199 56.6999 95.3699 57.2399 95.9999 57.5799Z" fill="url(#paint3_linear_302_2387)"/>
</g>
<path d="M101.04 34.6199C100.64 34.4899 99.7 35.9099 99.21 37.0999C99.03 37.5299 97.67 40.9599 99.27 44.1799C99.98 45.6199 100.75 45.9299 100.69 47.0099C100.6 48.6499 98.74 49.6999 98.86 49.8399C98.96 49.9599 100.6 49.3699 101.16 48.0099C101.91 46.1999 99.82 45.3099 99.8 42.5799C99.79 40.1699 101.4 37.9299 101.28 35.3199C101.27 35.0699 101.23 34.6699 101.04 34.6099V34.6199Z" fill="url(#paint4_linear_302_2387)"/>
<path d="M95.5499 46.9C95.9999 46.51 97.2499 45.54 98.7999 45.72C99.3899 45.79 100.54 46.07 100.63 46.66C100.71 47.19 99.9299 47.91 98.6499 48.31C97.6199 47.84 96.5899 47.37 95.5599 46.89L95.5499 46.9Z" fill="url(#paint5_linear_302_2387)"/>
<path d="M97.3799 49.55C97.4799 49.37 97.1199 48.97 96.8499 48.78C96.0199 48.2 94.7999 48.63 94.7799 48.9C94.7499 49.29 97.1599 49.95 97.3799 49.55Z" fill="url(#paint6_linear_302_2387)"/>
<path d="M101.64 39.1C101.61 40.22 101.95 40.73 102.23 40.99C102.85 41.56 103.55 41.2401 105.83 41.4601C107.42 41.6201 107.47 41.81 108.13 41.7C109.58 41.44 111.13 40.18 110.96 39.16C110.75 37.87 107.88 37.49 107.54 37.45C104.94 37.13 102.77 38.33 101.64 39.1Z" fill="#C8FFF3"/>
<path d="M104.52 38.1899C104.58 38.5599 104.84 39.7999 105.96 40.6999C106.29 40.9699 107.51 41.9999 108.73 41.5099C109.74 41.1099 110.44 39.8599 110.49 38.3999C110.07 38.0999 109.43 37.7399 108.59 37.5499C106.62 37.0999 105 37.9099 104.51 38.1899H104.52Z" fill="#00DBB4" stroke="url(#paint7_linear_302_2387)" stroke-width="0.5" stroke-miterlimit="10"/>
<path d="M102.09 41.7599C104.23 41.1199 105.62 41.3499 106.52 41.6999C107.04 41.9099 107.7 42.2799 108.65 42.2299C109.46 42.1899 110.11 41.8599 110.54 41.5799" stroke="#1E0E00" stroke-width="0.5" stroke-miterlimit="10"/>
<path d="M100.92 37.4501C100.92 37.4501 102.64 35.3401 105.37 34.9501C105.84 34.8801 107.32 34.6901 108.81 35.4001C109.52 35.7401 109.52 35.9401 110.45 36.5001C111.84 37.3201 113.58 37.9101 113.79 37.5801C113.99 37.2601 112.71 36.1201 112.62 36.0401C112.09 35.5801 109.8 33.6801 106.81 33.9101C103.15 34.1901 100.91 37.4501 100.91 37.4601L100.92 37.4501Z" fill="url(#paint8_linear_302_2387)"/>
<path d="M100.81 31.74C101.38 32.04 102.32 32.4299 103.51 32.4499C103.9 32.4499 104.26 32.4199 104.57 32.3599C105.82 31.7199 107.69 30.9499 110.06 30.5899C113.13 30.1199 115.67 30.56 117.19 30.94C113.05 29.64 111.01 28.85 111.08 28.55C111.1 28.45 111.35 28.4099 111.83 28.4199C108.15 29.5299 104.48 30.63 100.8 31.74H100.81Z" fill="#34001E" stroke="#1E0E00" stroke-width="0.5" stroke-miterlimit="10"/>
<path d="M94.65 32.1399C94.45 31.5499 94.09 30.8599 93.41 30.5499C92.78 30.2599 92.15 30.4199 91.95 30.4599C89.2 31.0599 84.94 28.3999 80.84 29.3999C79.81 29.6499 78.27 30.2599 76.59 31.9699C77.4 31.5999 78.65 31.1099 80.22 30.8199C82.05 30.4799 83.6 30.5399 87.7 31.0899C89.59 31.3399 91.95 31.6799 94.65 32.1499V32.1399Z" fill="#34001E" stroke="#1E0E00" stroke-width="0.5" stroke-miterlimit="10"/>
<path d="M93.2799 40.4601C92.7199 40.0401 91.8499 39.54 90.7599 39.44C89.3399 39.31 88.8099 39.9901 87.2599 40.4601C84.5099 41.3001 83.4499 40.02 79.3799 40.55C78.3199 40.69 77.4699 40.89 76.9399 41.04" stroke="#1E0E00" stroke-width="0.5" stroke-miterlimit="10"/>
<path d="M78.29 38.6499C78.95 39.0099 79.94 39.5099 81.21 39.9299C83.11 40.5699 84.67 40.7199 84.66 40.7699C84.66 40.7999 83.96 40.7399 80.72 40.3299C79.91 39.7699 79.1 39.2099 78.28 38.6499H78.29Z" fill="#8A8682" stroke="#1E0E00" stroke-width="0.5" stroke-miterlimit="10"/>
<path d="M79.53 40.5701C79.43 40.7501 79.24 41.0501 78.91 41.3201C77.62 42.4001 75.59 41.9001 75.59 41.9401C75.59 41.9701 76.91 42.3601 78.6 41.9801C79.91 41.6901 80.88 41.0701 81.48 40.6101C80.83 40.6001 80.18 40.5801 79.53 40.5701Z" fill="#8A8682" stroke="#1E0E00" stroke-width="0.5" stroke-miterlimit="10"/>
<path d="M93.9 37.76C94.13 37.55 93.4 35.82 91.95 35.28C91.14 34.98 90.39 35.16 90.05 35.24C88.2 35.67 85.8 36.17 82.83 36.79C84.77 36.57 86.33 36.34 87.39 36.17C89.1 35.89 89.56 35.77 90.36 35.9C92.57 36.27 93.66 37.98 93.9 37.76Z" fill="url(#paint9_linear_302_2387)"/>
<path d="M90.5699 9.13989C90.8099 11.8099 90.8599 15.7699 89.5899 20.2199C88.2999 24.7499 85.9599 28.6799 73.9099 40.9899C63.5799 51.5499 59.9899 54.0899 57.0099 61.1399C54.8899 66.1399 54.5099 70.0199 54.3299 69.9699C53.9399 69.8799 56.8599 52.7299 61.9899 39.8299C63.8199 35.2299 66.1599 30.2999 66.1599 30.2999C67.6199 27.2099 69.5099 23.4799 70.4099 21.9499C71.9899 19.2699 76.5799 13.1699 90.5599 9.13989H90.5699Z" fill="#34001E" stroke="#1E0E00" stroke-width="0.5" stroke-miterlimit="10"/>
<path d="M89.07 13.2899C90.85 13.7599 91.23 16.1799 92.62 18.3599C94.63 21.4899 95.44 23.3299 96.86 25.0999C101.1 30.3599 106.45 28.8799 111.38 32.7699C114.07 34.8899 117.04 39.0299 117.59 47.9799C122.59 42.1399 122.51 37.2399 122.37 35.5799C122.12 32.6099 120.42 29.8799 117.02 24.5399C113.35 18.7799 111.52 15.8999 109.26 13.9799C104.86 10.2299 96.29 5.70994 90.55 9.14994C88.5 10.3799 87.37 12.2899 86.77 13.6299C87.32 13.3699 88.17 13.0699 89.06 13.2999L89.07 13.2899Z" fill="#34001E" stroke="#1E0E00" stroke-width="0.5" stroke-miterlimit="10"/>
<path d="M93.2599 11.78C94.9399 12.91 97.2099 14.74 99.0499 17.57C101.19 20.86 100.66 22.3 102.47 24.77C105.25 28.56 108.54 28 112.39 30.79C114.79 32.53 117.73 35.81 119.36 42.6C118.96 34.47 116.32 30.53 113.93 28.43C111.61 26.4 110.13 26.63 107.44 23.83C104 20.25 104.4 17.77 101.42 15.09C100.01 13.83 97.5699 12.27 93.2699 11.78H93.2599Z" fill="url(#paint10_linear_302_2387)"/>
<path d="M79.04 72.98C76.48 74.94 72.42 77.56 66.98 79.03C60.21 80.86 56.8799 79.42 52.4999 81.54C46.8799 84.27 44.81 90.47 42.91 95.39C36.28 112.55 41.19 131.63 43.16 138.24C49.83 139.47 56.5 140.71 63.16 141.94C63.11 138.13 62.9899 134.22 62.8099 130.21C62.5499 124.66 62.17 119.31 61.7 114.16C104.51 138.99 121.64 140.46 127.92 134.29C132.45 129.84 134.03 118.77 137.48 119.12C138.91 119.26 139.46 121.24 142.44 125.96C144.76 129.63 146.99 132.49 148.64 134.46C153.36 129.62 158.08 124.78 162.8 119.93C156.67 109.81 152.77 101.23 150.34 95.28C147.42 88.11 146.57 84.62 143.14 81.36C136.52 75.08 126.2 75.29 118.84 76.34C114.72 84.3 106.13 88.93 97.32 87.98C88.86 87.07 81.6699 81.17 79.0599 72.97L79.04 72.98Z" fill="#B0EEF8"/>
<path d="M135.69 122.96C135.01 125.79 133.36 132.71 128.5 136.87C122.62 141.9 115.39 140.03 100.63 139.25C93.4299 138.87 83.0299 138.67 70.2099 139.7C63.3299 130.44 62.2299 123.1 62.4699 118.13C62.9899 107.43 70.08 102.13 68.39 93.0199C67.21 86.6799 62.4799 82.24 58.8799 79.57C60.8999 79.45 63.5199 79.0899 66.4399 78.1499C70.2799 76.8999 73.1799 75.11 75.0899 73.7C75.4199 75.79 76.0799 79.2 77.4899 83.2C76.9099 83 76.5199 82.8799 76.2599 83.1099C74.7799 84.4499 80.4699 94.74 84.0499 95.78C85.2899 97.49 86.7099 99.1799 88.3199 100.8C93.1199 105.66 98.1099 108.45 101.77 110.05C104.59 108.03 107.83 105.28 110.98 101.55C118.62 92.4899 121.46 82.68 122.61 77.16C124.07 76.19 125.33 75.8799 126.12 75.7699C127.14 75.6299 128.11 75.7399 130.05 75.9599C131.08 76.0799 131.92 76.2099 132.49 76.2999C129.95 80.9399 129.51 84.79 129.5 87.16C129.48 90.59 130.53 93.76 132.64 100C134.88 106.61 135.43 106.49 136.07 109.7C136.3 110.83 137.3 116.24 135.69 122.94V122.96Z" fill="#001147" stroke="#1E0E00" stroke-linecap="round" stroke-linejoin="round"/>
<path d="M118.28 87.6601C117.32 90.2001 116.2 92.1601 115.39 93.4401C115.2 93.2701 111.22 89.6801 106.05 91.2001C101.2 92.6201 99.6599 97.2601 99.5499 97.6301C95.3699 92.2901 90.1099 90.36 87.2999 92.02C86.7699 92.34 85.67 93.17 85.06 95.43C84.48 94.85 83.9 94.2701 83.32 93.6901C82.18 92.9701 77.71 89.9601 77.19 84.9701C77.12 84.2901 77.12 83.5 77.25 82.62C78 82.88 79.07 83.2601 80.57 83.1601C82.59 83.0201 84.2099 82.0501 85.3299 81.1901C89.9699 86.3701 94.61 91.5501 99.26 96.7301C102.58 91.5501 105.91 86.3701 109.23 81.1901C109.56 80.8501 116.89 73.2801 119.51 74.9101C121.75 76.3101 119.68 83.9501 118.29 87.6601H118.28Z" fill="url(#paint11_linear_302_2387)"/>
<path d="M84.01 66.4099C83.34 66.5299 82.4599 66.8099 81.7099 67.4699C78.8899 69.9699 79.32 76.7099 83.13 79.6899C85.15 81.2699 87.5599 81.3499 88.7999 81.2799C92.2199 85.9399 95.65 90.6099 99.07 95.2699C97.45 91.2599 93.44 88.8899 89.51 89.4299C86.34 89.8599 83.6199 92.1299 82.4299 95.2699C81.0799 88.2299 78.8799 85.9599 76.9399 85.3499C76.1399 85.0999 75.76 85.2399 75.17 84.8199C72.54 82.9199 73.5499 75.1199 77.6499 70.4699C79.7399 68.0999 82.2799 66.9699 84.0299 66.3999L84.01 66.4099Z" fill="#E7E0F8"/>
<path d="M106.41 64.3401C107.09 64.2901 108.01 64.3401 108.91 64.7901C112.27 66.5001 113.54 73.1401 110.6 76.9801C109.04 79.0201 106.73 79.7001 105.51 79.9401C103.36 85.3101 101.22 90.6901 99.0699 96.0601C99.6299 91.7701 102.92 88.4701 106.87 88.0101C110.05 87.6401 113.25 89.1501 115.19 91.8901C114.73 84.7401 116.29 81.9901 118.02 80.9101C118.73 80.4701 119.14 80.5101 119.6 79.9501C121.67 77.4501 118.74 70.1501 113.61 66.6801C110.99 64.9101 108.25 64.4501 106.42 64.3301L106.41 64.3401Z" fill="#E7E0F8"/>
<path d="M140.71 88.2201C138.07 85.3401 132.77 86.2601 131.95 86.4101C127.72 93.1701 126.35 98.5501 125.83 101.57C125.47 103.64 125.4 105.31 126.25 106.86C127.56 109.25 129.68 108.82 133.07 111.31C137.23 114.37 137.54 117.6 139.61 117.43C141.31 117.29 142.73 114.98 142.92 113.07C143.23 110 140.5 106.59 136 105.33C142.89 99.48 143.78 91.5501 140.73 88.2201H140.71Z" fill="#BFAAA3" stroke="#1E0E00" stroke-width="0.75" stroke-miterlimit="10"/>
<path d="M141.25 85.43C137.94 85.83 136.64 83.49 134.71 83.9C132.91 84.28 132.04 86.74 130.54 91.97C128.22 100.03 127.06 104.05 126.65 107.32C126.47 108.7 126.42 111.91 126.04 115.54C126 115.96 125.89 116.97 125.77 118.37C125.61 120.2 125.51 121.71 125.45 122.72C125.6 123.32 126.06 124.91 127.04 125.11C128.41 125.39 129.88 122.82 130.48 121.77C131.57 119.86 131.99 118 132.15 116.59C132.48 114.89 133 112.38 133.74 109.36C135.54 102.03 136.8 99.21 136.8 99.21C136.8 99.21 134.24 103.66 135.97 106.72C137.17 108.85 139.96 109.44 140.28 109.5C141.06 109.65 142.28 109.89 143.06 109.22C143.84 108.55 143.73 107.36 144.17 107.32C144.52 107.29 144.65 108.05 145.28 108.66C146.15 109.51 147.53 109.67 148.48 109.49C150.77 109.07 151.76 106.47 152.03 105.76C152.7 104 152.58 102.39 152.65 102.39C152.78 102.39 152.45 107.12 152.99 107.21C153.37 107.27 153.94 105.09 155.23 101.03C157.47 93.99 158.67 91.45 157.4 90.05C157.04 89.65 156.1 88.92 155.04 88.99C154.14 89.05 153.94 89.64 153.21 89.59C152.02 89.51 151.95 87.89 150.62 87.47C149.19 87.02 148.41 88.5 147.09 88.06C145.7 87.59 145.95 85.71 144.44 85.05C143.42 84.6 142.79 85.23 141.25 85.42V85.43Z" fill="#F3D3C4" stroke="#1E0E00" stroke-width="0.75" stroke-miterlimit="10"/>
<path d="M196.8 152.57C181.04 155.86 165.28 159.14 149.51 162.43C135.69 154.46 121.87 146.48 108.05 138.51C123.4 136.63 138.76 134.76 154.11 132.88C168.34 139.45 182.57 146.01 196.8 152.58V152.57Z" fill="#484E62" stroke="#1E0E00" stroke-width="0.5" stroke-miterlimit="10"/>
<path d="M182.568 131.85C181.444 131.85 180.475 131.584 179.664 131.054C178.852 130.523 178.227 129.792 177.79 128.86C177.353 127.928 177.134 126.864 177.134 125.667C177.134 124.449 177.358 123.374 177.806 122.443C178.258 121.506 178.888 120.775 179.695 120.249C180.507 119.718 181.454 119.453 182.536 119.453C183.38 119.453 184.139 119.609 184.816 119.921C185.493 120.233 186.047 120.671 186.479 121.233C186.911 121.795 187.179 122.45 187.283 123.2H185.441C185.3 122.653 184.988 122.169 184.504 121.748C184.025 121.321 183.38 121.108 182.568 121.108C181.849 121.108 181.22 121.295 180.678 121.67C180.142 122.039 179.723 122.562 179.422 123.239C179.125 123.91 178.977 124.699 178.977 125.604C178.977 126.531 179.122 127.338 179.414 128.025C179.71 128.712 180.127 129.245 180.663 129.625C181.204 130.005 181.839 130.195 182.568 130.195C183.047 130.195 183.481 130.112 183.871 129.945C184.262 129.778 184.592 129.539 184.863 129.227C185.134 128.915 185.326 128.54 185.441 128.103H187.283C187.179 128.81 186.921 129.448 186.51 130.015C186.104 130.577 185.566 131.025 184.894 131.358C184.228 131.686 183.452 131.85 182.568 131.85Z" fill="black"/>
<path d="M76.3599 53.2599C75.9799 53.5699 75.4699 53.8999 75.1199 53.7299C74.6199 53.4899 74.8299 52.4299 74.7699 51.3699C74.6099 48.5899 72.7699 48.0699 72.5299 45.6999C72.3099 43.6099 73.4699 41.3499 74.1799 41.3899C74.8899 41.4299 75.7199 43.7399 76.3599 53.2599Z" fill="#F3D3C4" stroke="#1E0E00" stroke-width="0.75" stroke-miterlimit="10"/>
<path d="M89.89 13.8999C88.27 14.5999 86.1399 15.8299 84.5799 18.0299C83.1899 19.9899 82.8199 21.8999 82.6899 22.5199C81.3099 28.9499 74.4699 37.9899 69.9399 45.8999C67.0899 50.8599 63.4199 58.3899 60.6099 68.8099C61.6999 65.4199 63.6199 60.5299 67.0999 55.3499C71.1799 49.2799 74.78 46.7299 78.2 42.9499C82.22 38.5199 86.9699 31.3299 89.5399 19.4499C89.6599 17.5999 89.78 15.7499 89.89 13.8999Z" fill="url(#paint12_linear_302_2387)"/>
<path d="M73.88 57.8C72.98 57.44 71.97 57.59 71.31 58.2C70.38 59.05 70.37 60.56 70.98 61.27C71.8 62.22 73.39 61.31 74.25 62.32C74.8 62.97 74.76 64.07 74.32 64.76C73.65 65.8 71.88 66.17 70.33 65.2" stroke="#00DBB6" stroke-width="0.5" stroke-miterlimit="10"/>
<path d="M72.11 55.9399L72.28 67.7699" stroke="#00DBB6" stroke-width="0.5" stroke-miterlimit="10"/>
<path d="M0.72995 123.2C2.56995 126.24 5.06996 129.78 8.46996 133.43C13.15 138.46 17.99 142.03 21.88 144.47C24.33 142.99 26.4499 142.4 27.8999 142.14C30.3799 141.69 32 141.99 33.57 140.9C34.85 140.01 35.39 138.7 35.63 137.79C33.83 136.91 30.67 135.09 28.06 131.72C24.48 127.1 24.13 122.39 24.1 120.52C22.94 121.62 19.51 124.58 13.95 125.5C7.15995 126.62 1.96996 123.91 0.709961 123.2H0.72995Z" fill="#F1E9E5" stroke="#1E0E00" stroke-width="0.25" stroke-miterlimit="10"/>
<path d="M7.72997 98.6099C6.96997 102.17 6.01997 109.41 9.27997 117.58C10.4 120.38 14.17 129.45 24.07 134.69C25.43 135.41 26.64 135.91 27.51 136.25C28.84 134.1 31.28 130.77 35.42 127.7C39.42 124.73 43.36 123.22 45.91 122.45C44.75 122.17 38.5 120.56 34.9 114.79C31.76 109.75 32.72 104.85 33.01 103.59C31.51 105.03 29.22 106.68 26.13 107.32C19.74 108.65 12.34 105.21 7.72997 98.6099Z" fill="#F1E9E5" stroke="#1E0E00" stroke-width="0.25" stroke-miterlimit="10"/>
<path d="M28.2499 69.51C28.9999 71.8 30.2499 76.78 28.5899 82.73C26.2799 91.03 19.8899 95.59 17.9299 96.88C20.2599 96.17 23.4099 95.62 26.1799 96.88C28.3799 97.88 28.8999 99.37 30.9899 101.08C32.7399 102.51 35.6099 104.1 40.4499 104.66C40.9499 100.1 42.0799 94.35 44.5799 88.02C46.2599 83.77 48.2099 80.14 50.0799 77.13C47.7499 77.32 43.5999 77.37 38.8399 75.84C33.3599 74.08 29.8799 71.11 28.2399 69.51H28.2499Z" fill="#F1E9E5" stroke="#1E0E00" stroke-width="0.25" stroke-miterlimit="10"/>
<path d="M20.0203 49.2064C19.4209 49.4422 18.8461 49.48 18.296 49.3198C17.7448 49.1568 17.2352 48.8075 16.7671 48.2719C16.298 47.7336 15.8891 47.0215 15.5405 46.1356C15.194 45.255 15.0095 44.4592 14.987 43.7482C14.9661 43.0335 15.1019 42.4287 15.3942 41.9339C15.6881 41.4353 16.1321 41.0692 16.7263 40.8354C17.3204 40.6016 17.8936 40.5675 18.4458 40.7331C18.9996 40.895 19.511 41.2451 19.9802 41.7834C20.4509 42.3179 20.8595 43.0255 21.2061 43.9061C21.5547 44.792 21.7407 45.5918 21.7643 46.3055C21.7867 47.0165 21.6518 47.6194 21.3595 48.1142C21.0662 48.6064 20.6198 48.9705 20.0203 49.2064ZM19.6759 48.3311C20.27 48.0973 20.6188 47.6292 20.7223 46.9269C20.8257 46.2245 20.6687 45.3429 20.2512 44.2819C19.9736 43.5764 19.6616 43.0053 19.3152 42.5688C18.9715 42.1313 18.6079 41.8378 18.2245 41.6885C17.8437 41.5382 17.457 41.5403 17.0644 41.6947C16.4756 41.9265 16.1297 42.398 16.0267 43.1093C15.9227 43.818 16.0789 44.7015 16.4954 45.7598C16.773 46.4654 17.0832 47.0356 17.4258 47.4705C17.7685 47.9054 18.1297 48.1967 18.5095 48.3444C18.8919 48.491 19.2807 48.4866 19.6759 48.3311ZM25.0147 45.8259L25.1201 46.2806C25.194 46.6007 25.2524 46.9515 25.2952 47.3328C25.3407 47.7131 25.3744 48.0751 25.3963 48.4187C25.4182 48.7624 25.4328 49.0369 25.4401 49.2423L24.724 49.5241C24.6916 49.3408 24.6485 49.0989 24.5946 48.7985C24.5408 48.4981 24.4738 48.1645 24.3938 47.7978C24.3175 47.4327 24.2275 47.0638 24.1237 46.6911L23.9961 46.2267L25.0147 45.8259ZM29.5938 45.4391C28.9944 45.675 28.4196 45.7128 27.8695 45.5525C27.3183 45.3896 26.8087 45.0403 26.3406 44.5046C25.8715 43.9663 25.4627 43.2542 25.114 42.3683C24.7675 41.4877 24.583 40.6919 24.5605 39.9809C24.5397 39.2663 24.6754 38.6615 24.9677 38.1666C25.2616 37.6681 25.7057 37.3019 26.2998 37.0681C26.8939 36.8343 27.4671 36.8002 28.0193 36.9658C28.5731 37.1277 29.0846 37.4778 29.5537 38.0161C30.0244 38.5507 30.4331 39.2583 30.7796 40.1389C31.1282 41.0248 31.3143 41.8246 31.3378 42.5382C31.3603 43.2492 31.2253 43.8521 30.933 44.347C30.6397 44.8392 30.1933 45.2032 29.5938 45.4391ZM29.2494 44.5638C29.8435 44.33 30.1923 43.8619 30.2958 43.1596C30.3992 42.4573 30.2422 41.5756 29.8247 40.5146C29.5471 39.8091 29.2351 39.2381 28.8887 38.8016C28.545 38.364 28.1814 38.0706 27.798 37.9213C27.4172 37.7709 27.0305 37.773 26.638 37.9275C26.0491 38.1592 25.7032 38.6307 25.6003 39.3421C25.4962 40.0508 25.6525 40.9343 26.0689 41.9926C26.3465 42.6981 26.6567 43.2683 26.9994 43.7032C27.342 44.1381 27.7032 44.4294 28.083 44.5771C28.4654 44.7238 28.8542 44.7193 29.2494 44.5638ZM36.5962 42.6836C35.9968 42.9195 35.422 42.9573 34.8719 42.797C34.3207 42.6341 33.8111 42.2848 33.343 41.7491C32.8739 41.2108 32.465 40.4987 32.1164 39.6128C31.7699 38.7322 31.5854 37.9365 31.5629 37.2255C31.542 36.5108 31.6778 35.906 31.9701 35.4112C32.264 34.9126 32.708 34.5464 33.3021 34.3126C33.8963 34.0788 34.4695 34.0447 35.0217 34.2103C35.5755 34.3722 36.0869 34.7223 36.5561 35.2606C37.0268 35.7952 37.4354 36.5028 37.7819 37.3834C38.1306 38.2693 38.3166 39.0691 38.3401 39.7827C38.3626 40.4937 38.2277 41.0966 37.9354 41.5915C37.642 42.0837 37.1956 42.4477 36.5962 42.6836ZM36.2518 41.8083C36.8459 41.5745 37.1947 41.1065 37.2981 40.4041C37.4016 39.7018 37.2446 38.8201 36.8271 37.7592C36.5494 37.0536 36.2374 36.4826 35.8911 36.0461C35.5474 35.6085 35.1838 35.3151 34.8003 35.1658C34.4195 35.0155 34.0329 35.0175 33.6403 35.172C33.0515 35.4037 32.7056 35.8752 32.6026 36.5866C32.4986 37.2953 32.6548 38.1788 33.0713 39.2371C33.3489 39.9426 33.6591 40.5129 34.0017 40.9478C34.3444 41.3827 34.7056 41.6739 35.0853 41.8216C35.4677 41.9683 35.8566 41.9639 36.2518 41.8083ZM43.5985 39.9282C42.9991 40.164 42.4243 40.2018 41.8742 40.0415C41.3231 39.8786 40.8134 39.5293 40.3454 38.9937C39.8762 38.4554 39.4674 37.7433 39.1188 36.8574C38.7722 35.9768 38.5877 35.181 38.5653 34.47C38.5444 33.7553 38.6801 33.1505 38.9724 32.6557C39.2663 32.1571 39.7104 31.791 40.3045 31.5572C40.8986 31.3234 41.4718 31.2893 42.024 31.4549C42.5778 31.6168 43.0893 31.9668 43.5584 32.5051C44.0291 33.0397 44.4378 33.7473 44.7843 34.6279C45.1329 35.5138 45.319 36.3136 45.3425 37.0273C45.365 37.7382 45.2301 38.3412 44.9377 38.836C44.6444 39.3282 44.198 39.6923 43.5985 39.9282ZM43.2541 39.0529C43.8483 38.8191 44.197 38.351 44.3005 37.6486C44.4039 36.9463 44.2469 36.0646 43.8294 35.0037C43.5518 34.2981 43.2398 33.7271 42.8934 33.2906C42.5497 32.8531 42.1861 32.5596 41.8027 32.4103C41.4219 32.26 41.0352 32.2621 40.6427 32.4165C40.0538 32.6482 39.7079 33.1198 39.605 33.8311C39.5009 34.5398 39.6572 35.4233 40.0736 36.4816C40.3513 37.1872 40.6614 37.7574 41.0041 38.1923C41.3467 38.6272 41.708 38.9185 42.0877 39.0662C42.4701 39.2128 42.8589 39.2084 43.2541 39.0529ZM50.6009 37.1727C50.0015 37.4086 49.4267 37.4464 48.8766 37.2861C48.3254 37.1231 47.8158 36.7738 47.3477 36.2382C46.8786 35.6999 46.4697 34.9878 46.1211 34.1019C45.7746 33.2213 45.5901 32.4255 45.5676 31.7145C45.5467 30.9998 45.6825 30.3951 45.9748 29.9002C46.2687 29.4016 46.7127 29.0355 47.3069 28.8017C47.901 28.5679 48.4742 28.5338 49.0264 28.6994C49.5802 28.8613 50.0916 29.2114 50.5608 29.7497C51.0315 30.2843 51.4401 30.9919 51.7867 31.8725C52.1353 32.7584 52.3213 33.5581 52.3448 34.2718C52.3673 34.9828 52.2324 35.5857 51.9401 36.0805C51.6467 36.5727 51.2003 36.9368 50.6009 37.1727ZM50.2565 36.2974C50.8506 36.0636 51.1994 35.5955 51.3029 34.8932C51.4063 34.1908 51.2493 33.3092 50.8318 32.2482C50.5541 31.5427 50.2421 30.9716 49.8958 30.5351C49.5521 30.0976 49.1885 29.8042 48.805 29.6549C48.4243 29.5045 48.0376 29.5066 47.645 29.6611C47.0562 29.8928 46.7103 30.3643 46.6073 31.0756C46.5033 31.7843 46.6595 32.6678 47.076 33.7261C47.3536 34.4317 47.6638 35.0019 48.0064 35.4368C48.3491 35.8717 48.7103 36.163 49.0901 36.3107C49.4725 36.4573 49.8613 36.4529 50.2565 36.2974ZM54.5599 26.0762L57.7663 34.2244L56.7796 34.6127L53.9803 27.4989L53.9326 27.5177L52.463 29.6214L52.0685 28.6188L53.5732 26.4645L54.5599 26.0762Z" fill="#332B5F"/>
<path d="M100.44 39.5601C102.05 38.6201 103.48 38.0901 104.51 37.7901C106.44 37.2201 107.41 36.9301 108.58 37.2601C109.97 37.6501 110.2 38.4801 111.71 38.9101C112.89 39.2501 113.97 39.0801 114.66 38.9101" stroke="#1E0E00" stroke-width="0.5" stroke-miterlimit="10"/>
<path d="M135.62 101.67C137.72 96.4401 137.77 95.12 137.36 94.97C136.92 94.82 136.14 96.0501 134.87 96.0401C133.53 96.0401 132.61 94.65 132.42 94.37C131.77 93.4 131.8 92.59 131.49 92.58C131.07 92.56 130.63 94.0701 130.37 94.9801C128.54 101.28 128.36 100.8 127.73 103.95C127.53 104.95 127.28 106.33 127.08 108.01C127.47 109.35 128.66 110.31 130.05 110.4C131.34 110.48 132.58 109.81 133.25 108.68C134.04 106.34 134.84 104 135.63 101.66L135.62 101.67Z" fill="url(#paint13_linear_302_2387)"/>
<path d="M133.07 85.58C133.22 85.37 133.95 84.36 135.26 84.17C136.82 83.94 138.6 84.95 138.84 86.25C139.1 87.65 137.63 89.59 135.1 89.81C135.02 89.82 133.39 90 132.61 88.91C131.65 87.58 132.95 85.72 133.06 85.57L133.07 85.58Z" fill="url(#paint14_linear_302_2387)"/>
<path d="M140.89 86.85C141.08 86.63 142.74 84.73 144.29 85.39C145.3 85.82 145.73 87.13 145.63 88.12C145.48 89.76 143.89 90.88 142.46 91.01C142.29 91.03 140.6 91.16 139.97 90.11C139.21 88.84 140.71 87.04 140.88 86.84L140.89 86.85Z" fill="url(#paint15_linear_302_2387)"/>
<path d="M147.84 88.9801C147.98 88.7901 148.82 87.6001 150.12 87.7501C151.15 87.8601 151.9 88.7501 152.1 89.5801C152.49 91.2101 150.92 93.2101 149.34 93.0801C148.51 93.0101 147.76 92.3701 147.43 91.6001C146.89 90.3201 147.71 89.1601 147.84 88.9901V88.9801Z" fill="url(#paint16_linear_302_2387)"/>
<path d="M153.32 90.61C153.46 90.42 154.3 89.23 155.6 89.38C156.63 89.49 157.38 90.38 157.58 91.21C157.97 92.84 156.4 94.84 154.82 94.71C153.99 94.64 153.24 94 152.91 93.23C152.37 91.95 153.19 90.79 153.32 90.62V90.61Z" fill="url(#paint17_linear_302_2387)"/>
<path d="M196.8 153.45C180.57 156.83 164.33 160.22 148.1 163.6C149.17 139.83 150.23 116.05 151.3 92.28C167.26 94.68 183.22 97.09 199.18 99.49C198.39 117.48 197.6 135.46 196.81 153.45H196.8Z" fill="url(#paint18_linear_302_2387)" stroke="#1E0E00" stroke-width="0.5" stroke-miterlimit="10"/>
<path d="M171.97 113.971V134.56H169.476V116.585H169.356L164.329 119.923V117.389L169.476 113.971H171.97Z" fill="#C5007A"/>
<path d="M144.03 100.7C144.47 97.8699 145 95.2199 145.57 92.7799C144.51 94.0599 142.89 94.6699 141.34 94.3699C139.57 94.0299 138.66 92.6299 138.5 92.3799C138.53 94.4399 138.33 97.1899 137.42 100.28C136.92 101.97 136.31 103.42 135.71 104.64C135.69 105.11 135.69 106.49 136.65 107.63C137.52 108.67 138.67 108.9 140.05 109.17C141.32 109.42 141.91 109.23 142.24 109.07C142.67 108.87 142.96 108.58 143.14 108.37C143.33 105.97 143.62 103.4 144.04 100.7H144.03Z" fill="url(#paint19_linear_302_2387)"/>
<path d="M150.6 101.19C150.67 98.4299 150.73 95.6799 150.8 92.9199C150.74 93.0299 150.09 94.2199 148.8 94.3599C147.61 94.4899 146.4 93.6799 145.96 92.3699C145.64 94.9499 145.29 97.5899 144.88 100.27C144.64 101.88 144.39 103.46 144.13 105.03C144.09 105.25 143.85 106.58 144.73 107.77C145.7 109.09 147.24 109.16 147.51 109.16C149.09 109.2 150.1 108.19 150.26 108.01C150.38 105.74 150.49 103.46 150.61 101.19H150.6Z" fill="url(#paint20_linear_302_2387)"/>
<path d="M59.6 79.98C61.42 79.83 63.58 79.51 65.95 78.86C69.3 77.94 72.01 76.65 74.02 75.5C73.6 76.79 72.3 81.36 74.69 85.44C75.18 86.28 75.76 86.97 76.33 87.53C81.56 96.31 81.32 101.55 79.91 104.79C78.12 108.88 73.32 112.32 73.81 118.22C73.9 119.31 74.12 120.11 74.21 120.33C76.09 124.97 82.32 125.58 102.91 136.02C105.48 137.32 107.58 138.43 109 139.18C96.71 138.92 84.42 138.67 72.12 138.41C67.3 133.08 64.69 128.49 63.44 124.59C63.2 123.85 62.35 119.97 62.95 114.85C63.73 108.29 66.78 107.44 67.89 100.65C68.24 98.52 68.82 94.72 67.44 90.37C65.62 84.64 61.48 81.31 59.6 79.98Z" fill="url(#paint21_linear_302_2387)"/>
<path d="M74.63 120.57C76.14 122.04 74.86 125.91 77.69 127.88C77.91 128.03 79.3 129 81.01 128.81C83 128.58 83.35 127 85.26 126.82C86.75 126.68 88.5899 127.44 89.1099 128.81C89.6899 130.34 88.4 132.02 88.31 132.13C86.63 134.26 84.21 133.22 81.53 135.45C79.99 136.73 80.59 137.24 79.27 138.24C76.87 140.06 74.18 138.89 69.7 139.04C65.85 139.17 65.45 140.12 61.73 140.63C56.39 141.37 47.79 140.74 46.72 137.71C44.65 131.86 70.38 116.45 74.62 120.57H74.63Z" fill="url(#paint22_linear_302_2387)"/>
<path d="M39.5499 135.32C39.4999 130.75 40.4799 129.16 41.5399 128.68C42.2299 128.36 42.6599 128.53 43.3999 128.02C45.0399 126.88 44.2399 124.93 45.4799 123.76C47.1099 122.23 49.6699 124.46 51.8999 122.97C53.7399 121.74 52.7799 119.72 54.5199 118.53C56.6999 117.04 58.9099 119.74 62.6699 118.72C65.5699 117.93 65.8499 115.86 68.3799 115.53C70.7899 115.22 72.9899 116.71 74.4899 118.05C75.8199 125.89 77.1499 133.73 78.4799 141.57C78.3499 141.96 77.3799 144.69 75.8199 144.76C74.7799 144.81 73.9199 143.64 73.2999 142.63C69.0199 135.71 70.9799 128.33 66.3899 124.56C66.2499 124.44 64.1199 122.72 63.0699 123.36C62.6399 123.63 62.0999 124.48 63.0699 128.81C64.7799 136.43 68.0599 139.67 67.0599 144.09C66.6299 145.97 65.8499 146.27 65.6899 146.32C64.4299 146.74 62.8099 144.94 62.2999 144.38C60.4199 142.29 60.0599 140.31 59.1899 137.83C57.4899 132.94 55.1699 129.97 55.0999 130.01C54.9499 130.09 63.1399 143.17 60.0199 146.22C59.0299 147.19 57.1899 146.9 56.0299 146.62C49.5199 137.02 47.6999 134.19 47.7899 134.13C47.9299 134.03 53.3699 140.46 51.7799 143.56C51.2299 144.63 50.1899 145.15 50.1899 145.15C48.8599 145.82 47.4999 145.41 47.1299 145.28C44.6099 141.96 42.0799 138.64 39.5599 135.31L39.5499 135.32Z" fill="#F3D3C4" stroke="#1E0E00" stroke-width="0.5" stroke-miterlimit="10"/>
<path d="M63.84 79.8101C66.78 83.2101 73.08 91.4801 74.2 103.52C74.69 108.73 74.07 113.2 73.29 116.51" stroke="url(#paint23_linear_302_2387)" stroke-miterlimit="10" stroke-linecap="round"/>
<path d="M85.35 98.1299C87.51 105.55 89.49 114.58 90.5 124.97C90.99 130 91.19 134.72 91.2 139.07" stroke="url(#paint24_linear_302_2387)" stroke-miterlimit="10" stroke-linecap="round"/>
<path d="M101.58 110.51C102.18 120.03 102.77 129.55 103.37 139.07" stroke="url(#paint25_linear_302_2387)" stroke-miterlimit="10" stroke-linecap="round"/>
<path d="M128.84 135.65C130.23 132.65 131.66 128.97 132.77 124.66C133.86 120.44 134.39 116.62 134.63 113.41" stroke="url(#paint26_linear_302_2387)" stroke-miterlimit="10" stroke-linecap="round"/>
<path d="M126.05 76.77C122.4 84.6 118.14 96.08 116.39 110.48C115.12 120.92 115.53 130.03 116.38 137.12" stroke="url(#paint27_linear_302_2387)" stroke-miterlimit="10" stroke-linecap="round"/>
<path d="M64.8799 108.24C72.4299 111.45 85.4399 115.76 101.88 115.26C111.85 114.96 120.18 112.97 126.3 110.97" stroke="url(#paint28_linear_302_2387)" stroke-miterlimit="10" stroke-linecap="round"/>
<path d="M89.89 130.15C92.75 130.56 95.8099 130.87 99.0699 131C108.92 131.41 117.52 130.12 124.4 128.44" stroke="url(#paint29_linear_302_2387)" stroke-miterlimit="10" stroke-linecap="round"/>
<path d="M75.02 124.33C74.43 122.2 73.72 119.67 72.85 119.65C72.28 119.64 72.26 120.71 70.88 121.58C70.5 121.82 69.77 122.28 68.9 122.18C67.67 122.04 67.03 120.88 66.82 121.01C66.6 121.16 67.48 122.47 68.35 124.65C68.74 125.63 69.1 126.77 69.82 129.07C69.99 129.61 70.13 130.05 70.22 130.36C70.41 130.46 71.95 131.23 73.62 130.49C75.41 129.7 75.76 127.86 75.78 127.7C75.63 126.92 75.39 125.74 75 124.33H75.02Z" fill="url(#paint30_linear_302_2387)"/>
<path d="M61.79 126.36C61.17 124.13 60.43 121.47 59.51 121.45C58.91 121.44 58.9 122.56 57.45 123.47C57.05 123.72 56.29 124.2 55.38 124.1C54.09 123.95 53.41 122.73 53.2 122.88C52.96 123.04 53.86 124.45 54.81 126.7C55.67 128.74 55.72 129.47 56.64 131.13C57.11 131.98 57.57 132.64 57.88 133.06C58.28 133.14 59.28 133.29 60.34 132.82C62.14 132.02 62.56 130.12 62.61 129.89C62.46 129.07 62.2 127.84 61.79 126.36Z" fill="url(#paint31_linear_302_2387)"/>
<path d="M54.3599 129.48C53.3699 126.69 53.2499 124.57 52.5399 124.54C52.0099 124.52 51.8899 125.68 50.4399 126.65C50.0399 126.92 49.2799 127.43 48.3899 127.36C47.1199 127.26 46.7099 126.04 46.3099 126.22C45.6799 126.5 45.6099 129.93 47.3999 132.11C47.9199 132.74 48.4799 133.13 49.3499 134.36C49.8799 135.11 50.2499 135.78 50.4899 136.24C50.9999 136.29 51.8999 136.31 52.9099 135.9C54.8999 135.08 55.7399 133.24 55.9099 132.85C55.4999 132.13 54.9099 130.97 54.3799 129.48H54.3599Z" fill="url(#paint32_linear_302_2387)"/>
<path d="M46.4699 133.81C45.4099 131.87 45.3199 130.19 44.7799 130.18C44.3899 130.18 44.3799 131.07 43.3199 131.91C43.0299 132.14 42.4899 132.57 41.8099 132.58C40.8399 132.58 40.4599 131.68 40.1599 131.85C39.6199 132.15 40.8199 135.24 41.3499 136.24C41.6699 136.85 42.0499 137.33 42.0499 137.33C42.2399 137.57 42.3399 137.66 42.5399 137.89C42.7799 138.16 43.1099 138.57 43.4599 139.14C44.0299 138.98 44.7799 138.71 45.5599 138.22C46.7899 137.46 47.5399 136.52 47.9599 135.92C47.5599 135.49 46.9799 134.79 46.4599 133.82L46.4699 133.81Z" fill="url(#paint33_linear_302_2387)"/>
<path d="M66.1099 117.2C66.2599 116.99 66.9899 115.98 68.2999 115.79C69.8599 115.56 71.6399 116.57 71.8799 117.87C72.1399 119.27 70.67 121.21 68.14 121.43C68.06 121.44 66.4299 121.62 65.6499 120.53C64.6899 119.2 65.9899 117.34 66.0999 117.19L66.1099 117.2Z" fill="url(#paint34_linear_302_2387)"/>
<path d="M53.8599 151.38C51.8799 151.44 49.9099 151.51 47.9299 151.57C48.0599 150.01 48.1899 148.45 48.3199 146.9C49.7399 146.85 51.1599 146.79 52.5799 146.74C53.0099 148.29 53.4299 149.83 53.8599 151.38Z" fill="#3E3244" stroke="#1E0E00" stroke-width="0.5" stroke-miterlimit="10"/>
<path d="M53.8599 151.38C51.8799 151.44 49.9099 151.51 47.9299 151.57C47.9699 151.2 48.0099 150.83 48.0499 150.47C49.8399 150.43 51.6299 150.38 53.4099 150.34C53.5599 150.69 53.7099 151.03 53.8599 151.38Z" fill="#B333C1"/>
<path d="M63.78 151.58C61.8 151.64 59.83 151.71 57.85 151.77C57.98 150.21 58.11 148.65 58.24 147.1C59.66 147.05 61.08 146.99 62.5 146.94C62.93 148.49 63.35 150.03 63.78 151.58Z" fill="#3E3244" stroke="#1E0E00" stroke-width="0.5" stroke-miterlimit="10"/>
<path d="M63.78 151.58C61.8 151.64 59.83 151.71 57.85 151.77C57.89 151.4 57.93 151.03 57.97 150.67C59.76 150.63 61.55 150.58 63.33 150.54C63.48 150.89 63.63 151.23 63.78 151.58Z" fill="#B333C1"/>
<path d="M73.7 151.18C71.72 151.24 69.75 151.31 67.77 151.37C67.9 149.81 68.03 148.25 68.16 146.7C69.58 146.65 71 146.59 72.42 146.54C72.85 148.09 73.27 149.63 73.7 151.18Z" fill="#3E3244" stroke="#1E0E00" stroke-width="0.5" stroke-miterlimit="10"/>
<path d="M73.7 151.18C71.72 151.24 69.75 151.31 67.77 151.37C67.81 151 67.85 150.63 67.89 150.27C69.68 150.23 71.47 150.18 73.25 150.14C73.4 150.49 73.55 150.83 73.7 151.18Z" fill="#B333C1"/>
<path d="M72.5699 144.28C71.0299 144.33 69.49 144.38 67.95 144.43C68.05 143.22 68.1499 142 68.2599 140.79C69.3699 140.75 70.4699 140.71 71.5799 140.66C71.9099 141.87 72.2499 143.07 72.5799 144.28H72.5699Z" fill="#3E3244" stroke="#1E0E00" stroke-width="0.5" stroke-miterlimit="10"/>
<path d="M72.5699 144.28C71.0299 144.33 69.49 144.38 67.95 144.43C67.98 144.14 68.0099 143.86 68.0399 143.57C69.4299 143.54 70.8299 143.5 72.2199 143.47C72.3399 143.74 72.4499 144.01 72.5699 144.28Z" fill="#B333C1"/>
<path d="M74.5 160.04C65.7 160.13 56.9 160.5 48.1 160.58C47.37 160.58 46.81 159.91 46.97 159.19C47.18 158.23 47.39 157.27 47.59 156.31C47.7 155.79 48.16 155.42 48.69 155.41L73.46 155.07C73.95 155.07 74.39 155.37 74.55 155.84C74.88 156.77 75.22 157.62 75.55 158.51C75.83 159.25 75.28 160.04 74.49 160.05L74.5 160.04Z" fill="#515D6F" stroke="#1E0E00" stroke-width="0.5" stroke-miterlimit="10"/>
<path d="M107.64 37.18C108.52 37.11 109.19 37.4601 109.44 37.6101C109.53 37.8901 109.7 38.5701 109.41 39.3001C109.3 39.5701 109.11 40.0501 108.64 40.2501C107.97 40.5301 107.29 40.04 107.2 39.98C106.54 39.5 106.27 38.53 106.5 37.51C106.74 37.38 107.13 37.22 107.64 37.18Z" fill="#0F001C"/>
<path d="M65.7299 158.48C65.8099 158.48 65.8999 158.48 66.0299 158.47C66.2499 158.44 66.4499 158.35 66.6099 158.2C66.7899 158.03 66.9199 157.79 66.9699 157.47H66.9599C66.8099 157.66 66.5899 157.77 66.3099 157.77C65.8099 157.77 65.4999 157.4 65.4999 156.93C65.4999 156.41 65.8799 155.95 66.4399 155.95C66.9999 155.95 67.3499 156.41 67.3499 157.11C67.3499 157.72 67.1499 158.14 66.8799 158.4C66.6699 158.61 66.3799 158.73 66.0799 158.77C65.9399 158.79 65.8299 158.79 65.7399 158.79V158.48H65.7299ZM65.8699 156.89C65.8699 157.23 66.0799 157.47 66.3999 157.47C66.6499 157.47 66.8399 157.35 66.9399 157.18C66.9599 157.15 66.9699 157.1 66.9699 157.04C66.9699 156.57 66.7999 156.21 66.4099 156.21C66.0899 156.21 65.8699 156.49 65.8699 156.88V156.89Z" fill="black"/>
<path d="M67.8999 158.48C67.9799 158.48 68.0699 158.48 68.1999 158.47C68.4199 158.44 68.6199 158.35 68.7799 158.2C68.9599 158.03 69.0899 157.79 69.1399 157.47H69.1299C68.9799 157.66 68.7599 157.77 68.4799 157.77C67.9799 157.77 67.6699 157.4 67.6699 156.93C67.6699 156.41 68.0499 155.95 68.6099 155.95C69.1699 155.95 69.5199 156.41 69.5199 157.11C69.5199 157.72 69.3199 158.14 69.0499 158.4C68.8399 158.61 68.5499 158.73 68.2499 158.77C68.1099 158.79 67.9999 158.79 67.9099 158.79V158.48H67.8999ZM68.0399 156.89C68.0399 157.23 68.2499 157.47 68.5699 157.47C68.8199 157.47 69.0099 157.35 69.1099 157.18C69.1299 157.15 69.1399 157.1 69.1399 157.04C69.1399 156.57 68.9699 156.21 68.5799 156.21C68.2599 156.21 68.0399 156.49 68.0399 156.88V156.89Z" fill="black"/>
<path d="M70.07 158.48C70.15 158.48 70.24 158.48 70.37 158.47C70.59 158.44 70.79 158.35 70.95 158.2C71.13 158.03 71.26 157.79 71.31 157.47H71.3C71.15 157.66 70.93 157.77 70.65 157.77C70.15 157.77 69.84 157.4 69.84 156.93C69.84 156.41 70.22 155.95 70.78 155.95C71.34 155.95 71.69 156.41 71.69 157.11C71.69 157.72 71.49 158.14 71.22 158.4C71.01 158.61 70.72 158.73 70.42 158.77C70.28 158.79 70.17 158.79 70.08 158.79V158.48H70.07ZM70.21 156.89C70.21 157.23 70.42 157.47 70.74 157.47C70.99 157.47 71.18 157.35 71.28 157.18C71.3 157.15 71.31 157.1 71.31 157.04C71.31 156.57 71.14 156.21 70.75 156.21C70.43 156.21 70.21 156.49 70.21 156.88V156.89Z" fill="black"/>
<path d="M59.2199 158.57C59.2999 158.57 59.3899 158.57 59.5199 158.56C59.7399 158.53 59.9399 158.44 60.0999 158.29C60.2799 158.12 60.4099 157.88 60.4599 157.56H60.45C60.3 157.75 60.0799 157.86 59.7999 157.86C59.2999 157.86 58.9899 157.49 58.9899 157.02C58.9899 156.5 59.3699 156.04 59.9299 156.04C60.4899 156.04 60.8399 156.5 60.8399 157.2C60.8399 157.81 60.6399 158.23 60.3699 158.49C60.1599 158.7 59.8699 158.82 59.5699 158.86C59.4299 158.88 59.3199 158.88 59.2299 158.88V158.57H59.2199ZM59.3499 156.98C59.3499 157.32 59.5599 157.56 59.8799 157.56C60.1299 157.56 60.32 157.44 60.42 157.27C60.44 157.24 60.45 157.19 60.45 157.13C60.45 156.66 60.28 156.3 59.89 156.3C59.57 156.3 59.3499 156.58 59.3499 156.97V156.98Z" fill="black"/>
<path d="M61.3899 158.57C61.4699 158.57 61.5599 158.57 61.6899 158.56C61.9099 158.53 62.1099 158.44 62.2699 158.29C62.4499 158.12 62.5799 157.88 62.6299 157.56H62.6199C62.4699 157.75 62.2499 157.86 61.9699 157.86C61.4699 157.86 61.1599 157.49 61.1599 157.02C61.1599 156.5 61.5399 156.04 62.0999 156.04C62.6599 156.04 63.0099 156.5 63.0099 157.2C63.0099 157.81 62.8099 158.23 62.5399 158.49C62.3299 158.7 62.0399 158.82 61.7399 158.86C61.5999 158.88 61.4899 158.88 61.3999 158.88V158.57H61.3899ZM61.5199 156.98C61.5199 157.32 61.7299 157.56 62.0499 157.56C62.2999 157.56 62.4899 157.44 62.5899 157.27C62.6099 157.24 62.6199 157.19 62.6199 157.13C62.6199 156.66 62.4499 156.3 62.0599 156.3C61.7399 156.3 61.5199 156.58 61.5199 156.97V156.98Z" fill="black"/>
<path d="M63.56 158.57C63.64 158.57 63.73 158.57 63.86 158.56C64.08 158.53 64.28 158.44 64.44 158.29C64.62 158.12 64.75 157.88 64.8 157.56H64.79C64.64 157.75 64.42 157.86 64.14 157.86C63.64 157.86 63.33 157.49 63.33 157.02C63.33 156.5 63.71 156.04 64.27 156.04C64.83 156.04 65.18 156.5 65.18 157.2C65.18 157.81 64.98 158.23 64.71 158.49C64.5 158.7 64.21 158.82 63.91 158.86C63.77 158.88 63.66 158.88 63.57 158.88V158.57H63.56ZM63.7 156.98C63.7 157.32 63.91 157.56 64.23 157.56C64.48 157.56 64.67 157.44 64.77 157.27C64.79 157.24 64.8 157.19 64.8 157.13C64.8 156.66 64.63 156.3 64.24 156.3C63.92 156.3 63.7 156.58 63.7 156.97V156.98Z" fill="black"/>
<path d="M126.09 142.4L126.04 143.06C126.66 143.69 127.29 144.33 127.91 144.96C128.68 144.46 129.45 143.97 130.22 143.47C130.24 143.24 130.26 143.02 130.28 142.79C128.88 142.66 127.49 142.53 126.09 142.4Z" fill="#002096"/>
<path d="M127.95 144.15C127.36 143.57 126.76 142.98 126.17 142.4C126.83 142.09 127.48 141.78 128.14 141.46C128.83 141.88 129.51 142.3 130.2 142.72L127.95 144.15Z" fill="#5C637C"/>
<path d="M132.27 147.15L132.21 147.88C132.9 148.58 133.59 149.28 134.28 149.98C135.13 149.43 135.98 148.88 136.84 148.33C136.86 148.08 136.89 147.83 136.91 147.58C135.36 147.43 133.82 147.29 132.27 147.14V147.15Z" fill="#002096"/>
<path d="M134.34 149.08C133.68 148.43 133.02 147.79 132.37 147.14C133.1 146.79 133.82 146.45 134.55 146.1C135.31 146.56 136.07 147.03 136.83 147.49L134.34 149.07V149.08Z" fill="#5C637C"/>
<path d="M139.41 151.67L139.35 152.45C140.09 153.2 140.82 153.95 141.56 154.69C142.47 154.1 143.38 153.52 144.29 152.93C144.31 152.66 144.34 152.39 144.36 152.13C142.71 151.98 141.06 151.82 139.41 151.67Z" fill="#002096"/>
<path d="M141.62 153.73C140.92 153.04 140.22 152.35 139.51 151.66C140.29 151.29 141.06 150.92 141.84 150.55C142.65 151.04 143.46 151.54 144.27 152.03L141.62 153.72V153.73Z" fill="#5C637C"/>
<path d="M139.27 143.7L139.22 144.36C139.87 144.99 140.52 145.62 141.17 146.26C141.97 145.77 142.76 145.28 143.56 144.78C143.58 144.55 143.6 144.33 143.62 144.1C142.17 143.97 140.72 143.83 139.27 143.7Z" fill="#002096"/>
<path d="M141.21 145.44C140.59 144.86 139.97 144.27 139.35 143.69C140.03 143.38 140.71 143.07 141.39 142.76C142.1 143.18 142.82 143.6 143.53 144.02L141.21 145.44Z" fill="#5C637C"/>
<path d="M133.86 139.98L133.81 140.64C134.46 141.27 135.11 141.9 135.76 142.54C136.56 142.05 137.35 141.56 138.15 141.06C138.17 140.83 138.19 140.61 138.21 140.38C136.76 140.25 135.31 140.11 133.86 139.98Z" fill="#002096"/>
<path d="M135.8 141.73C135.18 141.15 134.56 140.56 133.94 139.98C134.62 139.67 135.3 139.36 135.98 139.05C136.69 139.47 137.41 139.89 138.12 140.31L135.8 141.73Z" fill="#5C637C"/>
<path d="M144.19 147.5L144.14 148.18C144.78 148.83 145.43 149.49 146.07 150.14C146.86 149.63 147.66 149.12 148.45 148.61C148.47 148.38 148.49 148.14 148.52 147.91C147.08 147.77 145.64 147.64 144.2 147.5H144.19Z" fill="#002096"/>
<path d="M146.12 149.3C145.51 148.7 144.89 148.1 144.28 147.49C144.96 147.17 145.64 146.85 146.31 146.52C147.02 146.95 147.73 147.38 148.44 147.82L146.12 149.3Z" fill="#5C637C"/>
<path d="M144.35 140.81L144.3 141.43C144.91 142.02 145.53 142.62 146.14 143.21C146.89 142.75 147.64 142.28 148.4 141.82C148.42 141.61 148.44 141.4 148.46 141.18C147.09 141.05 145.72 140.93 144.35 140.8V140.81Z" fill="#002096"/>
<path d="M146.19 142.45C145.61 141.9 145.02 141.35 144.44 140.8C145.08 140.51 145.72 140.22 146.37 139.93C147.04 140.32 147.72 140.72 148.39 141.11L146.2 142.44L146.19 142.45Z" fill="#5C637C"/>
<path d="M141.05 137.53L141.02 138.09C141.61 138.62 142.19 139.14 142.78 139.67C143.47 139.24 144.16 138.8 144.85 138.37C144.86 138.18 144.88 137.99 144.89 137.79C143.61 137.7 142.33 137.62 141.05 137.53Z" fill="#002096"/>
<path d="M142.81 138.98C142.25 138.5 141.69 138.01 141.13 137.53C141.72 137.25 142.31 136.98 142.91 136.7C143.55 137.04 144.19 137.39 144.83 137.73L142.81 138.98Z" fill="#5C637C"/>
<path d="M187.244 126.225H185.735C185.646 125.791 185.49 125.41 185.267 125.081C185.048 124.753 184.78 124.477 184.464 124.254C184.152 124.027 183.805 123.856 183.424 123.743C183.042 123.629 182.645 123.572 182.231 123.572C181.477 123.572 180.794 123.763 180.181 124.144C179.573 124.525 179.088 125.087 178.727 125.829C178.37 126.571 178.192 127.482 178.192 128.561C178.192 129.639 178.37 130.55 178.727 131.292C179.088 132.034 179.573 132.596 180.181 132.977C180.794 133.358 181.477 133.549 182.231 133.549C182.645 133.549 183.042 133.492 183.424 133.379C183.805 133.265 184.152 133.097 184.464 132.874C184.78 132.647 185.048 132.369 185.267 132.04C185.49 131.708 185.646 131.327 185.735 130.897H187.244C187.13 131.533 186.924 132.103 186.623 132.606C186.323 133.109 185.95 133.537 185.504 133.89C185.058 134.238 184.557 134.504 184.002 134.687C183.45 134.869 182.86 134.96 182.231 134.96C181.169 134.96 180.224 134.701 179.396 134.182C178.569 133.663 177.918 132.924 177.444 131.967C176.969 131.01 176.732 129.875 176.732 128.561C176.732 127.247 176.969 126.111 177.444 125.154C177.918 124.197 178.569 123.459 179.396 122.94C180.224 122.421 181.169 122.161 182.231 122.161C182.86 122.161 183.45 122.252 184.002 122.435C184.557 122.617 185.058 122.885 185.504 123.238C185.95 123.587 186.323 124.012 186.623 124.515C186.924 125.014 187.13 125.584 187.244 126.225Z" fill="#C5007A"/>
<path d="M148.01 163.61C135.13 155.99 122.24 148.37 109.36 140.75C109.24 140.23 109.12 139.7 109 139.18C122.05 146.67 135.1 154.15 148.14 161.64C148.1 162.3 148.05 162.95 148.01 163.61Z" fill="#2F3844" stroke="#1E0E00" stroke-width="0.5" stroke-miterlimit="10"/>
<path d="M57.9999 80.8C59.4299 79.9 67.9499 87.17 67.9899 95.32C68.0099 98.06 67.0699 101.25 66.8699 101.92C65.9499 105.05 64.9999 106.24 63.9799 108.82C63.1499 110.91 62.2099 114.06 62.0399 118.34C58.7499 118.66 57.2799 117.82 56.5499 116.99C53.0199 112.99 62.2199 104.18 60.6899 91.12C59.9399 84.69 57.0699 81.39 57.9999 80.81V80.8Z" fill="url(#paint35_linear_302_2387)"/>
<path d="M73.58 139.96C73.84 140.07 74.6 140.34 75.52 140.11C76.16 139.95 76.6 139.61 76.82 139.41C77.68 141.53 77.74 143.25 77.67 144.34C77.63 144.96 77.5 146.79 76.82 146.93C76.22 147.06 75.49 145.81 75.13 145.19C74.53 144.16 73.76 142.46 73.59 139.96H73.58Z" fill="#79B8F2"/>
<path d="M62.6099 142.29C62.8899 142.36 63.6699 142.53 64.5499 142.17C65.1699 141.92 65.5499 141.52 65.7399 141.3C66.8899 143.28 67.1799 144.97 67.2599 146.07C67.2999 146.69 67.4299 148.52 66.7799 148.75C66.2099 148.96 65.3099 147.82 64.8599 147.26C64.1199 146.33 63.1299 144.75 62.6099 142.29Z" fill="#79B8F2"/>
<path d="M55.89 143.73C56.17 143.77 56.9599 143.83 57.8099 143.43C58.4099 143.15 58.7699 142.76 58.9399 142.55C60.1899 144.17 60.5899 145.63 60.7199 146.59C60.7999 147.13 61.0299 148.72 60.3999 149C59.8399 149.24 58.8899 148.33 58.4099 147.88C57.6199 147.13 56.55 145.84 55.89 143.74V143.73Z" fill="#79B8F2"/>
<path d="M46.9399 142.1C47.2199 142.12 48.0199 142.14 48.8399 141.68C49.4199 141.36 49.7499 140.95 49.9099 140.72C51.2699 142.28 51.7599 143.73 51.9599 144.69C52.0699 145.23 52.4099 146.82 51.7999 147.14C51.2599 147.42 50.2399 146.56 49.7399 146.13C48.9099 145.43 47.7399 144.19 46.9399 142.11V142.1Z" fill="#79B8F2"/>
<path d="M126.38 119.61C126.58 119.81 127.16 120.37 128.1 120.52C128.76 120.63 129.29 120.49 129.57 120.39C129.52 122.68 128.89 124.28 128.39 125.25C128.1 125.8 127.26 127.43 126.58 127.29C125.98 127.17 125.81 125.74 125.72 125.02C125.58 123.84 125.55 121.97 126.38 119.61Z" fill="#79B8F2"/>
<g filter="url(#filter2_d_302_2387)">
<path d="M151.306 92.5526L150.147 92.4985L146.963 160.764L148.122 160.818L151.306 92.5526Z" fill="url(#paint36_linear_302_2387)"/>
</g>
</g>
<defs>
<filter id="filter0_d_302_2387" x="92.4199" y="50.77" width="11.7558" height="5.20347" filterUnits="userSpaceOnUse" color-interpolation-filters="sRGB">
<feFlood flood-opacity="0" result="BackgroundImageFix"/>
<feColorMatrix in="SourceAlpha" type="matrix" values="0 0 0 0 0 0 0 0 0 0 0 0 0 0 0 0 0 0 127 0" result="hardAlpha"/>
<feOffset/>
<feGaussianBlur stdDeviation="0.85"/>
<feColorMatrix type="matrix" values="0 0 0 0 0.917647 0 0 0 0 0.545098 0 0 0 0 0.545098 0 0 0 1 0"/>
<feBlend mode="normal" in2="BackgroundImageFix" result="effect1_dropShadow_302_2387"/>
<feBlend mode="normal" in="SourceGraphic" in2="effect1_dropShadow_302_2387" result="shape"/>
</filter>
<filter id="filter1_d_302_2387" x="91.9099" y="54.1899" width="11.72" height="5.96421" filterUnits="userSpaceOnUse" color-interpolation-filters="sRGB">
<feFlood flood-opacity="0" result="BackgroundImageFix"/>
<feColorMatrix in="SourceAlpha" type="matrix" values="0 0 0 0 0 0 0 0 0 0 0 0 0 0 0 0 0 0 127 0" result="hardAlpha"/>
<feOffset/>
<feGaussianBlur stdDeviation="0.85"/>
<feColorMatrix type="matrix" values="0 0 0 0 0.917647 0 0 0 0 0.545098 0 0 0 0 0.545098 0 0 0 1 0"/>
<feBlend mode="normal" in2="BackgroundImageFix" result="effect1_dropShadow_302_2387"/>
<feBlend mode="normal" in="SourceGraphic" in2="effect1_dropShadow_302_2387" result="shape"/>
</filter>
<filter id="filter2_d_302_2387" x="143.003" y="88.5385" width="12.2623" height="76.2398" filterUnits="userSpaceOnUse" color-interpolation-filters="sRGB">
<feFlood flood-opacity="0" result="BackgroundImageFix"/>
<feColorMatrix in="SourceAlpha" type="matrix" values="0 0 0 0 0 0 0 0 0 0 0 0 0 0 0 0 0 0 127 0" result="hardAlpha"/>
<feOffset/>
<feGaussianBlur stdDeviation="1.98"/>
<feColorMatrix type="matrix" values="0 0 0 0 0.921569 0 0 0 0 0.2 0 0 0 0 1 0 0 0 1 0"/>
<feBlend mode="normal" in2="BackgroundImageFix" result="effect1_dropShadow_302_2387"/>
<feBlend mode="normal" in="SourceGraphic" in2="effect1_dropShadow_302_2387" result="shape"/>
</filter>
<linearGradient id="paint0_linear_302_2387" x1="92.7799" y1="87.4" x2="92.7799" y2="9.59002" gradientUnits="userSpaceOnUse">
<stop stop-color="#D94EF4"/>
<stop offset="0.03" stop-color="#D04AE9"/>
<stop offset="0.08" stop-color="#BB3FCD"/>
<stop offset="0.14" stop-color="#972F9F"/>
<stop offset="0.21" stop-color="#671860"/>
<stop offset="0.28" stop-color="#34001E"/>
<stop offset="0.55" stop-color="#100007"/>
</linearGradient>
<linearGradient id="paint1_linear_302_2387" x1="86.12" y1="65.5699" x2="99.77" y2="51.9299" gradientUnits="userSpaceOnUse">
<stop offset="0.14" stop-color="#C9A8A0"/>
<stop offset="0.26" stop-color="#BE9F99"/>
<stop offset="0.46" stop-color="#A28886"/>
<stop offset="0.73" stop-color="#756268"/>
<stop offset="0.78" stop-color="#6B5A62"/>
</linearGradient>
<linearGradient id="paint2_linear_302_2387" x1="98.2999" y1="54.28" x2="98.2999" y2="52.48" gradientUnits="userSpaceOnUse">
<stop stop-color="#DE3556" stop-opacity="0.78"/>
<stop offset="1" stop-color="#F3D3C4"/>
</linearGradient>
<linearGradient id="paint3_linear_302_2387" x1="97.7599" y1="58.4599" x2="97.7599" y2="55.8899" gradientUnits="userSpaceOnUse">
<stop stop-color="#DE3556" stop-opacity="0.78"/>
<stop offset="0.9" stop-color="#F3D3C4"/>
</linearGradient>
<linearGradient id="paint4_linear_302_2387" x1="98.5" y1="42.2399" x2="101.32" y2="42.2399" gradientUnits="userSpaceOnUse">
<stop stop-color="#E1B39A"/>
<stop offset="0.14" stop-color="#D6A993"/>
<stop offset="0.39" stop-color="#BA8F82"/>
<stop offset="0.48" stop-color="#B0867C"/>
</linearGradient>
<linearGradient id="paint5_linear_302_2387" x1="95.5499" y1="47.01" x2="100.63" y2="47.01" gradientUnits="userSpaceOnUse">
<stop offset="0.14" stop-color="#F3D3C4"/>
<stop offset="0.31" stop-color="#EEC8BA"/>
<stop offset="0.59" stop-color="#E2AC9F"/>
<stop offset="0.78" stop-color="#DA978B"/>
</linearGradient>
<linearGradient id="paint6_linear_302_2387" x1="94.7799" y1="49.09" x2="97.3999" y2="49.09" gradientUnits="userSpaceOnUse">
<stop stop-color="#E1B39A"/>
<stop offset="0.14" stop-color="#D6A993"/>
<stop offset="0.39" stop-color="#BA8F82"/>
<stop offset="0.48" stop-color="#B0867C"/>
</linearGradient>
<linearGradient id="paint7_linear_302_2387" x1="104.24" y1="39.5299" x2="110.75" y2="39.5299" gradientUnits="userSpaceOnUse">
<stop offset="0.14" stop-color="#00DBB4"/>
<stop offset="0.23" stop-color="#00D0AB"/>
<stop offset="0.37" stop-color="#00B495"/>
<stop offset="0.57" stop-color="#008671"/>
<stop offset="0.8" stop-color="#004840"/>
<stop offset="0.83" stop-color="#003D38"/>
</linearGradient>
<linearGradient id="paint8_linear_302_2387" x1="100.92" y1="35.7701" x2="113.82" y2="35.7701" gradientUnits="userSpaceOnUse">
<stop offset="0.14" stop-color="#FBE2D2"/>
<stop offset="0.23" stop-color="#F2D7C8"/>
<stop offset="0.38" stop-color="#DBBBAD"/>
<stop offset="0.58" stop-color="#B68E83"/>
<stop offset="0.61" stop-color="#B0867C"/>
<stop offset="0.94" stop-color="#6B5A62"/>
</linearGradient>
<linearGradient id="paint9_linear_302_2387" x1="82.83" y1="36.45" x2="93.94" y2="36.45" gradientUnits="userSpaceOnUse">
<stop offset="0.14" stop-color="#FBE2D2"/>
<stop offset="0.23" stop-color="#F2D7C8"/>
<stop offset="0.38" stop-color="#DBBBAD"/>
<stop offset="0.58" stop-color="#B68E83"/>
<stop offset="0.61" stop-color="#B0867C"/>
<stop offset="0.94" stop-color="#6B5A62"/>
</linearGradient>
<linearGradient id="paint10_linear_302_2387" x1="106.31" y1="42.6" x2="106.31" y2="11.78" gradientUnits="userSpaceOnUse">
<stop stop-color="#D94EF4"/>
<stop offset="0.06" stop-color="#D04AE9"/>
<stop offset="0.17" stop-color="#BB3FCD"/>
<stop offset="0.31" stop-color="#972F9F"/>
<stop offset="0.48" stop-color="#671860"/>
<stop offset="0.64" stop-color="#34001E"/>
<stop offset="0.95" stop-color="#100007"/>
</linearGradient>
<linearGradient id="paint11_linear_302_2387" x1="98.81" y1="97.6201" x2="98.81" y2="74.6701" gradientUnits="userSpaceOnUse">
<stop offset="0.14" stop-color="#B0EEF8"/>
<stop offset="0.19" stop-color="#A5E6F0"/>
<stop offset="0.28" stop-color="#89D3DC"/>
<stop offset="0.41" stop-color="#5BB3BC"/>
<stop offset="0.55" stop-color="#1D8791"/>
<stop offset="0.6" stop-color="#067881"/>
</linearGradient>
<linearGradient id="paint12_linear_302_2387" x1="75.2499" y1="68.8099" x2="75.2499" y2="13.8999" gradientUnits="userSpaceOnUse">
<stop offset="0.09" stop-color="#D94EF4"/>
<stop offset="0.15" stop-color="#D04AE9"/>
<stop offset="0.24" stop-color="#BB3FCD"/>
<stop offset="0.36" stop-color="#972F9F"/>
<stop offset="0.51" stop-color="#671860"/>
<stop offset="0.64" stop-color="#34001E"/>
<stop offset="0.95" stop-color="#140009"/>
</linearGradient>
<linearGradient id="paint13_linear_302_2387" x1="130.016" y1="93.389" x2="136.354" y2="108.341" gradientUnits="userSpaceOnUse">
<stop offset="0.26" stop-color="#F3D3C4"/>
<stop offset="0.41" stop-color="#EAC8BA"/>
<stop offset="0.69" stop-color="#D4ACA2"/>
<stop offset="0.79" stop-color="#CBA097"/>
<stop offset="1" stop-color="#CD9994"/>
</linearGradient>
<linearGradient id="paint14_linear_302_2387" x1="135.57" y1="89.83" x2="135.57" y2="84.13" gradientUnits="userSpaceOnUse">
<stop offset="0.14" stop-color="#F3D3C4"/>
<stop offset="0.34" stop-color="#F3C8BB"/>
<stop offset="0.68" stop-color="#F4ACA3"/>
<stop offset="0.75" stop-color="#F5A69E"/>
<stop offset="0.97" stop-color="#DA978B"/>
</linearGradient>
<linearGradient id="paint15_linear_302_2387" x1="142.71" y1="91.03" x2="142.71" y2="85.25" gradientUnits="userSpaceOnUse">
<stop offset="0.14" stop-color="#F3D3C4"/>
<stop offset="0.34" stop-color="#F3C8BB"/>
<stop offset="0.68" stop-color="#F4ACA3"/>
<stop offset="0.75" stop-color="#F5A69E"/>
<stop offset="0.97" stop-color="#DA978B"/>
</linearGradient>
<linearGradient id="paint16_linear_302_2387" x1="149.7" y1="93.0801" x2="149.7" y2="87.7301" gradientUnits="userSpaceOnUse">
<stop offset="0.14" stop-color="#F3D3C4"/>
<stop offset="0.34" stop-color="#F3C8BB"/>
<stop offset="0.68" stop-color="#F4ACA3"/>
<stop offset="0.75" stop-color="#F5A69E"/>
<stop offset="0.97" stop-color="#DA978B"/>
</linearGradient>
<linearGradient id="paint17_linear_302_2387" x1="155.19" y1="94.72" x2="155.19" y2="89.37" gradientUnits="userSpaceOnUse">
<stop offset="0.14" stop-color="#F3D3C4"/>
<stop offset="0.34" stop-color="#F3C8BB"/>
<stop offset="0.68" stop-color="#F4ACA3"/>
<stop offset="0.75" stop-color="#F5A69E"/>
<stop offset="0.97" stop-color="#DA978B"/>
</linearGradient>
<linearGradient id="paint18_linear_302_2387" x1="173.64" y1="163.61" x2="173.64" y2="92.28" gradientUnits="userSpaceOnUse">
<stop offset="0.09" stop-color="#44505E"/>
<stop offset="0.49" stop-color="#5C637C"/>
</linearGradient>
<linearGradient id="paint19_linear_302_2387" x1="137.9" y1="89.6057" x2="144.441" y2="105.067" gradientUnits="userSpaceOnUse">
<stop offset="0.26" stop-color="#F3D3C4"/>
<stop offset="0.47" stop-color="#EAC8BA"/>
<stop offset="0.84" stop-color="#D4ACA2"/>
<stop offset="0.99" stop-color="#CBA097"/>
</linearGradient>
<linearGradient id="paint20_linear_302_2387" x1="144.662" y1="89.9212" x2="151.028" y2="104.968" gradientUnits="userSpaceOnUse">
<stop offset="0.26" stop-color="#F3D3C4"/>
<stop offset="0.47" stop-color="#EAC8BA"/>
<stop offset="0.84" stop-color="#D4ACA2"/>
<stop offset="0.99" stop-color="#CBA097"/>
</linearGradient>
<linearGradient id="paint21_linear_302_2387" x1="59.6" y1="107.33" x2="109" y2="107.33" gradientUnits="userSpaceOnUse">
<stop/>
<stop offset="0.39" stop-color="#011242"/>
</linearGradient>
<linearGradient id="paint22_linear_302_2387" x1="46.61" y1="130.4" x2="89.2599" y2="130.4" gradientUnits="userSpaceOnUse">
<stop offset="0.14" stop-color="#FBE2D2"/>
<stop offset="0.3" stop-color="#F4D7C8"/>
<stop offset="0.58" stop-color="#E4BBAD"/>
<stop offset="0.78" stop-color="#D7A497"/>
</linearGradient>
<linearGradient id="paint23_linear_302_2387" x1="69.1" y1="117.01" x2="69.1" y2="79.3101" gradientUnits="userSpaceOnUse">
<stop offset="0.32" stop-color="#001147"/>
<stop offset="0.93" stop-color="#FF03E9"/>
</linearGradient>
<linearGradient id="paint24_linear_302_2387" x1="88.28" y1="139.57" x2="88.28" y2="97.6299" gradientUnits="userSpaceOnUse">
<stop offset="0.32" stop-color="#001147"/>
<stop offset="0.93" stop-color="#FF03E9"/>
</linearGradient>
<linearGradient id="paint25_linear_302_2387" x1="102.48" y1="139.57" x2="102.48" y2="110.01" gradientUnits="userSpaceOnUse">
<stop offset="0.32" stop-color="#001147"/>
<stop offset="0.93" stop-color="#FF03E9"/>
</linearGradient>
<linearGradient id="paint26_linear_302_2387" x1="126.384" y1="121.023" x2="120.467" y2="120.85" gradientUnits="userSpaceOnUse">
<stop offset="0.32" stop-color="#001147"/>
<stop offset="0.93" stop-color="#FF03E9"/>
</linearGradient>
<linearGradient id="paint27_linear_302_2387" x1="115.09" y1="106.95" x2="126.55" y2="106.95" gradientUnits="userSpaceOnUse">
<stop offset="0.05" stop-color="#001147"/>
<stop offset="0.67" stop-color="#FF03E9"/>
</linearGradient>
<linearGradient id="paint28_linear_302_2387" x1="95.5899" y1="115.8" x2="95.5899" y2="107.74" gradientUnits="userSpaceOnUse">
<stop offset="0.32" stop-color="#001147"/>
<stop offset="0.93" stop-color="#FF03E9"/>
</linearGradient>
<linearGradient id="paint29_linear_302_2387" x1="89.39" y1="129.76" x2="124.9" y2="129.76" gradientUnits="userSpaceOnUse">
<stop offset="0.32" stop-color="#001147"/>
<stop offset="0.93" stop-color="#FF03E9"/>
</linearGradient>
<linearGradient id="paint30_linear_302_2387" x1="65.4066" y1="118.737" x2="74.8084" y2="125.404" gradientUnits="userSpaceOnUse">
<stop offset="0.26" stop-color="#F3D3C4"/>
<stop offset="0.41" stop-color="#EAC8BA"/>
<stop offset="0.69" stop-color="#D4ACA2"/>
<stop offset="0.79" stop-color="#CBA097"/>
<stop offset="1" stop-color="#CD9994"/>
</linearGradient>
<linearGradient id="paint31_linear_302_2387" x1="50.6136" y1="120.399" x2="60.4303" y2="127.36" gradientUnits="userSpaceOnUse">
<stop offset="0.26" stop-color="#F3D3C4"/>
<stop offset="0.47" stop-color="#EAC8BA"/>
<stop offset="0.84" stop-color="#D4ACA2"/>
<stop offset="0.99" stop-color="#CBA097"/>
</linearGradient>
<linearGradient id="paint32_linear_302_2387" x1="45.7162" y1="127.594" x2="55.4154" y2="134.441" gradientUnits="userSpaceOnUse">
<stop offset="0.26" stop-color="#F3D3C4"/>
<stop offset="0.47" stop-color="#EAC8BA"/>
<stop offset="0.84" stop-color="#D4ACA2"/>
<stop offset="0.99" stop-color="#CBA097"/>
</linearGradient>
<linearGradient id="paint33_linear_302_2387" x1="39.4982" y1="131.719" x2="47.0568" y2="136.18" gradientUnits="userSpaceOnUse">
<stop offset="0.26" stop-color="#F3D3C4"/>
<stop offset="0.47" stop-color="#EAC8BA"/>
<stop offset="0.84" stop-color="#D4ACA2"/>
<stop offset="0.99" stop-color="#CBA097"/>
</linearGradient>
<linearGradient id="paint34_linear_302_2387" x1="68.6099" y1="121.45" x2="68.6099" y2="115.75" gradientUnits="userSpaceOnUse">
<stop offset="0.14" stop-color="#F3D3C4"/>
<stop offset="0.34" stop-color="#F3C8BB"/>
<stop offset="0.68" stop-color="#F4ACA3"/>
<stop offset="0.75" stop-color="#F5A69E"/>
<stop offset="0.97" stop-color="#DA978B"/>
</linearGradient>
<linearGradient id="paint35_linear_302_2387" x1="61.8699" y1="80.73" x2="61.8699" y2="118.41" gradientUnits="userSpaceOnUse">
<stop offset="0.14" stop-color="#B0EEF8"/>
<stop offset="0.22" stop-color="#A7E8F2" stop-opacity="0.96"/>
<stop offset="0.36" stop-color="#92D9E3" stop-opacity="0.86"/>
<stop offset="0.55" stop-color="#6FC1CA" stop-opacity="0.7"/>
<stop offset="0.77" stop-color="#3E9FA8" stop-opacity="0.47"/>
<stop offset="1" stop-color="#067881" stop-opacity="0.2"/>
</linearGradient>
<linearGradient id="paint36_linear_302_2387" x1="146.924" y1="126.691" x2="151.274" y2="126.691" gradientUnits="userSpaceOnUse">
<stop offset="0.09" stop-color="#44505E"/>
<stop offset="0.49" stop-color="#5C637C"/>
</linearGradient>
<clipPath id="clip0_302_2387">
<rect width="198.47" height="166.64" fill="white" transform="translate(0.709961 0.47998)"/>
</clipPath>
</defs>
</svg>
