<svg width="177" height="162" viewBox="0 0 177 162" fill="none" xmlns="http://www.w3.org/2000/svg">
<g clip-path="url(#clip0_302_2630)">
<path d="M23.82 108.96C36.4397 108.96 46.67 98.7297 46.67 86.11C46.67 73.4903 36.4397 63.26 23.82 63.26C11.2003 63.26 0.969971 73.4903 0.969971 86.11C0.969971 98.7297 11.2003 108.96 23.82 108.96Z" fill="url(#paint0_linear_302_2630)"/>
<g opacity="0.5">
<path d="M23.5999 63.25C21.9199 63.25 20.2799 63.44 18.6899 63.78V91.58H45.7799C46.2099 89.82 46.45 87.99 46.45 86.1C46.45 73.48 36.2199 63.25 23.5999 63.25Z" fill="#001147"/>
<path d="M23.5999 63.25C21.9199 63.25 20.2799 63.44 18.6899 63.78V91.58H45.7799C46.2099 89.82 46.45 87.99 46.45 86.1C46.45 73.48 36.2199 63.25 23.5999 63.25Z" fill="url(#paint1_linear_302_2630)"/>
</g>
<path d="M59.28 54.0801H18.08V91.5901H59.28V54.0801Z" stroke="url(#paint2_linear_302_2630)" stroke-width="2" stroke-linecap="round" stroke-linejoin="round"/>
<path d="M101.42 37.51L106.24 36.93L108.98 70.7L104.16 71.28L101.42 37.51ZM106.63 66.42C109.37 66.1 112.1 65.77 114.84 65.45C117.38 65.14 119.29 64.26 120.58 62.8C121.87 61.34 122.42 59.43 122.23 57.08L121.42 47.14C121.23 44.79 120.38 43.05 118.89 41.92C117.39 40.8 115.37 40.39 112.84 40.69C110.03 41.09 107.23 41.5 104.42 41.9C104.51 40.31 104.61 38.71 104.7 37.12L112.33 36.2C115.09 35.87 117.48 36.06 119.51 36.77C121.54 37.48 123.14 38.68 124.31 40.37C125.48 42.06 126.17 44.18 126.38 46.74L127.16 56.31C127.37 58.86 127.03 61.11 126.15 63.05C125.27 64.98 123.89 66.54 122.01 67.72C120.13 68.9 117.8 69.66 115.05 69.99L107.44 70.91C107.17 69.42 106.91 67.93 106.64 66.44L106.63 66.42Z" fill="#007EC3"/>
<path d="M98.98 37.71L103.8 37.13L106.54 70.9L101.72 71.48L98.98 37.71ZM104.61 66.58L112.39 65.64C114.93 65.33 116.84 64.45 118.13 62.99C119.42 61.53 119.97 59.62 119.78 57.27L118.97 47.33C118.78 44.98 117.93 43.24 116.44 42.11C114.94 40.99 112.92 40.58 110.39 40.88L102.61 41.82L102.25 37.31L109.88 36.39C112.64 36.06 115.03 36.25 117.06 36.96C119.09 37.67 120.69 38.87 121.86 40.56C123.03 42.25 123.72 44.37 123.93 46.93L124.71 56.5C124.92 59.05 124.58 61.3 123.7 63.24C122.82 65.17 121.44 66.73 119.56 67.91C117.68 69.09 115.35 69.85 112.6 70.18L104.99 71.1L104.62 66.59L104.61 66.58Z" fill="#4DC8FF"/>
<path d="M86.37 9.32993C86.76 9.12993 89.97 14.0099 91.34 16.9699C94.8 24.4499 91.98 31.4999 89.93 40.4999C85.14 61.6399 88 78.7499 86.35 78.7999C85.99 78.7999 85.63 78.0199 85.13 76.0599C82.31 65.0399 84.9599 55.22 86.9899 43.92C87.6499 40.22 88.57 34.56 89.32 27.48C89.24 19.21 88.09 14.4099 86.98 11.4999C86.75 10.8999 86.17 9.43993 86.37 9.32993Z" fill="#0C0500" stroke="#1E0E00" stroke-width="0.5" stroke-miterlimit="10"/>
<path d="M70.12 10.11C71.12 10.9 68.04 16.23 66.49 19.22C63.42 25.11 62.04 30.63 59.28 41.68C53.68 64.09 59.28 84.69 57.42 84.98C56.8 85.08 55.97 82.76 55.74 82.1C51.36 69.64 53.05 55.54 57.79 30.8C57.79 30.8 60.63 15.97 67.7 11.03C68.19 10.68 69.6 9.7 70.12 10.11Z" fill="#0C0500" stroke="#1E0E00" stroke-width="0.5" stroke-miterlimit="10"/>
<path d="M89.46 29.2799C90.92 29.2199 93.7 47.1199 91.94 63.5099C91.82 64.6699 91.22 70.2499 90.7 70.2299C90.38 70.2199 90.21 68.1199 89.98 63.7199C88.93 44.0599 89.89 40.0399 88.84 36.42C88.71 35.99 88.15 34.1499 88.53 31.8699C88.6 31.4499 88.96 29.2999 89.46 29.2799Z" fill="#0C0500" stroke="#1E0E00" stroke-width="0.5" stroke-miterlimit="10"/>
<path d="M62.19 10.4199C63.04 11.5999 58.98 15.6599 56.71 18.3799C51.95 24.0699 50.28 29.5099 47.2 39.5799C40.39 61.7999 43.76 82.4599 41.93 82.5999C41.31 82.6499 40.66 80.2799 40.48 79.5999C36.97 66.3599 39.36 49.7499 46.58 28.6199C48.39 23.3199 52.15 12.9399 58.89 10.6299C59.42 10.4499 61.66 9.67995 62.2 10.4199H62.19Z" fill="#0C0500" stroke="#1E0E00" stroke-width="0.5" stroke-miterlimit="10"/>
<path d="M29.41 90.2499C36.38 93.2499 50.57 100.52 61.31 115.84C67.13 124.13 70.09 132.16 71.68 138.02C91.78 141.9 111.88 145.78 131.98 149.65C140.96 129.9 139.31 117.98 135.96 110.66C133.58 105.48 130.87 103.75 125.91 93.2899C121.08 83.0999 121.09 79.3399 116.82 74.6799C113.74 71.3199 108.39 67.4299 98.48 65.6799C93.58 65.9299 88.35 66.47 82.86 67.45C59.3 71.62 41.3 81.7599 29.42 90.2499H29.41Z" fill="#8B76F5"/>
<path d="M58.77 98.6001C58.77 98.6001 59.06 101.83 60.6 106.3C62.49 111.77 64.18 112.89 67.12 119.09C70.7 126.63 69.42 127.53 71.63 129.43C75.2 132.49 78.1 129.8 88.09 131.32C97.66 132.78 97.87 135.21 104.69 134.82C111.49 134.42 114.91 131.56 117.12 133.52C119.06 135.24 118.83 139.59 117.24 142.5C111.34 153.31 81.79 153.37 74.11 141.96C74 141.8 72.45 138.49 69.41 131.88C64.2 120.56 64.38 121.07 63.94 119.98C59.33 108.64 58.71 98.6201 58.77 98.6101V98.6001Z" fill="url(#paint3_linear_302_2630)"/>
<path d="M52.5799 72.76C50.2199 73.37 34.04 77.8 28.54 91.84C26.72 96.48 26.6499 100.69 26.6799 102.23C26.8499 113.42 33.7999 120.96 35.8299 123.01C36.1899 124.3 36.75 126.25 37.54 128.59C40.98 138.85 44.1 148.18 51.34 154.49C56.12 158.66 65.53 163.98 70.73 160.54C75.71 157.25 74.42 147.37 74.14 145.18C73.05 136.78 68.8599 134.44 64.8699 121.71C63.8399 118.42 63.39 116.25 62.64 112.92C60.82 104.78 57.8099 92.15 52.5799 72.74V72.76Z" fill="#816BDF"/>
<path d="M112.72 91.47C112.23 91.78 113.79 94.74 115.2 97.98C120.51 110.18 119.7 117.08 121.71 117.21C123.85 117.35 127.65 109.77 125.43 104.49C124.67 102.69 123.85 102.65 119.23 97.98C114.91 93.62 113.18 91.17 112.72 91.47Z" fill="url(#paint4_linear_302_2630)"/>
<path d="M52.95 55.8C47.6 57.05 44.89 57.73 43.1 60.11C40.52 63.54 41.55 67.76 37.85 70.28C36.54 71.17 35.12 71.52 34.75 72.87C34.75 72.87 34.32 74.45 36.2 76.7C40.08 81.33 84.75 89.58 95.25 91.49C95.5 89.86 95.96 87.43 96.8 84.56C98.59 78.48 100 77.67 100.73 73.6C101.08 71.67 102.25 65.15 98.77 61.71C97.99 60.93 97.41 60.75 91.43 58.71C83.87 56.13 84.29 56.25 83.88 56.12C75.96 53.74 64.35 53.15 52.96 55.81L52.95 55.8Z" fill="#8C7CE4"/>
<path d="M82.3299 81.9599C78.1399 83.6299 74.4399 83.2599 72.8299 83.0799C61.2699 81.7799 48.96 70.85 50.73 64.92C53.37 56.05 88.5599 55.0699 92.6799 64.7699C94.0299 67.9499 92.11 72.45 91.76 73.29C89.24 79.21 83.5999 81.4599 82.3399 81.9599H82.3299Z" fill="url(#paint5_linear_302_2630)"/>
<path d="M53.96 150.33C54.38 153.81 57.0599 156.12 58.2999 157.15C63.7199 161.68 70.9399 162.24 84.3599 161.18C92.3199 160.55 102.69 159.34 114.76 156.84C116.67 156.74 118.59 156.63 120.5 156.53C119.38 154.44 118.03 151.33 117.4 147.38C117.01 144.94 116.98 142.78 117.09 141.02C116.14 141.46 114.65 142.05 112.75 142.42C107.21 143.48 102.58 141.71 101.12 141.18C94.8 138.88 72.95 130.94 61.26 138.23C57.33 140.68 53.4 145.56 53.97 150.33H53.96Z" fill="#9280EE"/>
<path d="M42.5799 76.79C40.5399 78.67 43.9799 88.0099 50.9599 92.2099C56.9699 95.8299 60.5299 92.55 75.0399 93.38C88.1799 94.12 91.2399 97.15 96.0099 94.16C103.1 89.71 103.2 78.74 103.2 78.04C103.18 72.61 101.01 67.82 100.09 67.94C98.9299 68.1 100.78 76.3199 96.0099 84.2499C94.9799 85.9599 93.8999 87.2399 93.0999 88.0899C75.0699 89.6699 62.9399 85.97 54.9399 81.97C48.9899 78.99 44.2199 75.2799 42.5799 76.7999V76.79Z" fill="url(#paint6_linear_302_2630)"/>
<path d="M89.52 16.3699C87.17 18.2399 89.26 30.05 90.04 34.4799C92.5 48.4199 94.81 49.6999 94.9 58.0799C94.98 65.8299 93.09 71.45 93.87 71.89C94.51 72.25 96.49 68.8499 97.39 64.7599C98.84 58.1499 97.07 51.5699 94.91 43.8299C93.05 37.1899 92.23 36.8499 91.6 32.2499C90.79 26.3399 90.39 23.38 91.08 20.2299C91.32 19.1399 91.86 17.1599 91.29 16.3699C90.87 15.7999 89.98 16.0099 89.53 16.3699H89.52Z" fill="url(#paint7_linear_302_2630)" stroke="#1E0E00" stroke-width="0.25" stroke-miterlimit="10"/>
<path d="M55.14 47.5C57.75 55.08 56.94 59.5 55.55 62.18C55.12 63.01 54.64 63.67 54.41 64.87C53.54 69.41 57.83 73.75 59.79 75.73C68.55 84.59 87.97 86.5 91.23 86.79C95.18 74.21 93.81 69.69 91.64 67.97C88.73 65.66 84.04 68.16 81.3 65.38C78.95 62.99 79.72 58.41 80.68 55.04C72.17 52.52 63.65 50.01 55.14 47.49V47.5Z" fill="#E1BCA2" stroke="#1E0E00" stroke-width="0.25" stroke-miterlimit="10"/>
<path d="M57.2 55.2C57.28 56.33 57.56 58.2099 58.64 60.3099C61.66 66.2199 69.5799 71.2399 74.4699 69.7999C76.3799 69.2399 77.6099 68.0099 78.2499 67.3199C80.6699 64.6899 80.1799 61.8099 80.0399 61.0999C72.4299 59.1299 64.81 57.1599 57.2 55.1899V55.2Z" fill="url(#paint8_linear_302_2630)"/>
<path d="M50.07 31.6799C48.89 31.8499 48.08 30.5999 47.28 31.0599C45.78 31.9199 48.46 36.29 48.31 42.85C48.3 43.35 48.25 44.8099 48.83 45.0199C49.67 45.3199 50.88 42.64 51.93 42.85C53.08 43.08 53.16 46.58 53.38 47.92C53.94 51.41 57.92 55.83 72.9 59.89C74.2 60.35 78.99 61.85 83.16 59.39C84.85 58.39 85.78 57.1299 86.78 55.7699C87.79 54.3899 90.28 50.6399 91.02 44.0799C91.37 40.9799 90.93 40.7699 90.5 33.2199C90.05 25.3299 90.4 23.2999 90.04 21.0899C89.98 20.6899 89.92 20.4 89.86 20.14C89.86 20.14 89.78 19.8099 89.67 19.4699C89.49 18.8799 88.2 15.5599 86.4 11.0299C83.9 10.0899 76.77 7.79995 68.15 10.16C61.08 12.09 56.61 16.16 54.69 18.14C53.48 28.82 51.63 31.4599 50.07 31.6799Z" fill="#E1BCA2" stroke="#1E0E00" stroke-width="0.5" stroke-miterlimit="10"/>
<path d="M72.46 49.5901C73.69 49.8001 76.34 50.0902 79.39 48.9702C81.95 48.0302 83.61 46.5402 84.46 45.6602" stroke="#1E0E00" stroke-width="0.5" stroke-miterlimit="10"/>
<path d="M76.49 52.2799C77.34 52.2299 78.64 52.0599 80.01 51.3499C81.58 50.5399 82.54 49.3799 82.8 49.5899C83 49.7499 82.71 50.5799 82.28 51.1399C80.78 53.1199 77 52.3799 76.49 52.2799Z" fill="url(#paint9_linear_302_2630)"/>
<path d="M68.84 49.1801C68.7 49.1501 68.62 48.4901 68.84 47.9401C69.03 47.4801 69.44 47.0501 69.56 47.1101C69.79 47.2401 69.09 49.2201 68.84 49.1801Z" fill="url(#paint10_linear_302_2630)"/>
<path d="M79.7 28.6C79.53 28.52 77.17 31.03 77.53 33.87C77.64 34.75 77.89 34.65 79.6 38.63C80.3 40.25 80.64 41.15 80.32 42.15C80.01 43.14 79.16 43.89 79.18 43.91C79.2 43.93 79.84 42.72 80.85 42.6C81.5 42.53 81.9 42.96 82.17 42.76C82.53 42.48 82.14 41.4 82.05 41.17C80.85 37.94 78.67 36.39 78.17 34.07C77.55 31.19 79.87 28.69 79.7 28.6Z" fill="url(#paint11_linear_302_2630)"/>
<path d="M77.67 43.0599C77.58 42.8699 77.1399 42.8099 76.8199 42.9399C76.3599 43.1299 76.3999 43.5699 75.9699 43.8699C75.3699 44.2799 74.5799 43.9499 74.5699 43.9899C74.5699 44.0399 76.0399 44.6599 77.0499 43.9899C77.4099 43.7499 77.78 43.2899 77.67 43.0599Z" fill="url(#paint12_linear_302_2630)"/>
<path d="M72.39 34.16C72.71 33.17 70.93 31.77 70.45 31.41C69.52 31.18 67.1799 30.72 64.4399 31.64C61.5299 32.62 59.8899 34.57 59.3199 35.32C63.1799 35.49 66.2999 35.38 68.5099 35.24C70.7199 35.1 72.14 34.92 72.39 34.15V34.16Z" fill="#FFF1DC" stroke="#1E0E00" stroke-width="0.5" stroke-miterlimit="10"/>
<path d="M79.13 32.97C78.97 32.22 80.78 31.24 81.69 30.88C82.16 30.7 83.86 30.0499 85.8 30.7999C87.19 31.3399 87.97 32.31 88.28 32.74C87.79 32.98 87.09 33.28 86.22 33.52C83.1 34.37 79.34 33.99 79.12 32.98L79.13 32.97Z" fill="#FFF1DC" stroke="#1E0E00" stroke-width="0.5" stroke-miterlimit="10"/>
<path d="M72.86 33.71C72.33 32.93 71.8 32.16 71.27 31.38C70.03 31.15 67.79 30.83 65.49 31.11C64.73 31.2 64.01 31.35 63.94 31.37C62.63 31.65 61.57 32.03 60.8 32.35L64.06 31.96C62.68 32.39 60.91 33.21 59.45 34.83C59.25 35.05 59.07 35.27 58.91 35.49" stroke="#1E0E00" stroke-width="0.5" stroke-miterlimit="10"/>
<path d="M65.91 31.0801C65.89 31.2201 65.68 32.7401 66.8 33.7901C67.38 34.3301 68.53 34.9401 69.55 34.4501C70.55 33.9701 71.09 32.6101 70.64 31.2701C69.06 31.2101 67.49 31.1401 65.91 31.0801Z" fill="#2E1F2A" stroke="#1E0E00" stroke-width="0.5" stroke-miterlimit="10"/>
<path d="M59.63 31.63C65.75 29.25 68.71 29.33 70.28 29.92C70.63 30.05 71.94 30.5899 72.11 30.3099C72.25 30.0899 71.67 29.38 71.02 28.95C69.88 28.19 68.59 28.3099 66.88 28.4899C65.95 28.5899 64.64 28.74 63.04 29.42C61.45 30.1 60.32 30.9799 59.62 31.6199L59.63 31.63Z" fill="url(#paint13_linear_302_2630)"/>
<path d="M73.08 27.47C72.06 26.72 71.04 25.97 70.02 25.22C66.29 25.06 63.33 25.3 61.29 25.56C60.06 25.72 59.27 25.87 58.39 26.31C55.85 27.59 54.74 30.18 54.28 31.55C55.65 30.53 57.44 29.43 59.67 28.56C65.34 26.35 70.5 26.97 73.09 27.47H73.08Z" fill="#1E0202" stroke="#1E0E00" stroke-width="0.5" stroke-miterlimit="10"/>
<path d="M78.71 26.78C79.36 27.06 80 27.35 80.65 27.63C81.7 27.03 83.66 26.11 86.27 25.96C88.04 25.86 89.5 26.14 90.5 26.43C89.55 24.58 88.43 24.08 87.86 23.91C86.85 23.61 85.99 23.9099 82.9 25.1099C81.76 25.5599 80.34 26.12 78.71 26.78Z" fill="#1E0202" stroke="#1E0E00" stroke-width="0.5" stroke-miterlimit="10"/>
<path d="M78.97 32.64C79.54 32.1 80.11 31.55 80.68 31.01C82.04 30.62 84.02 30.26 86.34 30.54C87.11 30.64 87.81 30.79 88.43 30.97C87.85 31 87.27 31.0199 86.69 31.0499C86.96 31.1999 87.36 31.46 87.74 31.9C88.03 32.24 88.21 32.5799 88.32 32.8299" stroke="#1E0E00" stroke-width="0.5" stroke-miterlimit="10"/>
<path d="M82.93 31.09C82.54 32.01 82.79 33.02 83.49 33.56C83.98 33.93 84.7 34.09 85.26 33.86C86.17 33.47 86.7 32.01 86.05 30.46C85.01 30.67 83.97 30.88 82.93 31.09Z" fill="#2E1F2A" stroke="#1E0E00" stroke-width="0.5" stroke-miterlimit="10"/>
<path d="M80.6499 28.9501C80.1199 29.3001 79.6999 29.9101 79.8399 30.1101C80.0199 30.3801 81.0499 29.8301 82.2099 29.5301C83.2699 29.2501 84.85 29.0601 86.98 29.5701C86.56 29.3101 85.88 28.9601 85 28.7601C84.34 28.6101 83.87 28.6101 82.98 28.6001C81.79 28.6001 81.1799 28.6001 80.6499 28.9501Z" fill="url(#paint14_linear_302_2630)"/>
<path opacity="0.65" d="M74.63 38.4201C74.63 41.2801 71.97 43.6 68.7 43.6C65.43 43.6 63.0099 40.9201 62.7699 38.4201C62.7399 38.0801 62.69 37.2001 63.13 36.2301C64.08 34.1301 66.65 33.14 68.7 33.24C71.33 33.37 74.63 35.3601 74.63 38.4201Z" fill="#D7EBEB" stroke="black" stroke-width="0.75" stroke-miterlimit="10"/>
<path opacity="0.65" d="M79.68 36.2499C79.68 38.8199 82.1 40.9099 85.08 40.9099C88.06 40.9099 90.26 38.4999 90.48 36.2499C90.51 35.9399 90.55 35.1499 90.15 34.2799C89.28 32.3899 86.94 31.4999 85.07 31.5899C82.68 31.7099 79.67 33.4999 79.67 36.2499H79.68Z" fill="#D7EBEB" stroke="black" stroke-width="0.75" stroke-miterlimit="10"/>
<path d="M75.22 37.7099C75.32 37.7899 75.94 36.4899 77.12 36.3499C78.39 36.1999 79.35 37.4999 79.49 37.3599C79.64 37.1999 78.78 35.2099 77.28 35.2699C75.7 35.3299 75.09 37.6099 75.22 37.7099Z" fill="#002D72" stroke="#1E0E00" stroke-width="0.5" stroke-miterlimit="10"/>
<path d="M62.55 38.76C61.63 38.94 60.71 39.12 59.8 39.3C59.77 39.65 59.75 40 59.72 40.35C60.73 40.26 61.74 40.17 62.74 40.08C62.68 39.64 62.61 39.2 62.55 38.76Z" fill="#002D72" stroke="#1E0E00" stroke-width="0.5" stroke-miterlimit="10"/>
<path d="M52.58 33.45C54.83 35.4 57.08 37.3499 59.33 39.3099L59.17 40.2799C56.87 38.3299 54.57 36.38 52.27 34.42C52.37 34.1 52.48 33.77 52.58 33.45Z" fill="#002D72" stroke="#1E0E00" stroke-width="0.5" stroke-miterlimit="10"/>
<path d="M48.43 11.8801C49.55 7.43008 54.11 6.52007 55.33 6.27007C60.54 5.22007 66.97 8.17006 67.35 12.3601C67.52 14.2901 66.42 16.6201 65.16 17.1701C63.2 18.0201 62.23 13.9801 59.1 12.5201C54.24 10.2601 49.41 16.7001 48.33 14.4401C47.98 13.7001 48.27 12.5401 48.43 11.8801Z" fill="#311E00" stroke="#1E0E00" stroke-width="0.5" stroke-miterlimit="10"/>
<path d="M66.36 12.89C67.9 15.07 68.64 16.0699 69.39 15.7699C70.41 15.3599 71.03 13.1099 70.96 11.2799C70.87 8.89994 69.66 7.24994 68.92 6.27994C67.04 3.78994 63.82 1.60994 60.08 1.95994C58.92 2.06994 56.21 2.56993 54.06 5.10993C53.18 6.14993 52 7.99993 52.35 8.54993C53.09 9.69993 60.92 5.78995 61.97 6.62995C62.4 6.96995 62.14 6.90995 66.36 12.8799V12.89Z" fill="#311E00" stroke="#1E0E00" stroke-width="0.5" stroke-miterlimit="10"/>
<path d="M68.98 12.72C69.98 15.25 72.34 16.97 73.58 15.77C74.77 14.62 74.64 11.5 74.55 10.44C74.49 9.74002 73.88 3.48001 69.77 1.34001C67.31 0.0600126 64.34 0.630013 64.14 1.59001C63.93 2.58001 66.88 3.07003 68.13 6.26003C69.15 8.86003 67.99 10.23 68.98 12.73V12.72Z" fill="#311E00" stroke="#1E0E00" stroke-width="0.5" stroke-miterlimit="10"/>
<path d="M75.4899 9.95999C75.7499 12.4 77.73 14.66 78.76 14.38C80.36 13.94 79.19 7.20999 81.76 6.26999C82.47 6.00999 83.93 6.03001 84.73 5.01001C84.83 4.89001 84.9 4.79001 84.89 4.67001C84.84 3.94001 81.9999 3.02001 79.7699 3.67001C77.3599 4.37001 75.17 7.05001 75.48 9.95001L75.4899 9.95999Z" fill="#311E00" stroke="#1E0E00" stroke-width="0.5" stroke-miterlimit="10"/>
<path d="M78.74 12.5599C77.98 11.0099 79.38 8.59993 80.6 7.46993C82.58 5.63993 85.41 5.95993 87.32 7.21993C89.48 8.65993 90.69 11.4699 90.32 11.9399C89.76 12.6599 85.59 7.90992 83.91 9.32992C82.94 10.1499 83.73 12.2399 82.57 13.2999C81.51 14.2699 79.4 13.8999 78.74 12.5499V12.5599Z" fill="#311E00" stroke="#1E0E00" stroke-width="0.5" stroke-miterlimit="10"/>
<path d="M57.65 8.04007C58.5 9.22007 54.44 13.2801 52.17 16.0001C47.41 21.6901 45.74 27.1301 42.66 37.2001C35.85 59.4201 39.22 80.0801 37.39 80.2201C36.77 80.2701 36.12 77.9001 35.94 77.2201C32.43 63.9801 34.82 47.37 42.04 26.24C43.85 20.94 47.61 10.5601 54.35 8.25006C54.88 8.07006 57.12 7.30007 57.66 8.04007H57.65Z" fill="#311E00" stroke="#1E0E00" stroke-width="0.5" stroke-miterlimit="10"/>
<path d="M60.18 10.18C61.03 11.36 56.97 15.42 54.7 18.14C49.94 23.83 48.27 29.27 45.19 39.34C38.38 61.56 41.75 82.2199 39.92 82.3599C39.3 82.4099 38.65 80.0399 38.47 79.3599C34.96 66.1199 37.35 49.51 44.57 28.38C46.38 23.08 50.14 12.7 56.88 10.39C57.41 10.21 59.65 9.43995 60.19 10.18H60.18Z" fill="url(#paint15_linear_302_2630)" stroke="#1E0E00" stroke-width="0.25" stroke-miterlimit="10"/>
<path d="M61.56 11.0199C62.56 11.8099 59.48 17.1399 57.93 20.1299C54.86 26.0199 53.48 31.5399 50.72 42.5899C45.12 64.9999 50.72 85.5999 48.86 85.8899C48.24 85.9899 47.41 83.6699 47.18 83.0099C42.8 70.5499 44.49 56.4499 49.23 31.7099C49.23 31.7099 52.07 16.8799 59.14 11.9399C59.63 11.5899 61.04 10.6099 61.56 11.0199Z" fill="url(#paint16_linear_302_2630)" stroke="#1E0E00" stroke-width="0.25" stroke-miterlimit="10"/>
<path d="M83.83 13.47C83.04 13.58 82.06 13.11 81.88 12.48C81.46 11.06 84.7 7.69994 87.36 7.92994C92.24 8.34994 94.77 20.7499 95.43 23.9599C97.16 32.4099 96.25 38.7399 96.05 38.7499C95.8 38.7499 96.28 28.7 91.6 18.07C88.95 12.05 87.03 11.25 86.22 11.45C85.33 11.67 85.11 13.3 83.83 13.48V13.47Z" fill="#311E00" stroke="#1E0E00" stroke-width="0.5" stroke-miterlimit="10"/>
<path d="M84.5499 13.0101C84.4799 12.2501 85.4999 11.3701 86.3799 11.1801C88.5499 10.7201 90.9399 14.2101 91.3399 14.8001C94.4499 19.3501 92.2799 22.1801 94.0299 31.2401C95.2099 37.3201 97.2599 41.5801 98.1699 43.3401C99.6799 46.2501 99.9399 45.9201 101.17 48.3001C105.05 55.8101 105.66 65.3301 103.34 66.2901C102.91 66.4701 102.2 66.4301 100.96 65.4601C101.17 63.5301 101.32 60.6801 100.86 57.2901C99.5899 47.9801 95.3599 46.8201 93.2099 37.9501C91.3499 30.3101 92.9499 24.8201 90.4199 20.5801C88.1699 16.8101 87.0499 14.9301 85.6599 14.1701C85.3899 14.0201 84.6099 13.6301 84.5499 13.0001V13.0101Z" fill="url(#paint17_linear_302_2630)" stroke="#1E0E00" stroke-width="0.25" stroke-miterlimit="10"/>
<path d="M49.9599 9.43005C50.5699 10.2801 47.83 14.8901 46.42 17.5001C43.63 22.6401 42.05 27.63 38.91 37.61C32.54 57.86 34.2099 77.7101 32.8699 77.7601C32.4299 77.7801 32.1 75.5301 32.01 74.8901C30.3 62.7701 33.03 49.82 39.06 27.3C39.06 27.3 42.67 13.8001 48.17 10.0001C48.55 9.73006 49.6499 8.98007 49.9599 9.42007V9.43005Z" fill="#311E00" stroke="#1E0E00" stroke-width="0.5" stroke-miterlimit="10"/>
<path d="M62.5199 12.8201C63.3199 13.6001 60.9799 18.7501 59.7999 21.6401C57.4799 27.3401 56.4799 32.7001 54.4699 43.4301C50.4099 65.1901 55.1199 85.3701 53.6599 85.6201C53.1799 85.7001 52.4899 83.4401 52.2999 82.7901C48.6599 70.5701 49.7899 56.8501 53.1399 32.8001C53.1399 32.8001 55.1499 18.3801 60.6299 13.6701C61.0099 13.3401 62.0999 12.4101 62.5199 12.8101V12.8201Z" fill="url(#paint18_linear_302_2630)" stroke="#1E0E00" stroke-width="0.25" stroke-miterlimit="10"/>
<path d="M75.98 112.77C75.63 112.97 75.39 113.08 75.18 113.24C73.06 114.9 70.95 116.58 68.82 118.22C68 118.85 67.06 119.17 65.99 118.83C65.29 118.61 64.84 118.17 64.75 117.46C64.66 116.67 64.9 115.96 65.56 115.47C68.37 113.4 71.19 111.35 74.02 109.3C75.55 108.19 77.1 107.09 78.64 105.99C78.75 105.91 78.89 105.87 79.02 105.81C78.98 105.74 78.93 105.67 78.89 105.59C78.65 105.58 78.4 105.55 78.16 105.55C76.14 105.55 74.12 105.56 72.1 105.55C71.69 105.55 71.22 105.51 70.88 105.32C70.51 105.12 70.04 104.73 70.01 104.39C69.97 103.95 70.2 103.35 70.52 103.04C71.12 102.48 71.91 102.25 72.78 102.25C77.17 102.27 81.57 102.26 85.96 102.25C86.21 102.25 86.47 102.25 86.95 102.25C86.61 101.93 86.44 101.74 86.23 101.59C84.93 100.59 83.61 99.62 82.32 98.61C81.46 97.93 81.58 96.9601 82.56 96.4801C83.42 96.0601 84.28 96.0701 85.09 96.6501C86.91 97.9701 88.73 99.3 90.55 100.61C92.49 102 94.46 103.35 96.37 104.78C100.93 108.18 102.1 113.73 99.14 118.35C97.18 121.4 94.18 123.05 90.61 123.62C87.11 124.17 83.77 123.63 80.76 121.7C77.94 119.88 76.15 117.34 75.88 113.89C75.86 113.58 75.93 113.25 75.98 112.76V112.77ZM88.31 105.53C86.15 105.5 84.21 106.15 82.67 107.64C81.97 108.32 81.52 109.27 80.99 110.12C80.26 111.31 80.3 112.64 80.77 113.84C81.38 115.41 82.35 116.75 83.91 117.66C86.86 119.38 91.14 119.25 94 116.69C96.35 114.59 96.66 110.86 94.68 108.4C93.06 106.39 90.85 105.56 88.31 105.53Z" fill="#07003B"/>
<path d="M88.31 105.34C90.85 105.37 93.06 106.2 94.68 108.21C96.66 110.67 96.36 114.4 94 116.5C91.14 119.06 86.86 119.19 83.91 117.47C82.35 116.56 81.38 115.23 80.77 113.65C80.3 112.45 80.26 111.12 80.99 109.93C81.51 109.08 81.96 108.13 82.67 107.45C84.22 105.96 86.16 105.31 88.31 105.34ZM83.57 111.68C83.6 113.29 84.36 114.49 85.76 115.19C87.42 116.01 89.09 116.01 90.83 115.2C92.83 114.27 94.09 111.25 92.04 109.04C90.86 107.76 89.28 107.36 87.6 107.58C85.12 107.89 83.53 109.53 83.57 111.68Z" fill="white"/>
<path d="M83.45 111.99C83.42 109.83 85.01 108.2 87.48 107.89C89.16 107.68 90.73 108.07 91.92 109.35C93.97 111.56 92.72 114.59 90.71 115.51C88.97 116.32 87.29 116.32 85.64 115.5C84.24 114.8 83.48 113.6 83.45 111.99Z" fill="#07003B" stroke="#1E0E00" stroke-linecap="round" stroke-linejoin="round"/>
<path d="M129.97 75.4501C130.8 74.4501 132.08 73.9601 133.28 74.2101C134.81 74.5301 135.97 75.9901 135.97 77.7301C137.25 77.1401 138.18 76.0501 138.24 74.8301C138.34 72.9101 136.23 71.6901 134.93 71.3101C134.45 71.1701 132.82 70.7001 131.41 71.7201C130.31 72.5301 129.75 73.9601 129.96 75.4401L129.97 75.4501Z" fill="white"/>
<path d="M135.04 52.5101C135.57 51.2601 136.09 50.0001 136.62 48.7501C135.9 48.7801 123.54 49.1001 116.98 39.4501C112.37 32.6601 113.66 25.4101 114 23.7701C115.1 24.0701 116.19 24.3701 117.29 24.6601C117.11 20.8901 116.94 17.1201 116.76 13.3401C113.67 16.4101 110.58 19.4801 107.49 22.5501C108.55 22.7501 109.6 22.9401 110.66 23.1401C110.26 25.7601 109.64 32.2901 113.32 38.9801C119.77 50.7101 133.64 52.3701 135.04 52.5101Z" fill="#001147" stroke="url(#paint19_linear_302_2630)" stroke-width="0.5" stroke-linecap="round" stroke-linejoin="round"/>
<path d="M154.27 6.27002C153.48 7.16002 152.69 8.05004 151.9 8.95004C152.46 9.14004 162.04 12.64 164.09 22.73C165.54 29.83 162.31 35.52 161.55 36.8C160.8 36.22 160.05 35.63 159.3 35.05C158.28 38.27 157.25 41.49 156.23 44.71C159.54 43.08 162.85 41.44 166.17 39.81C165.42 39.32 164.67 38.84 163.92 38.35C165.03 36.28 167.52 30.98 166.75 24.25C165.41 12.44 155.3 6.84004 154.26 6.29004L154.27 6.27002Z" fill="#001147" stroke="url(#paint20_linear_302_2630)" stroke-width="0.5" stroke-linecap="round" stroke-linejoin="round"/>
<path d="M129.6 19.63C129.21 19.12 128.82 18.62 128.44 18.11C127.58 17.74 126.73 17.38 125.87 17.01C124.42 16.75 122.98 16.48 121.53 16.22C120.96 17.24 120.4 18.26 119.83 19.27C120.28 20.65 120.73 22.03 121.18 23.4C122.57 24.28 123.96 25.16 125.34 26.03C127.13 26.55 128.92 27.08 130.72 27.6C131.17 27.35 131.63 27.1 132.08 26.84L136.63 30.44C137.73 30.89 138.83 31.34 139.93 31.79C140.55 32.25 141.17 32.71 141.79 33.17C141.13 36.19 140.47 39.21 139.82 42.23C139.9 42.56 139.98 42.89 140.06 43.22C140.91 43.31 141.76 43.41 142.61 43.5C143.33 43.29 144.05 43.07 144.77 42.86C145.16 43.03 145.55 43.2 145.94 43.37C146.77 42.95 147.6 42.53 148.43 42.11C148.66 42.19 148.89 42.27 149.11 42.36C149.47 42 149.83 41.64 150.18 41.27C150.27 38.95 150.36 36.63 150.45 34.31C150.56 34.2 150.69 34.04 150.76 33.83C151.01 33.07 150.34 32.36 150.31 32.32C152.53 30.62 154.75 28.92 156.97 27.22C157.41 26.53 157.85 25.85 158.28 25.16C159.06 23.76 159.85 22.36 160.63 20.96C159.97 20.54 159.32 20.12 158.66 19.71C158.05 19.22 157.43 18.73 156.82 18.24C156.88 17.98 156.93 17.71 156.99 17.45C156.74 16.74 156.5 16.03 156.25 15.33C155.76 15.4 155.27 15.47 154.78 15.54C154.31 15.17 153.84 14.79 153.36 14.42L152.9 12.67C152.06 11.87 151.22 11.08 150.38 10.28C148.28 10.01 146.18 9.74998 144.07 9.47998C141.63 9.68998 139.18 9.89995 136.74 10.11C135.47 11.02 134.2 11.94 132.93 12.85C132.1 13.83 131.26 14.81 130.43 15.79C130.16 17.06 129.89 18.33 129.62 19.6L129.6 19.63Z" fill="#001147" stroke="url(#paint21_linear_302_2630)" stroke-width="0.25" stroke-linecap="round" stroke-linejoin="round"/>
<path d="M150.08 22.7001C150.15 22.1501 150.22 21.6001 150.29 21.0601C150.68 20.7301 151.08 20.41 151.47 20.08C152.47 18.87 153.46 17.6501 154.46 16.4401C155.37 16.3101 156.28 16.18 157.19 16.05C157.52 17 157.86 17.9601 158.19 18.9101C158.79 19.5901 159.4 20.2801 160 20.9601C160.32 21.1001 160.64 21.2301 160.96 21.3701C160.64 21.7201 160.32 22.0801 160 22.4301C159.73 22.2401 159.46 22.0601 159.2 21.8701C158.86 21.2501 158.44 20.5701 157.92 19.8701C157.61 19.4501 157.29 19.0601 156.99 18.7101C156.49 18.8801 155.99 19.0501 155.49 19.2201C154.58 20.1101 153.67 21.0001 152.76 21.8801C151.86 22.1501 150.97 22.4201 150.07 22.6901L150.08 22.7001Z" fill="#001147" stroke="url(#paint22_linear_302_2630)" stroke-width="0.5" stroke-linecap="round" stroke-linejoin="round"/>
<path d="M147.56 22.02C147.09 20.89 146.62 19.77 146.14 18.64C145.44 18.52 144.74 18.4 144.04 18.28C143.12 18.86 142.2 19.44 141.29 20.03C139.59 20.82 137.89 21.6 136.19 22.39C135.58 22.49 134.98 22.59 134.37 22.69C134.28 23.54 134.18 24.39 134.09 25.24L135.94 27.96C137.26 28.51 138.59 29.06 139.91 29.61C141.69 30.11 143.47 30.62 145.25 31.12C143.08 30.88 140.91 30.63 138.74 30.39C137.52 29.98 136.3 29.58 135.09 29.17L131.12 25.56C131.28 24.15 131.45 22.73 131.61 21.32C132.72 20.97 133.82 20.63 134.93 20.28C136.44 19.67 137.96 19.07 139.47 18.46C140.77 17.49 142.06 16.51 143.36 15.54L146.23 16.25C146.68 18.17 147.13 20.09 147.58 22.01L147.56 22.02Z" fill="#001147" stroke="url(#paint23_linear_302_2630)" stroke-width="0.5" stroke-linecap="round" stroke-linejoin="round"/>
<path d="M139.41 22.64C139.12 23.2 138.83 23.7699 138.53 24.3299C138.63 24.7599 138.72 25.1899 138.82 25.6199C139.16 25.9899 139.51 26.3599 139.85 26.7299C140.61 26.9999 141.37 27.2799 142.13 27.5499C142.97 27.2799 143.81 26.9999 144.65 26.7299C145.01 26.0199 145.37 25.2999 145.74 24.5899C145.57 23.8299 145.39 23.0699 145.22 22.3099C144.61 22.1099 144 21.9 143.39 21.7C142.06 22.01 140.74 22.33 139.41 22.64Z" fill="#001147" stroke="url(#paint24_linear_302_2630)" stroke-width="0.5" stroke-linecap="round" stroke-linejoin="round"/>
<path d="M140.99 23.0001C140.77 23.5101 140.55 24.0201 140.33 24.5301C140.45 25.0301 140.57 25.5201 140.68 26.0201C141.18 26.2901 141.69 26.5501 142.19 26.8201C142.74 26.6501 143.3 26.4701 143.85 26.3001C144.17 25.7401 144.5 25.1801 144.82 24.6201C144.64 24.1001 144.46 23.5801 144.29 23.0501C143.83 22.8201 143.37 22.5901 142.91 22.3601L140.99 22.9901V23.0001Z" fill="#001147" stroke="url(#paint25_linear_302_2630)" stroke-width="0.5" stroke-linecap="round" stroke-linejoin="round"/>
<path d="M151.27 23.4301C150.95 24.1001 150.62 24.7701 150.3 25.4401C150.47 26.1501 150.63 26.8601 150.8 27.5801C151.2 27.8101 151.59 28.0501 151.99 28.2801C152.67 28.0001 153.35 27.7201 154.03 27.4301C154.35 26.7601 154.68 26.0901 155 25.4201C154.94 24.7401 154.88 24.0601 154.82 23.3801C154.7 23.2201 154.58 23.0601 154.46 22.8901L153.05 22.3901C152.46 22.7301 151.86 23.0801 151.27 23.4201V23.4301Z" fill="#001147" stroke="url(#paint26_linear_302_2630)" stroke-width="0.5" stroke-linecap="round" stroke-linejoin="round"/>
<path d="M151.96 24.1099C151.67 24.5599 151.38 25.0099 151.09 25.4699C151.19 25.9999 151.28 26.5199 151.38 27.0499C151.67 27.2699 151.95 27.4899 152.24 27.7099C152.73 27.4499 153.21 27.18 153.7 26.92C153.89 26.31 154.07 25.6999 154.26 25.0899C154.19 24.6999 154.12 24.2999 154.05 23.9099C153.75 23.7499 153.46 23.5999 153.16 23.4399L151.96 24.1199V24.1099Z" fill="#001147" stroke="url(#paint27_linear_302_2630)" stroke-width="0.5" stroke-linecap="round" stroke-linejoin="round"/>
<path d="M142.32 42.0101C141.53 41.7701 140.74 41.54 139.95 41.3C140.34 39.55 140.74 37.8 141.13 36.05L144.06 37.3501L142.31 42.0201L142.32 42.0101Z" stroke="url(#paint28_linear_302_2630)" stroke-width="0.35" stroke-miterlimit="10" stroke-linecap="round"/>
<path d="M144.11 37.3501C143.14 36.8601 142.16 36.3601 141.19 35.8701C141.77 34.5201 142.35 33.1701 142.94 31.8101C143.84 32.1801 144.73 32.5601 145.63 32.9301C145.13 34.4001 144.62 35.8701 144.12 37.3401L144.11 37.3501Z" fill="#001147" stroke="url(#paint29_linear_302_2630)" stroke-width="0.35" stroke-linecap="round" stroke-linejoin="round"/>
<path d="M144.07 37.3401C145.07 37.3701 146.08 37.4001 147.08 37.4301C146.55 38.9301 146.01 40.4401 145.48 41.9401C144.48 41.9601 143.48 41.9801 142.48 42.0001C143.01 40.4501 143.54 38.9001 144.07 37.3501V37.3401Z" stroke="url(#paint30_linear_302_2630)" stroke-width="0.35" stroke-miterlimit="10" stroke-linecap="round"/>
<path d="M147.08 37.4299C146.1 37.3199 145.13 37.2199 144.15 37.1099C144.7 35.7099 145.24 34.3199 145.79 32.9199C146.28 33.1699 146.78 33.4299 147.27 33.6799C147.21 34.9299 147.14 36.1799 147.08 37.4299Z" stroke="url(#paint31_linear_302_2630)" stroke-width="0.35" stroke-miterlimit="10" stroke-linecap="round"/>
<path d="M146.88 37.4C147.41 37.26 147.94 37.13 148.47 36.99C148.2 38.45 147.92 39.91 147.65 41.36C146.92 41.55 146.2 41.74 145.47 41.93C145.94 40.42 146.41 38.9 146.88 37.39V37.4Z" stroke="url(#paint32_linear_302_2630)" stroke-width="0.35" stroke-miterlimit="10" stroke-linecap="round"/>
<path d="M148.57 36.7499C148.11 36.8599 147.65 36.9699 147.19 37.0799C147.22 35.9399 147.24 34.8099 147.27 33.6699C147.85 33.7699 148.43 33.8799 149.01 33.9799C148.86 34.8999 148.72 35.8199 148.57 36.7399V36.7499Z" stroke="url(#paint33_linear_302_2630)" stroke-width="0.35" stroke-miterlimit="10" stroke-linecap="round"/>
<path d="M148.28 37.0399C148.43 36.9299 148.58 36.8199 148.73 36.7099C149.16 36.7099 149.6 36.6999 150.03 36.6899C149.96 38.1299 149.89 39.5699 149.82 41.0099C149.09 41.1299 148.37 41.2499 147.64 41.3699C147.85 39.9299 148.06 38.4899 148.27 37.0399H148.28Z" fill="#001147" stroke="url(#paint34_linear_302_2630)" stroke-width="0.35" stroke-miterlimit="10" stroke-linecap="round"/>
<path d="M148.91 36.5101L150.11 36.6901C150.27 35.4901 150.42 34.2801 150.58 33.0801C150.06 33.3801 149.54 33.6901 149.01 33.9901C148.97 34.8301 148.94 35.6701 148.9 36.5101H148.91Z" stroke="url(#paint35_linear_302_2630)" stroke-width="0.35" stroke-miterlimit="10" stroke-linecap="round"/>
<path d="M169.238 128.306L152.376 122.605L146.675 139.467L163.537 145.168L169.238 128.306Z" fill="#69759C"/>
<path d="M170.55 144.83C168.22 144.94 165.89 145.04 163.56 145.15C165.46 139.53 167.36 133.91 169.26 128.29C171.64 128.05 174.01 127.81 176.39 127.57C174.45 133.32 172.5 139.07 170.56 144.83H170.55Z" fill="#515C87"/>
<path d="M169.25 128.22C163.63 126.34 158.01 124.47 152.4 122.59C154.61 122.36 156.81 122.13 159.02 121.9C164.79 123.88 170.56 125.86 176.33 127.84C173.97 127.96 171.61 128.09 169.26 128.21L169.25 128.22Z" fill="#7E88BA"/>
<path d="M164.78 86.58C163.37 83.46 161.95 80.34 160.54 77.22C158.8 80.39 157.06 83.56 155.32 86.73L159.4 86.66V119.1H161.36V86.62L164.78 86.56V86.58Z" fill="#001147" stroke="url(#paint36_linear_302_2630)" stroke-width="0.5" stroke-linecap="round" stroke-linejoin="round"/>
<path d="M23.77 155.51C21.72 155.09 18.47 154.38 15.05 152.02C12.62 150.34 11.03 148.46 10.08 147.14C11.35 145.87 12.63 144.59 13.9 143.32C15.94 143.02 17.97 142.72 20.01 142.41C20.34 143.19 21.12 144.84 22.92 146.04C24.18 146.88 25.66 147.39 27.37 147.56C29.08 147.73 31.01 147.58 33.16 147.11C36.55 146.37 39.01 145.07 40.55 143.23C42.09 141.39 42.55 139.16 41.94 136.56L41.53 134.81C41.19 133.36 40.67 132.13 39.96 131.11C39.96 131.11 38.99 129.71 37.29 128.68C35.34 127.5 31.43 127.12 27.06 128.54C25.96 128.4 24.87 128.26 23.77 128.12C23.45 126.5 23.13 124.87 22.82 123.25C23.73 122.52 24.64 121.79 25.56 121.07C25.84 121.07 31.02 121 33.55 116.75C35.16 114.04 34.72 111.27 34.57 110.5L34.15 108.71C33.61 106.43 32.37 104.84 30.42 103.96C28.47 103.08 25.97 102.97 22.92 103.64C21.18 104.02 19.68 104.62 18.43 105.44C17.18 106.26 16.2 107.31 15.5 108.6C14.8 109.88 14.42 111.38 14.36 113.1L8.90997 115.22C7.21997 114.58 5.53998 113.94 3.84998 113.29C4.29998 110.27 5.14997 107.96 5.83997 106.42C6.22997 105.55 6.63996 104.64 7.39996 103.55C7.67996 103.15 9.05998 101.2 11.71 99.3901C15.1 97.0701 18.56 96.3401 21.09 95.8301C25.04 95.0401 30.92 93.9301 36.64 96.5701C40.71 98.4401 43.3 101.77 44.43 106.55L44.65 107.51C45.33 110.41 44.93 113.14 43.46 115.73C41.99 118.31 39.56 120.49 36.17 122.27C40.32 122.09 43.78 122.96 46.54 124.9C49.3 126.84 51.12 129.68 52 133.42L52.22 134.38C52.58 135.88 53.21 139.42 51.79 143.56C51.43 144.6 50.1 148.14 46.53 151.12C43.02 154.05 39.35 154.76 35.75 155.45C33.63 155.86 29.25 156.66 23.79 155.53L23.77 155.51Z" fill="#007EC3"/>
<path d="M71.53 12.26C72.78 14.44 75.39 15.92 76.25 15.31C77.63 14.32 73.64 8.47999 75.97 5.77999C77.12 4.44999 79.03 4.78999 79.15 3.90999C79.31 2.81999 76.61 0.839993 74.53 1.34999C71.49 2.08999 69.28 8.32 71.53 12.26Z" fill="#311E00" stroke="#1E0E00" stroke-width="0.5" stroke-miterlimit="10"/>
<path d="M126.61 99.01C126.84 97.99 127.15 96.23 127.08 94.05C126.86 87.79 123.68 85.92 123.82 80.31C123.9 77.25 124.85 77.5 124.99 73.54C125.09 70.55 124.58 69.4 124.91 65.87C125.1 63.85 125.3 63.83 125.53 61.48C125.84 58.34 125.52 57.96 125.69 55.11C125.91 51.44 126.18 47.71 128.95 45.62C129.49 45.21 130.13 44.73 130.66 44.91C132.02 45.39 131.04 49.82 130.35 56.1C129.55 63.4 129.15 67.05 129.88 68.99C132.05 74.71 137.04 73.83 140.89 80.89C141.91 82.76 144.17 87.06 142.91 92.22C141.91 96.31 139.18 98.98 137.79 100.15C134.07 99.77 130.34 99.39 126.62 99.02L126.61 99.01Z" fill="url(#paint37_linear_302_2630)" stroke="#1E0E00" stroke-width="0.25" stroke-miterlimit="10"/>
<path d="M135.77 71.28C135.98 69.92 135.45 68.19 134.22 67.56C132.93 66.89 131.39 67.69 130.19 68.34C127.43 69.82 122.83 73.64 123.68 77.96C123.97 79.45 124.99 81.41 126.32 81.53C127.84 81.67 128.2 79.26 131.75 75.79C134.14 73.45 135.52 73.03 135.78 71.29L135.77 71.28Z" fill="url(#paint38_linear_302_2630)" stroke="#1E0E00" stroke-width="0.25" stroke-miterlimit="10"/>
<path d="M135.75 71.5601C136.83 71.4601 137.99 72.0201 138.73 72.8301C138.88 72.9901 139.68 73.9001 139.72 75.1201C139.76 76.3101 139.06 77.1601 135.22 80.5501C131.75 83.6201 131.08 84.0202 130.17 83.8902C128.82 83.7002 127.48 82.4201 127.36 81.0801C127.24 79.6901 128.54 79.2301 131.18 76.2001C133.85 73.1301 134.18 71.7001 135.75 71.5601Z" fill="url(#paint39_linear_302_2630)" stroke="#1E0E00" stroke-width="0.25" stroke-miterlimit="10"/>
<path d="M125.38 99.2099C124.81 98.9699 126.34 96.4499 125.07 94.0899C123.99 92.0899 122.03 92.3399 120.11 89.8999C119.11 88.6299 118.73 87.3599 118.4 86.3299C118.11 85.4099 117.71 83.8599 117.73 80.5799C117.73 78.5999 117.9 75.8899 118.53 72.6799C119.43 72.4599 120.84 72.0899 122.56 71.5899C125.17 70.8299 126.1 70.46 126.75 70.97C127.46 71.53 127.47 72.86 127.21 73.76C126.6 75.89 124.48 75.8499 123.68 77.6499C122.99 79.2099 123.85 80.94 125.35 83.85C127.92 88.84 129.58 89.01 129.88 91.45C130.38 95.55 126.24 99.5599 125.38 99.2099Z" fill="url(#paint40_linear_302_2630)" stroke="#1E0E00" stroke-width="0.25" stroke-miterlimit="10"/>
<path d="M138.29 74.6101C135.65 76.4201 133.02 78.2301 130.38 80.0401C130.14 80.6201 128.96 83.5701 130.38 86.4001C130.97 87.5801 132.28 89.5901 133.48 89.3501C134.32 89.1801 134.76 87.9901 134.82 87.8401C135.07 87.1701 134.92 86.8301 134.87 85.0101C134.84 83.7801 134.82 83.1501 135.03 82.8401C135.8 81.7001 138.14 81.4901 138.6 82.2201C139.31 83.3401 135.09 85.5801 133.33 90.9101C133.16 91.4301 131.23 97.4501 133.85 99.2601C135.75 100.58 138.94 98.9001 139.42 98.6401C140.96 96.2201 142.5 93.7901 144.03 91.3701C144.56 88.9801 145.27 84.3801 143.87 79.8901C142.88 76.7001 141.49 75.7301 140.92 75.3901C139.93 74.8001 138.93 74.6501 138.28 74.6101H138.29Z" fill="url(#paint41_linear_302_2630)" stroke="#1E0E00" stroke-width="0.25" stroke-miterlimit="10"/>
<path d="M54.8499 156.09C53.1499 155.13 51.1999 153.63 50.7699 151.43C50.1799 148.4 52.7999 145.64 51.9399 144.83C51.0899 144.02 48.1199 146.35 47.6699 145.8C47.2699 145.31 49.5799 143.41 52.7199 139.2C54.7499 136.47 55.4399 135.04 57.3799 134.35C58.9799 133.78 59.4999 134.39 60.6799 133.77C63.3199 132.37 64.4699 127.26 62.6199 125.03C61.0699 123.16 58.5599 124.7 57.3799 123.09C55.5299 120.56 61.0199 115.77 59.5199 109.3C59.1199 107.57 58.3699 106.38 58.3499 106.39C58.3199 106.4 60.5099 111.6 70.5799 135.13C69.8099 135.05 62.5999 134.43 57.5699 139.98C53.6999 144.26 52.6399 150.54 54.8499 156.1V156.09Z" fill="url(#paint42_linear_302_2630)"/>
<path d="M27.12 153.72C23.97 153.24 21.26 152.12 19.01 150.36C16.76 148.6 15.06 146.25 13.9 143.32C16.83 142.72 19.76 142.13 22.69 141.53C23.35 142.35 24.53 143.6 26.33 144.61C28.27 145.7 29.98 146.02 30.47 146.07C32.06 146.23 33.86 146.09 35.85 145.64C39 144.93 41.29 143.68 42.72 141.91C44.15 140.14 44.58 137.99 44.02 135.49L43.64 133.8C43.01 131.02 41.69 129.05 39.7 127.9C37.7 126.75 35.19 126.52 32.17 127.21C30.47 127.65 28.77 128.1 27.06 128.54C26.56 126.05 26.06 123.56 25.56 121.06L30.49 119.77C33.14 119.17 35.05 118.05 36.22 116.42C37.39 114.78 37.7 112.78 37.17 110.4L36.78 108.67C36.28 106.47 35.13 104.95 33.31 104.1C30.82 102.93 28.25 103.41 26.33 103.79C25.37 103.98 23.94 104.28 22.3 105.19C21.1 105.86 20.27 106.59 19.9 106.94C19.74 107.09 19.12 107.68 18.44 108.58C17.13 110.33 16.37 112.21 15.93 113.6C13.59 114.13 11.25 114.67 8.89999 115.2C8.76999 113.22 8.83999 109.82 10.45 106.46C11.06 105.18 11.77 104.19 11.98 103.9C13.04 102.43 14.35 101.14 15.9 100.03C18.29 98.3101 21.2 97.0601 24.63 96.2801C30.49 94.9501 35.31 95.1901 39.09 96.9901C42.87 98.7901 45.29 101.99 46.33 106.59L46.54 107.51C47.17 110.3 46.8 112.93 45.43 115.42C44.06 117.91 41.8 120 38.65 121.71C42.51 121.53 45.72 122.38 48.29 124.24C50.86 126.1 52.55 128.83 53.37 132.44L53.58 133.36C54.32 136.61 54.18 139.55 53.18 142.2C52.17 144.85 50.35 147.1 47.71 148.96C45.07 150.82 41.69 152.22 37.58 153.15C33.78 154.01 30.3 154.2 27.15 153.72H27.12Z" fill="#4DC8FF"/>
<path d="M122.71 18.1702C122.43 18.5602 122.15 18.9501 121.87 19.3401C122.17 20.5101 122.48 21.6701 122.78 22.8401C123.61 23.4301 124.43 24.0301 125.26 24.6201C126.61 24.9101 127.95 25.2001 129.3 25.4901C129.41 24.8301 129.52 24.1801 129.63 23.5201C128.87 22.3101 128.1 21.0902 127.34 19.8802C126.67 19.5302 126 19.1802 125.34 18.8202L122.72 18.1602L122.71 18.1702Z" fill="#001147" stroke="url(#paint43_linear_302_2630)" stroke-width="0.35" stroke-linecap="round" stroke-linejoin="round"/>
<path d="M139.46 18.4701C137.66 19.1701 135.85 19.8601 134.05 20.5601C133.56 19.7101 133.07 18.8501 132.58 18.0001C131.86 17.2801 131.13 16.5501 130.41 15.8301C131.24 14.8501 132.08 13.8701 132.91 12.8901C135.09 14.7501 137.28 16.6101 139.46 18.4701Z" fill="#001147" stroke="url(#paint44_linear_302_2630)" stroke-width="0.35" stroke-linecap="round" stroke-linejoin="round"/>
<path d="M143.34 15.5501C142.05 16.4501 140.76 17.3502 139.46 18.2502C138.39 17.4202 137.32 16.5902 136.25 15.7602C135.13 14.8102 134.01 13.8501 132.89 12.9001C134.16 11.9901 135.43 11.0702 136.7 10.1602C137.52 11.0902 138.34 12.0102 139.16 12.9402C140.55 13.8102 141.94 14.6902 143.33 15.5602L143.34 15.5501Z" fill="#001147" stroke="url(#paint45_linear_302_2630)" stroke-width="0.35" stroke-linecap="round" stroke-linejoin="round"/>
<path d="M146.23 16.36C144.93 16.36 143.63 16.36 142.33 16.35C141.2 15.15 140.06 13.95 138.93 12.76C138.19 11.89 137.45 11.02 136.71 10.15C139.15 9.94002 141.6 9.73002 144.04 9.52002C144.77 11.8 145.5 14.08 146.22 16.37L146.23 16.36Z" fill="#001147" stroke="url(#paint46_linear_302_2630)" stroke-width="0.35" stroke-linecap="round" stroke-linejoin="round"/>
<path d="M144.19 9.62012C146.24 9.85012 148.3 10.0801 150.35 10.3101C150.12 11.4801 149.89 12.6401 149.66 13.8101C149.76 14.6001 149.85 15.3901 149.95 16.1901C148.66 16.2101 147.38 16.2201 146.09 16.2401C145.46 14.0301 144.82 11.8301 144.19 9.62012Z" fill="#001147" stroke="url(#paint47_linear_302_2630)" stroke-width="0.35" stroke-linecap="round" stroke-linejoin="round"/>
<path d="M153.62 16.6901C152.58 18.0201 151.53 19.3401 150.49 20.6701C150.14 18.2201 149.79 15.78 149.44 13.33C149.75 12.32 150.06 11.3201 150.36 10.3101C151.2 11.1101 152.04 11.9001 152.88 12.7001C153.13 14.0301 153.37 15.3601 153.62 16.6901Z" fill="#001147" stroke="url(#paint48_linear_302_2630)" stroke-width="0.35" stroke-linecap="round" stroke-linejoin="round"/>
<path d="M121.17 23.4101L122.78 22.8301" stroke="url(#paint49_linear_302_2630)" stroke-width="0.35" stroke-linecap="round" stroke-linejoin="round"/>
<path d="M119.82 19.28L121.87 19.33" stroke="url(#paint50_linear_302_2630)" stroke-width="0.35" stroke-linecap="round" stroke-linejoin="round"/>
<path d="M121.52 16.23L122.71 18.17" stroke="url(#paint51_linear_302_2630)" stroke-width="0.35" stroke-linecap="round" stroke-linejoin="round"/>
<path d="M125.75 17.1301L125.4 18.8601" stroke="url(#paint52_linear_302_2630)" stroke-width="0.35" stroke-linecap="round" stroke-linejoin="round"/>
<path d="M128.43 18.1201L127.49 19.9201" stroke="url(#paint53_linear_302_2630)" stroke-width="0.35" stroke-linecap="round" stroke-linejoin="round"/>
<path d="M129.6 19.6301L129.62 23.5201" stroke="url(#paint54_linear_302_2630)" stroke-width="0.35" stroke-linecap="round" stroke-linejoin="round"/>
<path d="M125.25 24.6101L125.33 26.0501" stroke="url(#paint55_linear_302_2630)" stroke-width="0.35" stroke-linecap="round" stroke-linejoin="round"/>
<path d="M129.3 25.49L130.71 27.62" stroke="url(#paint56_linear_302_2630)" stroke-width="0.35" stroke-linecap="round" stroke-linejoin="round"/>
<path d="M129.62 23.3401L131.01 25.4901" stroke="url(#paint57_linear_302_2630)" stroke-width="0.35" stroke-linecap="round" stroke-linejoin="round"/>
<path d="M147.56 22.02L150.08 22.7" stroke="url(#paint58_linear_302_2630)" stroke-width="0.35" stroke-linecap="round" stroke-linejoin="round"/>
<path d="M136.19 22.3901L138.53 24.3401" stroke="url(#paint59_linear_302_2630)" stroke-width="0.35" stroke-linecap="round" stroke-linejoin="round"/>
<path d="M134.1 25.1101L138.64 25.6901" stroke="url(#paint60_linear_302_2630)" stroke-width="0.35" stroke-linecap="round" stroke-linejoin="round"/>
<path d="M135.93 27.9601L139.95 26.8201" stroke="url(#paint61_linear_302_2630)" stroke-width="0.35" stroke-linecap="round" stroke-linejoin="round"/>
<path d="M142.13 27.5601L139.91 29.61" stroke="url(#paint62_linear_302_2630)" stroke-width="0.35" stroke-linecap="round" stroke-linejoin="round"/>
<path d="M138.83 21.1699L139.41 22.6399" stroke="url(#paint63_linear_302_2630)" stroke-width="0.35" stroke-linecap="round" stroke-linejoin="round"/>
<path d="M144.01 18.1699L143.39 21.6999" stroke="url(#paint64_linear_302_2630)" stroke-width="0.35" stroke-linecap="round" stroke-linejoin="round"/>
<path d="M146.07 18.75L145.44 22.17" stroke="url(#paint65_linear_302_2630)" stroke-width="0.35" stroke-linecap="round" stroke-linejoin="round"/>
<path d="M145.74 24.59L147.56 22.02" stroke="url(#paint66_linear_302_2630)" stroke-width="0.35" stroke-linecap="round" stroke-linejoin="round"/>
<path d="M144.65 26.73L145.24 31.12" stroke="url(#paint67_linear_302_2630)" stroke-width="0.35" stroke-linecap="round" stroke-linejoin="round"/>
<path d="M150.04 22.3999L150.08 25.3299" stroke="url(#paint68_linear_302_2630)" stroke-width="0.35" stroke-linecap="round" stroke-linejoin="round"/>
<path d="M151.27 23.43L151.53 22.26" stroke="url(#paint69_linear_302_2630)" stroke-width="0.35" stroke-linecap="round" stroke-linejoin="round"/>
<path d="M153.05 22.3999L152.95 21.7" stroke="url(#paint70_linear_302_2630)" stroke-width="0.35" stroke-linecap="round" stroke-linejoin="round"/>
<path d="M154.46 22.9L157 18.71" stroke="url(#paint71_linear_302_2630)" stroke-width="0.35" stroke-linecap="round" stroke-linejoin="round"/>
<path d="M154.82 23.3801L158.17 20.8101" stroke="url(#paint72_linear_302_2630)" stroke-width="0.35" stroke-linecap="round" stroke-linejoin="round"/>
<path d="M155 25.42L157.81 23.54" stroke="url(#paint73_linear_302_2630)" stroke-width="0.35" stroke-linecap="round" stroke-linejoin="round"/>
<path d="M154.03 27.3901L155.38 27.7001" stroke="url(#paint74_linear_302_2630)" stroke-width="0.35" stroke-linecap="round" stroke-linejoin="round"/>
<path d="M151.98 28.28L152.78 29.35" stroke="url(#paint75_linear_302_2630)" stroke-width="0.35" stroke-linecap="round" stroke-linejoin="round"/>
<path d="M159.11 21.7L157.81 23.5399" stroke="url(#paint76_linear_302_2630)" stroke-width="0.35" stroke-linecap="round" stroke-linejoin="round"/>
<path d="M155.38 27.7L157.81 23.54" stroke="url(#paint77_linear_302_2630)" stroke-width="0.35" stroke-linecap="round" stroke-linejoin="round"/>
<path d="M152.78 29.3499L155.52 27.7" stroke="url(#paint78_linear_302_2630)" stroke-width="0.35" stroke-linecap="round" stroke-linejoin="round"/>
<path d="M153.62 29.8001L152.78 29.3501" stroke="url(#paint79_linear_302_2630)" stroke-width="0.35" stroke-linecap="round" stroke-linejoin="round"/>
<path d="M155.52 27.7L156.94 27.26" stroke="url(#paint80_linear_302_2630)" stroke-width="0.35" stroke-linecap="round" stroke-linejoin="round"/>
<path d="M147.56 22.02L148.08 28.28" stroke="url(#paint81_linear_302_2630)" stroke-width="0.35" stroke-linecap="round" stroke-linejoin="round"/>
<path d="M150.08 25.3301L150.04 28.2801" stroke="url(#paint82_linear_302_2630)" stroke-width="0.35" stroke-linecap="round" stroke-linejoin="round"/>
<path d="M144.56 26.76L147.96 28.28" stroke="url(#paint83_linear_302_2630)" stroke-width="0.35" stroke-linecap="round" stroke-linejoin="round"/>
<path d="M150.69 27.7L150.04 28.2799" stroke="url(#paint84_linear_302_2630)" stroke-width="0.35" stroke-linecap="round" stroke-linejoin="round"/>
<path d="M142.48 30.95L142.94 31.8099" stroke="url(#paint85_linear_302_2630)" stroke-width="0.35" stroke-linecap="round" stroke-linejoin="round"/>
<path d="M145.23 31.04L145.75 32.69" stroke="url(#paint86_linear_302_2630)" stroke-width="0.35" stroke-miterlimit="10" stroke-linecap="round"/>
<path d="M149.27 29.16L150.04 28.28" stroke="url(#paint87_linear_302_2630)" stroke-width="0.35" stroke-miterlimit="10" stroke-linecap="round"/>
<path d="M148.08 28.28L149.27 29.16" stroke="url(#paint88_linear_302_2630)" stroke-width="0.35" stroke-miterlimit="10" stroke-linecap="round"/>
<path d="M147.19 29.3299L147.94 28.3999" stroke="url(#paint89_linear_302_2630)" stroke-width="0.35" stroke-miterlimit="10" stroke-linecap="round"/>
<path d="M150.76 29.58L150.04 28.28" stroke="url(#paint90_linear_302_2630)" stroke-width="0.35" stroke-miterlimit="10" stroke-linecap="round"/>
<path d="M149.27 30.8901L150.76 29.5801" stroke="url(#paint91_linear_302_2630)" stroke-width="0.35" stroke-miterlimit="10" stroke-linecap="round"/>
<path d="M147.19 29.3301L149.12 30.8901" stroke="url(#paint92_linear_302_2630)" stroke-width="0.35" stroke-miterlimit="10" stroke-linecap="round"/>
<path d="M145.23 31.0401L147.27 29.3301" stroke="url(#paint93_linear_302_2630)" stroke-width="0.35" stroke-miterlimit="10" stroke-linecap="round"/>
<path d="M150.76 29.5801L152.38 30.5101" stroke="url(#paint94_linear_302_2630)" stroke-width="0.35" stroke-miterlimit="10" stroke-linecap="round"/>
<path d="M149.18 30.9199L149.01 33.8999" stroke="url(#paint95_linear_302_2630)" stroke-width="0.35" stroke-miterlimit="10" stroke-linecap="round"/>
<path d="M147.27 33.5799L149.01 30.95" stroke="url(#paint96_linear_302_2630)" stroke-width="0.35" stroke-miterlimit="10" stroke-linecap="round"/>
<path d="M150.28 32.3599L149.18 30.9199" stroke="url(#paint97_linear_302_2630)" stroke-width="0.35" stroke-miterlimit="10" stroke-linecap="round"/>
<path d="M90.6899 89.26C91.6699 91.5 92.6599 94.29 93.3299 97.56C94.5699 103.61 94.2 108.82 93.64 112.37C93.93 112.28 94.3299 112.13 94.7299 111.83C95.5099 111.23 97.0699 109.46 95.2699 99.89C94.7799 97.31 94.0099 93.9 92.7099 89.96C92.7799 89.87 93.3699 89.14 94.1799 89.18C95.0599 89.23 95.91 90.17 95.89 91.43C96.92 95.29 97.7799 99.56 98.2899 104.23C98.4199 105.42 98.5199 106.58 98.5999 107.72C99.1199 107.31 99.6299 106.89 100.15 106.48C99.9099 105.37 99.5599 103.58 99.2199 101.36C98.0799 93.82 98.5899 90.63 96.2699 88.56C95.5899 87.95 94.3699 87.18 92.1599 87.01C91.6699 87.76 91.1799 88.51 90.6899 89.26Z" fill="#B486E1"/>
<path d="M126.09 94.71C125.79 95.63 125.43 97.02 125.31 98.74C125.19 100.62 125.42 102.02 125.47 102.31C126.14 106.82 121.08 117.89 120.35 119.53C119.07 122.42 114.06 133.68 117.56 143.42C119.77 149.56 126.41 158.02 134.78 156.91C140.45 156.16 145.39 151.22 147.5 144.5C147.24 141.6 146.94 138.66 146.57 135.66C145.2 124.5 143.2 114.1 140.84 104.52C140.32 102.18 139.8 99.84 139.28 97.5C138.43 98 136.33 99.09 133.54 98.9C129.07 98.59 126.49 95.25 126.09 94.71Z" fill="url(#paint98_linear_302_2630)"/>
<path d="M117.78 155.2C117.78 156.37 125.28 158.51 133.05 156.8C138.48 155.6 142.34 152.9 144.48 151.11C145.07 149.56 145.65 148.01 146.24 146.46C146.56 145.03 148.38 136.35 144.38 133.33C144.29 133.26 142.81 132.17 142.21 132.61C141.3 133.27 143.65 136.44 143.35 140.06C143.08 143.23 140.89 145.44 139.42 146.88C131.28 154.87 117.8 153.63 117.79 155.21L117.78 155.2Z" fill="url(#paint99_linear_302_2630)" stroke="#1E0E00" stroke-width="0.25" stroke-miterlimit="10"/>
<path d="M116.6 144.6C117.74 140.07 119.57 138.4 121.05 137.72C122.54 137.04 123.65 137.37 125.08 136.17C126.86 134.67 126.89 132.68 128.03 132.6C128.75 132.55 129.67 133.27 129.89 134.15C130.39 136.12 126.95 137.22 125.86 141.29C125.57 142.38 125.22 143.69 125.86 144.7C127.27 146.92 132.56 146.27 135.94 144.7C139.59 143.01 141.55 140.01 142.45 138.34C142.34 137.71 142.15 136.79 141.83 135.7C140.97 132.83 140 131.6 140.59 130.43C140.82 129.98 141.33 129.41 141.99 129.34C143.91 129.13 146.22 133.29 146.8 136.94C147.08 138.68 146.93 140.13 146.8 140.97C145.42 143.18 144.04 145.38 142.66 147.59C142.14 148.38 141.34 149.47 140.18 150.59C137.9 152.78 135.61 153.77 134.08 154.42C128.33 156.84 121.96 157.01 119.6 157.01C119.06 156.59 115.51 153.74 115.46 149.15C115.44 147.11 116.11 145.51 116.6 144.6Z" fill="url(#paint100_linear_302_2630)" stroke="#1E0E00" stroke-width="0.25" stroke-miterlimit="10"/>
<path d="M109.21 143.69C104.57 145.1 99.9399 146.51 95.2999 147.92C100.01 149.66 104.72 151.41 109.44 153.15L109.34 149.07L157.56 149.1V147.14L109.29 147.11L109.21 143.69Z" fill="#001147" stroke="url(#paint101_linear_302_2630)" stroke-width="0.5" stroke-linecap="round" stroke-linejoin="round"/>
<path d="M133.13 112.84C130.79 112.93 128.45 113.01 126.11 113.1C126.67 115.61 127.22 118.13 127.78 120.64L130.09 117.27L145.99 128.41L147.11 126.8L131.19 115.64L133.12 112.82L133.13 112.84Z" fill="#001147" stroke="url(#paint102_linear_302_2630)" stroke-width="0.5" stroke-linecap="round" stroke-linejoin="round"/>
<path d="M142.56 103.47C142.21 102.04 141.69 101.04 141.01 99.7499C140.84 99.4299 140.45 98.6399 139.95 97.8199L139.2 97.6199C139.6 98.2899 139.91 98.9299 140.05 99.1999C140.61 100.28 141.05 101.12 141.33 102.32C141.81 104.33 142.1 108.27 140.25 109.44C138.26 110.69 134.79 108.13 132.45 106.41C130.63 105.07 128.45 103.45 127.13 100.4C126.12 98.0799 126.04 95.9499 126.09 94.7199C125.59 94.2799 125.09 93.8399 124.59 93.3999C124.34 94.8899 124.04 97.9099 125.38 101.19C126.84 104.76 129.39 106.6 131.82 108.36C134.65 110.42 138.85 113.48 141.26 111.98C143.5 110.58 143.15 105.87 142.57 103.47H142.56Z" fill="#FF36B5"/>
<path d="M124.02 80.6901C123.87 80.7501 124.22 82.5301 125.37 84.6601C127.04 87.7601 128.28 87.6801 128.9 89.9401C129.48 92.0501 128.95 94.1501 128.79 94.7501C128.57 95.5801 128.28 96.2401 128.05 96.7201C128.63 97.2001 129.52 97.81 130.71 98.27C132.22 98.85 133.56 98.94 134.39 98.93C133.97 98.2 133.49 97.1401 133.26 95.8101C132.75 92.7901 133.87 90.3801 134.35 89.4701C133.59 89.5701 132.26 89.6601 130.82 89.1401C126 87.4201 124.31 80.5601 124.01 80.6901H124.02Z" fill="url(#paint103_linear_302_2630)"/>
<path opacity="0.5" d="M131.52 75.8C131.71 75.69 132.21 75.45 132.83 75.55C133.62 75.69 134.27 76.34 134.49 77.22L136.72 75.86C136.34 74.52 135.27 73.63 134.18 73.65C133.39 73.66 132.82 74.15 132.61 74.34C132.25 74.82 131.89 75.31 131.52 75.79V75.8Z" fill="url(#paint104_linear_302_2630)"/>
</g>
<defs>
<linearGradient id="paint0_linear_302_2630" x1="12.39" y1="105.9" x2="35.25" y2="66.31" gradientUnits="userSpaceOnUse">
<stop stop-color="#001147"/>
<stop offset="0.82" stop-color="#8773EF"/>
<stop offset="1" stop-color="#8B76F5"/>
</linearGradient>
<linearGradient id="paint1_linear_302_2630" x1="22.8399" y1="93.97" x2="37.8599" y2="67.95" gradientUnits="userSpaceOnUse">
<stop stop-color="#04004A"/>
<stop offset="1" stop-color="#F4009B"/>
</linearGradient>
<linearGradient id="paint2_linear_302_2630" x1="17.08" y1="72.8301" x2="60.28" y2="72.8301" gradientUnits="userSpaceOnUse">
<stop offset="0.09" stop-color="#FF00EC"/>
<stop offset="1" stop-color="#E7029D"/>
</linearGradient>
<linearGradient id="paint3_linear_302_2630" x1="58.77" y1="124.58" x2="118.52" y2="124.58" gradientUnits="userSpaceOnUse">
<stop offset="0.04" stop-color="#8B76F5"/>
<stop offset="0.12" stop-color="#8873EA"/>
<stop offset="0.27" stop-color="#816ECE"/>
<stop offset="0.44" stop-color="#7767A7"/>
<stop offset="0.67" stop-color="#665898"/>
<stop offset="1" stop-color="#483F7D"/>
</linearGradient>
<linearGradient id="paint4_linear_302_2630" x1="112.63" y1="104.34" x2="126.11" y2="104.34" gradientUnits="userSpaceOnUse">
<stop offset="0.04" stop-color="#8B76F5"/>
<stop offset="0.12" stop-color="#8873EA"/>
<stop offset="0.27" stop-color="#816ECE"/>
<stop offset="0.44" stop-color="#7767A7"/>
<stop offset="0.67" stop-color="#665898"/>
<stop offset="1" stop-color="#483F7D"/>
</linearGradient>
<linearGradient id="paint5_linear_302_2630" x1="50.55" y1="70.5599" x2="93.1399" y2="70.5599" gradientUnits="userSpaceOnUse">
<stop offset="0.04" stop-color="#8B76F5"/>
<stop offset="0.08" stop-color="#7E6BDE" stop-opacity="0.96"/>
<stop offset="0.13" stop-color="#6F5FC4" stop-opacity="0.92"/>
<stop offset="0.2" stop-color="#6355AE" stop-opacity="0.88"/>
<stop offset="0.27" stop-color="#594D9B" stop-opacity="0.85"/>
<stop offset="0.35" stop-color="#51468D" stop-opacity="0.83"/>
<stop offset="0.45" stop-color="#4C4284" stop-opacity="0.81"/>
<stop offset="0.6" stop-color="#483F7E" stop-opacity="0.8"/>
<stop offset="1" stop-color="#483F7D" stop-opacity="0.8"/>
</linearGradient>
<linearGradient id="paint6_linear_302_2630" x1="41.9999" y1="81.68" x2="103.2" y2="81.68" gradientUnits="userSpaceOnUse">
<stop offset="0.04" stop-color="#8B76F5"/>
<stop offset="0.12" stop-color="#8873EA"/>
<stop offset="0.27" stop-color="#816ECE"/>
<stop offset="0.44" stop-color="#7767A7"/>
<stop offset="0.67" stop-color="#665898"/>
<stop offset="1" stop-color="#483F7D"/>
</linearGradient>
<linearGradient id="paint7_linear_302_2630" x1="88.43" y1="43.9699" x2="97.91" y2="43.9699" gradientUnits="userSpaceOnUse">
<stop stop-color="#8C4500"/>
<stop offset="0.05" stop-color="#7F3F00"/>
<stop offset="0.2" stop-color="#633300"/>
<stop offset="0.36" stop-color="#4C2900"/>
<stop offset="0.53" stop-color="#3D2300"/>
<stop offset="0.73" stop-color="#331F00"/>
<stop offset="1" stop-color="#311E00"/>
</linearGradient>
<linearGradient id="paint8_linear_302_2630" x1="63.0999" y1="65.8999" x2="73.9699" y2="55.0299" gradientUnits="userSpaceOnUse">
<stop offset="0.14" stop-color="#E1BCA2"/>
<stop offset="0.25" stop-color="#D6B29B"/>
<stop offset="0.43" stop-color="#BA9789"/>
<stop offset="0.67" stop-color="#8D6D6B"/>
<stop offset="0.78" stop-color="#75575C"/>
</linearGradient>
<linearGradient id="paint9_linear_302_2630" x1="76.49" y1="51.0299" x2="82.86" y2="51.0299" gradientUnits="userSpaceOnUse">
<stop stop-color="#F9E0D1"/>
<stop offset="0.08" stop-color="#F0D5C7"/>
<stop offset="0.21" stop-color="#D9B9AD"/>
<stop offset="0.38" stop-color="#B48C84"/>
<stop offset="0.41" stop-color="#AE847D"/>
<stop offset="0.94" stop-color="#6B5A62"/>
</linearGradient>
<linearGradient id="paint10_linear_302_2630" x1="68.7" y1="48.1401" x2="69.61" y2="48.1401" gradientUnits="userSpaceOnUse">
<stop stop-color="#F9E0D1"/>
<stop offset="0.08" stop-color="#F0D5C7"/>
<stop offset="0.21" stop-color="#D9B9AD"/>
<stop offset="0.38" stop-color="#B48C84"/>
<stop offset="0.41" stop-color="#AE847D"/>
<stop offset="0.94" stop-color="#6B5A62"/>
</linearGradient>
<linearGradient id="paint11_linear_302_2630" x1="77.49" y1="36.25" x2="82.32" y2="36.25" gradientUnits="userSpaceOnUse">
<stop stop-color="#F9E0D1"/>
<stop offset="0.08" stop-color="#F0D5C7"/>
<stop offset="0.21" stop-color="#D9B9AD"/>
<stop offset="0.38" stop-color="#B48C84"/>
<stop offset="0.41" stop-color="#AE847D"/>
<stop offset="0.94" stop-color="#6B5A62"/>
</linearGradient>
<linearGradient id="paint12_linear_302_2630" x1="74.5699" y1="43.5899" x2="77.69" y2="43.5899" gradientUnits="userSpaceOnUse">
<stop stop-color="#F9E0D1"/>
<stop offset="0.08" stop-color="#F0D5C7"/>
<stop offset="0.21" stop-color="#D9B9AD"/>
<stop offset="0.38" stop-color="#B48C84"/>
<stop offset="0.41" stop-color="#AE847D"/>
<stop offset="0.94" stop-color="#6B5A62"/>
</linearGradient>
<linearGradient id="paint13_linear_302_2630" x1="59.63" y1="29.9899" x2="72.13" y2="29.9899" gradientUnits="userSpaceOnUse">
<stop stop-color="#F9E0D1"/>
<stop offset="0.08" stop-color="#F0D5C7"/>
<stop offset="0.21" stop-color="#D9B9AD"/>
<stop offset="0.38" stop-color="#B48C84"/>
<stop offset="0.41" stop-color="#AE847D"/>
<stop offset="0.94" stop-color="#6B5A62"/>
</linearGradient>
<linearGradient id="paint14_linear_302_2630" x1="79.8099" y1="29.3901" x2="86.97" y2="29.3901" gradientUnits="userSpaceOnUse">
<stop stop-color="#F9E0D1"/>
<stop offset="0.08" stop-color="#F0D5C7"/>
<stop offset="0.21" stop-color="#D9B9AD"/>
<stop offset="0.38" stop-color="#B48C84"/>
<stop offset="0.41" stop-color="#AE847D"/>
<stop offset="0.94" stop-color="#6B5A62"/>
</linearGradient>
<linearGradient id="paint15_linear_302_2630" x1="36.86" y1="46.1099" x2="60.29" y2="46.1099" gradientUnits="userSpaceOnUse">
<stop stop-color="#8C4500"/>
<stop offset="0.01" stop-color="#864200"/>
<stop offset="0.08" stop-color="#6C3700"/>
<stop offset="0.16" stop-color="#562E00"/>
<stop offset="0.26" stop-color="#452600"/>
<stop offset="0.38" stop-color="#392100"/>
<stop offset="0.54" stop-color="#321E00"/>
<stop offset="1" stop-color="#311E00"/>
</linearGradient>
<linearGradient id="paint16_linear_302_2630" x1="44.65" y1="48.4099" x2="61.76" y2="48.4099" gradientUnits="userSpaceOnUse">
<stop stop-color="#8C4500"/>
<stop offset="0.01" stop-color="#864200"/>
<stop offset="0.08" stop-color="#6C3700"/>
<stop offset="0.16" stop-color="#562E00"/>
<stop offset="0.26" stop-color="#452600"/>
<stop offset="0.38" stop-color="#392100"/>
<stop offset="0.54" stop-color="#321E00"/>
<stop offset="1" stop-color="#311E00"/>
</linearGradient>
<linearGradient id="paint17_linear_302_2630" x1="94.6199" y1="66.3801" x2="94.6199" y2="11.1401" gradientUnits="userSpaceOnUse">
<stop stop-color="#8C4500"/>
<stop offset="0.05" stop-color="#7F3F00"/>
<stop offset="0.2" stop-color="#633300"/>
<stop offset="0.36" stop-color="#4C2900"/>
<stop offset="0.53" stop-color="#3D2300"/>
<stop offset="0.73" stop-color="#331F00"/>
<stop offset="1" stop-color="#311E00"/>
</linearGradient>
<linearGradient id="paint18_linear_302_2630" x1="56.3599" y1="85.6301" x2="56.3599" y2="12.7201" gradientUnits="userSpaceOnUse">
<stop stop-color="#8C4500"/>
<stop offset="0.05" stop-color="#7F3F00"/>
<stop offset="0.2" stop-color="#633300"/>
<stop offset="0.36" stop-color="#4C2900"/>
<stop offset="0.53" stop-color="#3D2300"/>
<stop offset="0.73" stop-color="#331F00"/>
<stop offset="1" stop-color="#311E00"/>
</linearGradient>
<linearGradient id="paint19_linear_302_2630" x1="107.24" y1="32.9301" x2="136.87" y2="32.9301" gradientUnits="userSpaceOnUse">
<stop offset="0.09" stop-color="#FF00EC"/>
<stop offset="1" stop-color="#E7029D"/>
</linearGradient>
<linearGradient id="paint20_linear_302_2630" x1="151.65" y1="25.48" x2="167.15" y2="25.48" gradientUnits="userSpaceOnUse">
<stop offset="0.09" stop-color="#FF00EC"/>
<stop offset="1" stop-color="#E7029D"/>
</linearGradient>
<linearGradient id="paint21_linear_302_2630" x1="119.69" y1="26.52" x2="160.73" y2="26.52" gradientUnits="userSpaceOnUse">
<stop offset="0.09" stop-color="#FF00EC"/>
<stop offset="0.49" stop-color="#C901A7"/>
</linearGradient>
<linearGradient id="paint22_linear_302_2630" x1="149.83" y1="19.3701" x2="161.21" y2="19.3701" gradientUnits="userSpaceOnUse">
<stop offset="0.09" stop-color="#FF00EC"/>
<stop offset="0.49" stop-color="#C901A7"/>
</linearGradient>
<linearGradient id="paint23_linear_302_2630" x1="130.86" y1="23.34" x2="147.81" y2="23.34" gradientUnits="userSpaceOnUse">
<stop offset="0.09" stop-color="#FF00EC"/>
<stop offset="0.49" stop-color="#C901A7"/>
</linearGradient>
<linearGradient id="paint24_linear_302_2630" x1="138.28" y1="24.6299" x2="145.99" y2="24.6299" gradientUnits="userSpaceOnUse">
<stop offset="0.09" stop-color="#FF00EC"/>
<stop offset="0.49" stop-color="#C901A7"/>
</linearGradient>
<linearGradient id="paint25_linear_302_2630" x1="140.08" y1="24.6001" x2="145.07" y2="24.6001" gradientUnits="userSpaceOnUse">
<stop offset="0.09" stop-color="#FF00EC"/>
<stop offset="0.49" stop-color="#C901A7"/>
</linearGradient>
<linearGradient id="paint26_linear_302_2630" x1="150.05" y1="25.3401" x2="155.25" y2="25.3401" gradientUnits="userSpaceOnUse">
<stop offset="0.09" stop-color="#FF00EC"/>
<stop offset="0.49" stop-color="#C901A7"/>
</linearGradient>
<linearGradient id="paint27_linear_302_2630" x1="150.83" y1="25.5599" x2="154.51" y2="25.5599" gradientUnits="userSpaceOnUse">
<stop offset="0.09" stop-color="#FF00EC"/>
<stop offset="0.49" stop-color="#C901A7"/>
</linearGradient>
<linearGradient id="paint28_linear_302_2630" x1="147.596" y1="39.6241" x2="152.06" y2="39.5758" gradientUnits="userSpaceOnUse">
<stop offset="0.09" stop-color="#FF00EC"/>
<stop offset="0.49" stop-color="#C901A7"/>
</linearGradient>
<linearGradient id="paint29_linear_302_2630" x1="148.1" y1="35.0124" x2="152.871" y2="34.9799" gradientUnits="userSpaceOnUse">
<stop offset="0.09" stop-color="#FF00EC"/>
<stop offset="0.49" stop-color="#C901A7"/>
</linearGradient>
<linearGradient id="paint30_linear_302_2630" x1="142.23" y1="39.6701" x2="147.32" y2="39.6701" gradientUnits="userSpaceOnUse">
<stop offset="0.09" stop-color="#FF00EC"/>
<stop offset="0.49" stop-color="#C901A7"/>
</linearGradient>
<linearGradient id="paint31_linear_302_2630" x1="143.9" y1="35.1499" x2="147.45" y2="35.1499" gradientUnits="userSpaceOnUse">
<stop offset="0.09" stop-color="#FF00EC"/>
<stop offset="0.49" stop-color="#C901A7"/>
</linearGradient>
<linearGradient id="paint32_linear_302_2630" x1="145.21" y1="39.47" x2="148.69" y2="39.47" gradientUnits="userSpaceOnUse">
<stop offset="0.09" stop-color="#FF00EC"/>
<stop offset="0.49" stop-color="#C901A7"/>
</linearGradient>
<linearGradient id="paint33_linear_302_2630" x1="147.01" y1="35.3899" x2="149.21" y2="35.3899" gradientUnits="userSpaceOnUse">
<stop offset="0.09" stop-color="#FF00EC"/>
<stop offset="0.49" stop-color="#C901A7"/>
</linearGradient>
<linearGradient id="paint34_linear_302_2630" x1="147.44" y1="39.0399" x2="150.23" y2="39.0399" gradientUnits="userSpaceOnUse">
<stop offset="0.09" stop-color="#FF00EC"/>
<stop offset="0.49" stop-color="#C901A7"/>
</linearGradient>
<linearGradient id="paint35_linear_302_2630" x1="148.72" y1="34.8201" x2="150.8" y2="34.8201" gradientUnits="userSpaceOnUse">
<stop offset="0.09" stop-color="#FF00EC"/>
<stop offset="0.49" stop-color="#C901A7"/>
</linearGradient>
<linearGradient id="paint36_linear_302_2630" x1="155.07" y1="98.17" x2="165.03" y2="98.17" gradientUnits="userSpaceOnUse">
<stop offset="0.09" stop-color="#FF00EC"/>
<stop offset="1" stop-color="#E7029D"/>
</linearGradient>
<linearGradient id="paint37_linear_302_2630" x1="123.81" y1="72.5" x2="143.27" y2="72.5" gradientUnits="userSpaceOnUse">
<stop offset="0.26" stop-color="#F1D1C2"/>
<stop offset="0.44" stop-color="#E8C6B8"/>
<stop offset="0.75" stop-color="#D2AAA0"/>
<stop offset="0.87" stop-color="#C99E95"/>
</linearGradient>
<linearGradient id="paint38_linear_302_2630" x1="127.36" y1="69.96" x2="132.21" y2="78.37" gradientUnits="userSpaceOnUse">
<stop offset="0.21" stop-color="#F1D1C2"/>
<stop offset="0.37" stop-color="#E8C6B8"/>
<stop offset="0.64" stop-color="#D2AAA0"/>
<stop offset="0.75" stop-color="#C99E95"/>
</linearGradient>
<linearGradient id="paint39_linear_302_2630" x1="131.22" y1="73.9401" x2="135.46" y2="81.2801" gradientUnits="userSpaceOnUse">
<stop offset="0.21" stop-color="#F1D1C2"/>
<stop offset="0.37" stop-color="#E8C6B8"/>
<stop offset="0.64" stop-color="#D2AAA0"/>
<stop offset="0.75" stop-color="#C99E95"/>
</linearGradient>
<linearGradient id="paint40_linear_302_2630" x1="117.73" y1="84.9899" x2="129.92" y2="84.9899" gradientUnits="userSpaceOnUse">
<stop offset="0.26" stop-color="#F1D1C2"/>
<stop offset="0.41" stop-color="#EBC6B8"/>
<stop offset="0.67" stop-color="#DBAA9D"/>
<stop offset="0.87" stop-color="#CD9286"/>
</linearGradient>
<linearGradient id="paint41_linear_302_2630" x1="132.27" y1="78.0901" x2="142.96" y2="96.5901" gradientUnits="userSpaceOnUse">
<stop offset="0.21" stop-color="#F1D1C2"/>
<stop offset="0.37" stop-color="#E8C6B8"/>
<stop offset="0.64" stop-color="#D2AAA0"/>
<stop offset="0.75" stop-color="#C99E95"/>
</linearGradient>
<linearGradient id="paint42_linear_302_2630" x1="47.6199" y1="131.24" x2="70.5799" y2="131.24" gradientUnits="userSpaceOnUse">
<stop offset="0.04" stop-color="#8B76F5"/>
<stop offset="0.12" stop-color="#8873EA"/>
<stop offset="0.27" stop-color="#816ECE"/>
<stop offset="0.44" stop-color="#7767A7"/>
<stop offset="0.67" stop-color="#665898"/>
<stop offset="1" stop-color="#483F7D"/>
</linearGradient>
<linearGradient id="paint43_linear_302_2630" x1="121.69" y1="21.8301" x2="129.8" y2="21.8301" gradientUnits="userSpaceOnUse">
<stop offset="0.09" stop-color="#FF00EC"/>
<stop offset="0.49" stop-color="#C901A7"/>
</linearGradient>
<linearGradient id="paint44_linear_302_2630" x1="131.968" y1="18.4729" x2="137.309" y2="14.9099" gradientUnits="userSpaceOnUse">
<stop offset="0.09" stop-color="#FF00EC"/>
<stop offset="0.49" stop-color="#C901A7"/>
</linearGradient>
<linearGradient id="paint45_linear_302_2630" x1="134.96" y1="16.2725" x2="141.249" y2="12.0768" gradientUnits="userSpaceOnUse">
<stop offset="0.09" stop-color="#FF00EC"/>
<stop offset="0.49" stop-color="#C901A7"/>
</linearGradient>
<linearGradient id="paint46_linear_302_2630" x1="139.466" y1="14.5762" x2="145.131" y2="10.7967" gradientUnits="userSpaceOnUse">
<stop offset="0.09" stop-color="#FF00EC"/>
<stop offset="0.49" stop-color="#C901A7"/>
</linearGradient>
<linearGradient id="paint47_linear_302_2630" x1="150.537" y1="12.9698" x2="144.027" y2="12.9914" gradientUnits="userSpaceOnUse">
<stop offset="0.09" stop-color="#FF00EC"/>
<stop offset="0.49" stop-color="#C901A7"/>
</linearGradient>
<linearGradient id="paint48_linear_302_2630" x1="148.641" y1="12.4743" x2="154.06" y2="15.4967" gradientUnits="userSpaceOnUse">
<stop offset="0.09" stop-color="#FF00EC"/>
<stop offset="0.49" stop-color="#C901A7"/>
</linearGradient>
<linearGradient id="paint49_linear_302_2630" x1="120.99" y1="23.1201" x2="122.95" y2="23.1201" gradientUnits="userSpaceOnUse">
<stop offset="0.09" stop-color="#FF00EC"/>
<stop offset="0.49" stop-color="#C901A7"/>
</linearGradient>
<linearGradient id="paint50_linear_302_2630" x1="119.64" y1="19.31" x2="122.04" y2="19.31" gradientUnits="userSpaceOnUse">
<stop offset="0.09" stop-color="#FF00EC"/>
<stop offset="0.49" stop-color="#C901A7"/>
</linearGradient>
<linearGradient id="paint51_linear_302_2630" x1="121.35" y1="17.2" x2="122.88" y2="17.2" gradientUnits="userSpaceOnUse">
<stop offset="0.09" stop-color="#FF00EC"/>
<stop offset="0.49" stop-color="#C901A7"/>
</linearGradient>
<linearGradient id="paint52_linear_302_2630" x1="125.22" y1="18.0001" x2="125.92" y2="18.0001" gradientUnits="userSpaceOnUse">
<stop offset="0.09" stop-color="#FF00EC"/>
<stop offset="0.49" stop-color="#C901A7"/>
</linearGradient>
<linearGradient id="paint53_linear_302_2630" x1="127.32" y1="19.0201" x2="128.61" y2="19.0201" gradientUnits="userSpaceOnUse">
<stop offset="0.09" stop-color="#FF00EC"/>
<stop offset="0.49" stop-color="#C901A7"/>
</linearGradient>
<linearGradient id="paint54_linear_302_2630" x1="129.42" y1="21.5801" x2="129.8" y2="21.5801" gradientUnits="userSpaceOnUse">
<stop offset="0.09" stop-color="#FF00EC"/>
<stop offset="0.49" stop-color="#C901A7"/>
</linearGradient>
<linearGradient id="paint55_linear_302_2630" x1="125.08" y1="25.3301" x2="125.51" y2="25.3301" gradientUnits="userSpaceOnUse">
<stop offset="0.09" stop-color="#FF00EC"/>
<stop offset="0.49" stop-color="#C901A7"/>
</linearGradient>
<linearGradient id="paint56_linear_302_2630" x1="129.12" y1="26.55" x2="130.88" y2="26.55" gradientUnits="userSpaceOnUse">
<stop offset="0.09" stop-color="#FF00EC"/>
<stop offset="0.49" stop-color="#C901A7"/>
</linearGradient>
<linearGradient id="paint57_linear_302_2630" x1="129.45" y1="24.4101" x2="131.18" y2="24.4101" gradientUnits="userSpaceOnUse">
<stop offset="0.09" stop-color="#FF00EC"/>
<stop offset="0.49" stop-color="#C901A7"/>
</linearGradient>
<linearGradient id="paint58_linear_302_2630" x1="147.38" y1="22.36" x2="150.25" y2="22.36" gradientUnits="userSpaceOnUse">
<stop offset="0.09" stop-color="#FF00EC"/>
<stop offset="0.49" stop-color="#C901A7"/>
</linearGradient>
<linearGradient id="paint59_linear_302_2630" x1="136.01" y1="23.3601" x2="138.71" y2="23.3601" gradientUnits="userSpaceOnUse">
<stop offset="0.09" stop-color="#FF00EC"/>
<stop offset="0.49" stop-color="#C901A7"/>
</linearGradient>
<linearGradient id="paint60_linear_302_2630" x1="133.92" y1="25.4001" x2="138.82" y2="25.4001" gradientUnits="userSpaceOnUse">
<stop offset="0.09" stop-color="#FF00EC"/>
<stop offset="0.49" stop-color="#C901A7"/>
</linearGradient>
<linearGradient id="paint61_linear_302_2630" x1="135.76" y1="27.3901" x2="140.13" y2="27.3901" gradientUnits="userSpaceOnUse">
<stop offset="0.09" stop-color="#FF00EC"/>
<stop offset="0.49" stop-color="#C901A7"/>
</linearGradient>
<linearGradient id="paint62_linear_302_2630" x1="139.73" y1="28.5801" x2="142.3" y2="28.5801" gradientUnits="userSpaceOnUse">
<stop offset="0.09" stop-color="#FF00EC"/>
<stop offset="0.49" stop-color="#C901A7"/>
</linearGradient>
<linearGradient id="paint63_linear_302_2630" x1="138.65" y1="21.9099" x2="139.58" y2="21.9099" gradientUnits="userSpaceOnUse">
<stop offset="0.09" stop-color="#FF00EC"/>
<stop offset="0.49" stop-color="#C901A7"/>
</linearGradient>
<linearGradient id="paint64_linear_302_2630" x1="143.21" y1="19.9399" x2="144.18" y2="19.9399" gradientUnits="userSpaceOnUse">
<stop offset="0.09" stop-color="#FF00EC"/>
<stop offset="0.49" stop-color="#C901A7"/>
</linearGradient>
<linearGradient id="paint65_linear_302_2630" x1="145.26" y1="20.46" x2="146.24" y2="20.46" gradientUnits="userSpaceOnUse">
<stop offset="0.09" stop-color="#FF00EC"/>
<stop offset="0.49" stop-color="#C901A7"/>
</linearGradient>
<linearGradient id="paint66_linear_302_2630" x1="145.56" y1="23.31" x2="147.73" y2="23.31" gradientUnits="userSpaceOnUse">
<stop offset="0.09" stop-color="#FF00EC"/>
<stop offset="0.49" stop-color="#C901A7"/>
</linearGradient>
<linearGradient id="paint67_linear_302_2630" x1="144.47" y1="28.93" x2="145.42" y2="28.93" gradientUnits="userSpaceOnUse">
<stop offset="0.09" stop-color="#FF00EC"/>
<stop offset="0.49" stop-color="#C901A7"/>
</linearGradient>
<linearGradient id="paint68_linear_302_2630" x1="149.87" y1="23.8599" x2="150.25" y2="23.8599" gradientUnits="userSpaceOnUse">
<stop offset="0.09" stop-color="#FF00EC"/>
<stop offset="0.49" stop-color="#C901A7"/>
</linearGradient>
<linearGradient id="paint69_linear_302_2630" x1="151.09" y1="22.84" x2="151.7" y2="22.84" gradientUnits="userSpaceOnUse">
<stop offset="0.09" stop-color="#FF00EC"/>
<stop offset="0.49" stop-color="#C901A7"/>
</linearGradient>
<linearGradient id="paint70_linear_302_2630" x1="152.78" y1="22.0499" x2="153.23" y2="22.0499" gradientUnits="userSpaceOnUse">
<stop offset="0.09" stop-color="#FF00EC"/>
<stop offset="0.49" stop-color="#C901A7"/>
</linearGradient>
<linearGradient id="paint71_linear_302_2630" x1="154.29" y1="20.81" x2="157.17" y2="20.81" gradientUnits="userSpaceOnUse">
<stop offset="0.09" stop-color="#FF00EC"/>
<stop offset="0.49" stop-color="#C901A7"/>
</linearGradient>
<linearGradient id="paint72_linear_302_2630" x1="154.65" y1="22.0901" x2="158.34" y2="22.0901" gradientUnits="userSpaceOnUse">
<stop offset="0.09" stop-color="#FF00EC"/>
<stop offset="0.49" stop-color="#C901A7"/>
</linearGradient>
<linearGradient id="paint73_linear_302_2630" x1="-32.8682" y1="-25.6632" x2="-29.3626" y2="-24.7677" gradientUnits="userSpaceOnUse">
<stop offset="0.09" stop-color="#FF00EC"/>
<stop offset="0.49" stop-color="#C901A7"/>
</linearGradient>
<linearGradient id="paint74_linear_302_2630" x1="76.8058" y1="-10.6411" x2="78.2393" y2="-9.97474" gradientUnits="userSpaceOnUse">
<stop offset="0.09" stop-color="#FF00EC"/>
<stop offset="0.49" stop-color="#C901A7"/>
</linearGradient>
<linearGradient id="paint75_linear_302_2630" x1="269.364" y1="-3.27267" x2="270.738" y2="-3.63974" gradientUnits="userSpaceOnUse">
<stop offset="0.09" stop-color="#FF00EC"/>
<stop offset="0.49" stop-color="#C901A7"/>
</linearGradient>
<linearGradient id="paint76_linear_302_2630" x1="157.9" y1="22.4799" x2="159.02" y2="22.7599" gradientUnits="userSpaceOnUse">
<stop offset="0.09" stop-color="#FF00EC"/>
<stop offset="0.49" stop-color="#C901A7"/>
</linearGradient>
<linearGradient id="paint77_linear_302_2630" x1="155.79" y1="25.41" x2="157.4" y2="25.82" gradientUnits="userSpaceOnUse">
<stop offset="0.09" stop-color="#FF00EC"/>
<stop offset="0.49" stop-color="#C901A7"/>
</linearGradient>
<linearGradient id="paint78_linear_302_2630" x1="152.89" y1="28.1999" x2="155.41" y2="28.8399" gradientUnits="userSpaceOnUse">
<stop offset="0.09" stop-color="#FF00EC"/>
<stop offset="0.49" stop-color="#C901A7"/>
</linearGradient>
<linearGradient id="paint79_linear_302_2630" x1="152.58" y1="29.4201" x2="153.82" y2="29.7301" gradientUnits="userSpaceOnUse">
<stop offset="0.09" stop-color="#FF00EC"/>
<stop offset="0.49" stop-color="#C901A7"/>
</linearGradient>
<linearGradient id="paint80_linear_302_2630" x1="155.45" y1="27.28" x2="157.02" y2="27.68" gradientUnits="userSpaceOnUse">
<stop offset="0.09" stop-color="#FF00EC"/>
<stop offset="0.49" stop-color="#C901A7"/>
</linearGradient>
<linearGradient id="paint81_linear_302_2630" x1="146.65" y1="24.86" x2="148.98" y2="25.45" gradientUnits="userSpaceOnUse">
<stop offset="0.09" stop-color="#FF00EC"/>
<stop offset="0.49" stop-color="#C901A7"/>
</linearGradient>
<linearGradient id="paint82_linear_302_2630" x1="148.825" y1="24.6093" x2="149.883" y2="24.9002" gradientUnits="userSpaceOnUse">
<stop offset="0.09" stop-color="#FF00EC"/>
<stop offset="0.49" stop-color="#C901A7"/>
</linearGradient>
<linearGradient id="paint83_linear_302_2630" x1="144.31" y1="27.06" x2="148.21" y2="27.98" gradientUnits="userSpaceOnUse">
<stop offset="0.09" stop-color="#FF00EC"/>
<stop offset="0.49" stop-color="#C901A7"/>
</linearGradient>
<linearGradient id="paint84_linear_302_2630" x1="149.96" y1="27.8899" x2="150.77" y2="28.0899" gradientUnits="userSpaceOnUse">
<stop offset="0.09" stop-color="#FF00EC"/>
<stop offset="0.49" stop-color="#C901A7"/>
</linearGradient>
<linearGradient id="paint85_linear_302_2630" x1="142.22" y1="31.2699" x2="143.19" y2="31.4999" gradientUnits="userSpaceOnUse">
<stop offset="0.09" stop-color="#FF00EC"/>
<stop offset="0.49" stop-color="#C901A7"/>
</linearGradient>
<linearGradient id="paint86_linear_302_2630" x1="145.06" y1="31.86" x2="145.93" y2="31.86" gradientUnits="userSpaceOnUse">
<stop offset="0.09" stop-color="#FF00EC"/>
<stop offset="0.49" stop-color="#C901A7"/>
</linearGradient>
<linearGradient id="paint87_linear_302_2630" x1="149.09" y1="28.72" x2="150.22" y2="28.72" gradientUnits="userSpaceOnUse">
<stop offset="0.09" stop-color="#FF00EC"/>
<stop offset="0.49" stop-color="#C901A7"/>
</linearGradient>
<linearGradient id="paint88_linear_302_2630" x1="147.9" y1="28.72" x2="149.44" y2="28.72" gradientUnits="userSpaceOnUse">
<stop offset="0.09" stop-color="#FF00EC"/>
<stop offset="0.49" stop-color="#C901A7"/>
</linearGradient>
<linearGradient id="paint89_linear_302_2630" x1="147.02" y1="28.8599" x2="148.11" y2="28.8599" gradientUnits="userSpaceOnUse">
<stop offset="0.09" stop-color="#FF00EC"/>
<stop offset="0.49" stop-color="#C901A7"/>
</linearGradient>
<linearGradient id="paint90_linear_302_2630" x1="149.87" y1="28.93" x2="150.94" y2="28.93" gradientUnits="userSpaceOnUse">
<stop offset="0.09" stop-color="#FF00EC"/>
<stop offset="0.49" stop-color="#C901A7"/>
</linearGradient>
<linearGradient id="paint91_linear_302_2630" x1="149.09" y1="30.2301" x2="150.94" y2="30.2301" gradientUnits="userSpaceOnUse">
<stop offset="0.09" stop-color="#FF00EC"/>
<stop offset="0.49" stop-color="#C901A7"/>
</linearGradient>
<linearGradient id="paint92_linear_302_2630" x1="147.02" y1="30.1101" x2="149.3" y2="30.1101" gradientUnits="userSpaceOnUse">
<stop offset="0.09" stop-color="#FF00EC"/>
<stop offset="0.49" stop-color="#C901A7"/>
</linearGradient>
<linearGradient id="paint93_linear_302_2630" x1="145.06" y1="30.1901" x2="147.44" y2="30.1901" gradientUnits="userSpaceOnUse">
<stop offset="0.09" stop-color="#FF00EC"/>
<stop offset="0.49" stop-color="#C901A7"/>
</linearGradient>
<linearGradient id="paint94_linear_302_2630" x1="150.59" y1="30.0401" x2="152.56" y2="30.0401" gradientUnits="userSpaceOnUse">
<stop offset="0.09" stop-color="#FF00EC"/>
<stop offset="0.49" stop-color="#C901A7"/>
</linearGradient>
<linearGradient id="paint95_linear_302_2630" x1="148.84" y1="32.4099" x2="149.35" y2="32.4099" gradientUnits="userSpaceOnUse">
<stop offset="0.09" stop-color="#FF00EC"/>
<stop offset="0.49" stop-color="#C901A7"/>
</linearGradient>
<linearGradient id="paint96_linear_302_2630" x1="147.09" y1="32.2699" x2="149.19" y2="32.2699" gradientUnits="userSpaceOnUse">
<stop offset="0.09" stop-color="#FF00EC"/>
<stop offset="0.49" stop-color="#C901A7"/>
</linearGradient>
<linearGradient id="paint97_linear_302_2630" x1="149" y1="31.6399" x2="150.46" y2="31.6399" gradientUnits="userSpaceOnUse">
<stop offset="0.09" stop-color="#FF00EC"/>
<stop offset="0.49" stop-color="#C901A7"/>
</linearGradient>
<linearGradient id="paint98_linear_302_2630" x1="146.1" y1="151.44" x2="116.53" y2="100.23" gradientUnits="userSpaceOnUse">
<stop offset="0.04" stop-color="#8B76F5"/>
<stop offset="0.24" stop-color="#8873EA"/>
<stop offset="0.58" stop-color="#816ECE"/>
<stop offset="0.97" stop-color="#7767A7"/>
</linearGradient>
<linearGradient id="paint99_linear_302_2630" x1="117.78" y1="144.97" x2="146.92" y2="144.97" gradientUnits="userSpaceOnUse">
<stop offset="0.21" stop-color="#F1D1C2"/>
<stop offset="0.37" stop-color="#E8C6B8"/>
<stop offset="0.64" stop-color="#D2AAA0"/>
<stop offset="0.75" stop-color="#C99E95"/>
</linearGradient>
<linearGradient id="paint100_linear_302_2630" x1="131.21" y1="129.34" x2="131.21" y2="157.01" gradientUnits="userSpaceOnUse">
<stop offset="0.26" stop-color="#F1D1C2"/>
<stop offset="0.44" stop-color="#E8C6B8"/>
<stop offset="0.75" stop-color="#D2AAA0"/>
<stop offset="0.87" stop-color="#C99E95"/>
</linearGradient>
<linearGradient id="paint101_linear_302_2630" x1="95.0499" y1="148.42" x2="157.81" y2="148.42" gradientUnits="userSpaceOnUse">
<stop offset="0.09" stop-color="#FF00EC"/>
<stop offset="1" stop-color="#E7029D"/>
</linearGradient>
<linearGradient id="paint102_linear_302_2630" x1="125.86" y1="120.63" x2="147.37" y2="120.63" gradientUnits="userSpaceOnUse">
<stop offset="0.09" stop-color="#FF00EC"/>
<stop offset="1" stop-color="#E7029D"/>
</linearGradient>
<linearGradient id="paint103_linear_302_2630" x1="124.04" y1="80.6701" x2="134.53" y2="98.8401" gradientUnits="userSpaceOnUse">
<stop offset="0.21" stop-color="#F1D1C2"/>
<stop offset="0.37" stop-color="#E8C6B8"/>
<stop offset="0.64" stop-color="#D2AAA0"/>
<stop offset="0.75" stop-color="#C99E95"/>
</linearGradient>
<linearGradient id="paint104_linear_302_2630" x1="131.52" y1="75.44" x2="136.72" y2="75.44" gradientUnits="userSpaceOnUse">
<stop stop-color="#04004A"/>
<stop offset="1" stop-color="#F4009B"/>
</linearGradient>
<clipPath id="clip0_302_2630">
<rect width="175.42" height="161.047" fill="white" transform="translate(0.969971 0.5979)"/>
</clipPath>
</defs>
</svg>
