<svg width="166" height="142" viewBox="0 0 166 142" fill="none" xmlns="http://www.w3.org/2000/svg">
<g clip-path="url(#clip0_302_224)">
<path d="M28.39 84.1902L18.7599 79.9302" stroke="#FFC2FF" stroke-miterlimit="10" stroke-linecap="round"/>
<path d="M2.07995 78.7901C2.61995 80.5501 4.68995 81.4901 6.40995 82.0101C8.38995 82.6101 10.3499 82.8101 10.6699 82.8401C10.1699 87.0201 10.6999 88.2801 11.3699 88.5601C13.1999 89.3301 17.9299 83.5701 19.9099 77.3901C20.8099 74.5801 21.7799 69.7001 20.2799 68.9501C18.9899 68.3001 16.3899 70.9601 15.1799 72.3001C13.7499 71.0101 12.4 70.2501 11.46 69.8101C9.77995 69.0101 8.19994 68.2701 6.75994 68.9101C5.98994 69.2501 5.53994 69.8701 5.11994 70.4401C4.33994 71.5101 4.13994 72.4501 3.83994 73.5001C2.71994 77.4601 1.68995 77.5701 2.06995 78.8001L2.07995 78.7901Z" fill="#7E9DF7"/>
<path d="M7.37309 75.3937C8.91508 72.2377 9.24794 69.2312 8.11655 68.6784C6.98517 68.1256 4.81797 70.2359 3.27598 73.3918C1.73398 76.5478 1.40111 79.5543 2.5325 80.1071C3.66388 80.6599 5.83109 78.5496 7.37309 75.3937Z" fill="#4E6DD8"/>
<path d="M47.6899 21.0002C42.1099 20.6602 36.2199 28.9102 34.1199 36.0602C31.9299 43.5302 32.14 55.7102 37.85 61.7002C38.84 62.7402 41.5699 65.2502 41.5799 68.7102C41.5799 71.1402 40.2399 72.9602 40.3899 73.0302C40.5999 73.1402 43.8499 69.5202 44.5599 64.8302C45.4899 58.7102 41.0799 57.3802 40.6799 50.9702C40.2799 44.4502 44.6499 42.6602 47.5399 31.7402C48.6699 27.4502 49.0499 23.7802 49.1799 21.3002C48.8099 21.1802 48.2999 21.0402 47.6899 21.0002Z" fill="#9CA4DF"/>
<path d="M135.188 41.609L114.12 37.4185C111.824 36.9617 109.591 38.4531 109.135 40.7498L104.944 61.8171C104.487 64.1138 105.979 66.346 108.275 66.8028L129.343 70.9934C131.639 71.4502 133.872 69.9587 134.328 67.662L138.519 46.5948C138.976 44.2981 137.484 42.0659 135.188 41.609Z" fill="#4C378E"/>
<path d="M113.817 58.1513L112.366 57.9359L118.26 47.1252L119.69 47.3373L122.191 59.3939L120.74 59.1785L118.751 49.0467L118.662 49.0335L113.817 58.1513ZM115.016 53.7646L120.867 54.6327L120.684 55.8609L114.834 54.9928L115.016 53.7646ZM126.017 54.4649L125.219 59.8431L123.845 59.6392L125.172 50.6989L126.499 50.8959L126.291 52.2928L126.408 52.3101C126.685 51.8871 127.057 51.5696 127.525 51.3574C127.993 51.1414 128.565 51.0835 129.24 51.1836C129.845 51.2735 130.356 51.4762 130.774 51.7919C131.191 52.1038 131.489 52.5287 131.667 53.0666C131.846 53.6008 131.879 54.2481 131.766 55.0086L130.923 60.6894L129.549 60.4856L130.378 54.8979C130.482 54.1956 130.381 53.6214 130.075 53.1754C129.769 52.7255 129.297 52.4533 128.661 52.3589C128.223 52.2938 127.817 52.3307 127.443 52.4696C127.073 52.6091 126.762 52.8465 126.51 53.1819C126.258 53.5173 126.094 53.945 126.017 54.4649Z" fill="#B284F7"/>
<path d="M65.96 58.5601C66.15 60.5001 66.44 63.4501 66.85 67.0601C67.3 70.9601 67.41 71.5501 67.34 71.9001C67.34 71.9001 67.32 71.9901 67.3 72.0601C66.38 75.1901 49.26 75.0001 43.78 82.1601C40.12 86.9301 41.8 94.7701 43.37 98.6001C45.78 104.46 49.75 105.15 51.42 111.35C52.95 117.04 50.78 120.13 51.42 122.53C52.9 128.11 69.87 131.28 127.9 124.99C127.6 121.46 127.17 116.1 126.78 109.56C125.96 95.8601 127.43 92.2701 125.21 85.4101C124.17 82.1901 120.92 72.1401 113.47 69.9801C110.22 69.0301 106.11 69.5701 101.28 70.2101C95.72 70.9401 93.16 72.0801 91.66 70.6601C90.7 69.7501 90.05 67.6801 91.88 62.3901C83.23 61.1201 74.59 59.8601 65.94 58.5901L65.96 58.5601Z" fill="#F1D1C2" stroke="#1E0E00" stroke-width="0.5" stroke-miterlimit="10"/>
<path d="M65.3799 57.5C65.4999 60.44 66.2699 62.63 66.9099 64C69.8799 70.43 76.8699 74.48 83.1099 74.17C84.5199 74.1 86.1399 74 87.7099 72.92C92.3399 69.73 91.1299 61.79 91.0599 61.33C82.4999 60.05 73.95 58.77 65.39 57.5H65.3799Z" fill="url(#paint0_linear_302_224)"/>
<path d="M48.4299 23.7502C50.2099 29.2102 52.7899 36.5302 56.3099 45.0602C60.3299 54.8002 61.8599 57.0702 63.4899 58.8802C65.9999 61.6802 72.29 67.3802 85.89 68.3602C88.04 66.8702 91.1399 64.3802 93.9399 60.5302C94.7399 59.4302 98.4399 54.2202 99.9599 46.2002C100.36 44.0702 100.28 43.5202 100.42 33.1302C100.6 20.4602 100.74 20.0902 100.18 18.9202C96.4399 11.0902 81.7799 10.2202 73.8099 11.1102C60.8599 12.5502 52.0999 20.1102 48.4299 23.7402V23.7502Z" fill="#F1D1C2" stroke="#1E0E00" stroke-width="0.5" stroke-miterlimit="10"/>
<path d="M87.73 34.1302C88.78 33.4802 90.1699 32.9802 90.3599 33.2602C90.5399 33.5402 89.4899 34.3702 88.1599 35.9202C86.2399 38.1702 84.76 39.8902 84.7 42.0002C84.68 42.8502 84.8999 43.1702 86.2999 46.4802C87.1799 48.5502 87.8699 50.2402 88.2999 51.3102C88.2999 51.5002 88.2999 52.4302 87.6099 53.1002C87.3099 53.4002 86.98 53.5402 86.76 53.6002C87.03 53.2602 87.36 52.7402 87.45 52.0702C87.65 50.5702 86.55 49.3502 85.92 48.4902C84.25 46.2002 83.2899 42.8802 83.6199 40.2902C84.1099 36.4502 87.41 34.3302 87.73 34.1302Z" fill="url(#paint1_linear_302_224)"/>
<path d="M83.45 52.6C83.49 52.43 84.2599 52.46 85.7499 52.7C86.4399 52.2 86.8399 52.01 86.9399 52.12C87.0699 52.25 86.75 52.86 85.98 53.92C84.25 53.23 83.4 52.79 83.45 52.6Z" fill="url(#paint2_linear_302_224)"/>
<path d="M79.21 58.71C81.6 58.76 83.61 58.76 85.15 58.74C85.56 58.74 86.28 58.72 86.99 58.3C87.36 58.08 87.32 57.99 87.81 57.62C88.87 56.81 89.46 56.92 89.9 56.31C90.07 56.07 90.26 55.67 90.23 54.98" stroke="#1E0E00" stroke-width="0.5" stroke-miterlimit="10" stroke-linecap="round"/>
<path d="M87.76 43.5802C87.3 41.6702 87.85 40.5602 88.07 40.1802C88.96 38.6802 90.74 38.3602 93.75 37.8302C94.92 37.6202 97.42 37.1802 97.68 37.8302C97.83 38.1902 97.16 38.6202 95.77 40.3302C94.81 41.5102 94.65 41.8902 94.3 42.2802C93.48 43.2102 91.76 44.0602 87.76 43.5802Z" fill="#E7FFF1"/>
<path d="M78.4299 39.0301C76.7399 37.9201 74.1 36.5601 70.76 36.2701C64.87 35.7601 60.3 38.8801 60.35 39.0701C60.4 39.2601 65.21 36.1801 70.2 37.6901C71.06 37.9501 72.3899 38.4901 74.5299 38.8101C76.1599 39.0601 77.5199 39.0701 78.4299 39.0301Z" fill="url(#paint3_linear_302_224)"/>
<path d="M89.0899 43.57C88.5199 42.36 88.7799 40.98 89.6599 40.23C90.8299 39.23 92.8599 39.55 93.5299 40.72C93.9899 41.54 93.6499 42.5 93.5599 42.73C93.1599 43.05 92.1099 43.79 90.6299 43.81C89.9999 43.82 89.4699 43.7 89.0899 43.57Z" fill="#80A7D9" stroke="url(#paint4_linear_302_224)" stroke-width="0.5" stroke-miterlimit="10"/>
<path d="M87.34 40.96C88.21 40.22 89.08 39.49 89.95 38.75C91.49 38.37 93.2 38.03 95.07 37.8C96.06 37.68 97.02 37.6 97.93 37.55C97.06 38.73 96.19 39.91 95.31 41.09" stroke="#1E0E00" stroke-width="0.75" stroke-miterlimit="10" stroke-linecap="round"/>
<path d="M88.08 43.91C89.09 44.08 90.76 44.21 92.67 43.66C93.57 43.4 94.32 43.05 94.9 42.72" stroke="#1E0E00" stroke-width="0.5" stroke-miterlimit="10" stroke-linecap="round"/>
<path d="M88.78 38.3201C89.14 37.1701 89.72 36.5001 90.08 36.1601C91.67 34.6501 93.94 34.7101 95.34 34.7401C96.31 34.7701 97.1 34.9101 97.64 35.0401C96.51 35.0001 94.78 35.0801 92.88 35.7801C91.61 36.2501 90.67 36.8501 90.27 37.1201C89.64 37.5401 89.15 37.9701 88.78 38.3101V38.3201Z" fill="url(#paint5_linear_302_224)"/>
<path d="M85.42 33.89C86.3 32.99 89.07 30.38 92.61 30.62C94.57 30.75 96.35 31.73 97.83 32.54C99.73 33.59 101.05 34.61 101 34.69C100.93 34.81 98.3 32.31 94.49 32.03C92.63 31.89 90.71 31.75 89.14 32.9C88.4 33.44 87.53 34.41 86.39 34.27C85.96 34.22 85.63 34.03 85.42 33.89Z" fill="url(#paint6_linear_302_224)"/>
<path d="M77.98 34.3601C77.86 34.7401 74.83 34.0901 72.09 33.4301C71.18 33.3701 70.22 33.3501 69.22 33.3901C63.56 33.6101 58.94 35.5301 55.73 37.3401C58.06 35.6101 61.63 33.5001 66.28 32.5301C71.41 31.4601 74.45 32.5001 75.15 32.7501C76.47 33.2301 78.08 34.0701 77.98 34.3501V34.3601Z" fill="url(#paint7_linear_302_224)"/>
<path d="M56.63 46.45C55.69 43.54 53.67 41.96 52.31 42.28C50.91 42.6 50.13 44.93 50.3 46.68C50.39 47.59 51.87 49.26 54.85 52.57C55.29 53.06 56.12 53.96 57.46 54.28C57.92 54.39 58.66 54.57 59.03 54.28C59.59 53.84 59.53 52.14 56.64 46.45H56.63Z" fill="#F1D1C2"/>
<path d="M68.28 9.74998C66.33 9.29998 61.47 8.44998 55.95 10.52C48.65 13.26 45.32 19.18 44.51 20.73C44.05 20.12 40.02 14.88 33.33 14.92C25.64 14.96 21.6 21.92 21.14 22.75C17.55 29.19 20.09 36.16 20.58 37.51C21.33 39.56 21.79 39.7 29.19 51.37C31.21 54.56 32.02 55.87 31.87 57.74C31.48 62.82 24.57 65.95 24.83 66.35C25.02 66.65 29.01 65.12 33.44 61.54C36.03 59.45 41.26 55.12 44.29 47.56C48.54 36.93 45.48 27.25 44.51 24.53C42.38 30.19 43.48 36.27 47.3 39.96C50.4 42.96 54.27 43.39 55.66 43.48C55.79 41.77 56.23 39.37 57.7 37.05C59.83 33.69 63.04 32.42 65.08 31.24C68.43 29.3 72.97 26.06 77.9 20.4C78.85 20.24 80.17 20.07 81.74 20.06C82.8 20.06 86.34 20.09 91.04 21.8C95.44 23.4 98.01 24.34 99.57 26.82C101.96 30.62 100.22 35.32 100.39 35.34C100.62 35.37 104.82 26.63 101.2 17.49C97.41 7.91998 87.88 4.97998 86.96 4.70998C86.29 4.50998 75.37 1.42998 69.96 7.25998C69.13 8.15998 68.61 9.06998 68.28 9.75998V9.74998Z" fill="url(#paint8_linear_302_224)"/>
<path d="M95.1599 10.0202C95.9099 8.57015 97.3499 6.33015 99.9299 4.80015C105.53 1.48015 113.35 3.33015 117.52 7.48015C124.17 14.1102 121.07 26.1501 120.5 28.3501C118.38 36.5801 113.76 39.5302 114.98 45.2002C115.8 49.0202 118.76 51.6502 121.09 53.2502C119.65 53.3202 116.96 53.2302 114.38 51.6102C110.35 49.0802 108.27 43.8802 109.01 38.3402C108.32 39.2602 107.56 40.5502 107.22 42.2202C106.76 44.4802 107.37 46.0602 107.22 46.1002C106.94 46.1602 104.26 41.2002 105.58 35.9602C106.2 33.4802 107.04 33.6701 107.82 31.1901C109.79 24.9001 105.91 18.9301 105.43 18.2201C105.24 17.9302 101.44 12.3802 98.5699 13.1502C97.9199 13.3202 97.4299 13.7902 96.7799 13.6002C95.7399 13.2802 95.32 11.5502 95.14 10.0202H95.1599Z" fill="url(#paint9_linear_302_224)"/>
<path d="M42.39 19.02C40.88 17.99 38.19 16.48 34.64 16.19C27.12 15.58 20.55 20.87 17.5 26.33C14.56 31.6 14.99 36.86 15.26 40.19C15.48 42.89 16.02 49.39 19.58 54.35C19.9 54.79 21.17 56.53 22.11 59.12C22.79 61 23.48 62.98 22.71 64.78C21.77 66.99 19.17 67.68 19.28 67.91C19.4 68.15 22.64 67.84 24.35 65.82C26.97 62.72 23.6 58.37 22.56 48.97C21.56 39.94 23.55 33.88 24.05 32.42C25.05 29.54 26.22 26.17 29.42 23.33C34.28 19 40.39 18.94 42.39 19.01V19.02Z" fill="url(#paint10_linear_302_224)"/>
<path d="M36.8699 25.1301C33.0899 28.5601 31.7599 31.7501 31.2099 33.9301C29.9699 38.8201 32.0899 41.0101 31.3599 49.4301C30.9399 54.2701 29.9999 56.3101 28.9699 57.7801C27.1999 60.3201 23.9099 62.9601 21.9099 62.1001C21.0199 61.7201 20.0599 60.5201 20.2299 59.4701C20.3299 58.8601 20.7999 58.4501 20.8199 58.4401C21.5099 57.8401 22.4599 58.0501 22.4699 57.9101C22.4799 57.7601 21.4599 57.2901 20.3699 57.4601C18.8999 57.7001 17.4399 59.1101 17.3499 60.5101C17.2099 62.6301 20.2099 64.6901 22.7399 65.0701C26.7699 65.6701 31.1299 62.2601 33.1899 58.4701C35.4799 54.2801 35.0399 49.5101 34.2499 41.0101C33.9599 37.8401 33.4899 35.0801 34.3999 31.2501C35.0299 28.5901 36.0599 26.5101 36.8599 25.1401L36.8699 25.1301Z" fill="url(#paint11_linear_302_224)"/>
<path d="M38.66 27.0701C38.38 28.7801 38.12 31.4401 38.59 34.6001C39.19 38.7001 40.54 40.4501 41.05 42.9501C41.64 45.8101 41.26 50.2301 36.28 56.6701C42.25 52.3701 43.23 48.3601 43.44 46.4601C43.66 44.4201 43.16 43.0201 41.58 37.5201C40.26 32.9501 39.26 29.2901 38.67 27.0801L38.66 27.0701Z" fill="#9CA4D5"/>
<path d="M70.79 20.73C68.3 22.07 66.38 23.32 65.13 24.2C60.05 27.72 58.58 29.96 54.73 30.8C53.33 31.1 51.58 31.48 49.81 30.69C45.86 28.92 45.42 22.96 44.89 23.09C44.47 23.19 44.21 27.05 46.46 30.25C46.85 30.8 48.77 33.53 51.94 34.05C53.93 34.38 54.22 33.48 63.34 28.12C65.59 26.8 68.2 25.31 70.05 22.19C70.4 21.6 70.64 21.09 70.8 20.74L70.79 20.73Z" fill="url(#paint12_linear_302_224)"/>
<path d="M78.3199 15.07C80.0299 12.76 83.0399 12.44 84.2099 12.31C89.2399 11.78 93.3499 14.6 96.7299 16.93C98.3 18.01 99.1899 18.83 99.1199 18.94C98.9599 19.19 94.4999 15.03 88.2399 14.47C84.5399 14.14 81.3599 15.17 80.7899 15.36C79.3699 15.83 78.2399 16.41 77.4399 16.87C77.5799 16.4 77.8399 15.73 78.3299 15.06L78.3199 15.07Z" fill="#9F9CDD"/>
<path d="M74.5499 19.3601C73.1499 21.1601 71.1299 23.8001 68.7799 27.0701C65.2099 32.0301 63.3999 34.5701 62.3699 37.1301C61.4499 39.4101 59.7399 43.8201 60.6599 49.2801C60.9799 51.1701 61.5299 52.7001 61.9899 53.7501C61.7199 52.1701 61.4899 49.7601 61.9299 46.8901C62.5399 42.9401 64.1299 40.1401 65.5799 37.6501C68.3199 32.9301 69.6399 32.7801 71.6199 29.1501C72.7999 26.9901 74.0999 23.8001 74.5599 19.3501L74.5499 19.3601Z" fill="url(#paint13_linear_302_224)"/>
<path d="M97.0999 21.6301C98.4199 21.0801 99.4799 20.3701 100.31 19.6901C100.2 20.1701 99.9999 20.8501 99.5599 21.5501C97.9899 24.1101 94.8999 24.7101 93.5199 24.9801C86.7699 26.2801 79.8899 19.0601 79.5099 18.6401C81.9199 19.6601 84.3299 20.6801 86.7399 21.7001C88.2499 22.2301 92.5699 23.5201 97.0999 21.6301Z" fill="url(#paint14_linear_302_224)"/>
<path d="M88.91 18.4001C89.28 18.9201 89.91 19.7501 90.77 20.7301C92.87 23.1301 94.51 24.2901 99.04 28.2601C101.31 30.2401 101.61 30.5701 101.95 31.1701C103.81 34.4101 102.6 38.0501 102.92 38.1001C103.21 38.1501 104.63 35.3201 104.04 32.1401C103.74 30.5401 102.91 28.7001 99.42 25.5101C97.22 23.5001 93.79 20.7901 88.92 18.4101L88.91 18.4001Z" fill="url(#paint15_linear_302_224)"/>
<path d="M97.25 9.55008C96.4 8.62008 98.18 4.72008 101.05 2.62008C104.29 0.25008 109.29 -0.0999199 113.05 2.10008C118.94 5.54008 118.69 13.4301 118.64 14.4701C118.59 15.5101 118.34 18.0901 117.3 20.9501C116.75 22.4701 115.82 24.4901 115.21 27.6601C115.13 28.0701 115.08 28.4201 115.04 28.6501C114.71 27.7101 114.32 26.2801 114.32 24.5301C114.32 22.0701 115.08 20.6501 115.59 18.9401C115.97 17.6701 117.57 12.2801 115.07 8.50008C112.94 5.29008 107.98 3.47008 105.16 4.92008C103.24 5.91008 103 8.05008 100.02 9.24008C99.4 9.49008 97.8 10.1301 97.26 9.54008L97.25 9.55008Z" fill="url(#paint16_linear_302_224)"/>
<path d="M100.46 11.94C101.39 12.02 104.81 12.44 107.47 15.29C108.11 15.98 109.78 17.96 110.15 20.81C110.31 22.03 110.11 22.43 109.26 27.67C108.62 31.59 108.63 32.01 108.66 32.37C108.71 33.01 109.1 37.49 112.54 39.15C114.06 39.88 115.6 39.78 116.6 39.6C115.62 39.33 114.19 38.78 113.02 37.51C110.86 35.18 110.97 31.95 111.04 29.87C111.11 27.83 111.47 27.82 111.93 24.76C112.64 20.16 112.99 17.86 111.93 15.74C110.66 13.2 107.8 11.34 104.77 11.12C102.83 10.98 101.28 11.56 100.45 11.94H100.46Z" fill="url(#paint17_linear_302_224)"/>
<path d="M65.1499 73.9502L57.9299 75.0202C57.9299 77.5202 58.1699 81.1502 59.3799 85.2802C61.8499 93.7502 66.7999 98.9502 73.6599 105.93C82.8499 115.27 90.6 122.86 96.39 128.44C107.01 134.06 119.07 131.16 124.19 123.4C129.27 115.7 125.52 106.23 125.13 105.29C121.84 104.27 116.74 102.84 110.37 101.71C97.6199 99.4602 95.6099 101.23 88.0099 98.9102C84.5999 97.8702 72.1199 94.0802 67.1799 83.0002C65.5899 79.4302 65.23 76.1202 65.17 73.9402L65.1499 73.9502Z" fill="url(#paint18_linear_302_224)"/>
<path d="M98.35 70.1501C101.38 77.1301 100.74 81.8601 99.91 84.5701C95.99 97.3901 75.9 104.01 69.06 106.26C60.34 109.13 54.88 109.37 52.4 114.2C50.22 118.44 51.7 123.91 53.97 127.17C58.69 133.97 70.3 136.12 82.29 131.23C92.8 119.09 99.07 108.54 102.72 101.45C105.13 96.7701 106.89 92.6501 107.42 87.2501C108.24 78.7801 105.58 71.9401 103.84 68.3501C102.01 68.9501 100.19 69.5401 98.36 70.1401L98.35 70.1501Z" fill="url(#paint19_linear_302_224)"/>
<path d="M66.81 71.5601C55.21 73.7701 46.97 77.1201 41.89 79.5801C38.61 81.1601 36.62 82.9401 34.05 84.4301C29.66 86.9701 27.79 90.6801 24.34 97.5701C20.1 106.01 16.23 113.71 17.66 123.36C17.87 124.76 19.85 137.26 26.38 138.59C31 139.53 35.36 134.37 40.72 128.05C46.71 120.98 53.9199 112.46 52.9599 102.14C52.3099 95.1301 48.01 93.5601 49.47 88.5001C50.38 85.3501 53.75 82.4301 60.45 76.7101C63.08 74.4701 65.31 72.7101 66.81 71.5601Z" fill="#011140" stroke="#1E0E00" stroke-width="0.5" stroke-linecap="round" stroke-linejoin="round"/>
<path d="M67.3599 71.48C64.2499 76.07 60.47 82.84 58.4 91.58C53.14 113.84 62.85 132.62 60.45 133.47C58.1 134.3 50.56 118.16 47.09 109.95C42.08 98.08 39.53 92.08 41.07 87.11C44.87 74.78 65.0099 71.8 67.3599 71.48Z" fill="#1A1F6C" stroke="#1E0E00" stroke-width="0.25" stroke-linecap="round" stroke-linejoin="round"/>
<path d="M33.82 109.01C27.3 113.54 24.15 118.42 22.68 121.22C21.16 124.11 20.86 125.83 20.82 127.19C20.7 132 23.84 135.56 25.06 136.94C26.76 138.87 28.2 140.5 30.53 141.06C36.57 142.53 42.26 135.32 42.68 134.78C47.11 129.02 46.29 122.23 46.03 120.52C45.37 120.6 41.07 121.08 37.48 117.94C33.54 114.49 33.78 109.58 33.82 109.01Z" fill="#10174D" stroke="#1E0E00" stroke-width="0.5" stroke-linecap="round" stroke-linejoin="round"/>
<path d="M91.83 70.3201C92.28 67.9401 96.08 66.7301 101.22 65.1001C105.66 63.6901 111.28 61.9101 117.77 63.4601C125.04 65.1901 129.41 70.1001 132.38 73.6001C140.27 82.9001 137.13 86.8101 144.9 97.1501C150.86 105.09 155.59 106.62 155.63 112.21C155.66 116.5 152.91 120.53 149.67 122.65C142.5 127.32 132.95 122.58 131.93 122.05C118.29 115.04 124.71 98.6801 109.87 84.6301C101.19 76.4101 91.07 74.4001 91.83 70.3201Z" fill="#01114A" stroke="#1E0E00" stroke-width="0.5" stroke-linecap="round" stroke-linejoin="round"/>
<path d="M91.85 69.2501C93.9 67.9601 99.66 64.7401 107.14 65.5501C116.58 66.5701 124.73 73.5801 126.89 81.4401C128.46 87.1301 125.62 89.1301 124.36 98.7301C122.17 115.43 128.53 126.23 126.67 126.97C124.59 127.79 114.6 115.15 112.21 99.0901C111.53 94.5001 113.65 89.3401 110.42 84.7801C107.97 81.3101 103.41 78.9001 102.79 78.5801C98.86 76.5401 96.14 76.5201 93.89 73.7601C92.59 72.1601 92.08 70.4101 91.85 69.2501Z" fill="#1A1F6C" stroke="#1E0E00" stroke-width="0.25" stroke-linecap="round" stroke-linejoin="round"/>
<path d="M143.75 65.1301C144.54 65.8201 148.39 69.0501 154.2 68.8701C159.25 68.7101 162.58 66.0601 163.5 65.2701C162.67 66.7301 161.74 68.9001 161.93 71.5001C162 72.5501 162.22 73.1201 162.36 73.8501C163.08 77.6501 160.85 81.1501 160.21 82.2901C155.22 91.1901 160.56 110.77 149.48 119.93C148.76 120.53 143.43 124.81 137.6 123.53C130.35 121.94 127.64 112.9 127.44 112.18C125.53 105.44 128.21 99.5101 132.31 90.4501C134.31 86.0301 139.01 75.6301 141.61 72.0401C141.89 71.6601 142.92 70.2801 143.44 68.2301C143.77 66.9301 143.79 65.8201 143.75 65.1201V65.1301Z" fill="#000B4A" stroke="#1E0E00" stroke-width="0.5" stroke-linecap="round" stroke-linejoin="round"/>
<path d="M132.64 36.5201C133.6 35.8901 135.67 37.5601 135.79 37.6501C138.32 39.7201 137.65 42.3701 139.44 45.7101C139.86 46.4901 142.26 50.7501 145.61 51.2501C150.71 52.0201 153.44 43.4101 157.58 44.1901C161.89 45.0101 163.18 55.1701 163.63 58.6801C164.3 63.9601 163.34 65.9301 162.87 66.7401C160.87 70.2101 156.98 71.1701 155.56 71.5301C154.99 71.6701 148.01 73.3301 145.23 69.8901C143.63 67.9101 143.97 64.9401 142.21 64.4701C141.46 64.2701 141.24 64.7701 140.45 64.6001C138.19 64.1201 137.34 59.5801 137.05 58.0501C136.57 55.5301 136.98 55.2601 136.55 52.8801C136.1 50.4201 135.45 49.5801 134.41 46.8301C133.87 45.4001 130.92 37.6201 132.65 36.5001L132.64 36.5201Z" fill="url(#paint20_linear_302_224)" stroke="#1E0E00" stroke-width="0.25" stroke-miterlimit="10"/>
<path d="M151.65 32.6702C151.99 32.4502 152.91 31.8702 153.54 32.2102C153.54 32.2102 154.06 32.4902 154.17 33.5502C154.41 35.8202 140.81 58.0902 134.89 67.7002C133.73 68.4602 132.58 69.2102 131.42 69.9702C131.73 68.7102 132.05 67.4502 132.36 66.1902C136.7 57.9502 149.35 34.1302 151.64 32.6702H151.65Z" fill="url(#paint21_linear_302_224)" stroke="#1E0E00" stroke-width="0.5" stroke-miterlimit="10"/>
<path d="M160.87 47.29C160.87 46.65 160.78 45.74 160.37 44.77C160.37 44.77 159.43 42.53 152.56 38.72C143.15 40.79 139.56 41.98 139.56 41.98C132.49 44.33 130.43 46.29 129.37 48.29C129.13 48.74 128.21 50.49 128.87 51.31C129.89 52.58 134.03 50.81 134.92 50.43C137.89 49.16 137.7 48.41 140.34 47.15C141.67 46.52 145.86 44.53 149.79 46.14C150.91 46.6 151.71 47.22 152.18 47.65C155.08 47.52 157.98 47.4 160.87 47.27V47.29Z" fill="url(#paint22_linear_302_224)" stroke="#1E0E00" stroke-width="0.25" stroke-miterlimit="10"/>
<path d="M161.12 52.65C161.28 52.47 162.71 50.88 162.13 49.12C161.69 47.78 160.09 46.86 158.1 46.73C151.86 48.27 147.29 49.3 143.99 50.01C143.99 50.01 142.09 50.43 138.7 51.65C134.52 53.15 133.13 54.14 132.27 55.52C132.14 55.74 130.95 57.64 131.64 58.58C132.09 59.2 133.3 59.3 136.55 58.45C141.41 57.18 141.82 56.15 144.99 55.3C146.17 54.98 149.51 54.75 156.2 54.29C157.96 54.17 159.83 54.05 161.11 52.65H161.12Z" fill="url(#paint23_linear_302_224)" stroke="#1E0E00" stroke-width="0.25" stroke-miterlimit="10"/>
<path d="M158.35 60.08C160.76 59.58 162.17 59.15 162.76 57.94C163.28 56.87 163.14 55.24 162.24 54.36C161.25 53.39 159.74 53.74 152.55 55.42C147.84 56.51 147 56.71 145.49 57.31C143.9 57.94 139.08 59.87 139.32 61.34C139.5 62.46 142.54 63.03 144.74 62.85C146.77 62.69 148.3 61.88 149.15 61.34C152.95 61.07 156.06 60.55 158.35 60.08Z" fill="url(#paint24_linear_302_224)" stroke="#1E0E00" stroke-width="0.25" stroke-miterlimit="10"/>
<path d="M148.16 66.63C148.3 66.85 148.64 67.17 149.67 67.26C151.49 67.42 152.46 66.59 154.21 66C156.23 65.31 156.13 66 159.88 65.24C162.38 64.73 163.28 64.25 163.91 63.48C164.12 63.22 164.89 62.28 164.67 61.21C164.4 59.92 162.85 59.16 161.65 59.07C160.22 58.96 159.48 59.8 157.87 60.71C153.37 63.24 150.35 61.61 148.67 64.11C148.6 64.22 147.6 65.75 148.17 66.63H148.16Z" fill="url(#paint25_linear_302_224)" stroke="#1E0E00" stroke-width="0.25" stroke-miterlimit="10"/>
<path d="M131.45 22.26C132.07 25.91 132.69 29.56 133.31 33.2C133.56 34.66 135.31 35.29 136.43 34.32C139.01 32.08 141.59 29.84 144.17 27.6C145.22 26.69 144.97 24.99 143.69 24.42C140.49 23.01 137.29 21.6 134.09 20.2C132.7 19.59 131.2 20.77 131.45 22.26Z" fill="#004DAC" stroke="#1E0E00" stroke-width="0.5" stroke-linecap="round" stroke-linejoin="round"/>
<path d="M33.1099 113.85C32.1899 113.31 33.5099 106.48 38.0799 103.52C40.0199 102.26 40.9499 102.74 44.9399 100.49C46.3599 99.69 47.5499 98.89 48.1099 99.31C48.6599 99.73 48.3499 101.16 47.9199 102.11C46.7599 104.65 44.0999 105.07 41.2299 106.57C35.4599 109.59 33.8999 114.32 33.1099 113.85Z" fill="url(#paint26_linear_302_224)" stroke="#1E0E00" stroke-width="0.25" stroke-miterlimit="10"/>
<path d="M32.9399 113.48C39.2499 106.95 45.5599 100.42 51.8699 93.89C54.3499 92.56 57.2599 91.02 60.5499 89.31C63.9699 87.53 72.23 83.81 73.2 85.17C73.58 85.71 72.8299 87.04 72.0499 87.75C71.3699 88.36 70.8399 88.35 69.3399 89.13C68.4799 89.58 68.1199 89.87 67.2799 90.39C66.3799 90.95 65.0399 91.72 62.7499 92.86C59.1699 94.64 55.22 96.34 55.39 96.82C55.49 97.11 56.89 96.68 58.2 97.76C58.42 97.94 58.9299 98.41 59.9699 101.56C60.2799 102.48 60.4299 102.94 60.6199 103.67C61.4699 106.94 62.0399 109.12 61.1099 110.9C60.5299 112.02 59.64 112.44 58.39 113.25C53.57 116.39 53.6299 118.7 50.5699 120.77C46.1099 123.79 38.0699 124.23 34.6299 120.28C32.7099 118.08 32.7599 115.12 32.9499 113.46L32.9399 113.48Z" fill="url(#paint27_linear_302_224)" stroke="#1E0E00" stroke-width="0.25" stroke-miterlimit="10"/>
<path d="M59.85 107.38C62.06 107.42 64.27 107.46 66.47 107.5C67.32 108.95 67.3799 110.16 67.3599 110.76C67.2399 114.11 63.9699 116.03 62.4299 116.93C61.7199 117.35 60.74 117.91 60.32 117.57C59.78 117.14 60.33 115.33 61.1 114.07C61.8 112.92 62.6599 112.42 62.4899 112.1C62.2799 111.7 60.9399 112.47 59.8999 111.78C59.1999 111.31 59.03 110.45 58.98 110.16C58.7 108.69 59.6899 107.55 59.8399 107.38H59.85Z" fill="url(#paint28_linear_302_224)" stroke="#1E0E00" stroke-width="0.2" stroke-miterlimit="10"/>
<path d="M54.39 98.12C54.99 97.82 56.7699 97.04 58.7899 97.6C59.2699 97.73 60.3499 98.05 61.1199 99.03C61.3799 99.37 61.8499 99.96 61.7399 100.56C61.5799 101.41 60.2799 102.1 58.5199 102.08C57.1399 100.76 55.76 99.44 54.39 98.12Z" fill="#F1D1C2" stroke="#1E0E00" stroke-width="0.25" stroke-miterlimit="10"/>
<path d="M58.36 102.54C59.45 102.05 61.73 101.22 64.14 101.82C65.29 102.1 65.83 102.55 66.11 102.84C66.26 103 67.36 104.15 67.06 105.56C67 105.84 66.91 106.26 66.57 106.58C65.82 107.29 64.65 106.77 62.83 106.74C62.11 106.73 61.08 106.79 59.81 107.14C59.32 105.61 58.83 104.08 58.35 102.55L58.36 102.54Z" fill="url(#paint29_linear_302_224)" stroke="#1E0E00" stroke-width="0.2" stroke-miterlimit="10"/>
<path d="M52.1799 100.15C51.2199 100.4 50.4299 99.7402 50.2799 99.6102C49.3299 98.8002 48.8199 97.0802 49.6399 96.2402C50.2499 95.6202 51.3699 95.7302 52.0799 96.0602C53.1199 96.5602 53.85 97.8402 53.48 98.9202C53.47 98.9602 53.1199 99.9002 52.1799 100.14V100.15Z" fill="url(#paint30_linear_302_224)"/>
<path d="M56.7699 102.68C55.7399 102.82 54.9699 102.2 54.7699 102.04C53.5399 101.05 52.9899 98.9401 53.7999 98.1901C54.4399 97.5901 55.7799 98.0101 56.4999 98.4201C57.7699 99.1401 58.82 100.8 58.26 101.83C57.88 102.53 56.8999 102.66 56.7699 102.68Z" fill="url(#paint31_linear_302_224)"/>
<path d="M59.4899 107.24C58.4899 107.45 57.6199 106.71 57.4499 106.56C56.3999 105.66 55.7699 103.81 56.5899 102.97C57.1999 102.35 58.3899 102.52 59.1499 102.92C60.2699 103.5 61.1199 104.9 60.7899 106.02C60.7799 106.06 60.4699 107.03 59.4799 107.24H59.4899Z" fill="url(#paint32_linear_302_224)"/>
<path d="M58.8399 112.07C57.8899 111.78 57.5799 110.81 57.5199 110.61C57.1399 109.42 57.6299 107.69 58.7699 107.41C59.6199 107.2 60.5099 107.88 60.9299 108.54C61.5499 109.51 61.49 110.99 60.6 111.7C60.57 111.73 59.7799 112.34 58.8399 112.06V112.07Z" fill="url(#paint33_linear_302_224)"/>
<path d="M158.16 121.92H25.4V138.55H158.16V121.92Z" fill="#35383E" stroke="#1E0E00" stroke-miterlimit="10"/>
<path d="M103.88 129.5H26.14V130.98H103.88V129.5Z" fill="#FF74E6" stroke="url(#paint34_linear_302_224)" stroke-width="0.25" stroke-linecap="round" stroke-linejoin="round"/>
<path d="M137.33 85.1202C140.086 85.1202 142.32 83.0025 142.32 80.3902C142.32 77.7778 140.086 75.6602 137.33 75.6602C134.574 75.6602 132.34 77.7778 132.34 80.3902C132.34 83.0025 134.574 85.1202 137.33 85.1202Z" stroke="url(#paint35_linear_302_224)" stroke-width="0.5" stroke-linecap="round" stroke-linejoin="round"/>
<path d="M129.984 93.4755C133.463 91.7407 135.785 89.3326 135.168 88.097C134.552 86.8613 131.232 87.266 127.753 89.0009C124.273 90.7357 121.952 93.1438 122.568 94.3794C123.184 95.6151 126.504 95.2104 129.984 93.4755Z" stroke="url(#paint36_linear_302_224)" stroke-width="0.5" stroke-linecap="round" stroke-linejoin="round"/>
<path d="M140.755 106.667C144.046 106.193 146.085 101.436 145.31 96.0404C144.534 90.6448 141.237 86.6543 137.947 87.1273C134.656 87.6004 132.617 92.3579 133.392 97.7535C134.168 103.149 137.464 107.14 140.755 106.667Z" stroke="url(#paint37_linear_302_224)" stroke-width="0.5" stroke-linecap="round" stroke-linejoin="round"/>
<path d="M154.099 93.1444C154.61 91.8618 152.096 89.6551 148.484 88.2157C144.873 86.7762 141.53 86.649 141.019 87.9316C140.508 89.2142 143.021 91.4208 146.633 92.8603C150.245 94.2998 153.587 94.427 154.099 93.1444Z" stroke="url(#paint38_linear_302_224)" stroke-width="0.5" stroke-linecap="round" stroke-linejoin="round"/>
<path d="M152.969 96.9376C154.264 94.4673 154.576 92.0782 153.666 91.6013C152.756 91.1244 150.969 92.7404 149.674 95.2107C148.38 97.681 148.068 100.07 148.978 100.547C149.887 101.024 151.675 99.4079 152.969 96.9376Z" stroke="url(#paint39_linear_302_224)" stroke-width="0.5" stroke-linecap="round" stroke-linejoin="round"/>
<path d="M125.116 89.4368C125.658 86.7009 125.28 84.3212 124.273 84.1215C123.265 83.9218 122.009 85.9777 121.466 88.7136C120.924 91.4494 121.302 93.8291 122.309 94.0288C123.317 94.2285 124.573 92.1726 125.116 89.4368Z" stroke="url(#paint40_linear_302_224)" stroke-width="0.5" stroke-linecap="round" stroke-linejoin="round"/>
<path d="M127.23 83.5064C128.651 82.4924 129.313 80.9854 128.71 80.1403C128.107 79.2952 126.466 79.4321 125.046 80.4461C123.625 81.46 122.963 82.9671 123.566 83.8121C124.169 84.6572 125.81 84.5203 127.23 83.5064Z" stroke="url(#paint41_linear_302_224)" stroke-width="0.5" stroke-linecap="round" stroke-linejoin="round"/>
<path d="M149.868 103.59C150.801 102.115 150.846 100.47 149.968 99.9146C149.091 99.3596 147.623 100.105 146.69 101.58C145.758 103.055 145.713 104.701 146.59 105.256C147.468 105.811 148.935 105.065 149.868 103.59Z" stroke="url(#paint42_linear_302_224)" stroke-width="0.5" stroke-linecap="round" stroke-linejoin="round"/>
<path d="M138.132 113.887C139.471 109.561 139.23 105.643 137.594 105.137C135.959 104.631 133.548 107.729 132.209 112.055C130.871 116.381 131.112 120.299 132.747 120.805C134.383 121.311 136.794 118.214 138.132 113.887Z" stroke="url(#paint43_linear_302_224)" stroke-width="0.5" stroke-linecap="round" stroke-linejoin="round"/>
<path d="M152.549 115.732C153.736 114.545 152.27 111.154 149.275 108.159C146.28 105.164 142.889 103.698 141.702 104.885C140.515 106.072 141.981 109.463 144.976 112.458C147.971 115.453 151.362 116.919 152.549 115.732Z" stroke="url(#paint44_linear_302_224)" stroke-width="0.5" stroke-linecap="round" stroke-linejoin="round"/>
<path d="M136.529 133.558C137.874 133.2 138.154 129.864 137.153 126.107C136.153 122.35 134.251 119.594 132.907 119.952C131.562 120.311 131.282 123.647 132.283 127.404C133.283 131.161 135.184 133.916 136.529 133.558Z" stroke="url(#paint45_linear_302_224)" stroke-width="0.5" stroke-linecap="round" stroke-linejoin="round"/>
<path d="M157.532 114.544C161.073 112.938 163.477 110.608 162.902 109.341C162.327 108.073 158.991 108.348 155.45 109.954C151.909 111.56 149.505 113.89 150.08 115.157C150.655 116.425 153.991 116.15 157.532 114.544Z" stroke="url(#paint46_linear_302_224)" stroke-width="0.5" stroke-linecap="round" stroke-linejoin="round"/>
<path d="M133.1 134.17C135.436 134.17 137.33 133.651 137.33 133.01C137.33 132.369 135.436 131.85 133.1 131.85C130.764 131.85 128.87 132.369 128.87 133.01C128.87 133.651 130.764 134.17 133.1 134.17Z" stroke="url(#paint47_linear_302_224)" stroke-width="0.5" stroke-linecap="round" stroke-linejoin="round"/>
<path d="M163.713 112.638C164.491 110.436 164.632 108.477 164.027 108.264C163.423 108.05 162.303 109.663 161.525 111.866C160.747 114.069 160.606 116.027 161.21 116.241C161.815 116.454 162.935 114.841 163.713 112.638Z" stroke="url(#paint48_linear_302_224)" stroke-width="0.5" stroke-linecap="round" stroke-linejoin="round"/>
<path d="M81.7699 60.7801C81.2399 60.5501 80.9899 59.9901 81.1399 59.5101C81.2599 59.1401 81.6099 58.8601 82.0299 58.8201" stroke="#1E0E00" stroke-width="0.5" stroke-miterlimit="10" stroke-linecap="round"/>
<path d="M82.51 52.0901C82.7696 52.0901 82.98 51.8797 82.98 51.6201C82.98 51.3606 82.7696 51.1501 82.51 51.1501C82.2504 51.1501 82.04 51.3606 82.04 51.6201C82.04 51.8797 82.2504 52.0901 82.51 52.0901Z" fill="#FF00ED" stroke="#1E0E00" stroke-width="0.25" stroke-miterlimit="10"/>
<path opacity="0.79" d="M116.8 119.74C119.059 119.74 120.89 117.981 120.89 115.81C120.89 113.64 119.059 111.88 116.8 111.88C114.541 111.88 112.71 113.64 112.71 115.81C112.71 117.981 114.541 119.74 116.8 119.74Z" fill="#6C6966" stroke="#1E0E00" stroke-miterlimit="10"/>
<path opacity="0.79" d="M83.0299 96.3301C85.4987 96.3301 87.4999 94.3289 87.4999 91.8601C87.4999 89.3914 85.4987 87.3901 83.0299 87.3901C80.5612 87.3901 78.5599 89.3914 78.5599 91.8601C78.5599 94.3289 80.5612 96.3301 83.0299 96.3301Z" fill="#6C6966" stroke="#1E0E00" stroke-miterlimit="10"/>
<path opacity="0.79" d="M102.77 112.94C105.067 112.94 106.93 111.078 106.93 108.78C106.93 106.483 105.067 104.62 102.77 104.62C100.472 104.62 98.6099 106.483 98.6099 108.78C98.6099 111.078 100.472 112.94 102.77 112.94Z" fill="#6C6966" stroke="#1E0E00" stroke-miterlimit="10"/>
<path d="M77.93 93.8001C80.3987 93.8001 82.4 91.7988 82.4 89.3301C82.4 86.8614 80.3987 84.8601 77.93 84.8601C75.4612 84.8601 73.46 86.8614 73.46 89.3301C73.46 91.7988 75.4612 93.8001 77.93 93.8001Z" fill="#6C6966" stroke="#1E0E00" stroke-miterlimit="10"/>
<path d="M98.05 110.07C100.519 110.07 102.52 108.23 102.52 105.96C102.52 103.69 100.519 101.85 98.05 101.85C95.5812 101.85 93.58 103.69 93.58 105.96C93.58 108.23 95.5812 110.07 98.05 110.07Z" fill="#6C6966" stroke="#1E0E00" stroke-miterlimit="10"/>
<path d="M127.16 120.03C127.24 121.94 125.04 123.53 123.07 123.65C120.74 123.79 118.19 121.91 118.33 119.93C118.45 118.15 120.7 116.83 122.63 116.79C124.62 116.75 127.08 118.07 127.17 120.03H127.16Z" fill="#6C6966" stroke="#1E0E00" stroke-miterlimit="10"/>
<path d="M133.49 75.83C135.46 73.65 137.19 73.09 138.41 72.98C141.5 72.71 143.27 75.19 147.19 75.05C148.73 75 149.98 74.56 150.77 74.21C150.22 75.21 149.27 76.52 147.75 76.95C146.1 77.41 144.75 76.54 144.34 77.12C143.91 77.72 144.84 79.42 146.07 80.36C148.71 82.39 152.63 80.95 153.28 80.7C152.96 81.29 152.17 82.54 150.65 83.38C150.41 83.52 147.49 85.08 144.84 83.66C143.16 82.76 142.44 81.13 142.1 80.36C141.41 78.8 141.73 78.15 141.26 77.34C140.63 76.24 138.8 75.26 133.49 75.83Z" fill="#B89CDF"/>
<path d="M142.32 122.64C142.99 123.24 144.87 124.77 147.63 124.93C152.67 125.23 155.72 120.66 155.85 120.46" stroke="url(#paint49_linear_302_224)" stroke-width="0.25" stroke-linecap="round" stroke-linejoin="round"/>
<path d="M152.08 119.92C154.01 119.53 155.94 119.14 157.86 118.76C157.47 120.49 157.08 122.23 156.69 123.96C156.69 123.62 156.66 122.04 155.48 120.97C154.82 120.38 154.05 120.16 153.73 120.07C153.05 119.89 152.46 119.89 152.08 119.92Z" fill="#FF31E7" stroke="url(#paint50_linear_302_224)" stroke-width="0.25" stroke-linecap="round" stroke-linejoin="round"/>
<path d="M29.77 124.65V127.12" stroke="url(#paint51_linear_302_224)" stroke-width="0.25" stroke-linecap="round" stroke-linejoin="round"/>
<path d="M31.7599 123.69V127.56" stroke="url(#paint52_linear_302_224)" stroke-width="0.25" stroke-linecap="round" stroke-linejoin="round"/>
<path d="M34.3699 124.75V127.02" stroke="url(#paint53_linear_302_224)" stroke-width="0.25" stroke-linecap="round" stroke-linejoin="round"/>
<path d="M36.58 123.69V127.56" stroke="url(#paint54_linear_302_224)" stroke-width="0.25" stroke-linecap="round" stroke-linejoin="round"/>
<path d="M38.84 125.25V126.52" stroke="url(#paint55_linear_302_224)" stroke-width="0.25" stroke-linecap="round" stroke-linejoin="round"/>
<path d="M41.4199 124.46V127.11" stroke="url(#paint56_linear_302_224)" stroke-width="0.25" stroke-linecap="round" stroke-linejoin="round"/>
<path d="M44.5599 124.65V127.12" stroke="url(#paint57_linear_302_224)" stroke-width="0.25" stroke-linecap="round" stroke-linejoin="round"/>
<path d="M46.5399 123.69V127.56" stroke="url(#paint58_linear_302_224)" stroke-width="0.25" stroke-linecap="round" stroke-linejoin="round"/>
<path d="M49.15 124.75V127.02" stroke="url(#paint59_linear_302_224)" stroke-width="0.25" stroke-linecap="round" stroke-linejoin="round"/>
<path d="M51.3599 123.69V127.56" stroke="url(#paint60_linear_302_224)" stroke-width="0.25" stroke-linecap="round" stroke-linejoin="round"/>
<path d="M53.6199 125.25V126.52" stroke="url(#paint61_linear_302_224)" stroke-width="0.25" stroke-linecap="round" stroke-linejoin="round"/>
<path d="M56.2 124.46V127.11" stroke="url(#paint62_linear_302_224)" stroke-width="0.25" stroke-linecap="round" stroke-linejoin="round"/>
<path opacity="0.78" d="M82.69 60.7301C83.19 60.9901 84.08 61.3701 85.22 61.4101C85.77 61.4301 87.9 61.5001 89.31 59.8601C90.41 58.5701 90.39 57.0101 90.37 56.5701C90.19 56.8401 89.88 57.2201 89.41 57.5301C89.03 57.7901 88.79 57.8301 88.26 58.1001C87.62 58.4401 87.45 58.6501 87.07 58.8801C86.35 59.3201 85.65 59.3401 84.51 59.3801C83.58 59.4101 83.28 59.3001 81.45 59.1501C80.67 59.0901 80.02 59.0501 79.6 59.0301C80.63 59.6001 81.65 60.1601 82.68 60.7301H82.69Z" fill="url(#paint63_linear_302_224)"/>
<path d="M55.6499 47.28C55.4599 46.42 53.8199 45.7 53.1899 46.21C52.6899 46.61 52.9199 47.71 53.2199 48.34C54.0599 50.12 56.5399 50.45 56.6299 50.27C56.6999 50.14 55.4299 49.74 55.2999 48.79C55.2099 48.12 55.7799 47.84 55.6599 47.28H55.6499Z" fill="url(#paint64_linear_302_224)"/>
<path d="M160.62 47.3701C160.74 47.4501 162.19 48.3901 162.23 50.0301C162.25 51.0101 161.77 51.7001 161.54 52.0201C161.15 52.5701 160.21 53.6101 159.53 53.3901C159.03 53.2301 159.05 52.5201 158.65 51.4101C157.76 48.9101 156.18 48.3901 156.48 47.6101C156.81 46.7601 159.09 46.4101 160.63 47.3801L160.62 47.3701Z" fill="url(#paint65_linear_302_224)"/>
<path d="M161.8 54.3301C161.99 54.4301 163.01 55.1101 163.12 56.3501C163.13 56.4901 163.2 57.4801 162.48 58.2401C162.02 58.7201 161.15 59.1801 160.59 58.8901C160.19 58.6901 160.2 58.2401 159.95 57.5301C159.28 55.6301 157.89 55.2501 158.17 54.6401C158.48 53.9701 160.49 53.6201 161.8 54.3301Z" fill="url(#paint66_linear_302_224)"/>
<path d="M157.96 42.57C156.23 41.31 154.46 40.04 152.55 38.72C152.67 39.3 152.84 40.52 152.28 41.8C152.01 42.42 151.68 42.82 151.42 43.12C150.95 43.68 149.99 44.64 148.31 45.31C149.02 45.47 150.04 45.8 151.1 46.51C151.66 46.89 152.1 47.29 152.44 47.65C152.97 47.57 153.83 47.43 154.89 47.23C156.7 46.89 157.21 46.73 158.09 46.73C158.73 46.73 159.68 46.82 160.86 47.29C160.8 46.68 160.63 45.77 160.11 44.83C159.47 43.69 158.63 43.06 157.95 42.57H157.96Z" fill="url(#paint67_linear_302_224)"/>
<path d="M138.05 88.3401L139.9 105.62" stroke="#5381AD" stroke-width="0.25" stroke-miterlimit="10"/>
<path d="M124.52 93.7701L132.74 90.1501" stroke="#5381AD" stroke-width="0.25" stroke-miterlimit="10"/>
<path d="M123.71 86.2102L122.74 92.6302" stroke="#5381AD" stroke-width="0.25" stroke-miterlimit="10"/>
<path d="M124.65 83.2702L127.35 81.1902" stroke="#5381AD" stroke-width="0.25" stroke-miterlimit="10"/>
<path d="M142.32 88.3401L150.67 91.2701" stroke="#5381AD" stroke-width="0.25" stroke-miterlimit="10"/>
<path d="M150.04 99.3401L152.54 93.0901" stroke="#5381AD" stroke-width="0.25" stroke-miterlimit="10"/>
<path d="M147.13 104.13L149.09 101.85" stroke="#5381AD" stroke-width="0.25" stroke-miterlimit="10"/>
<path d="M137.33 107.34L133.49 118.76" stroke="#5381AD" stroke-width="0.25" stroke-miterlimit="10"/>
<path d="M133.18 121.36L136.02 130.98" stroke="#5381AD" stroke-width="0.25" stroke-miterlimit="10"/>
<path d="M142.78 105.6L149.73 112.94" stroke="#5381AD" stroke-width="0.25" stroke-miterlimit="10"/>
<path d="M151.77 114.43L160.23 110.82" stroke="#5381AD" stroke-width="0.25" stroke-miterlimit="10"/>
<path d="M133.54 90.7001C134.037 90.7001 134.44 90.2972 134.44 89.8001C134.44 89.3031 134.037 88.9001 133.54 88.9001C133.043 88.9001 132.64 89.3031 132.64 89.8001C132.64 90.2972 133.043 90.7001 133.54 90.7001Z" fill="#9CA4BB" stroke="#5381AD" stroke-width="0.25" stroke-miterlimit="10"/>
<path d="M123.52 94.3901C124.017 94.3901 124.42 93.9871 124.42 93.4901C124.42 92.993 124.017 92.5901 123.52 92.5901C123.023 92.5901 122.62 92.993 122.62 93.4901C122.62 93.9871 123.023 94.3901 123.52 94.3901Z" fill="#9CA4BB" stroke="#5381AD" stroke-width="0.25" stroke-miterlimit="10"/>
<path d="M124.41 85.4301C124.907 85.4301 125.31 85.0272 125.31 84.5301C125.31 84.0331 124.907 83.6301 124.41 83.6301C123.913 83.6301 123.51 84.0331 123.51 84.5301C123.51 85.0272 123.913 85.4301 124.41 85.4301Z" fill="#9CA4BB" stroke="#5381AD" stroke-width="0.25" stroke-miterlimit="10"/>
<path d="M152.25 93.0703C152.747 93.0703 153.15 92.6673 153.15 92.1703C153.15 91.6732 152.747 91.2703 152.25 91.2703C151.753 91.2703 151.35 91.6732 151.35 92.1703C151.35 92.6673 151.753 93.0703 152.25 93.0703Z" fill="#9CA4BB" stroke="#5381AD" stroke-width="0.25" stroke-miterlimit="10"/>
<path d="M137.33 107.9C137.827 107.9 138.23 107.497 138.23 107C138.23 106.503 137.827 106.1 137.33 106.1C136.833 106.1 136.43 106.503 136.43 107C136.43 107.497 136.833 107.9 137.33 107.9Z" fill="#9CA4BB" stroke="#5381AD" stroke-width="0.25" stroke-miterlimit="10"/>
<path d="M143.03 106.76C143.527 106.76 143.93 106.357 143.93 105.86C143.93 105.363 143.527 104.96 143.03 104.96C142.533 104.96 142.13 105.363 142.13 105.86C142.13 106.357 142.533 106.76 143.03 106.76Z" fill="#9CA4BB" stroke="#5381AD" stroke-width="0.25" stroke-miterlimit="10"/>
<path d="M133.3 121.12C133.797 121.12 134.2 120.717 134.2 120.22C134.2 119.723 133.797 119.32 133.3 119.32C132.803 119.32 132.4 119.723 132.4 120.22C132.4 120.717 132.803 121.12 133.3 121.12Z" fill="#9CA4BB" stroke="#5381AD" stroke-width="0.25" stroke-miterlimit="10"/>
<path d="M150.46 114.85C150.957 114.85 151.36 114.447 151.36 113.95C151.36 113.453 150.957 113.05 150.46 113.05C149.963 113.05 149.56 113.453 149.56 113.95C149.56 114.447 149.963 114.85 150.46 114.85Z" fill="#9CA4BB" stroke="#5381AD" stroke-width="0.25" stroke-miterlimit="10"/>
<path d="M149.55 101.5C150.047 101.5 150.45 101.097 150.45 100.6C150.45 100.103 150.047 99.7002 149.55 99.7002C149.053 99.7002 148.65 100.103 148.65 100.6C148.65 101.097 149.053 101.5 149.55 101.5Z" fill="#9CA4BB" stroke="#5381AD" stroke-width="0.25" stroke-miterlimit="10"/>
<path d="M137.87 87.5703C138.367 87.5703 138.77 87.1673 138.77 86.6703C138.77 86.1732 138.367 85.7703 137.87 85.7703C137.373 85.7703 136.97 86.1732 136.97 86.6703C136.97 87.1673 137.373 87.5703 137.87 87.5703Z" fill="#9CA4BB" stroke="#5381AD" stroke-width="0.25" stroke-miterlimit="10"/>
<path d="M39.095 134.452L36.4579 132.046L34.0515 134.683L36.6887 137.09L39.095 134.452Z" fill="#FF74E6" stroke="url(#paint68_linear_302_224)" stroke-width="0.25" stroke-linecap="round" stroke-linejoin="round"/>
<path d="M51.7421 134.452L49.105 132.046L46.6986 134.683L49.3358 137.09L51.7421 134.452Z" fill="#FF74E6" stroke="url(#paint69_linear_302_224)" stroke-width="0.25" stroke-linecap="round" stroke-linejoin="round"/>
<path d="M67.1099 123.77V136.57" stroke="#7E9DF7" stroke-width="0.75" stroke-miterlimit="10" stroke-linecap="round"/>
<path d="M70.9241 132.467V136.3H70.46V132.954H70.4375L69.5018 133.575V133.104L70.46 132.467H70.9241Z" fill="#FFC2FF"/>
<path d="M100.037 136.3V135.963L101.302 134.578C101.45 134.416 101.573 134.275 101.669 134.155C101.765 134.034 101.836 133.921 101.882 133.815C101.929 133.707 101.953 133.595 101.953 133.478C101.953 133.343 101.921 133.227 101.856 133.128C101.792 133.029 101.705 132.953 101.594 132.9C101.483 132.846 101.358 132.819 101.219 132.819C101.072 132.819 100.944 132.85 100.834 132.911C100.725 132.971 100.641 133.055 100.581 133.164C100.523 133.272 100.493 133.399 100.493 133.545H100.052C100.052 133.321 100.103 133.124 100.207 132.954C100.311 132.784 100.452 132.652 100.63 132.557C100.81 132.462 101.011 132.415 101.234 132.415C101.459 132.415 101.658 132.462 101.831 132.557C102.005 132.652 102.141 132.78 102.239 132.941C102.338 133.102 102.387 133.281 102.387 133.478C102.387 133.619 102.362 133.757 102.311 133.891C102.261 134.025 102.173 134.174 102.049 134.339C101.925 134.502 101.753 134.702 101.534 134.938L100.673 135.858V135.888H102.455V136.3H100.037Z" fill="#FFC2FF"/>
<path d="M77.1099 44.1502C77.0099 43.5102 76.7599 42.5702 76.0399 41.7902C75.1899 40.8802 73.9199 40.4602 69.8599 40.4402C68.1399 40.4402 65.7999 40.5002 63.0099 40.8102C63.7699 41.7402 64.9999 42.9602 66.7999 43.8702C71.4499 46.2002 76.1299 44.5202 77.1099 44.1502Z" fill="#E7FFF1"/>
<path d="M69.61 44.84C69.21 43.47 69.92 42.02 71.21 41.51C72.54 40.98 74.03 41.64 74.61 42.76C75.07 43.65 74.82 44.57 74.74 44.81C74.05 44.95 73.2 45.06 72.22 45.07C71.2 45.07 70.32 44.97 69.62 44.83L69.61 44.84Z" fill="#80A7D9" stroke="url(#paint70_linear_302_224)" stroke-width="0.5" stroke-miterlimit="10"/>
<path d="M77.6099 40.9601C75.4799 40.5901 73.3499 40.2301 71.2199 39.8601C67.9799 40.1401 64.7299 40.4101 61.4899 40.6901C62.2599 40.9501 63.1799 41.3301 64.1499 41.9101C64.7199 42.2501 65.2199 42.6101 65.6499 42.9501" stroke="#1E0E00" stroke-width="0.75" stroke-miterlimit="10" stroke-linecap="round"/>
<path d="M77.1899 44.7201C75.9899 45.0301 74.37 45.3201 72.45 45.3001C70.05 45.2801 68.0899 44.7701 66.7599 44.3201" stroke="#1E0E00" stroke-width="0.5" stroke-miterlimit="10" stroke-linecap="round"/>
<path d="M68.95 44.96C68.57 45.11 68.0899 45.3 67.5699 45.53C67.4099 45.6 67.2599 45.66 67.1299 45.72" stroke="#1E0E00" stroke-width="0.5" stroke-miterlimit="10" stroke-linecap="round"/>
<path d="M70.79 44.9201C70.69 43.8001 71.3699 42.8801 72.1599 42.7301C73.3599 42.5101 74.4599 44.1101 74.2199 44.6401C74.0799 44.9501 73.46 44.9701 72.45 45.0101C71.78 45.0301 71.21 44.9801 70.79 44.9201Z" fill="#01195C" stroke="#1E0E00" stroke-width="0.25" stroke-linecap="round" stroke-linejoin="round"/>
<path d="M89.4599 43.57C89.2899 42.3 90.1499 41.3 91.0299 41.24C92.0299 41.18 93.0099 42.36 92.7699 43.12C92.5699 43.76 91.55 43.98 91.01 44C90.26 44.03 89.6899 43.72 89.4599 43.57Z" fill="#01195C" stroke="#1E0E00" stroke-width="0.25" stroke-linecap="round" stroke-linejoin="round"/>
</g>
<defs>
<linearGradient id="paint0_linear_302_224" x1="71.6299" y1="70.19" x2="85.7699" y2="56.05" gradientUnits="userSpaceOnUse">
<stop offset="0.14" stop-color="#C7A69E"/>
<stop offset="0.26" stop-color="#BC9D97"/>
<stop offset="0.47" stop-color="#A08684"/>
<stop offset="0.74" stop-color="#736067"/>
<stop offset="0.78" stop-color="#6B5A62"/>
</linearGradient>
<linearGradient id="paint1_linear_302_224" x1="83.5499" y1="43.3902" x2="90.3699" y2="43.3902" gradientUnits="userSpaceOnUse">
<stop stop-color="#DFB298"/>
<stop offset="0.14" stop-color="#D4A892"/>
<stop offset="0.39" stop-color="#B88D82"/>
<stop offset="0.48" stop-color="#AE847D"/>
</linearGradient>
<linearGradient id="paint2_linear_302_224" x1="83.45" y1="53" x2="86.97" y2="53" gradientUnits="userSpaceOnUse">
<stop offset="0.14" stop-color="#F1D1C2"/>
<stop offset="0.31" stop-color="#ECC6B8"/>
<stop offset="0.59" stop-color="#E0AA9D"/>
<stop offset="0.78" stop-color="#D89589"/>
</linearGradient>
<linearGradient id="paint3_linear_302_224" x1="60.35" y1="37.6401" x2="78.4299" y2="37.6401" gradientUnits="userSpaceOnUse">
<stop offset="0.14" stop-color="#F9E0D1"/>
<stop offset="0.2" stop-color="#F0D5C7"/>
<stop offset="0.31" stop-color="#D9B9AD"/>
<stop offset="0.45" stop-color="#B48C84"/>
<stop offset="0.48" stop-color="#AE847D"/>
<stop offset="0.94" stop-color="#6B5A62"/>
</linearGradient>
<linearGradient id="paint4_linear_302_224" x1="88.5635" y1="41.6134" x2="94.0298" y2="41.8157" gradientUnits="userSpaceOnUse">
<stop stop-color="#80A7AC"/>
<stop offset="0.74" stop-color="#0087FF"/>
</linearGradient>
<linearGradient id="paint5_linear_302_224" x1="88.78" y1="36.5201" x2="97.63" y2="36.5201" gradientUnits="userSpaceOnUse">
<stop offset="0.14" stop-color="#F9E0D1"/>
<stop offset="0.2" stop-color="#F0D5C7"/>
<stop offset="0.31" stop-color="#D9B9AD"/>
<stop offset="0.45" stop-color="#B48C84"/>
<stop offset="0.48" stop-color="#AE847D"/>
<stop offset="0.94" stop-color="#6B5A62"/>
</linearGradient>
<linearGradient id="paint6_linear_302_224" x1="85.42" y1="32.65" x2="101" y2="32.65" gradientUnits="userSpaceOnUse">
<stop/>
<stop offset="0.74" stop-color="#271E56"/>
</linearGradient>
<linearGradient id="paint7_linear_302_224" x1="55.73" y1="34.7001" x2="77.99" y2="34.7001" gradientUnits="userSpaceOnUse">
<stop/>
<stop offset="0.74" stop-color="#271E56"/>
</linearGradient>
<linearGradient id="paint8_linear_302_224" x1="19.26" y1="35.05" x2="102.67" y2="35.05" gradientUnits="userSpaceOnUse">
<stop stop-color="#020210"/>
<stop offset="0.58" stop-color="#1C1541"/>
<stop offset="0.88" stop-color="#271E56"/>
</linearGradient>
<linearGradient id="paint9_linear_302_224" x1="95.16" y1="28.1802" x2="121.72" y2="28.1802" gradientUnits="userSpaceOnUse">
<stop/>
<stop offset="0.74" stop-color="#271E56"/>
</linearGradient>
<linearGradient id="paint10_linear_302_224" x1="28.73" y1="67.98" x2="28.73" y2="16.14" gradientUnits="userSpaceOnUse">
<stop stop-color="#9CA4DF"/>
<stop offset="0.81" stop-color="#211849"/>
</linearGradient>
<linearGradient id="paint11_linear_302_224" x1="27.1099" y1="65.1301" x2="27.1099" y2="25.1301" gradientUnits="userSpaceOnUse">
<stop stop-color="#9CA4DF"/>
<stop offset="0.81" stop-color="#211849"/>
</linearGradient>
<linearGradient id="paint12_linear_302_224" x1="44.61" y1="27.41" x2="70.79" y2="27.41" gradientUnits="userSpaceOnUse">
<stop stop-color="#9CA4DF"/>
<stop offset="0.81" stop-color="#211849"/>
</linearGradient>
<linearGradient id="paint13_linear_302_224" x1="67.4699" y1="53.7501" x2="67.4699" y2="19.3601" gradientUnits="userSpaceOnUse">
<stop stop-color="#9CA4BB"/>
<stop offset="0.81" stop-color="#211849"/>
</linearGradient>
<linearGradient id="paint14_linear_302_224" x1="89.9099" y1="25.1401" x2="89.9099" y2="18.6401" gradientUnits="userSpaceOnUse">
<stop stop-color="#9CA4DF"/>
<stop offset="0.81" stop-color="#211849"/>
</linearGradient>
<linearGradient id="paint15_linear_302_224" x1="96.54" y1="38.1001" x2="96.54" y2="18.4001" gradientUnits="userSpaceOnUse">
<stop stop-color="#9CA4DF"/>
<stop offset="0.81" stop-color="#211849"/>
</linearGradient>
<linearGradient id="paint16_linear_302_224" x1="107.85" y1="28.6501" x2="107.85" y2="0.630079" gradientUnits="userSpaceOnUse">
<stop stop-color="#9CA4DF"/>
<stop offset="0.81" stop-color="#211849"/>
</linearGradient>
<linearGradient id="paint17_linear_302_224" x1="108.53" y1="39.72" x2="108.53" y2="11.09" gradientUnits="userSpaceOnUse">
<stop stop-color="#9CA4DF"/>
<stop offset="0.81" stop-color="#211849"/>
</linearGradient>
<linearGradient id="paint18_linear_302_224" x1="57.9199" y1="102.66" x2="126.81" y2="102.66" gradientUnits="userSpaceOnUse">
<stop stop-color="#33C4F3"/>
<stop offset="0.12" stop-color="#3BBCF3"/>
<stop offset="0.3" stop-color="#51A7F3"/>
<stop offset="0.53" stop-color="#7685F4"/>
<stop offset="0.79" stop-color="#A856F5"/>
<stop offset="0.8" stop-color="#AC54F6"/>
</linearGradient>
<linearGradient id="paint19_linear_302_224" x1="51.33" y1="101.12" x2="107.56" y2="101.12" gradientUnits="userSpaceOnUse">
<stop stop-color="#00C4F3"/>
<stop offset="0.09" stop-color="#08BFF3"/>
<stop offset="0.23" stop-color="#1EB2F3"/>
<stop offset="0.41" stop-color="#439DF4"/>
<stop offset="0.61" stop-color="#7580F5"/>
<stop offset="0.8" stop-color="#AC62F6"/>
</linearGradient>
<linearGradient id="paint20_linear_302_224" x1="132.11" y1="54.2301" x2="163.87" y2="54.2301" gradientUnits="userSpaceOnUse">
<stop offset="0.26" stop-color="#F1D1C2"/>
<stop offset="0.87" stop-color="#C99E95"/>
</linearGradient>
<linearGradient id="paint21_linear_302_224" x1="131.42" y1="51.0302" x2="154.17" y2="51.0302" gradientUnits="userSpaceOnUse">
<stop offset="0.16" stop-color="#121717"/>
<stop offset="0.27" stop-color="#1D2226"/>
<stop offset="0.48" stop-color="#3B424E"/>
<stop offset="0.78" stop-color="#6B748F"/>
<stop offset="1" stop-color="#939DC4"/>
</linearGradient>
<linearGradient id="paint22_linear_302_224" x1="144.75" y1="38.72" x2="144.75" y2="51.77" gradientUnits="userSpaceOnUse">
<stop offset="0.26" stop-color="#F1D1C2"/>
<stop offset="0.48" stop-color="#EDC6B7"/>
<stop offset="0.87" stop-color="#E6AB9C"/>
</linearGradient>
<linearGradient id="paint23_linear_302_224" x1="146.85" y1="46.73" x2="146.85" y2="59.06" gradientUnits="userSpaceOnUse">
<stop offset="0.26" stop-color="#F1D1C2"/>
<stop offset="0.48" stop-color="#EDC6B7"/>
<stop offset="0.87" stop-color="#E6AB9C"/>
</linearGradient>
<linearGradient id="paint24_linear_302_224" x1="151.19" y1="53.82" x2="151.19" y2="62.88" gradientUnits="userSpaceOnUse">
<stop offset="0.26" stop-color="#F1D1C2"/>
<stop offset="0.48" stop-color="#EDC6B7"/>
<stop offset="0.87" stop-color="#E6AB9C"/>
</linearGradient>
<linearGradient id="paint25_linear_302_224" x1="156.35" y1="59.06" x2="156.35" y2="67.28" gradientUnits="userSpaceOnUse">
<stop offset="0.26" stop-color="#F1D1C2"/>
<stop offset="0.48" stop-color="#EDC6B7"/>
<stop offset="0.87" stop-color="#E6AB9C"/>
</linearGradient>
<linearGradient id="paint26_linear_302_224" x1="40.6299" y1="99.2" x2="40.6299" y2="113.89" gradientUnits="userSpaceOnUse">
<stop offset="0.26" stop-color="#F1D1C2"/>
<stop offset="0.36" stop-color="#EBC6B8"/>
<stop offset="0.54" stop-color="#DBAA9D"/>
<stop offset="0.67" stop-color="#CD9286"/>
</linearGradient>
<linearGradient id="paint27_linear_302_224" x1="37.7726" y1="104.363" x2="77.8242" y2="103.678" gradientUnits="userSpaceOnUse">
<stop offset="0.26" stop-color="#F1D1C2"/>
<stop offset="0.48" stop-color="#EDC6B7"/>
<stop offset="0.87" stop-color="#E6AB9C"/>
</linearGradient>
<linearGradient id="paint28_linear_302_224" x1="58.94" y1="112.53" x2="67.3599" y2="112.53" gradientUnits="userSpaceOnUse">
<stop offset="0.26" stop-color="#F1D1C2"/>
<stop offset="0.44" stop-color="#E8C6B8"/>
<stop offset="0.75" stop-color="#D2AAA0"/>
<stop offset="0.87" stop-color="#C99E95"/>
</linearGradient>
<linearGradient id="paint29_linear_302_224" x1="58.36" y1="104.37" x2="67.11" y2="104.37" gradientUnits="userSpaceOnUse">
<stop offset="0.26" stop-color="#F1D1C2"/>
<stop offset="0.44" stop-color="#E8C6B8"/>
<stop offset="0.75" stop-color="#D2AAA0"/>
<stop offset="0.87" stop-color="#C99E95"/>
</linearGradient>
<linearGradient id="paint30_linear_302_224" x1="51.9805" y1="96.1795" x2="49.2217" y2="98.979" gradientUnits="userSpaceOnUse">
<stop offset="0.14" stop-color="#F1D1C2"/>
<stop offset="0.38" stop-color="#F1C6B9"/>
<stop offset="0.8" stop-color="#F2AAA1"/>
<stop offset="0.85" stop-color="#F3A79E"/>
<stop offset="1" stop-color="#F3A49C"/>
</linearGradient>
<linearGradient id="paint31_linear_302_224" x1="57.8139" y1="99.9443" x2="55.0552" y2="102.744" gradientUnits="userSpaceOnUse">
<stop offset="0.14" stop-color="#F1D1C2"/>
<stop offset="0.38" stop-color="#F1C6B9"/>
<stop offset="0.8" stop-color="#F2AAA1"/>
<stop offset="0.85" stop-color="#F3A79E"/>
<stop offset="1" stop-color="#F3A49C"/>
</linearGradient>
<linearGradient id="paint32_linear_302_224" x1="60.6012" y1="104.561" x2="57.8472" y2="107.355" gradientUnits="userSpaceOnUse">
<stop offset="0.14" stop-color="#F1D1C2"/>
<stop offset="0.38" stop-color="#F1C6B9"/>
<stop offset="0.8" stop-color="#F2AAA1"/>
<stop offset="0.85" stop-color="#F3A79E"/>
<stop offset="1" stop-color="#F3A49C"/>
</linearGradient>
<linearGradient id="paint33_linear_302_224" x1="61.0199" y1="108.762" x2="57.1923" y2="109.684" gradientUnits="userSpaceOnUse">
<stop offset="0.14" stop-color="#F1D1C2"/>
<stop offset="0.38" stop-color="#F1C6B9"/>
<stop offset="0.8" stop-color="#F2AAA1"/>
<stop offset="0.85" stop-color="#F3A79E"/>
<stop offset="1" stop-color="#F3A49C"/>
</linearGradient>
<linearGradient id="paint34_linear_302_224" x1="26.02" y1="130.24" x2="104" y2="130.24" gradientUnits="userSpaceOnUse">
<stop offset="0.09" stop-color="#FF00EC"/>
<stop offset="1" stop-color="#E7029D"/>
</linearGradient>
<linearGradient id="paint35_linear_302_224" x1="132.09" y1="80.3902" x2="142.57" y2="80.3902" gradientUnits="userSpaceOnUse">
<stop offset="0.09" stop-color="#FF00EC"/>
<stop offset="1" stop-color="#FF74E6"/>
</linearGradient>
<linearGradient id="paint36_linear_302_224" x1="122.215" y1="91.2645" x2="135.515" y2="91.2645" gradientUnits="userSpaceOnUse">
<stop offset="0.09" stop-color="#FF00EC"/>
<stop offset="1" stop-color="#FF74E6"/>
</linearGradient>
<linearGradient id="paint37_linear_302_224" x1="132.967" y1="96.9266" x2="145.717" y2="96.9266" gradientUnits="userSpaceOnUse">
<stop offset="0.09" stop-color="#FF00EC"/>
<stop offset="1" stop-color="#FF74E6"/>
</linearGradient>
<linearGradient id="paint38_linear_302_224" x1="140.706" y1="90.5032" x2="154.426" y2="90.5032" gradientUnits="userSpaceOnUse">
<stop offset="0.09" stop-color="#FF00EC"/>
<stop offset="1" stop-color="#FF74E6"/>
</linearGradient>
<linearGradient id="paint39_linear_302_224" x1="148.203" y1="96.1028" x2="154.433" y2="96.1028" gradientUnits="userSpaceOnUse">
<stop offset="0.09" stop-color="#FF00EC"/>
<stop offset="1" stop-color="#FF74E6"/>
</linearGradient>
<linearGradient id="paint40_linear_302_224" x1="120.968" y1="89.083" x2="125.608" y2="89.083" gradientUnits="userSpaceOnUse">
<stop offset="0.09" stop-color="#FF00EC"/>
<stop offset="1" stop-color="#FF74E6"/>
</linearGradient>
<linearGradient id="paint41_linear_302_224" x1="123.077" y1="82.0012" x2="129.167" y2="82.0012" gradientUnits="userSpaceOnUse">
<stop offset="0.09" stop-color="#FF00EC"/>
<stop offset="1" stop-color="#FF74E6"/>
</linearGradient>
<linearGradient id="paint42_linear_302_224" x1="145.701" y1="102.607" x2="150.831" y2="102.607" gradientUnits="userSpaceOnUse">
<stop offset="0.09" stop-color="#FF00EC"/>
<stop offset="1" stop-color="#FF74E6"/>
</linearGradient>
<linearGradient id="paint43_linear_302_224" x1="131.088" y1="112.98" x2="139.238" y2="112.98" gradientUnits="userSpaceOnUse">
<stop offset="0.09" stop-color="#FF00EC"/>
<stop offset="1" stop-color="#FF74E6"/>
</linearGradient>
<linearGradient id="paint44_linear_302_224" x1="141.04" y1="110.311" x2="153.21" y2="110.311" gradientUnits="userSpaceOnUse">
<stop offset="0.09" stop-color="#FF00EC"/>
<stop offset="1" stop-color="#FF74E6"/>
</linearGradient>
<linearGradient id="paint45_linear_302_224" x1="131.423" y1="126.753" x2="138.003" y2="126.753" gradientUnits="userSpaceOnUse">
<stop offset="0.09" stop-color="#FF00EC"/>
<stop offset="1" stop-color="#FF74E6"/>
</linearGradient>
<linearGradient id="paint46_linear_302_224" x1="149.749" y1="112.233" x2="163.229" y2="112.233" gradientUnits="userSpaceOnUse">
<stop offset="0.09" stop-color="#FF00EC"/>
<stop offset="1" stop-color="#FF74E6"/>
</linearGradient>
<linearGradient id="paint47_linear_302_224" x1="128.62" y1="133.01" x2="137.58" y2="133.01" gradientUnits="userSpaceOnUse">
<stop offset="0.09" stop-color="#FF00EC"/>
<stop offset="1" stop-color="#FF74E6"/>
</linearGradient>
<linearGradient id="paint48_linear_302_224" x1="160.592" y1="112.231" x2="164.652" y2="112.231" gradientUnits="userSpaceOnUse">
<stop offset="0.09" stop-color="#FF00EC"/>
<stop offset="1" stop-color="#FF74E6"/>
</linearGradient>
<linearGradient id="paint49_linear_302_224" x1="142.2" y1="122.7" x2="155.98" y2="122.7" gradientUnits="userSpaceOnUse">
<stop offset="0.09" stop-color="#FF00EC"/>
<stop offset="1" stop-color="#E7029D"/>
</linearGradient>
<linearGradient id="paint50_linear_302_224" x1="151.96" y1="121.36" x2="157.99" y2="121.36" gradientUnits="userSpaceOnUse">
<stop offset="0.09" stop-color="#FF00EC"/>
<stop offset="1" stop-color="#E7029D"/>
</linearGradient>
<linearGradient id="paint51_linear_302_224" x1="-nan" y1="-nan" x2="-nan" y2="-nan" gradientUnits="userSpaceOnUse">
<stop offset="0.09" stop-color="#FF00EC"/>
<stop offset="1" stop-color="#E7029D"/>
</linearGradient>
<linearGradient id="paint52_linear_302_224" x1="-nan" y1="-nan" x2="-nan" y2="-nan" gradientUnits="userSpaceOnUse">
<stop offset="0.09" stop-color="#FF00EC"/>
<stop offset="1" stop-color="#E7029D"/>
</linearGradient>
<linearGradient id="paint53_linear_302_224" x1="-nan" y1="-nan" x2="-nan" y2="-nan" gradientUnits="userSpaceOnUse">
<stop offset="0.09" stop-color="#FF00EC"/>
<stop offset="1" stop-color="#E7029D"/>
</linearGradient>
<linearGradient id="paint54_linear_302_224" x1="-nan" y1="-nan" x2="-nan" y2="-nan" gradientUnits="userSpaceOnUse">
<stop offset="0.09" stop-color="#FF00EC"/>
<stop offset="1" stop-color="#E7029D"/>
</linearGradient>
<linearGradient id="paint55_linear_302_224" x1="-nan" y1="-nan" x2="-nan" y2="-nan" gradientUnits="userSpaceOnUse">
<stop offset="0.09" stop-color="#FF00EC"/>
<stop offset="1" stop-color="#E7029D"/>
</linearGradient>
<linearGradient id="paint56_linear_302_224" x1="-nan" y1="-nan" x2="-nan" y2="-nan" gradientUnits="userSpaceOnUse">
<stop offset="0.09" stop-color="#FF00EC"/>
<stop offset="1" stop-color="#E7029D"/>
</linearGradient>
<linearGradient id="paint57_linear_302_224" x1="-nan" y1="-nan" x2="-nan" y2="-nan" gradientUnits="userSpaceOnUse">
<stop offset="0.09" stop-color="#FF00EC"/>
<stop offset="1" stop-color="#E7029D"/>
</linearGradient>
<linearGradient id="paint58_linear_302_224" x1="-nan" y1="-nan" x2="-nan" y2="-nan" gradientUnits="userSpaceOnUse">
<stop offset="0.09" stop-color="#FF00EC"/>
<stop offset="1" stop-color="#E7029D"/>
</linearGradient>
<linearGradient id="paint59_linear_302_224" x1="-nan" y1="-nan" x2="-nan" y2="-nan" gradientUnits="userSpaceOnUse">
<stop offset="0.09" stop-color="#FF00EC"/>
<stop offset="1" stop-color="#E7029D"/>
</linearGradient>
<linearGradient id="paint60_linear_302_224" x1="-nan" y1="-nan" x2="-nan" y2="-nan" gradientUnits="userSpaceOnUse">
<stop offset="0.09" stop-color="#FF00EC"/>
<stop offset="1" stop-color="#E7029D"/>
</linearGradient>
<linearGradient id="paint61_linear_302_224" x1="-nan" y1="-nan" x2="-nan" y2="-nan" gradientUnits="userSpaceOnUse">
<stop offset="0.09" stop-color="#FF00EC"/>
<stop offset="1" stop-color="#E7029D"/>
</linearGradient>
<linearGradient id="paint62_linear_302_224" x1="-nan" y1="-nan" x2="-nan" y2="-nan" gradientUnits="userSpaceOnUse">
<stop offset="0.09" stop-color="#FF00EC"/>
<stop offset="1" stop-color="#E7029D"/>
</linearGradient>
<linearGradient id="paint63_linear_302_224" x1="85.7823" y1="61.478" x2="84.9783" y2="57.6924" gradientUnits="userSpaceOnUse">
<stop offset="0.03" stop-color="#F1D1C2"/>
<stop offset="0.07" stop-color="#DFB4AE" stop-opacity="0.95"/>
<stop offset="0.15" stop-color="#BD7E87" stop-opacity="0.84"/>
<stop offset="0.23" stop-color="#A05167" stop-opacity="0.76"/>
<stop offset="0.31" stop-color="#8A2D4E" stop-opacity="0.69"/>
<stop offset="0.38" stop-color="#7A143C" stop-opacity="0.64"/>
<stop offset="0.45" stop-color="#710531" stop-opacity="0.61"/>
<stop offset="0.5" stop-color="#6E002E" stop-opacity="0.6"/>
<stop offset="0.61" stop-color="#740A35" stop-opacity="0.59"/>
<stop offset="0.72" stop-color="#87284A" stop-opacity="0.56"/>
<stop offset="0.83" stop-color="#A75B6E" stop-opacity="0.51"/>
<stop offset="0.94" stop-color="#D3A2A0" stop-opacity="0.44"/>
<stop offset="1" stop-color="#F1D1C2" stop-opacity="0.4"/>
</linearGradient>
<linearGradient id="paint64_linear_302_224" x1="53.493" y1="48.9027" x2="55.8825" y2="47.7113" gradientUnits="userSpaceOnUse">
<stop offset="0.14" stop-color="#F7DECF"/>
<stop offset="0.28" stop-color="#EED3C4"/>
<stop offset="0.51" stop-color="#D7B8A8"/>
<stop offset="0.78" stop-color="#B79280"/>
</linearGradient>
<linearGradient id="paint65_linear_302_224" x1="156.428" y1="51.1211" x2="161.252" y2="49.6868" gradientUnits="userSpaceOnUse">
<stop offset="0.14" stop-color="#F1D1C2"/>
<stop offset="0.38" stop-color="#F1C6B9"/>
<stop offset="0.8" stop-color="#F2AAA1"/>
<stop offset="0.85" stop-color="#F3A79E"/>
<stop offset="1" stop-color="#F3A49C"/>
</linearGradient>
<linearGradient id="paint66_linear_302_224" x1="156.286" y1="58.2679" x2="160.526" y2="57.0069" gradientUnits="userSpaceOnUse">
<stop offset="0.14" stop-color="#F1D1C2"/>
<stop offset="0.38" stop-color="#F1C6B9"/>
<stop offset="0.8" stop-color="#F2AAA1"/>
<stop offset="0.85" stop-color="#F3A79E"/>
<stop offset="1" stop-color="#F3A49C"/>
</linearGradient>
<linearGradient id="paint67_linear_302_224" x1="148.179" y1="43.4753" x2="160.548" y2="42.918" gradientUnits="userSpaceOnUse">
<stop offset="0.26" stop-color="#F1D1C2"/>
<stop offset="0.47" stop-color="#E8C6B8"/>
<stop offset="0.84" stop-color="#D2AAA0"/>
<stop offset="0.99" stop-color="#C99E95"/>
</linearGradient>
<linearGradient id="paint68_linear_302_224" x1="33.928" y1="134.556" x2="39.208" y2="134.556" gradientUnits="userSpaceOnUse">
<stop offset="0.09" stop-color="#FF00EC"/>
<stop offset="1" stop-color="#E7029D"/>
</linearGradient>
<linearGradient id="paint69_linear_302_224" x1="46.5802" y1="134.56" x2="51.8703" y2="134.56" gradientUnits="userSpaceOnUse">
<stop offset="0.09" stop-color="#FF00EC"/>
<stop offset="1" stop-color="#E7029D"/>
</linearGradient>
<linearGradient id="paint70_linear_302_224" x1="69.25" y1="43.21" x2="75.12" y2="43.21" gradientUnits="userSpaceOnUse">
<stop stop-color="#80A7AC"/>
<stop offset="0.74" stop-color="#0087FF"/>
</linearGradient>
<clipPath id="clip0_302_224">
<rect width="164.637" height="140.626" fill="white" transform="translate(0.483948 0.630859)"/>
</clipPath>
</defs>
</svg>
