<svg width="214" height="150" viewBox="0 0 214 150" fill="none" xmlns="http://www.w3.org/2000/svg">
<g clip-path="url(#clip0_302_363)">
<path opacity="0.39" d="M210.11 20.22H92.09V105.4H210.11V20.22Z" fill="#008DFF"/>
<path d="M178.33 29.8398H150.28V46.8798H178.33V29.8398Z" fill="#005CB9" stroke="#1E0E00" stroke-width="0.25" stroke-miterlimit="10"/>
<path d="M150.28 47.0199C152.17 43.4699 154.07 39.9199 155.96 36.3699C157.5 39.9199 159.04 43.4699 160.58 47.0199C162.24 41.8099 163.89 36.6099 165.55 31.3999C166.97 36.6699 168.39 41.9299 169.81 47.1999C163.3 47.1399 156.79 47.0799 150.28 47.0199Z" fill="url(#paint0_linear_302_363)"/>
<path d="M172.99 36.38C173.863 36.38 174.57 35.6726 174.57 34.8C174.57 33.9274 173.863 33.22 172.99 33.22C172.117 33.22 171.41 33.9274 171.41 34.8C171.41 35.6726 172.117 36.38 172.99 36.38Z" fill="#FF43FF"/>
<path d="M151.98 61.2H126.72V82.04H151.98V61.2Z" stroke="url(#paint1_linear_302_363)" stroke-width="0.5" stroke-linecap="round" stroke-linejoin="round"/>
<path d="M59.55 74.4999C64.48 70.8999 78.13 61.9799 96.38 62.8699C113.35 63.6899 125.96 72.5899 132.35 77.0799C135.53 79.3199 138.01 81.4099 139.67 82.8899C112.96 80.0899 86.26 77.2899 59.55 74.4899V74.4999Z" fill="#684FDF"/>
<path d="M124.17 129.77C126.26 129.96 134.83 130.47 142.8 124.11C150.42 118.03 152.4 109.94 153 107.14C154.07 102.16 153.67 97.94 153.22 95.36C149.6 95.26 144.86 95.76 140.13 98.21C129.87 103.52 123.88 115.82 124.16 129.77H124.17Z" fill="#2F2855"/>
<path d="M89.09 60.3C86.36 64.18 90.02 68.82 88.01 71.5C85.02 75.49 74.34 68.67 71 71.93C66.28 76.53 75.06 102.9 91.46 105.74C100.72 107.34 108.35 100.74 120.97 89.8C130.3 81.72 129.64 78.92 129.37 78.17C128.34 75.3 122.88 74.01 116.02 74.51C116.06 72.2 116.17 68.91 116.49 64.97C117.44 53.04 119.04 50.44 117.32 48.67C114.62 45.9 108.59 53.09 94.28 57.28C92.7 57.74 90.4999 58.32 89.1099 60.3H89.09Z" fill="#F1D1C2" stroke="#1E0E00" stroke-width="0.5" stroke-miterlimit="10"/>
<path d="M116.76 59.55C116.95 61.33 116.97 64.3 115.12 66.53C114.02 67.86 112.77 68.2901 110.66 69.1501C102.07 72.6301 102.61 73.6 99.62 74C97.82 74.24 93.94 74.37 88.87 71.32C88.98 68.77 89.09 66.22 89.2 63.68C98.39 62.31 107.57 60.94 116.76 59.57V59.55Z" fill="url(#paint2_linear_302_363)"/>
<path d="M59.8 73.9199C67.84 74.3299 75.88 74.7299 83.92 75.1399C79.19 82.4099 78.91 87.0599 80.47 90.1499C81.49 92.1699 82.96 92.8399 85.21 95.2199C87.6 97.7399 90.38 101.66 92.1 107.8C92.74 107.1 93.72 106.04 94.9 104.76C99.49 99.7799 101.79 97.2999 102.44 96.6499C109.91 89.1999 116.39 90.6799 118.59 85.2899C119.24 83.6899 119.69 81.0599 117.94 76.9699C125.76 80.0799 133.59 83.1899 141.41 86.2999C143.71 89.6099 146 92.9299 148.3 96.2399C145.15 98.2599 135.43 105.04 130.86 117.94C126.2 131.07 129.83 142.17 131.08 145.53C106.53 145.46 81.98 145.39 57.42 145.33C59.71 134.87 61.62 122.14 61.94 107.6C62.22 94.8699 61.23 83.5199 59.79 73.9299L59.8 73.9199Z" fill="#000627" stroke="#1E0E00" stroke-width="0.5" stroke-linecap="round" stroke-linejoin="round"/>
<path d="M60.37 129.01C59.88 126.14 59.38 123.27 58.89 120.4C62.43 120.33 65.97 120.27 69.5 120.2C68.92 129.24 68.35 138.27 67.77 147.31C64.18 147.02 60.59 146.74 57 146.45C58.12 140.64 59.24 134.83 60.37 129.01Z" fill="#5F45C8"/>
<path d="M65.4 70.85C68.88 71.88 70.88 74.51 71.57 75.44C74.03 78.76 75.22 83.31 73.58 95.83C72.34 105.3 69.3 113.77 63.24 130.72C61.87 134.55 60.22 138.96 55.92 141.27C55.48 141.5 51.03 143.81 46.45 142.2C39.09 139.61 37.06 128.91 36.97 123.1C36.9 118.6 38.31 114.64 41.13 106.73C43.86 99.09 44.58 99.59 46.35 93.98C49.73 83.26 47.41 80.42 51.03 76.01C54.23 72.12 60.18 69.31 65.39 70.84L65.4 70.85Z" fill="#5F45C8"/>
<path d="M144.67 86.2101C138.94 81.1701 134.18 81.4901 133.04 81.6201C124.77 82.5101 116.87 93.2001 117.27 108.09C128.15 120.89 131.91 130.42 133.28 136.89C133.69 138.82 134.53 143.54 138.33 146.45C141.63 148.98 146.69 149.8 150.72 148.06C156.87 145.41 158.31 137.77 159.18 133.09C161.36 121.49 156.82 111.3 155.96 109.43C154.48 106.24 153.32 104.58 152.09 101.89C151.26 100.06 150.85 98.7601 150.52 97.8601C149.51 95.1301 147.78 91.1901 144.66 86.2001L144.67 86.2101Z" fill="url(#paint3_linear_302_363)" stroke="#1E0E00" stroke-width="0.5" stroke-linecap="round" stroke-linejoin="round"/>
<path d="M125.92 115.44C127.91 119.21 130.2 124.44 131.73 130.95C133.28 137.51 133.56 143.25 133.45 147.53C125.44 147.65 117.43 147.77 109.42 147.89C112.07 128.58 114.73 109.27 117.38 89.9599C124.1 87.5199 130.82 85.0799 137.54 82.6399C133.66 93.5699 129.79 104.51 125.91 115.44H125.92Z" fill="#5F45C8"/>
<path d="M128.19 76.05L142.83 78.85C146.63 85.02 150.44 91.2 154.24 97.37C149.55 94.87 146.14 95.08 144.33 95.43C135.32 97.17 127.93 109.78 128.18 126.87C125.78 124.95 118.4 118.55 116.33 107.7C112.9 89.68 127.45 76.67 128.18 76.04L128.19 76.05Z" fill="#7259DD"/>
<path d="M83.99 84.8799C82.77 88.5699 81.67 91.6999 80.76 94.1999C80.71 94.3199 80.67 94.4399 80.63 94.5699C76.08 107.07 73.16 112.91 70.43 123.71C68.71 130.47 67.85 136.1 67.42 139.65C66.63 131.11 65.83 122.56 65.04 114.02C67.27 106.5 69.53 94.5199 66.33 80.8499C65.57 77.6199 64.6 74.6699 63.54 72.0299C68.57 71.2399 73.58 70.4399 78.61 69.6599C80.94 70.3599 83.27 71.0599 85.6 71.7699H85.61C85.02 72.7599 81.74 78.5599 84 84.8799H83.99Z" fill="url(#paint4_linear_302_363)"/>
<path d="M116.53 71.72C121.18 72.49 128.35 74.37 134.88 79.47C136.43 80.68 137.75 81.92 138.88 83.13C135.62 87.08 131.34 92.74 127.12 99.93C112.9 124.14 111.35 145.32 109.94 145.16C108.96 145.05 109.05 134.54 113.23 91.96C114.49 90.15 116.47 86.83 117.23 82.27C118.01 77.59 117.16 73.8 116.52 71.72H116.53Z" fill="url(#paint5_linear_302_363)"/>
<path d="M123.76 86.79C120.95 91.1 118.16 95.41 115.35 99.71C114.79 98.72 113.18 96.23 109.97 94.76C107.74 93.73 105.71 93.65 104.59 93.69C105.15 93.95 105.94 94.4 106.74 95.13C106.96 95.31 107.34 95.69 107.74 96.2C108.19 96.77 108.91 97.86 109.33 99.5C107.68 99.33 105.22 99.29 102.45 100.15C96.32 102.04 93.2 106.86 92.32 108.34C88.89 105.03 86.13 102.4 84.25 100.58C82.36 98.77 81.3299 97.79 81.3299 97.79C81.3299 97.79 83.9899 95.29 84.9899 94.35C84.3699 94.18 83.56 94.06 82.62 94.13C81.89 94.18 81.22 94.35 80.62 94.58C78.97 95.2 77.87 96.26 77.46 96.72C76.64 95.02 75.5799 92.28 75.2999 88.75C74.9699 84.52 75.91 81.15 76.59 79.27C79.59 76.77 82.5799 74.28 85.5799 71.79C85.5899 71.77 85.62 71.75 85.63 71.74C85.62 71.75 85.61 71.78 85.59 71.79C85 72.78 81.72 78.58 83.98 84.9C84.03 85.03 84.08 85.17 84.13 85.3C85.28 88.25 87.22 90.13 88.44 91.12C89.87 95.71 91.31 100.31 92.74 104.9C95.18 100.24 97.62 95.58 100.06 90.9C101.7 90.9 104.28 90.72 107.17 89.61C108.94 88.94 116.19 86.18 117.51 79.71C117.74 78.58 118.05 76.07 116.64 72.81C117.59 73.27 121.34 75.23 123.11 79.71C124.33 82.82 123.99 85.59 123.76 86.81V86.79Z" fill="#11245D" stroke="#1E0E00" stroke-width="0.5" stroke-linecap="round" stroke-linejoin="round"/>
<path d="M33.69 92.21C33.29 98.52 33.05 105.18 33.04 112.17C33.04 117.27 33.15 122.19 33.36 126.93C34.49 127.64 35.98 128.84 36.81 130.74C37.58 132.5 37.3 133.84 37.46 134.83C38.2 139.55 46.47 145.14 53.83 143.23C60.68 141.45 62.98 134.13 64.38 129.66C65.13 127.28 66.52 122.62 64.38 118.46C63.69 117.12 63.03 116.61 62.01 115.44C57.8 110.64 57.65 106.38 55.33 101.23C53.97 98.21 51.56 94.18 46.93 90.03C42.51 90.76 38.1 91.48 33.68 92.21H33.69Z" fill="url(#paint6_linear_302_363)" stroke="#1E0E00" stroke-width="0.5" stroke-linecap="round" stroke-linejoin="round"/>
<path d="M165.9 104.63C160.96 107.55 155.84 110.79 150.61 114.36C146.79 116.97 143.16 119.58 139.73 122.17C139.79 123.41 139.69 125.18 138.71 126.8C137.8 128.3 136.65 128.77 135.99 129.4C132.85 132.39 133.05 141.68 138.38 146.4C143.35 150.8 150.05 148.83 154.14 147.63C156.32 146.99 160.55 145.68 162.53 141.89C163.17 140.67 163.2 139.9 163.53 138.51C164.89 132.78 168 130.48 170.64 126.05C172.18 123.45 173.92 119.52 174.57 113.8C171.68 110.75 168.79 107.69 165.91 104.64L165.9 104.63Z" fill="url(#paint7_linear_302_363)" stroke="#1E0E00" stroke-width="0.5" stroke-linecap="round" stroke-linejoin="round"/>
<path d="M30.86 92.3898C34.96 96.1898 40.51 97.5099 45.18 95.7299C48.86 94.3299 50.81 91.4398 51.53 90.2398C49.91 84.8598 48.3 79.4698 46.68 74.0898C45.61 74.9198 41.66 77.7798 36.13 77.4298C32.71 77.2098 30.19 75.8698 28.92 75.0598C29.57 80.8398 30.21 86.6198 30.86 92.3998V92.3898Z" fill="#F1D1C2" stroke="#1E0E00" stroke-width="0.5" stroke-miterlimit="10"/>
<path d="M30.04 90.32C29.09 91.76 32.54 94.05 31.82 97.9C31.44 99.91 30.3899 99.85 30.2399 101.88C30.0999 103.78 30.9 105.29 32.41 108.14C33.35 109.9 33.6999 110.12 33.9899 110.23C35.4899 110.77 36.85 108.86 39.32 107.58C42.49 105.93 43.5999 107.35 49.9899 106.25C53.5299 105.64 57.51 104.96 58.29 102.65C58.63 101.65 58.23 100.74 57.5 99.05C55.91 95.39 54.03 95.14 53.15 92.41C52.21 89.48 53.78 87.93 52.75 87.1C51.17 85.82 47.83 89.81 41.69 90.7C35.52 91.6 31.1 88.7 30.04 90.32Z" fill="#011147" stroke="#1E0E00" stroke-width="0.5" stroke-linecap="round" stroke-linejoin="round"/>
<path d="M156.49 105.43C156.58 111.02 159.45 115.95 163.96 118.1C167.51 119.79 170.95 119.22 172.32 118.9C174.26 116.85 176.92 113.58 179.03 108.99C181.26 104.14 181.99 99.7601 182.24 96.8801C181.04 97.2001 177.97 97.8501 174.34 96.6801C170.6 95.4701 168.46 93.0301 167.69 92.0601C166.35 94.7601 164.24 98.2001 160.96 101.55C159.43 103.11 157.9 104.39 156.49 105.44V105.43Z" fill="#F1D1C2" stroke="#1E0E00" stroke-width="0.5" stroke-miterlimit="10"/>
<path d="M163.01 96.03C161.33 96.35 161.96 100.36 158.69 102.49C156.98 103.61 156.33 102.83 154.75 104.12C153.28 105.32 152.71 106.92 151.65 109.95C150.99 111.82 151.07 112.22 151.19 112.49C151.79 113.92 154.09 113.56 156.67 114.41C159.98 115.51 159.68 117.25 164.73 121C167.53 123.07 170.67 125.4 172.87 124.36C173.82 123.91 174.22 123.01 174.96 121.33C176.56 117.7 175.49 116.2 176.89 113.71C178.39 111.03 180.56 111.08 180.48 109.78C180.36 107.79 175.24 108.18 170.5 104.48C165.74 100.76 164.91 95.66 163.02 96.03H163.01Z" fill="#011147" stroke="#1E0E00" stroke-width="0.5" stroke-linecap="round" stroke-linejoin="round"/>
<path d="M160.61 108.4C162.19 109.48 164.2 111.14 164.3 112.91C164.42 114.91 161.98 114.92 159.36 118.08C156.63 121.38 156.98 124.15 154.13 125C153.81 125.09 152.22 125.56 151.49 124.81C150.26 123.54 152.27 119.72 153.21 117.92C154.54 115.38 156.78 111.9 160.61 108.4Z" fill="#1A347D" stroke="#1E0E00" stroke-width="0.5" stroke-linecap="round" stroke-linejoin="round"/>
<path d="M37.68 102.88C39.54 102.47 42.13 102.13 43.49 103.23C45.03 104.47 43.38 106.22 43.92 110.2C44.48 114.35 46.75 115.93 45.43 118.53C45.28 118.82 44.55 120.27 43.49 120.29C41.73 120.33 40.29 116.36 39.61 114.49C38.65 111.85 37.63 107.95 37.67 102.89L37.68 102.88Z" fill="#1A347D" stroke="#1E0E00" stroke-width="0.5" stroke-linecap="round" stroke-linejoin="round"/>
<path d="M31.84 57.3199C31.65 56.2099 31.91 55.6899 32.19 55.4199C33.29 54.3599 36.88 55.3299 38.41 57.7299C39.73 59.7999 39.49 62.8999 38.34 63.3599C37.53 63.6899 35.82 62.8699 31.84 57.3199Z" fill="url(#paint8_linear_302_363)"/>
<path d="M37.59 86.4699C29.94 86.6999 25.3 80.2499 24.6 79.2799C23.07 77.1499 20.2 73.1699 21.56 69.7899C23.45 65.0599 33.77 66.6999 37.59 60.0299C37.97 59.3699 38.55 58.1599 38.99 57.1499C40.05 54.7399 40.34 53.4599 41.65 49.4699C42.56 46.7099 43.01 45.3299 43.39 44.5299C44.62 41.9999 46.17 40.1999 47.32 39.0599C47.95 38.7299 48.75 38.4399 49.26 38.7699C50.06 39.2999 49.78 41.1499 48.61 45.4499C46.67 52.6199 45.58 54.4499 45.16 58.7999C45.02 60.2299 44.9 61.4599 45.05 63.1499C45.42 67.5199 46.86 68.7999 47.42 73.5199C47.57 74.7399 47.59 76.1199 47.4 77.7899C47.14 80.1099 46.59 81.9799 46.16 83.2099C44.9 84.2099 41.84 86.3399 37.59 86.4599V86.4699Z" fill="url(#paint9_linear_302_363)" stroke="#1E0E00" stroke-width="0.25" stroke-miterlimit="10"/>
<path d="M17.4 68.6399C17.73 65.7799 18.61 64.8799 19.33 64.5699C20.61 64.0399 21.85 65.1799 22.99 64.4299C23.98 63.7899 23.31 62.7799 24.44 61.8499C24.44 61.8499 25.83 60.7099 28.52 61.0099C28.69 61.0299 28.71 61.0399 28.72 61.0399C28.79 60.9999 28.17 60.0999 28.03 59.4799C27.68 57.8999 30.02 56.1899 30.17 56.0899C31.79 54.9399 33.58 54.9599 34.25 55.0099C34.64 55.7499 35.24 56.9499 35.84 58.4699C37.26 62.0799 36.74 62.5999 38.12 66.6099C38.28 67.0699 39.03 69.2399 39.57 72.0999C39.79 73.2899 39.9 74.1699 39.36 74.7399C38.74 75.3899 37.48 75.4099 36.6 75.0099C35.26 74.3999 35.08 72.9599 34.18 70.7399C32.69 67.0699 30.68 64.8299 30.66 64.8399C30.64 64.8499 31.89 67.7599 34.18 71.5499C35.41 73.5899 36.21 74.6599 35.77 75.7499C35.38 76.7199 34.15 77.4199 33.08 77.2999C31.94 77.1699 31.34 76.1299 30.17 74.3199C27.92 70.8499 25.63 67.7299 25.47 67.8099C25.38 67.8599 25.83 69.0699 26.64 70.4499C28.7 73.9699 30.88 74.8999 30.58 76.6199C30.57 76.6999 30.41 77.5199 29.75 77.9099C28.86 78.4299 27.63 77.8499 27.05 77.5699C25.86 76.9999 25.4 76.3699 24.42 75.4699C22.72 73.9099 22.17 74.0499 20.69 72.8299C19.72 72.0299 18.46 70.7299 17.37 68.6299L17.4 68.6399Z" fill="url(#paint10_linear_302_363)" stroke="#1E0E00" stroke-width="0.25" stroke-miterlimit="10"/>
<path d="M33.99 85.32C37.26 87.81 41.64 86.1601 42.97 85.6601C47.65 83.9001 49.64 79.73 50.57 77.79C51.49 75.87 51.54 74.78 51.54 74.33C51.54 72.19 50.42 70.87 49.19 68.7C48.37 67.26 47.3 65.08 46.43 62.12C43.64 61.31 41.94 61.72 40.9 62.26C39.52 62.97 39.58 63.74 37.93 64.43C36.12 65.18 34.86 64.74 34.06 65.79C34 65.87 33.46 66.59 33.65 67.35C34.15 69.41 39.77 70.7401 41.87 68.8001C42.72 68.0101 42.73 66.92 43.19 66.95C43.8 66.98 44.63 68.99 43.95 70.27C43.32 71.46 41.71 71.45 39.94 71.9C36.34 72.81 31.87 75.67 31.3 79.22C30.93 81.52 32.22 83.97 34 85.32H33.99Z" fill="url(#paint11_linear_302_363)" stroke="#1E0E00" stroke-width="0.25" stroke-miterlimit="10"/>
<path d="M84.45 21.35C84.6 20.71 85.98 15.1 91.35 12.76C95.93 10.77 101.5 11.97 105.25 15.84C106.71 15.18 109.15 14.33 112.2 14.4C117.3 14.52 123.11 17.22 125.67 22.25C127.08 25 126.82 27.87 126.31 33.6C125.84 38.86 125.47 43 122.38 46.22C122.38 46.22 119.82 48.89 115.8 49.83C107.82 51.69 95.3 39.91 84.45 21.37V21.35Z" fill="url(#paint12_linear_302_363)"/>
<path d="M125.75 24.71C125.06 23.4 127.66 19.54 130.57 19.48C133.87 19.41 135.94 24.26 136.45 25.48C136.87 26.47 138.47 30.55 137.13 35.19C136.37 37.82 134.92 39.75 133.95 43.88C133.79 44.57 133.46 46.05 134.23 47.28C134.31 47.41 135.06 48.59 136.15 48.62C136.98 48.65 137.5 47.99 137.66 48.14C137.86 48.34 137.28 49.75 136.32 50.06C135.02 50.48 133.2 48.86 132.28 47.5C130.08 44.23 132.28 41.25 131.92 32.34C131.78 28.72 131.32 26.87 129.94 25.9C128.23 24.7 126.25 25.66 125.74 24.71H125.75Z" fill="url(#paint13_linear_302_363)"/>
<path d="M125.83 24.79C126.01 26.34 126.26 28.66 126.48 31.49C127.05 38.72 126.69 39.52 127.32 41.7C129.17 48.07 135.35 51.87 135.82 51.47C136.16 51.17 132.99 48.9 131.9 44.42C130.28 37.74 135.15 33.73 133.12 29.39C132.37 27.79 130.57 25.89 125.83 24.8V24.79Z" fill="url(#paint14_linear_302_363)"/>
<path d="M105.71 22.3999C104.99 22.2499 101.15 21.4999 96.77 22.6999C87.99 25.1099 84.07 33.4399 83.47 34.7899C83.97 37.1299 84.46 39.4599 84.96 41.7999C84.63 42.6899 84.3 43.5799 83.97 44.4599C83.72 45.1299 83.71 45.8199 83.64 46.9299C83.53 48.7299 83.44 50.2699 83.7 52.2499C83.99 54.4999 84.47 55.2699 84.67 57.2199C84.69 57.4299 84.75 58.0499 84.95 58.8499C85.09 59.3999 85.27 59.9499 85.49 60.4799C86.49 62.8699 87.44 65.1499 88.46 67.5899C89.63 68.2699 91.19 69.0199 93.1 69.5699C96.11 70.4499 98.75 70.4899 100.51 70.3699C104.41 68.8099 108.75 66.7199 113.24 63.8799C114.91 62.8199 116.46 61.7399 117.9 60.6699C118.65 58.4599 119 56.5999 119.17 55.3099C119.63 51.9299 119.25 51.3499 119.75 48.3099C120.19 45.6399 120.65 44.9199 120.39 41.7899C119.5 31.2899 114.09 26.4899 114.09 26.4899C113.53 25.9899 110.53 23.3999 105.7 22.3999H105.71Z" fill="#F1D1C2" stroke="#1E0E00" stroke-width="0.5" stroke-miterlimit="10"/>
<path d="M119.66 45.6599C119.73 45.3799 120.51 42.5399 123.28 41.5199C123.67 41.3699 126.07 40.5399 127.52 41.7299C129.76 43.5499 127.96 48.6799 126.59 51.1499C125.79 52.5799 124.82 54.3299 122.86 54.7699C121.1 55.1699 119.57 54.2799 119.03 53.9399C119.24 51.1799 119.44 48.4199 119.65 45.6599H119.66Z" fill="#F1D1C2" stroke="#1E0E00" stroke-width="0.5" stroke-miterlimit="10"/>
<path d="M94.61 36.55C94.03 36.32 93.21 36.18 93.06 36.45C92.87 36.78 93.83 37.54 95.23 39.14C96.46 40.54 97.08 41.2501 97.3 41.83C97.58 42.58 97.86 44.73 92.23 49.59C92.15 49.93 92.07 50.4 92.13 50.94C92.29 52.61 93.53 53.99 93.89 53.84C94.25 53.69 93.27 52.15 93.89 50.43C94.43 48.93 95.57 48.98 96.68 47.53C98.62 45.02 97.79 41.5 97.61 40.8C97.42 40.07 96.72 37.39 94.61 36.56V36.55Z" fill="url(#paint15_linear_302_363)"/>
<path d="M90.02 57.8999C90.4 58.2699 90.99 58.7999 91.81 59.2599C92.52 59.6599 92.99 60.1499 95.85 60.4499C96.89 60.5599 98.25 60.7599 99.86 61.1199C100.57 61.2799 101.32 61.1799 101.97 60.8599C102.46 60.6199 102.96 60.3799 103.45 60.1299" stroke="#1E0E00" stroke-width="0.5" stroke-miterlimit="10" stroke-linecap="round"/>
<path d="M100.93 43.5901C101.69 43.5101 102.85 43.4501 104.24 43.5901C106.53 43.8301 107.51 44.4301 109.62 44.7301C110.64 44.8801 112.11 44.9801 113.97 44.7301" fill="#6C6966"/>
<path d="M100.93 43.5901C101.69 43.5101 102.85 43.4501 104.24 43.5901C106.53 43.8301 107.51 44.4301 109.62 44.7301C110.64 44.8801 112.11 44.9801 113.97 44.7301" stroke="#1E0E00" stroke-width="0.6" stroke-miterlimit="10" stroke-linecap="round"/>
<path d="M95.44 42.35C95.04 42.2 94.43 42.01 93.68 41.94C92.45 41.81 91.54 42.06 91.09 42.15C90.07 42.35 88.51 42.32 86.23 41.22" fill="#6C6966"/>
<path d="M95.44 42.35C95.04 42.2 94.43 42.01 93.68 41.94C92.45 41.81 91.54 42.06 91.09 42.15C90.07 42.35 88.51 42.32 86.23 41.22" stroke="#1E0E00" stroke-width="0.6" stroke-miterlimit="10" stroke-linecap="round"/>
<path d="M101.5 41.7799C101.08 41.5799 100.31 41.0999 100.36 40.6399C100.46 39.7199 103.86 39.2099 106.36 39.1899C110.42 39.1499 114.6 40.3699 114.53 41.0499C114.45 41.9399 107.29 41.0399 103.75 41.8999C103.49 41.9599 102.48 42.2299 101.5 41.7699V41.7799Z" fill="url(#paint16_linear_302_363)"/>
<path d="M93.89 39.9699C93.66 40.6499 91.39 40.5099 90.06 40.2799C87.73 39.8799 85.61 38.7799 85.71 38.4199C85.8 38.1199 87.26 38.7999 89.95 38.5199C91.17 38.3899 91.97 38.1399 92.85 38.6199C93.42 38.9299 94.02 39.5599 93.88 39.9699H93.89Z" fill="url(#paint17_linear_302_363)"/>
<path d="M100.52 35.62C101.15 35.99 102.06 36.46 103.2 36.87C103.72 37.06 105.15 37.55 107.34 37.8C110.48 38.16 111.37 37.61 114.48 38.01C115.64 38.16 116.58 38.38 117.17 38.53C116.34 37.74 115.51 36.94 114.69 36.15C112.44 35.85 109.94 35.62 107.24 35.53C104.83 35.45 102.58 35.5 100.53 35.63L100.52 35.62Z" fill="url(#paint18_linear_302_363)"/>
<path d="M94.22 34.97C93.7 35.41 92.89 35.97 91.82 36.14C90.17 36.41 89.49 35.52 87.47 35.42C85.24 35.31 83.75 36.28 83.64 36.04C83.54 35.8 84.95 34.73 86.54 34.18C87.67 33.79 90.3 33.18 94.21 34.97H94.22Z" fill="url(#paint19_linear_302_363)"/>
<path d="M118.52 35.21C118.17 38.07 117.82 40.93 117.47 43.79C118.02 45.51 118.57 47.24 119.13 48.96C119.08 48.43 118.81 44.76 121.49 42.33C122.53 41.38 123.66 40.95 124.42 40.74C122.45 38.9 120.49 37.05 118.52 35.21Z" fill="url(#paint20_linear_302_363)"/>
<path d="M100.64 21.9999C100.57 21.3899 100.02 17.3499 96.86 15.6799C93.83 14.0799 90.42 15.7199 88.95 16.4299C80.21 20.6499 78.17 32.7899 77.7 35.5799C76.36 43.5399 78.05 50.3199 79.63 54.6199C78.88 50.6599 78.49 45.4399 79.72 39.5899C80.84 34.2499 82.47 26.4999 89 23.0499C93.6 20.6199 98.47 21.4699 100.64 21.9999Z" fill="url(#paint21_linear_302_363)"/>
<path d="M101.65 25.0901C101.33 24.5201 100.27 22.7901 98.07 21.8401C96.29 21.0801 94.7 21.2301 94.02 21.3301C92.63 21.8001 83.92 24.8901 79.76 34.3601C75.59 43.8701 79.25 52.4001 79.84 53.7301C79.32 51.8601 77.52 44.5901 81.37 37.2101C85.15 29.9401 92.95 25.3401 101.65 25.0801V25.0901Z" fill="url(#paint22_linear_302_363)"/>
<path d="M94.84 20.87C94.81 21.01 96.93 21.24 99.14 22.73C100.3 23.51 101.11 24.39 101.65 25.09C102.79 24.6 104.52 23.89 106.67 23.17C109.45 22.24 111.12 21.88 111.09 21.66C111.04 21.35 107.79 22 103.24 21.82C98.66 21.63 94.88 20.68 94.84 20.88V20.87Z" fill="url(#paint23_linear_302_363)"/>
<path d="M105.59 22.9501C106.05 22.2101 108.12 19.0801 111.78 18.5301C115.61 17.9601 119.4 20.4801 121.1 23.1301C122.6 25.4801 122.09 27.3501 124.23 29.0201C125.8 30.2501 126.88 29.8601 127.87 30.7401C129.17 31.8901 129.75 34.7201 126.72 42.0401C119.67 38.3501 117.06 34.4501 116.06 31.4201C115.52 29.7801 115.27 27.8701 113.57 26.0801C111.37 23.7601 108.11 23.1101 105.59 22.9501Z" fill="url(#paint24_linear_302_363)"/>
<path d="M107.73 20.9299C108.69 21.5099 110.06 22.1199 111.73 22.1699C113.23 22.2099 114.02 21.7799 114.63 22.2399C115.63 22.9999 114.94 25.3399 114.63 26.7899C113.57 31.7699 115.6 32.7999 116.98 46.1699C117.16 47.8799 117.27 49.2499 117.32 50.0299C115.2 44.2699 112.84 40.0699 111.04 37.2699C109.32 34.5799 107.66 32.4699 107.04 29.0599C106.43 25.7599 107.09 22.8499 107.73 20.9199V20.9299Z" fill="url(#paint25_linear_302_363)"/>
<path d="M107.2 23.21C106.83 25.89 106.62 29.63 107.48 33.9C109.05 41.78 113.17 46.18 112.86 46.39C112.45 46.67 104.32 39.63 104.86 30.52C105.06 27.2 106.35 24.63 107.21 23.21H107.2Z" fill="url(#paint26_linear_302_363)"/>
<path d="M181.24 47.49C181.06 47.54 177.78 48.51 176.85 51.81C176.2 54.13 176.98 56.66 178.85 58.27" stroke="url(#paint27_linear_302_363)" stroke-width="0.75" stroke-linecap="round" stroke-linejoin="round"/>
<path d="M174.76 44.71C174.52 44.82 169.95 47.05 169.41 52.1C169.03 55.65 170.79 59.15 173.92 61.04" stroke="url(#paint28_linear_302_363)" stroke-width="0.75" stroke-linecap="round" stroke-linejoin="round"/>
<path d="M189.79 47.6099C189.97 47.6399 193.33 48.3299 194.53 51.5399C195.38 53.7999 194.81 56.3799 193.08 58.1499" stroke="url(#paint29_linear_302_363)" stroke-width="0.75" stroke-linecap="round" stroke-linejoin="round"/>
<path d="M195.92 43.3101C196.17 43.4001 200.91 45.2401 201.87 50.2201C202.55 53.7301 201.08 57.3601 198.12 59.5101" stroke="url(#paint30_linear_302_363)" stroke-width="0.75" stroke-linecap="round" stroke-linejoin="round"/>
<path d="M78.68 12.3699C75.56 10.7499 71.83 11.0099 69.09 13.0399C65.69 15.5599 65.46 19.5899 65.44 20.1099" stroke="url(#paint31_linear_302_363)" stroke-width="0.75" stroke-linecap="round" stroke-linejoin="round"/>
<path d="M79.96 7.7199C75.18 5.2299 69.5 5.5799 65.34 8.6299C60.18 12.4099 59.88 18.5099 59.86 19.2899" stroke="url(#paint32_linear_302_363)" stroke-width="0.75" stroke-linecap="round" stroke-linejoin="round"/>
<path d="M81.1 2.53996C74.82 -0.730036 67.34 -0.270036 61.87 3.73996C55.09 8.70996 54.69 16.74 54.66 17.76" stroke="url(#paint33_linear_302_363)" stroke-width="0.75" stroke-linecap="round" stroke-linejoin="round"/>
<path d="M74.2 21.6299C75.3819 21.6299 76.34 20.6717 76.34 19.4899C76.34 18.308 75.3819 17.3499 74.2 17.3499C73.0181 17.3499 72.06 18.308 72.06 19.4899C72.06 20.6717 73.0181 21.6299 74.2 21.6299Z" fill="#FF36B5" stroke="url(#paint34_linear_302_363)" stroke-width="0.5" stroke-linecap="round" stroke-linejoin="round"/>
<path d="M27.53 8.27002H3.31998C1.58028 8.27002 0.169983 9.68032 0.169983 11.42V23.28C0.169983 25.0197 1.58028 26.43 3.31998 26.43H27.53C29.2697 26.43 30.68 25.0197 30.68 23.28V11.42C30.68 9.68032 29.2697 8.27002 27.53 8.27002Z" fill="#C3F9FF" stroke="url(#paint35_linear_302_363)" stroke-width="0.75" stroke-linecap="round" stroke-linejoin="round"/>
<path d="M13.9879 13.0045L15.9011 16.2694L17.8143 13.0045H19.2284L16.6498 16.9973L19.2284 20.99H17.8143L15.9011 17.8915L13.9879 20.99H12.5738L15.1109 16.9973L12.5738 13.0045H13.9879Z" fill="#FF19FF"/>
<path d="M9.46997 30.9699C14.03 30.7999 18.59 30.63 23.14 30.45C22.53 31.58 22.33 32.57 22.28 33.32C21.88 38.68 28.12 42.3599 28.38 42.5099C27.09 42.7199 21.69 43.43 16.39 40C11.58 36.88 9.89996 32.3199 9.45996 30.9699H9.46997Z" fill="#C3F9FF" stroke="url(#paint36_linear_302_363)" stroke-width="0.75" stroke-linecap="round" stroke-linejoin="round"/>
<path opacity="0.61" d="M92.65 57.5099C92.61 57.8299 93.34 58.2699 94.05 58.3499C94.16 58.3599 95.17 58.4899 95.44 57.9899C95.8 57.3499 94.72 55.9999 94.15 56.1099C93.85 56.1699 93.88 56.5899 93.26 57.0499C92.88 57.3399 92.66 57.3399 92.64 57.4999L92.65 57.5099Z" fill="url(#paint37_linear_302_363)"/>
<path opacity="0.61" d="M116.53 54.9801C116.23 54.9001 115.72 56.5601 113.78 59.5601C113.33 60.2501 113.11 60.6001 112.81 60.9601C110.94 63.2201 108.64 63.7601 108.66 63.8101C108.69 63.8901 114.18 63.0301 116.09 59.1301C117.03 57.2101 116.85 55.0701 116.52 54.9801H116.53Z" fill="url(#paint38_linear_302_363)"/>
<path d="M168.17 80.4701C169.06 80.0201 170.16 79.3401 171.29 78.3301C172.9 76.8901 173.9 75.3501 174.5 74.2501C174.76 73.8001 179.01 66.4301 182.09 61.5001C182.15 61.4001 182.06 61.5401 184.91 57.6301C186.4 55.5801 186.99 54.7601 187.64 54.8801C188.6 55.0501 188.98 57.1701 189 57.3301C189.1 57.9201 189.27 59.5301 187.05 63.8601C185.94 66.0301 185.47 66.4801 184.52 68.1401C182.25 72.1001 180.47 75.2001 181.4 77.0101C182.52 79.1801 186.25 77.0401 189.38 79.5601C192.4 82.0001 193.03 87.3401 191.81 91.3901C190.67 95.2001 187.85 97.2801 186.78 98.0001C185.41 98.9101 181.41 101.29 177.15 100.09C171.18 98.4101 166.67 90.2501 168.15 80.4801L168.17 80.4701Z" fill="url(#paint39_linear_302_363)" stroke="#1E0E00" stroke-width="0.25" stroke-miterlimit="10"/>
<path d="M181.6 73.1299C181.25 74.6799 181.65 75.2299 181.7 77.5099C181.73 79.1299 181.56 78.9699 181.31 82.1999C180.95 86.8199 181.41 87.4899 181.8 87.8099C182.48 88.3699 183.52 88.2699 184.14 88.0099C185.13 87.5999 185.59 86.5799 186.18 85.2599C186.3 84.9899 186.55 84.4099 186.82 83.4299C187.53 80.8999 187.43 79.2499 187.64 79.2399C187.86 79.2299 188.48 81.0299 188.32 83.2199C188.14 85.6599 187.16 86.4 186.43 90.16C186.1 91.85 186.13 92.5999 186.57 93.1099C187.28 93.9399 188.7 93.6999 189.1 93.6199C191.92 89.3599 193.33 85.51 194.06 82.91C195.83 76.71 194.74 74.43 194.35 73.73C194.16 73.39 192.91 71.1299 191.14 71.0799C189.42 71.0299 188.17 72.9899 187.44 72.5099C186.92 72.1599 187.5 71.0899 186.86 70.2699C186.18 69.4099 184.56 69.3499 183.45 69.9599C182.15 70.6899 181.8 72.2299 181.6 73.1199V73.1299Z" fill="url(#paint40_linear_302_363)" stroke="#1E0E00" stroke-width="0.25" stroke-miterlimit="10"/>
<path d="M194.94 76.1C195.13 75.84 195.69 75.17 196.59 74.98C197.76 74.73 199.05 75.37 199.8 76.61C199.66 78.66 199.24 81.19 198.15 83.85C197.38 85.73 197.44 84.83 195.62 88.44C194.94 89.78 194.52 90.72 193.67 90.89C193.02 91.02 192.22 90.68 191.82 90.07C190.99 88.8 192.23 86.76 193.18 84.36C193.92 82.47 194.72 79.75 194.93 76.1H194.94Z" fill="url(#paint41_linear_302_363)" stroke="#1E0E00" stroke-width="0.25" stroke-miterlimit="10"/>
<path d="M172.91 98.1102C170.07 96.2102 165.71 93.3002 164.54 88.3202C164.03 86.1702 164.54 85.3902 163.66 82.1002C162.92 79.3002 162.26 78.7602 162.1 76.7002C161.89 73.9702 162.72 70.7202 164.05 70.4802C164.92 70.3202 165.86 71.4902 166.29 72.2102C167.69 74.6102 166.04 76.6502 167.26 78.7402C167.72 79.5202 168.16 79.5902 170.76 80.9802C172.12 81.7102 174.97 83.2302 176.8 84.5502C178.23 85.5802 180.79 87.4302 182.15 90.5702C183.68 94.0902 183.82 99.5602 181.37 101.07C179.27 102.37 176.09 100.24 172.9 98.1102H172.91Z" fill="url(#paint42_linear_302_363)" stroke="#1E0E00" stroke-width="0.25" stroke-miterlimit="10"/>
<path d="M167.53 80.6801C167.29 81.8901 173.22 82.4501 177.72 87.4101C179.94 89.8601 183.05 94.7501 181.74 98.4201C181.4 99.3701 180.71 100.41 181.03 100.73C181.41 101.11 183.15 100.38 184.02 99.0301C185.56 96.6501 183.98 92.9401 183.24 91.2101C183.03 90.7201 182.3 89.0701 180.58 86.8601C178.6 84.3101 175.15 79.8801 170.39 79.8601C169.43 79.8601 167.66 80.0301 167.53 80.6801Z" fill="url(#paint43_linear_302_363)"/>
<path d="M187.38 79.5101C187.66 77.8301 187.7 76.4201 187.69 75.4201C187.67 73.0901 187.63 71.5401 186.6 70.5901C186.52 70.5101 185.77 69.8401 184.75 69.8701C183.25 69.9101 182.37 71.4501 182.16 71.8601C181.7 72.7701 181.7 73.6001 181.73 75.1701C181.75 76.5901 181.94 77.7401 182.1 78.5101C182.56 78.3301 183.35 78.1101 184.34 78.1901C185.89 78.3301 186.96 79.1501 187.37 79.5001L187.38 79.5101Z" fill="url(#paint44_linear_302_363)"/>
<path d="M194.41 79.5602C194.65 78.2002 194.82 77.1902 194.63 75.8602C194.51 75.0402 194.29 73.7202 193.3 72.6002C192.94 72.2002 192.41 71.5902 191.55 71.4102C190.32 71.1502 188.99 71.8702 188.33 72.8702C187.71 73.8202 187.89 74.7302 188.16 77.7002C188.27 78.8902 188.41 80.6302 188.53 82.7602C188.6 82.6802 189.55 81.5002 191.06 81.6702C192.61 81.8502 193.29 83.2902 193.33 83.3702C193.94 81.8402 194.24 80.5102 194.41 79.5602Z" fill="url(#paint45_linear_302_363)"/>
<path d="M179.17 73.0202C179.28 73.0902 180.55 73.9802 180.6 75.5202C180.63 76.4302 180.2 77.0802 180.01 77.3802C179.67 77.9002 178.85 78.8702 178.24 78.6502C177.8 78.4902 177.81 77.8302 177.46 76.7802C176.66 74.4402 175.27 73.9302 175.53 73.2102C175.81 72.4202 177.82 72.0902 179.18 73.0102L179.17 73.0202Z" fill="url(#paint46_linear_302_363)"/>
<path opacity="0.61" d="M94.56 78.4598C94.23 78.6198 92.78 77.2598 92.69 75.5898C92.58 73.5298 94.59 71.8198 94.92 71.9998C95.17 72.1398 94.2999 73.3298 94.2699 75.5198C94.2399 77.3398 94.82 78.3398 94.56 78.4598Z" fill="url(#paint47_linear_302_363)"/>
<path opacity="0.61" d="M115.88 64.6799C115.18 64.5199 110.86 74.4399 113.44 76.5299C114.52 77.3999 116.76 76.8599 116.96 76.1699C117.14 75.5399 115.55 75.0599 115.12 73.4599C114.85 72.4599 115.25 71.7599 115.59 70.5699C116.4 67.7899 116.25 64.7699 115.88 64.6799Z" fill="url(#paint48_linear_302_363)"/>
<path d="M96.29 116.79C96.95 117.2 102.05 120.29 108.14 118.19C113.65 116.29 115.86 111.57 116.22 110.76C117.47 114.59 116.46 118.79 113.64 121.53C110.39 124.68 105.56 125.1 101.9 123.36C97.86 121.45 96.54 117.53 96.3 116.79H96.29Z" stroke="url(#paint49_linear_302_363)" stroke-width="0.5" stroke-linecap="round" stroke-linejoin="round"/>
<path d="M95.26 115.99H97.31" stroke="url(#paint50_linear_302_363)" stroke-width="0.5" stroke-linecap="round" stroke-linejoin="round"/>
<path d="M117.09 109.34H115.37V110.77H117.09V109.34Z" stroke="url(#paint51_linear_302_363)" stroke-width="0.5" stroke-linecap="round" stroke-linejoin="round"/>
<path d="M117.95 108.33H116.23V110.05H117.95V108.33Z" stroke="url(#paint52_linear_302_363)" stroke-width="0.5" stroke-linecap="round" stroke-linejoin="round"/>
<path d="M201.17 17.24C205.12 17.26 209.07 17.28 213.02 17.29C213.06 20.83 213.09 24.36 213.13 27.9" stroke="url(#paint53_linear_302_363)" stroke-width="0.5" stroke-linecap="round" stroke-linejoin="round"/>
<path d="M138.827 63.8497H139.218V66.6399H138.827V63.8497ZM140.036 65.4329C140.036 65.2922 139.999 65.1834 139.927 65.1067C139.854 65.0299 139.751 64.9915 139.62 64.9915C139.492 64.9915 139.392 65.0248 139.322 65.0913C139.253 65.1578 139.218 65.2519 139.218 65.3734L139.178 64.9896C139.24 64.8719 139.32 64.7811 139.418 64.7171C139.518 64.6519 139.628 64.6192 139.748 64.6192C139.964 64.6192 140.131 64.6902 140.249 64.8322C140.368 64.973 140.427 65.1725 140.427 65.431V66.6399H140.036V65.4329ZM141.838 66.6687C141.654 66.6687 141.496 66.6341 141.366 66.5651C141.235 66.496 141.136 66.3949 141.066 66.2619C140.999 66.1275 140.965 65.9657 140.965 65.7764V65.5519C140.965 65.3548 140.997 65.1866 141.063 65.0472C141.129 64.9077 141.225 64.8015 141.35 64.7286C141.476 64.6557 141.627 64.6192 141.803 64.6192C141.97 64.6192 142.112 64.6608 142.229 64.744C142.347 64.8271 142.437 64.9474 142.498 65.1047C142.561 65.2621 142.592 65.4508 142.592 65.6708V65.8013H141.249V65.4866H142.22C142.208 65.3241 142.166 65.1981 142.093 65.1086C142.021 65.0177 141.925 64.9723 141.803 64.9723C141.655 64.9723 141.54 65.0209 141.458 65.1182C141.377 65.2154 141.337 65.3529 141.337 65.5307V65.784C141.337 65.9491 141.38 66.0757 141.467 66.164C141.554 66.2523 141.678 66.2964 141.838 66.2964C141.917 66.2964 141.996 66.2804 142.074 66.2484C142.152 66.2164 142.222 66.1717 142.283 66.1141L142.54 66.3712C142.442 66.4659 142.331 66.5395 142.208 66.5919C142.085 66.6431 141.962 66.6687 141.838 66.6687ZM143.521 66.1256C143.521 66.1742 143.531 66.212 143.551 66.2388C143.573 66.2644 143.603 66.2772 143.642 66.2772H143.826V66.6495H143.596C143.447 66.6495 143.332 66.6034 143.25 66.5113C143.17 66.4192 143.129 66.2894 143.129 66.1218V63.8497H143.521V66.1256ZM144.661 66.1256C144.661 66.1742 144.671 66.212 144.691 66.2388C144.713 66.2644 144.743 66.2772 144.782 66.2772H144.966V66.6495H144.735C144.587 66.6495 144.472 66.6034 144.39 66.5113C144.309 66.4192 144.269 66.2894 144.269 66.1218V63.8497H144.661V66.1256ZM146.173 66.6687C146 66.6687 145.852 66.6348 145.729 66.567C145.607 66.4992 145.513 66.4007 145.447 66.2715C145.383 66.141 145.351 65.9843 145.351 65.8013V65.477C145.351 65.2966 145.383 65.1425 145.447 65.0145C145.513 64.8853 145.607 64.7875 145.729 64.7209C145.852 64.6531 146 64.6192 146.173 64.6192C146.345 64.6192 146.493 64.6531 146.616 64.7209C146.739 64.7875 146.832 64.8853 146.896 65.0145C146.961 65.1425 146.994 65.2966 146.994 65.477V65.8071C146.994 65.9887 146.961 66.1442 146.896 66.2734C146.832 66.4013 146.739 66.4992 146.616 66.567C146.493 66.6348 146.345 66.6687 146.173 66.6687ZM146.173 66.2964C146.31 66.2964 146.415 66.2535 146.489 66.1678C146.565 66.0821 146.603 65.9619 146.603 65.8071V65.477C146.603 65.3222 146.565 65.2026 146.489 65.1182C146.415 65.0337 146.31 64.9915 146.173 64.9915C146.036 64.9915 145.93 65.0337 145.854 65.1182C145.78 65.2026 145.743 65.3222 145.743 65.477V65.8071C145.743 65.9619 145.78 66.0821 145.854 66.1678C145.93 66.2535 146.036 66.2964 146.173 66.2964ZM147.407 66.2292H147.817V66.851L147.407 67.277V66.2292ZM147.961 64.648H148.37L148.723 66.07L149.22 64.648H149.493L149.99 66.07L150.343 64.648H150.751L150.137 66.6399H149.842L149.356 65.264L148.871 66.6399H148.575L147.961 64.648ZM151.899 66.6687C151.726 66.6687 151.578 66.6348 151.456 66.567C151.333 66.4992 151.239 66.4007 151.174 66.2715C151.11 66.141 151.078 65.9843 151.078 65.8013V65.477C151.078 65.2966 151.11 65.1425 151.174 65.0145C151.239 64.8853 151.333 64.7875 151.456 64.7209C151.578 64.6531 151.726 64.6192 151.899 64.6192C152.072 64.6192 152.219 64.6531 152.342 64.7209C152.465 64.7875 152.558 64.8853 152.622 65.0145C152.688 65.1425 152.72 65.2966 152.72 65.477V65.8071C152.72 65.9887 152.688 66.1442 152.622 66.2734C152.558 66.4013 152.465 66.4992 152.342 66.567C152.219 66.6348 152.072 66.6687 151.899 66.6687ZM151.899 66.2964C152.036 66.2964 152.141 66.2535 152.216 66.1678C152.291 66.0821 152.329 65.9619 152.329 65.8071V65.477C152.329 65.3222 152.291 65.2026 152.216 65.1182C152.141 65.0337 152.036 64.9915 151.899 64.9915C151.762 64.9915 151.656 65.0337 151.58 65.1182C151.506 65.2026 151.469 65.3222 151.469 65.477V65.8071C151.469 65.9619 151.506 66.0821 151.58 66.1678C151.656 66.2535 151.762 66.2964 151.899 66.2964ZM153.277 64.648H153.668V66.6399H153.277V64.648ZM154.372 65.1201C154.338 65.0779 154.294 65.0459 154.242 65.0241C154.189 65.0024 154.129 64.9915 154.06 64.9915C153.936 64.9915 153.839 65.0261 153.77 65.0951C153.702 65.1629 153.668 65.2576 153.668 65.3791L153.628 64.9954C153.689 64.8764 153.769 64.7843 153.866 64.719C153.963 64.6525 154.07 64.6192 154.188 64.6192C154.279 64.6192 154.361 64.6327 154.434 64.6595C154.508 64.6851 154.573 64.7235 154.628 64.7747L154.372 65.1201ZM155.345 66.1256C155.345 66.1742 155.356 66.212 155.376 66.2388C155.398 66.2644 155.428 66.2772 155.466 66.2772H155.65V66.6495H155.42C155.272 66.6495 155.157 66.6034 155.075 66.5113C154.994 66.4192 154.954 66.2894 154.954 66.1218V63.8497H155.345V66.1256ZM157.226 63.8497H157.617V66.6399H157.226V63.8497ZM156.725 66.6744C156.579 66.6744 156.454 66.6431 156.351 66.5804C156.248 66.5164 156.17 66.4237 156.117 66.3022C156.063 66.1806 156.036 66.0348 156.036 65.8646V65.4252C156.036 65.2538 156.062 65.1073 156.115 64.9858C156.167 64.8642 156.243 64.7721 156.343 64.7094C156.444 64.6455 156.565 64.6135 156.706 64.6135C156.824 64.6135 156.931 64.6442 157.028 64.7056C157.127 64.767 157.206 64.8534 157.266 64.9647L157.226 65.3715C157.226 65.287 157.211 65.2148 157.18 65.1546C157.149 65.0945 157.104 65.0491 157.045 65.0184C156.988 64.9864 156.918 64.9704 156.834 64.9704C156.705 64.9704 156.605 65.0107 156.533 65.0913C156.463 65.1719 156.428 65.2851 156.428 65.431V65.8646C156.428 66.0092 156.463 66.1211 156.533 66.2005C156.605 66.2785 156.705 66.3175 156.834 66.3175C156.918 66.3175 156.988 66.3015 157.045 66.2695C157.104 66.2363 157.149 66.1889 157.18 66.1275C157.211 66.0661 157.226 65.9926 157.226 65.9069L157.253 66.3271C157.213 66.4256 157.148 66.5081 157.057 66.5746C156.967 66.6412 156.857 66.6744 156.725 66.6744ZM158.241 63.8497H158.632V65.9241H158.241V63.8497ZM158.231 66.2292H158.642V66.6399H158.231V66.2292Z" fill="black"/>
<path d="M114.85 89.8L113.39 94.2" stroke="url(#paint54_linear_302_363)" stroke-width="0.25" stroke-linecap="round" stroke-linejoin="round"/>
<path d="M116.32 89.75L114.85 94.37" stroke="url(#paint55_linear_302_363)" stroke-width="0.25" stroke-linecap="round" stroke-linejoin="round"/>
<path d="M112.84 91.48L116.87 91.67" stroke="url(#paint56_linear_302_363)" stroke-width="0.25" stroke-linecap="round" stroke-linejoin="round"/>
<path d="M112.74 92.5601L116.67 92.7001" stroke="url(#paint57_linear_302_363)" stroke-width="0.25" stroke-linecap="round" stroke-linejoin="round"/>
<path d="M85.37 73.1499C86.53 79.1099 90.38 84.0799 95.56 85.7799C102.98 88.2199 112.39 83.7399 116.01 74.5199" stroke="#1E0E00" stroke-width="0.5" stroke-linecap="round" stroke-linejoin="round"/>
</g>
<defs>
<linearGradient id="paint0_linear_302_363" x1="150.28" y1="39.2999" x2="169.81" y2="39.2999" gradientUnits="userSpaceOnUse">
<stop offset="0.1" stop-color="#109095"/>
<stop offset="0.98" stop-color="#00ADB2"/>
</linearGradient>
<linearGradient id="paint1_linear_302_363" x1="126.47" y1="71.62" x2="152.23" y2="71.62" gradientUnits="userSpaceOnUse">
<stop offset="0.09" stop-color="#FF00EC"/>
<stop offset="1" stop-color="#E7029D"/>
</linearGradient>
<linearGradient id="paint2_linear_302_363" x1="109.54" y1="72.15" x2="95.13" y2="57.74" gradientUnits="userSpaceOnUse">
<stop offset="0.14" stop-color="#C7A69E"/>
<stop offset="0.26" stop-color="#BC9D97"/>
<stop offset="0.47" stop-color="#A08684"/>
<stop offset="0.74" stop-color="#736067"/>
<stop offset="0.78" stop-color="#6B5A62"/>
</linearGradient>
<linearGradient id="paint3_linear_302_363" x1="117.26" y1="115.27" x2="159.78" y2="115.27" gradientUnits="userSpaceOnUse">
<stop stop-color="#022782"/>
<stop offset="0.18" stop-color="#01247A"/>
<stop offset="0.44" stop-color="#011C66"/>
<stop offset="0.76" stop-color="#001045"/>
<stop offset="1" stop-color="#000627"/>
</linearGradient>
<linearGradient id="paint4_linear_302_363" x1="63.52" y1="104.65" x2="85.6" y2="104.65" gradientUnits="userSpaceOnUse">
<stop stop-color="#684FDF"/>
<stop offset="0.2" stop-color="#6859E2"/>
<stop offset="0.54" stop-color="#6975ED"/>
<stop offset="0.99" stop-color="#6BA2FE"/>
<stop offset="1" stop-color="#6CA4FF"/>
</linearGradient>
<linearGradient id="paint5_linear_302_363" x1="109.43" y1="108.44" x2="138.89" y2="108.44" gradientUnits="userSpaceOnUse">
<stop stop-color="#684FDF"/>
<stop offset="0.2" stop-color="#6859E2"/>
<stop offset="0.54" stop-color="#6975ED"/>
<stop offset="0.99" stop-color="#6BA2FE"/>
<stop offset="1" stop-color="#6CA4FF"/>
</linearGradient>
<linearGradient id="paint6_linear_302_363" x1="49.29" y1="90.03" x2="49.29" y2="143.61" gradientUnits="userSpaceOnUse">
<stop stop-color="#022782"/>
<stop offset="0.18" stop-color="#01247A"/>
<stop offset="0.44" stop-color="#011C66"/>
<stop offset="0.76" stop-color="#001045"/>
<stop offset="1" stop-color="#000627"/>
</linearGradient>
<linearGradient id="paint7_linear_302_363" x1="133.92" y1="126.88" x2="174.57" y2="126.88" gradientUnits="userSpaceOnUse">
<stop stop-color="#022782"/>
<stop offset="0.18" stop-color="#01247A"/>
<stop offset="0.44" stop-color="#011C66"/>
<stop offset="0.76" stop-color="#001045"/>
<stop offset="1" stop-color="#000627"/>
</linearGradient>
<linearGradient id="paint8_linear_302_363" x1="31.78" y1="59.2099" x2="39.3" y2="59.2099" gradientUnits="userSpaceOnUse">
<stop stop-color="#DFB298"/>
<stop offset="0.14" stop-color="#D4A892"/>
<stop offset="0.39" stop-color="#B88D82"/>
<stop offset="0.48" stop-color="#AE847D"/>
</linearGradient>
<linearGradient id="paint9_linear_302_363" x1="35.46" y1="38.6099" x2="35.46" y2="86.4699" gradientUnits="userSpaceOnUse">
<stop offset="0.26" stop-color="#F1D1C2"/>
<stop offset="1" stop-color="#C99E95"/>
</linearGradient>
<linearGradient id="paint10_linear_302_363" x1="17.4" y1="66.5699" x2="39.77" y2="66.5699" gradientUnits="userSpaceOnUse">
<stop offset="0.26" stop-color="#F1D1C2"/>
<stop offset="0.56" stop-color="#F3C6B7"/>
<stop offset="0.87" stop-color="#F8B7A8"/>
</linearGradient>
<linearGradient id="paint11_linear_302_363" x1="31.23" y1="74.17" x2="51.54" y2="74.17" gradientUnits="userSpaceOnUse">
<stop offset="0.26" stop-color="#F1D1C2"/>
<stop offset="0.48" stop-color="#EDC6B7"/>
<stop offset="0.87" stop-color="#E6AB9C"/>
</linearGradient>
<linearGradient id="paint12_linear_302_363" x1="84.45" y1="30.9" x2="126.72" y2="30.9" gradientUnits="userSpaceOnUse">
<stop offset="0.14"/>
<stop offset="0.28" stop-color="#0A0806"/>
<stop offset="0.52" stop-color="#262019"/>
<stop offset="0.83" stop-color="#534737"/>
<stop offset="1" stop-color="#6F5E49"/>
</linearGradient>
<linearGradient id="paint13_linear_302_363" x1="125.64" y1="34.8" x2="137.71" y2="34.8" gradientUnits="userSpaceOnUse">
<stop offset="0.14" stop-color="#221E1A"/>
<stop offset="0.33" stop-color="#2C2620"/>
<stop offset="0.64" stop-color="#483E31"/>
<stop offset="1" stop-color="#6F5E49"/>
</linearGradient>
<linearGradient id="paint14_linear_302_363" x1="125.83" y1="38.14" x2="135.84" y2="38.14" gradientUnits="userSpaceOnUse">
<stop offset="0.14" stop-color="#221E1A"/>
<stop offset="0.33" stop-color="#2C2620"/>
<stop offset="0.64" stop-color="#483E31"/>
<stop offset="1" stop-color="#6F5E49"/>
</linearGradient>
<linearGradient id="paint15_linear_302_363" x1="92.11" y1="45.08" x2="97.95" y2="45.08" gradientUnits="userSpaceOnUse">
<stop stop-color="#DFB298"/>
<stop offset="0.14" stop-color="#D4A892"/>
<stop offset="0.39" stop-color="#B88D82"/>
<stop offset="0.48" stop-color="#AE847D"/>
</linearGradient>
<linearGradient id="paint16_linear_302_363" x1="100.36" y1="40.6199" x2="114.54" y2="40.6199" gradientUnits="userSpaceOnUse">
<stop stop-color="#F9E0D1"/>
<stop offset="0.09" stop-color="#F0D5C7"/>
<stop offset="0.26" stop-color="#D9B9AD"/>
<stop offset="0.47" stop-color="#B48C84"/>
<stop offset="0.5" stop-color="#AE847D"/>
<stop offset="0.94" stop-color="#6B5A62"/>
</linearGradient>
<linearGradient id="paint17_linear_302_363" x1="85.71" y1="39.3999" x2="93.91" y2="39.3999" gradientUnits="userSpaceOnUse">
<stop stop-color="#F9E0D1"/>
<stop offset="0.09" stop-color="#F0D5C7"/>
<stop offset="0.26" stop-color="#D9B9AD"/>
<stop offset="0.47" stop-color="#B48C84"/>
<stop offset="0.5" stop-color="#AE847D"/>
<stop offset="0.94" stop-color="#6B5A62"/>
</linearGradient>
<linearGradient id="paint18_linear_302_363" x1="100.52" y1="37" x2="117.17" y2="37" gradientUnits="userSpaceOnUse">
<stop offset="0.14"/>
<stop offset="0.27" stop-color="#0A0806"/>
<stop offset="0.49" stop-color="#262019"/>
<stop offset="0.78" stop-color="#534737"/>
<stop offset="0.93" stop-color="#6F5E49"/>
</linearGradient>
<linearGradient id="paint19_linear_302_363" x1="83.64" y1="34.97" x2="94.22" y2="34.97" gradientUnits="userSpaceOnUse">
<stop offset="0.14"/>
<stop offset="0.27" stop-color="#0A0806"/>
<stop offset="0.49" stop-color="#262019"/>
<stop offset="0.78" stop-color="#534737"/>
<stop offset="0.93" stop-color="#6F5E49"/>
</linearGradient>
<linearGradient id="paint20_linear_302_363" x1="117.47" y1="42.09" x2="124.42" y2="42.09" gradientUnits="userSpaceOnUse">
<stop offset="0.14"/>
<stop offset="0.26" stop-color="#0A0A0A"/>
<stop offset="0.46" stop-color="#262626"/>
<stop offset="0.72" stop-color="#545454"/>
<stop offset="1" stop-color="#8C8C8C"/>
</linearGradient>
<linearGradient id="paint21_linear_302_363" x1="77.22" y1="34.7999" x2="100.64" y2="34.7999" gradientUnits="userSpaceOnUse">
<stop offset="0.14" stop-color="#221E1A"/>
<stop offset="0.33" stop-color="#2C2620"/>
<stop offset="0.64" stop-color="#483E31"/>
<stop offset="1" stop-color="#6F5E49"/>
</linearGradient>
<linearGradient id="paint22_linear_302_363" x1="77.79" y1="37.4901" x2="101.65" y2="37.4901" gradientUnits="userSpaceOnUse">
<stop offset="0.14" stop-color="#221E1A"/>
<stop offset="0.33" stop-color="#2C2620"/>
<stop offset="0.64" stop-color="#483E31"/>
<stop offset="1" stop-color="#6F5E49"/>
</linearGradient>
<linearGradient id="paint23_linear_302_363" x1="94.84" y1="22.97" x2="111.09" y2="22.97" gradientUnits="userSpaceOnUse">
<stop offset="0.14" stop-color="#423C37"/>
<stop offset="0.53" stop-color="#4A3C2C"/>
<stop offset="1" stop-color="#5A3E1A"/>
</linearGradient>
<linearGradient id="paint24_linear_302_363" x1="117.25" y1="18.4501" x2="117.25" y2="42.0501" gradientUnits="userSpaceOnUse">
<stop offset="0.14"/>
<stop offset="0.27" stop-color="#0A0806"/>
<stop offset="0.49" stop-color="#262019"/>
<stop offset="0.78" stop-color="#534737"/>
<stop offset="0.93" stop-color="#6F5E49"/>
</linearGradient>
<linearGradient id="paint25_linear_302_363" x1="106.8" y1="35.4799" x2="117.32" y2="35.4799" gradientUnits="userSpaceOnUse">
<stop offset="0.14"/>
<stop offset="0.28" stop-color="#0A0806"/>
<stop offset="0.52" stop-color="#262019"/>
<stop offset="0.83" stop-color="#534737"/>
<stop offset="1" stop-color="#6F5E49"/>
</linearGradient>
<linearGradient id="paint26_linear_302_363" x1="104.83" y1="34.8" x2="112.87" y2="34.8" gradientUnits="userSpaceOnUse">
<stop offset="0.14"/>
<stop offset="0.28" stop-color="#0A0806"/>
<stop offset="0.52" stop-color="#262019"/>
<stop offset="0.83" stop-color="#534737"/>
<stop offset="1" stop-color="#6F5E49"/>
</linearGradient>
<linearGradient id="paint27_linear_302_363" x1="176.24" y1="52.88" x2="181.61" y2="52.88" gradientUnits="userSpaceOnUse">
<stop offset="0.09" stop-color="#FF00EC"/>
<stop offset="1" stop-color="#E7029D"/>
</linearGradient>
<linearGradient id="paint28_linear_302_363" x1="168.99" y1="52.88" x2="175.14" y2="52.88" gradientUnits="userSpaceOnUse">
<stop offset="0.09" stop-color="#FF00EC"/>
<stop offset="1" stop-color="#E7029D"/>
</linearGradient>
<linearGradient id="paint29_linear_302_363" x1="189.41" y1="52.8799" x2="195.29" y2="52.8799" gradientUnits="userSpaceOnUse">
<stop offset="0.09" stop-color="#FF00EC"/>
<stop offset="1" stop-color="#E7029D"/>
</linearGradient>
<linearGradient id="paint30_linear_302_363" x1="195.55" y1="51.4101" x2="202.41" y2="51.4101" gradientUnits="userSpaceOnUse">
<stop offset="0.09" stop-color="#FF00EC"/>
<stop offset="1" stop-color="#E7029D"/>
</linearGradient>
<linearGradient id="paint31_linear_302_363" x1="65.06" y1="15.7099" x2="79.06" y2="15.7099" gradientUnits="userSpaceOnUse">
<stop offset="0.09" stop-color="#FF36B5"/>
<stop offset="1" stop-color="#E7029D"/>
</linearGradient>
<linearGradient id="paint32_linear_302_363" x1="59.48" y1="12.6899" x2="80.34" y2="12.6899" gradientUnits="userSpaceOnUse">
<stop offset="0.09" stop-color="#FF00EC"/>
<stop offset="1" stop-color="#E7029D"/>
</linearGradient>
<linearGradient id="paint33_linear_302_363" x1="54.28" y1="9.06996" x2="81.48" y2="9.06996" gradientUnits="userSpaceOnUse">
<stop offset="0.09" stop-color="#FF00EC"/>
<stop offset="1" stop-color="#E7029D"/>
</linearGradient>
<linearGradient id="paint34_linear_302_363" x1="71.81" y1="19.4899" x2="76.59" y2="19.4899" gradientUnits="userSpaceOnUse">
<stop offset="0.09" stop-color="#FF36B5"/>
<stop offset="1" stop-color="#E7029D"/>
</linearGradient>
<linearGradient id="paint35_linear_302_363" x1="-0.200017" y1="17.36" x2="31.06" y2="17.36" gradientUnits="userSpaceOnUse">
<stop offset="0.09" stop-color="#FF00EC"/>
<stop offset="1" stop-color="#E7029D"/>
</linearGradient>
<linearGradient id="paint36_linear_302_363" x1="9.09996" y1="36.59" x2="28.76" y2="36.59" gradientUnits="userSpaceOnUse">
<stop offset="0.09" stop-color="#FF00EC"/>
<stop offset="1" stop-color="#E7029D"/>
</linearGradient>
<linearGradient id="paint37_linear_302_363" x1="92.7287" y1="57.0198" x2="95.5565" y2="57.5103" gradientUnits="userSpaceOnUse">
<stop stop-color="#F1D1C2"/>
<stop offset="0.21" stop-color="#E8C6B8"/>
<stop offset="0.58" stop-color="#D3AA9F"/>
<stop offset="0.83" stop-color="#C1938A"/>
</linearGradient>
<linearGradient id="paint38_linear_302_363" x1="108.67" y1="59.4001" x2="116.79" y2="59.4001" gradientUnits="userSpaceOnUse">
<stop stop-color="#F1D1C2"/>
<stop offset="0.21" stop-color="#E8C6B8"/>
<stop offset="0.58" stop-color="#D3AA9F"/>
<stop offset="0.83" stop-color="#C1938A"/>
</linearGradient>
<linearGradient id="paint39_linear_302_363" x1="167.88" y1="77.6401" x2="192.4" y2="77.6401" gradientUnits="userSpaceOnUse">
<stop offset="0.26" stop-color="#F1D1C2"/>
<stop offset="0.87" stop-color="#FAC5BA"/>
</linearGradient>
<linearGradient id="paint40_linear_302_363" x1="181.18" y1="81.6399" x2="195.04" y2="81.6399" gradientUnits="userSpaceOnUse">
<stop offset="0.26" stop-color="#F1D1C2"/>
<stop offset="0.56" stop-color="#F3C6B7"/>
<stop offset="0.87" stop-color="#F8B7A8"/>
</linearGradient>
<linearGradient id="paint41_linear_302_363" x1="191.55" y1="82.92" x2="199.8" y2="82.92" gradientUnits="userSpaceOnUse">
<stop offset="0.26" stop-color="#F1D1C2"/>
<stop offset="0.48" stop-color="#EDC6B7"/>
<stop offset="0.87" stop-color="#E6AB9C"/>
</linearGradient>
<linearGradient id="paint42_linear_302_363" x1="162.07" y1="85.9602" x2="183.27" y2="85.9602" gradientUnits="userSpaceOnUse">
<stop offset="0.26" stop-color="#F1D1C2"/>
<stop offset="0.48" stop-color="#EDC6B7"/>
<stop offset="0.87" stop-color="#E6AB9C"/>
</linearGradient>
<linearGradient id="paint43_linear_302_363" x1="167.52" y1="90.3501" x2="184.66" y2="90.3501" gradientUnits="userSpaceOnUse">
<stop offset="0.26" stop-color="#F1D1C2"/>
<stop offset="0.87" stop-color="#C99E95"/>
</linearGradient>
<linearGradient id="paint44_linear_302_363" x1="182.824" y1="70.9657" x2="188.094" y2="79.3856" gradientUnits="userSpaceOnUse">
<stop offset="0.26" stop-color="#F1D1C2"/>
<stop offset="0.47" stop-color="#E8C6B8"/>
<stop offset="0.84" stop-color="#D2AAA0"/>
<stop offset="0.99" stop-color="#C99E95"/>
</linearGradient>
<linearGradient id="paint45_linear_302_363" x1="187.48" y1="71.5975" x2="193.75" y2="81.6436" gradientUnits="userSpaceOnUse">
<stop offset="0.26" stop-color="#F1D1C2"/>
<stop offset="0.47" stop-color="#E8C6B8"/>
<stop offset="0.84" stop-color="#D2AAA0"/>
<stop offset="0.99" stop-color="#C99E95"/>
</linearGradient>
<linearGradient id="paint46_linear_302_363" x1="179.806" y1="74.8326" x2="183.998" y2="73.5861" gradientUnits="userSpaceOnUse">
<stop offset="0.14" stop-color="#F1D1C2"/>
<stop offset="0.38" stop-color="#F1C6B9"/>
<stop offset="0.8" stop-color="#F2AAA1"/>
<stop offset="0.85" stop-color="#F3A79E"/>
<stop offset="1" stop-color="#F3A49C"/>
</linearGradient>
<linearGradient id="paint47_linear_302_363" x1="92.79" y1="76.9998" x2="96.36" y2="73.4298" gradientUnits="userSpaceOnUse">
<stop stop-color="#F1D1C2"/>
<stop offset="0.08" stop-color="#E8C6B8"/>
<stop offset="0.22" stop-color="#D3AA9F"/>
<stop offset="0.31" stop-color="#C1938A"/>
</linearGradient>
<linearGradient id="paint48_linear_302_363" x1="111.87" y1="74.9599" x2="119.03" y2="67.8099" gradientUnits="userSpaceOnUse">
<stop stop-color="#F1D1C2"/>
<stop offset="0.16" stop-color="#E8C6B8"/>
<stop offset="0.44" stop-color="#D3AA9F"/>
<stop offset="0.63" stop-color="#C1938A"/>
</linearGradient>
<linearGradient id="paint49_linear_302_363" x1="96.04" y1="117.57" x2="116.98" y2="117.57" gradientUnits="userSpaceOnUse">
<stop offset="0.09" stop-color="#FF00EC"/>
<stop offset="1" stop-color="#E7029D"/>
</linearGradient>
<linearGradient id="paint50_linear_302_363" x1="-nan" y1="-nan" x2="-nan" y2="-nan" gradientUnits="userSpaceOnUse">
<stop offset="0.09" stop-color="#FF00EC"/>
<stop offset="1" stop-color="#E7029D"/>
</linearGradient>
<linearGradient id="paint51_linear_302_363" x1="115.12" y1="110.05" x2="117.34" y2="110.05" gradientUnits="userSpaceOnUse">
<stop offset="0.09" stop-color="#FF00EC"/>
<stop offset="1" stop-color="#E7029D"/>
</linearGradient>
<linearGradient id="paint52_linear_302_363" x1="115.98" y1="109.19" x2="118.2" y2="109.19" gradientUnits="userSpaceOnUse">
<stop offset="0.09" stop-color="#FF00EC"/>
<stop offset="1" stop-color="#E7029D"/>
</linearGradient>
<linearGradient id="paint53_linear_302_363" x1="200.92" y1="22.57" x2="213.37" y2="22.57" gradientUnits="userSpaceOnUse">
<stop offset="0.09" stop-color="#FF00EC"/>
<stop offset="1" stop-color="#E7029D"/>
</linearGradient>
<linearGradient id="paint54_linear_302_363" x1="113.27" y1="92" x2="114.97" y2="92" gradientUnits="userSpaceOnUse">
<stop offset="0.09" stop-color="#97B5F1"/>
<stop offset="1" stop-color="#E7029D"/>
</linearGradient>
<linearGradient id="paint55_linear_302_363" x1="114.72" y1="92.06" x2="116.44" y2="92.06" gradientUnits="userSpaceOnUse">
<stop offset="0.09" stop-color="#97B5F1"/>
<stop offset="1" stop-color="#E7029D"/>
</linearGradient>
<linearGradient id="paint56_linear_302_363" x1="112.72" y1="91.57" x2="116.99" y2="91.57" gradientUnits="userSpaceOnUse">
<stop offset="0.09" stop-color="#97B5F1"/>
<stop offset="1" stop-color="#E7029D"/>
</linearGradient>
<linearGradient id="paint57_linear_302_363" x1="112.61" y1="92.6301" x2="116.79" y2="92.6301" gradientUnits="userSpaceOnUse">
<stop offset="0.09" stop-color="#97B5F1"/>
<stop offset="1" stop-color="#E7029D"/>
</linearGradient>
<clipPath id="clip0_302_363">
<rect width="212.96" height="148.749" fill="white" transform="translate(0.169983 0.374512)"/>
</clipPath>
</defs>
</svg>
