<svg width="1440" height="1051" viewBox="0 0 1440 1051" fill="none" xmlns="http://www.w3.org/2000/svg">
<line x1="-240" y1="452.065" x2="712.021" y2="452.065" stroke="white" stroke-opacity="0.05" stroke-width="0.794013"/>
<line x1="-240" y1="45.5313" x2="712.021" y2="45.5313" stroke="white" stroke-opacity="0.05" stroke-width="0.794013"/>
<line x1="-240" y1="248.798" x2="712.021" y2="248.798" stroke="white" stroke-opacity="0.05" stroke-width="0.794013"/>
<line x1="-240" y1="350.432" x2="712.021" y2="350.432" stroke="white" stroke-opacity="0.05" stroke-width="0.794013"/>
<line x1="-240" y1="147.164" x2="712.021" y2="147.164" stroke="white" stroke-opacity="0.05" stroke-width="0.794013"/>
<line x1="-240" y1="401.248" x2="712.021" y2="401.248" stroke="white" stroke-opacity="0.05" stroke-width="0.794013"/>
<line x1="-240" y1="197.981" x2="712.021" y2="197.981" stroke="white" stroke-opacity="0.05" stroke-width="0.794013"/>
<line x1="-240" y1="299.615" x2="712.021" y2="299.615" stroke="white" stroke-opacity="0.05" stroke-width="0.794013"/>
<line x1="-240" y1="96.3484" x2="712.021" y2="96.3484" stroke="white" stroke-opacity="0.05" stroke-width="0.794013"/>
<line x1="196.312" y1="-378.868" x2="196.312" y2="356.387" stroke="white" stroke-opacity="0.05" stroke-width="0.794013"/>
<line x1="399.577" y1="-378.868" x2="399.577" y2="356.387" stroke="white" stroke-opacity="0.05" stroke-width="0.794013"/>
<line x1="602.845" y1="-378.868" x2="602.845" y2="356.387" stroke="white" stroke-opacity="0.05" stroke-width="0.794013"/>
<line x1="297.943" y1="-378.868" x2="297.943" y2="356.387" stroke="white" stroke-opacity="0.05" stroke-width="0.794013"/>
<line x1="94.6773" y1="-378.868" x2="94.6772" y2="356.387" stroke="white" stroke-opacity="0.05" stroke-width="0.794013"/>
<line x1="501.211" y1="-378.868" x2="501.211" y2="356.387" stroke="white" stroke-opacity="0.05" stroke-width="0.794013"/>
<line x1="704.479" y1="-378.868" x2="704.479" y2="356.387" stroke="white" stroke-opacity="0.05" stroke-width="0.794013"/>
<line x1="247.127" y1="-378.868" x2="247.127" y2="356.387" stroke="white" stroke-opacity="0.05" stroke-width="0.794013"/>
<line x1="43.8589" y1="-378.868" x2="43.8589" y2="356.387" stroke="white" stroke-opacity="0.05" stroke-width="0.794013"/>
<line x1="450.395" y1="-378.868" x2="450.395" y2="356.387" stroke="white" stroke-opacity="0.05" stroke-width="0.794013"/>
<line x1="653.661" y1="-378.868" x2="653.661" y2="356.387" stroke="white" stroke-opacity="0.05" stroke-width="0.794013"/>
<line x1="348.762" y1="-378.868" x2="348.761" y2="356.387" stroke="white" stroke-opacity="0.05" stroke-width="0.794013"/>
<line x1="145.493" y1="-378.868" x2="145.493" y2="356.387" stroke="white" stroke-opacity="0.05" stroke-width="0.794013"/>
<line x1="552.027" y1="-378.868" x2="552.027" y2="356.387" stroke="white" stroke-opacity="0.05" stroke-width="0.794013"/>
<line x1="755.295" y1="-378.868" x2="755.295" y2="356.387" stroke="white" stroke-opacity="0.05" stroke-width="0.794013"/>
<line x1="115.848" y1="452.065" x2="1067.87" y2="452.065" stroke="white" stroke-opacity="0.05" stroke-width="0.794013"/>
<line x1="115.848" y1="45.5313" x2="1067.87" y2="45.5313" stroke="white" stroke-opacity="0.05" stroke-width="0.794013"/>
<line x1="115.848" y1="248.798" x2="1067.87" y2="248.798" stroke="white" stroke-opacity="0.05" stroke-width="0.794013"/>
<line x1="115.848" y1="350.432" x2="1067.87" y2="350.432" stroke="white" stroke-opacity="0.05" stroke-width="0.794013"/>
<line x1="115.848" y1="147.164" x2="1067.87" y2="147.164" stroke="white" stroke-opacity="0.05" stroke-width="0.794013"/>
<line x1="115.848" y1="401.248" x2="1067.87" y2="401.248" stroke="white" stroke-opacity="0.05" stroke-width="0.794013"/>
<line x1="115.848" y1="197.981" x2="1067.87" y2="197.981" stroke="white" stroke-opacity="0.05" stroke-width="0.794013"/>
<line x1="115.848" y1="299.615" x2="1067.87" y2="299.615" stroke="white" stroke-opacity="0.05" stroke-width="0.794013"/>
<line x1="115.848" y1="96.3484" x2="1067.87" y2="96.3484" stroke="white" stroke-opacity="0.05" stroke-width="0.794013"/>
<line x1="145.623" y1="-378.868" x2="145.623" y2="356.387" stroke="white" stroke-opacity="0.05" stroke-width="0.794013"/>
<line x1="552.16" y1="-378.868" x2="552.16" y2="356.387" stroke="white" stroke-opacity="0.05" stroke-width="0.794013"/>
<line x1="348.891" y1="-378.868" x2="348.891" y2="356.387" stroke="white" stroke-opacity="0.05" stroke-width="0.794013"/>
<line x1="755.425" y1="-378.868" x2="755.425" y2="356.387" stroke="white" stroke-opacity="0.05" stroke-width="0.794013"/>
<line x1="958.694" y1="-378.868" x2="958.694" y2="356.387" stroke="white" stroke-opacity="0.05" stroke-width="0.794013"/>
<line x1="247.257" y1="-378.868" x2="247.257" y2="356.387" stroke="white" stroke-opacity="0.05" stroke-width="0.794013"/>
<line x1="653.791" y1="-378.868" x2="653.791" y2="356.387" stroke="white" stroke-opacity="0.05" stroke-width="0.794013"/>
<line x1="450.525" y1="-378.868" x2="450.525" y2="356.387" stroke="white" stroke-opacity="0.05" stroke-width="0.794013"/>
<line x1="857.06" y1="-378.868" x2="857.06" y2="356.387" stroke="white" stroke-opacity="0.05" stroke-width="0.794013"/>
<line x1="1060.33" y1="-378.868" x2="1060.33" y2="356.387" stroke="white" stroke-opacity="0.05" stroke-width="0.794013"/>
<line x1="196.441" y1="-378.868" x2="196.441" y2="356.387" stroke="white" stroke-opacity="0.05" stroke-width="0.794013"/>
<line x1="602.975" y1="-378.868" x2="602.975" y2="356.387" stroke="white" stroke-opacity="0.05" stroke-width="0.794013"/>
<line x1="399.707" y1="-378.868" x2="399.707" y2="356.387" stroke="white" stroke-opacity="0.05" stroke-width="0.794013"/>
<line x1="806.244" y1="-378.868" x2="806.244" y2="356.387" stroke="white" stroke-opacity="0.05" stroke-width="0.794013"/>
<line x1="1009.51" y1="-378.868" x2="1009.51" y2="356.387" stroke="white" stroke-opacity="0.05" stroke-width="0.794013"/>
<line x1="298.076" y1="-378.868" x2="298.076" y2="356.387" stroke="white" stroke-opacity="0.05" stroke-width="0.794013"/>
<line x1="704.609" y1="-378.868" x2="704.609" y2="356.387" stroke="white" stroke-opacity="0.05" stroke-width="0.794013"/>
<line x1="501.341" y1="-378.868" x2="501.341" y2="356.387" stroke="white" stroke-opacity="0.05" stroke-width="0.794013"/>
<line x1="907.875" y1="-378.868" x2="907.875" y2="356.387" stroke="white" stroke-opacity="0.05" stroke-width="0.794013"/>
<line x1="1111.14" y1="-378.868" x2="1111.14" y2="356.387" stroke="white" stroke-opacity="0.05" stroke-width="0.794013"/>
<line x1="574.493" y1="452.065" x2="1526.51" y2="452.065" stroke="white" stroke-opacity="0.05" stroke-width="0.794013"/>
<line x1="574.493" y1="45.5313" x2="1526.51" y2="45.5313" stroke="white" stroke-opacity="0.05" stroke-width="0.794013"/>
<line x1="574.493" y1="248.798" x2="1526.51" y2="248.798" stroke="white" stroke-opacity="0.05" stroke-width="0.794013"/>
<line x1="574.493" y1="350.432" x2="1526.51" y2="350.432" stroke="white" stroke-opacity="0.05" stroke-width="0.794013"/>
<line x1="574.493" y1="147.164" x2="1526.51" y2="147.164" stroke="white" stroke-opacity="0.05" stroke-width="0.794013"/>
<line x1="574.493" y1="401.248" x2="1526.51" y2="401.248" stroke="white" stroke-opacity="0.05" stroke-width="0.794013"/>
<line x1="574.493" y1="197.981" x2="1526.51" y2="197.981" stroke="white" stroke-opacity="0.05" stroke-width="0.794013"/>
<line x1="574.493" y1="299.615" x2="1526.51" y2="299.615" stroke="white" stroke-opacity="0.05" stroke-width="0.794013"/>
<line x1="574.493" y1="96.3484" x2="1526.51" y2="96.3484" stroke="white" stroke-opacity="0.05" stroke-width="0.794013"/>
<line x1="604.268" y1="-378.868" x2="604.268" y2="356.387" stroke="white" stroke-opacity="0.05" stroke-width="0.794013"/>
<line x1="1010.8" y1="-378.868" x2="1010.8" y2="356.387" stroke="white" stroke-opacity="0.05" stroke-width="0.794013"/>
<line x1="807.536" y1="-378.868" x2="807.536" y2="356.387" stroke="white" stroke-opacity="0.05" stroke-width="0.794013"/>
<line x1="1214.07" y1="-378.868" x2="1214.07" y2="356.387" stroke="white" stroke-opacity="0.05" stroke-width="0.794013"/>
<line x1="1417.34" y1="-378.868" x2="1417.34" y2="356.387" stroke="white" stroke-opacity="0.05" stroke-width="0.794013"/>
<line x1="705.902" y1="-378.868" x2="705.902" y2="356.387" stroke="white" stroke-opacity="0.05" stroke-width="0.794013"/>
<line x1="1112.44" y1="-378.868" x2="1112.44" y2="356.387" stroke="white" stroke-opacity="0.05" stroke-width="0.794013"/>
<line x1="909.17" y1="-378.868" x2="909.17" y2="356.387" stroke="white" stroke-opacity="0.05" stroke-width="0.794013"/>
<line x1="1315.7" y1="-378.868" x2="1315.7" y2="356.387" stroke="white" stroke-opacity="0.05" stroke-width="0.794013"/>
<line x1="655.086" y1="-378.868" x2="655.086" y2="356.387" stroke="white" stroke-opacity="0.05" stroke-width="0.794013"/>
<line x1="1061.62" y1="-378.868" x2="1061.62" y2="356.387" stroke="white" stroke-opacity="0.05" stroke-width="0.794013"/>
<line x1="858.352" y1="-378.868" x2="858.352" y2="356.387" stroke="white" stroke-opacity="0.05" stroke-width="0.794013"/>
<line x1="1264.89" y1="-378.868" x2="1264.89" y2="356.387" stroke="white" stroke-opacity="0.05" stroke-width="0.794013"/>
<line x1="756.721" y1="-378.868" x2="756.721" y2="356.387" stroke="white" stroke-opacity="0.05" stroke-width="0.794013"/>
<line x1="1163.25" y1="-378.868" x2="1163.25" y2="356.387" stroke="white" stroke-opacity="0.05" stroke-width="0.794013"/>
<line x1="959.986" y1="-378.868" x2="959.986" y2="356.387" stroke="white" stroke-opacity="0.05" stroke-width="0.794013"/>
<line x1="1366.52" y1="-378.868" x2="1366.52" y2="356.387" stroke="white" stroke-opacity="0.05" stroke-width="0.794013"/>
<line x1="-240" y1="757.012" x2="712.021" y2="757.012" stroke="white" stroke-opacity="0.05" stroke-width="0.794013"/>
<line x1="-240" y1="960.279" x2="712.021" y2="960.279" stroke="white" stroke-opacity="0.05" stroke-width="0.794013"/>
<line x1="-240" y1="553.745" x2="712.021" y2="553.745" stroke="white" stroke-opacity="0.05" stroke-width="0.794013"/>
<line x1="-240" y1="350.477" x2="712.021" y2="350.477" stroke="white" stroke-opacity="0.05" stroke-width="0.794013"/>
<line x1="-240" y1="655.378" x2="712.021" y2="655.378" stroke="white" stroke-opacity="0.05" stroke-width="0.794013"/>
<line x1="-240" y1="858.645" x2="712.021" y2="858.645" stroke="white" stroke-opacity="0.05" stroke-width="0.794013"/>
<line x1="-240" y1="452.111" x2="712.021" y2="452.111" stroke="white" stroke-opacity="0.05" stroke-width="0.794013"/>
<line x1="-240" y1="248.845" x2="712.021" y2="248.845" stroke="white" stroke-opacity="0.05" stroke-width="0.794013"/>
<line x1="-240" y1="706.195" x2="712.021" y2="706.195" stroke="white" stroke-opacity="0.05" stroke-width="0.794013"/>
<line x1="-240" y1="909.462" x2="712.021" y2="909.462" stroke="white" stroke-opacity="0.05" stroke-width="0.794013"/>
<line x1="-240" y1="502.928" x2="712.021" y2="502.928" stroke="white" stroke-opacity="0.05" stroke-width="0.794013"/>
<line x1="-240" y1="299.662" x2="712.021" y2="299.662" stroke="white" stroke-opacity="0.05" stroke-width="0.794013"/>
<line x1="-240" y1="1011.1" x2="712.021" y2="1011.1" stroke="white" stroke-opacity="0.05" stroke-width="0.794013"/>
<line x1="-240" y1="604.561" x2="712.021" y2="604.561" stroke="white" stroke-opacity="0.05" stroke-width="0.794013"/>
<line x1="-240" y1="807.829" x2="712.021" y2="807.829" stroke="white" stroke-opacity="0.05" stroke-width="0.794013"/>
<line x1="-240" y1="401.294" x2="712.021" y2="401.294" stroke="white" stroke-opacity="0.05" stroke-width="0.794013"/>
<line x1="-240" y1="198.027" x2="712.021" y2="198.027" stroke="white" stroke-opacity="0.05" stroke-width="0.794013"/>
<line x1="196.312" y1="332.613" x2="196.312" y2="1067.87" stroke="white" stroke-opacity="0.05" stroke-width="0.794013"/>
<line x1="399.577" y1="332.613" x2="399.577" y2="1067.87" stroke="white" stroke-opacity="0.05" stroke-width="0.794013"/>
<line x1="602.845" y1="332.613" x2="602.845" y2="1067.87" stroke="white" stroke-opacity="0.05" stroke-width="0.794013"/>
<line x1="297.943" y1="332.613" x2="297.943" y2="1067.87" stroke="white" stroke-opacity="0.05" stroke-width="0.794013"/>
<line x1="94.6773" y1="332.613" x2="94.6772" y2="1067.87" stroke="white" stroke-opacity="0.05" stroke-width="0.794013"/>
<line x1="501.211" y1="332.613" x2="501.211" y2="1067.87" stroke="white" stroke-opacity="0.05" stroke-width="0.794013"/>
<line x1="704.479" y1="332.613" x2="704.479" y2="1067.87" stroke="white" stroke-opacity="0.05" stroke-width="0.794013"/>
<line x1="247.127" y1="332.613" x2="247.127" y2="1067.87" stroke="white" stroke-opacity="0.05" stroke-width="0.794013"/>
<line x1="43.8589" y1="332.613" x2="43.8589" y2="1067.87" stroke="white" stroke-opacity="0.05" stroke-width="0.794013"/>
<line x1="450.395" y1="332.613" x2="450.395" y2="1067.87" stroke="white" stroke-opacity="0.05" stroke-width="0.794013"/>
<line x1="653.661" y1="332.613" x2="653.661" y2="1067.87" stroke="white" stroke-opacity="0.05" stroke-width="0.794013"/>
<line x1="348.762" y1="332.613" x2="348.761" y2="1067.87" stroke="white" stroke-opacity="0.05" stroke-width="0.794013"/>
<line x1="145.493" y1="332.613" x2="145.493" y2="1067.87" stroke="white" stroke-opacity="0.05" stroke-width="0.794013"/>
<line x1="552.027" y1="332.613" x2="552.027" y2="1067.87" stroke="white" stroke-opacity="0.05" stroke-width="0.794013"/>
<line x1="755.295" y1="332.613" x2="755.295" y2="1067.87" stroke="white" stroke-opacity="0.05" stroke-width="0.794013"/>
<line x1="115.848" y1="757.012" x2="1067.87" y2="757.012" stroke="white" stroke-opacity="0.05" stroke-width="0.794013"/>
<line x1="115.848" y1="960.279" x2="1067.87" y2="960.279" stroke="white" stroke-opacity="0.05" stroke-width="0.794013"/>
<line x1="115.848" y1="553.745" x2="1067.87" y2="553.745" stroke="white" stroke-opacity="0.05" stroke-width="0.794013"/>
<line x1="115.848" y1="350.477" x2="1067.87" y2="350.477" stroke="white" stroke-opacity="0.05" stroke-width="0.794013"/>
<line x1="115.848" y1="655.378" x2="1067.87" y2="655.378" stroke="white" stroke-opacity="0.05" stroke-width="0.794013"/>
<line x1="115.848" y1="858.645" x2="1067.87" y2="858.645" stroke="white" stroke-opacity="0.05" stroke-width="0.794013"/>
<line x1="115.848" y1="452.111" x2="1067.87" y2="452.111" stroke="white" stroke-opacity="0.05" stroke-width="0.794013"/>
<line x1="115.848" y1="248.845" x2="1067.87" y2="248.845" stroke="white" stroke-opacity="0.05" stroke-width="0.794013"/>
<line x1="115.848" y1="706.195" x2="1067.87" y2="706.195" stroke="white" stroke-opacity="0.05" stroke-width="0.794013"/>
<line x1="115.848" y1="909.462" x2="1067.87" y2="909.462" stroke="white" stroke-opacity="0.05" stroke-width="0.794013"/>
<line x1="115.848" y1="502.928" x2="1067.87" y2="502.928" stroke="white" stroke-opacity="0.05" stroke-width="0.794013"/>
<line x1="115.848" y1="299.662" x2="1067.87" y2="299.662" stroke="white" stroke-opacity="0.05" stroke-width="0.794013"/>
<line x1="115.848" y1="1011.1" x2="1067.87" y2="1011.1" stroke="white" stroke-opacity="0.05" stroke-width="0.794013"/>
<line x1="115.848" y1="604.561" x2="1067.87" y2="604.561" stroke="white" stroke-opacity="0.05" stroke-width="0.794013"/>
<line x1="115.848" y1="807.829" x2="1067.87" y2="807.829" stroke="white" stroke-opacity="0.05" stroke-width="0.794013"/>
<line x1="115.848" y1="401.294" x2="1067.87" y2="401.294" stroke="white" stroke-opacity="0.05" stroke-width="0.794013"/>
<line x1="115.848" y1="198.027" x2="1067.87" y2="198.027" stroke="white" stroke-opacity="0.05" stroke-width="0.794013"/>
<line x1="145.623" y1="332.613" x2="145.623" y2="1067.87" stroke="white" stroke-opacity="0.05" stroke-width="0.794013"/>
<line x1="552.16" y1="332.613" x2="552.16" y2="1067.87" stroke="white" stroke-opacity="0.05" stroke-width="0.794013"/>
<line x1="348.891" y1="332.613" x2="348.891" y2="1067.87" stroke="white" stroke-opacity="0.05" stroke-width="0.794013"/>
<line x1="755.425" y1="332.613" x2="755.425" y2="1067.87" stroke="white" stroke-opacity="0.05" stroke-width="0.794013"/>
<line x1="958.694" y1="332.613" x2="958.694" y2="1067.87" stroke="white" stroke-opacity="0.05" stroke-width="0.794013"/>
<line x1="247.257" y1="332.613" x2="247.257" y2="1067.87" stroke="white" stroke-opacity="0.05" stroke-width="0.794013"/>
<line x1="653.791" y1="332.613" x2="653.791" y2="1067.87" stroke="white" stroke-opacity="0.05" stroke-width="0.794013"/>
<line x1="450.525" y1="332.613" x2="450.525" y2="1067.87" stroke="white" stroke-opacity="0.05" stroke-width="0.794013"/>
<line x1="857.06" y1="332.613" x2="857.06" y2="1067.87" stroke="white" stroke-opacity="0.05" stroke-width="0.794013"/>
<line x1="1060.33" y1="332.613" x2="1060.33" y2="1067.87" stroke="white" stroke-opacity="0.05" stroke-width="0.794013"/>
<line x1="196.441" y1="332.613" x2="196.441" y2="1067.87" stroke="white" stroke-opacity="0.05" stroke-width="0.794013"/>
<line x1="602.975" y1="332.613" x2="602.975" y2="1067.87" stroke="white" stroke-opacity="0.05" stroke-width="0.794013"/>
<line x1="399.707" y1="332.613" x2="399.707" y2="1067.87" stroke="white" stroke-opacity="0.05" stroke-width="0.794013"/>
<line x1="806.244" y1="332.613" x2="806.244" y2="1067.87" stroke="white" stroke-opacity="0.05" stroke-width="0.794013"/>
<line x1="1009.51" y1="332.613" x2="1009.51" y2="1067.87" stroke="white" stroke-opacity="0.05" stroke-width="0.794013"/>
<line x1="298.076" y1="332.613" x2="298.076" y2="1067.87" stroke="white" stroke-opacity="0.05" stroke-width="0.794013"/>
<line x1="704.609" y1="332.613" x2="704.609" y2="1067.87" stroke="white" stroke-opacity="0.05" stroke-width="0.794013"/>
<line x1="501.341" y1="332.613" x2="501.341" y2="1067.87" stroke="white" stroke-opacity="0.05" stroke-width="0.794013"/>
<line x1="907.875" y1="332.613" x2="907.875" y2="1067.87" stroke="white" stroke-opacity="0.05" stroke-width="0.794013"/>
<line x1="1111.14" y1="332.613" x2="1111.14" y2="1067.87" stroke="white" stroke-opacity="0.05" stroke-width="0.794013"/>
<line x1="574.493" y1="757.012" x2="1526.51" y2="757.012" stroke="white" stroke-opacity="0.05" stroke-width="0.794013"/>
<line x1="574.493" y1="960.279" x2="1526.51" y2="960.279" stroke="white" stroke-opacity="0.05" stroke-width="0.794013"/>
<line x1="574.493" y1="553.745" x2="1526.51" y2="553.745" stroke="white" stroke-opacity="0.05" stroke-width="0.794013"/>
<line x1="574.493" y1="350.477" x2="1526.51" y2="350.477" stroke="white" stroke-opacity="0.05" stroke-width="0.794013"/>
<line x1="574.493" y1="655.378" x2="1526.51" y2="655.378" stroke="white" stroke-opacity="0.05" stroke-width="0.794013"/>
<line x1="574.493" y1="858.645" x2="1526.51" y2="858.645" stroke="white" stroke-opacity="0.05" stroke-width="0.794013"/>
<line x1="574.493" y1="452.111" x2="1526.51" y2="452.111" stroke="white" stroke-opacity="0.05" stroke-width="0.794013"/>
<line x1="574.493" y1="248.845" x2="1526.51" y2="248.845" stroke="white" stroke-opacity="0.05" stroke-width="0.794013"/>
<line x1="574.493" y1="706.195" x2="1526.51" y2="706.195" stroke="white" stroke-opacity="0.05" stroke-width="0.794013"/>
<line x1="574.493" y1="909.462" x2="1526.51" y2="909.462" stroke="white" stroke-opacity="0.05" stroke-width="0.794013"/>
<line x1="574.493" y1="502.928" x2="1526.51" y2="502.928" stroke="white" stroke-opacity="0.05" stroke-width="0.794013"/>
<line x1="574.493" y1="299.662" x2="1526.51" y2="299.662" stroke="white" stroke-opacity="0.05" stroke-width="0.794013"/>
<line x1="574.493" y1="1011.1" x2="1526.51" y2="1011.1" stroke="white" stroke-opacity="0.05" stroke-width="0.794013"/>
<line x1="574.493" y1="604.561" x2="1526.51" y2="604.561" stroke="white" stroke-opacity="0.05" stroke-width="0.794013"/>
<line x1="574.493" y1="807.829" x2="1526.51" y2="807.829" stroke="white" stroke-opacity="0.05" stroke-width="0.794013"/>
<line x1="574.493" y1="401.294" x2="1526.51" y2="401.294" stroke="white" stroke-opacity="0.05" stroke-width="0.794013"/>
<line x1="574.493" y1="198.027" x2="1526.51" y2="198.027" stroke="white" stroke-opacity="0.05" stroke-width="0.794013"/>
<line x1="604.268" y1="332.613" x2="604.268" y2="1067.87" stroke="white" stroke-opacity="0.05" stroke-width="0.794013"/>
<line x1="1010.8" y1="332.613" x2="1010.8" y2="1067.87" stroke="white" stroke-opacity="0.05" stroke-width="0.794013"/>
<line x1="807.536" y1="332.613" x2="807.536" y2="1067.87" stroke="white" stroke-opacity="0.05" stroke-width="0.794013"/>
<line x1="1214.07" y1="332.613" x2="1214.07" y2="1067.87" stroke="white" stroke-opacity="0.05" stroke-width="0.794013"/>
<line x1="1417.34" y1="332.613" x2="1417.34" y2="1067.87" stroke="white" stroke-opacity="0.05" stroke-width="0.794013"/>
<line x1="705.902" y1="332.613" x2="705.902" y2="1067.87" stroke="white" stroke-opacity="0.05" stroke-width="0.794013"/>
<line x1="1112.44" y1="332.613" x2="1112.44" y2="1067.87" stroke="white" stroke-opacity="0.05" stroke-width="0.794013"/>
<line x1="909.17" y1="332.613" x2="909.17" y2="1067.87" stroke="white" stroke-opacity="0.05" stroke-width="0.794013"/>
<line x1="1315.7" y1="332.613" x2="1315.7" y2="1067.87" stroke="white" stroke-opacity="0.05" stroke-width="0.794013"/>
<line x1="655.086" y1="332.613" x2="655.086" y2="1067.87" stroke="white" stroke-opacity="0.05" stroke-width="0.794013"/>
<line x1="1061.62" y1="332.613" x2="1061.62" y2="1067.87" stroke="white" stroke-opacity="0.05" stroke-width="0.794013"/>
<line x1="858.352" y1="332.613" x2="858.352" y2="1067.87" stroke="white" stroke-opacity="0.05" stroke-width="0.794013"/>
<line x1="1264.89" y1="332.613" x2="1264.89" y2="1067.87" stroke="white" stroke-opacity="0.05" stroke-width="0.794013"/>
<line x1="756.721" y1="332.613" x2="756.721" y2="1067.87" stroke="white" stroke-opacity="0.05" stroke-width="0.794013"/>
<line x1="1163.25" y1="332.613" x2="1163.25" y2="1067.87" stroke="white" stroke-opacity="0.05" stroke-width="0.794013"/>
<line x1="959.986" y1="332.613" x2="959.986" y2="1067.87" stroke="white" stroke-opacity="0.05" stroke-width="0.794013"/>
<line x1="1366.52" y1="332.613" x2="1366.52" y2="1067.87" stroke="white" stroke-opacity="0.05" stroke-width="0.794013"/>
</svg>
