<svg width="165" height="167" viewBox="0 0 165 167" fill="none" xmlns="http://www.w3.org/2000/svg">
<g clip-path="url(#clip0_302_4)">
<path d="M31.82 51.2501C31.72 58.3801 31.18 66.1601 29.94 74.4201C25.81 101.95 15.71 123.13 7.13 137.27C11.76 138.12 28.31 136.95 33.56 135.63C61.74 128.53 78.19 134.77 94.33 143.12C100.87 146.5 110.88 153.03 120.85 166.16C129.83 151.06 134.54 138.79 137.13 130.59C140.01 121.47 141.6 115.04 141.6 115.04C145.32 99.3401 146.12 95.5001 149.02 86.9701C150.52 82.5601 153.01 76.0701 157.05 68.5001C151.06 60.4501 140.35 48.1201 123.87 38.6001C118.89 35.7201 108.04 29.5601 95.05 27.5301C63.18 22.5401 37.87 45.4601 31.82 51.2601V51.2501Z" fill="#8CABC6" stroke="#DC00B3" stroke-miterlimit="10"/>
<path d="M37.47 57.7601C38.21 64.8001 38.39 73.2601 37.1 82.7701C34.26 103.81 25.61 120.14 19.03 130.23C24.36 129.53 32.14 128.68 41.53 128.28C60.99 127.44 72.73 126.93 84.83 131.62C90.4 133.78 99.83 138.51 108.43 149.45C110.46 148.21 113.34 146.27 116.33 143.48C120.84 139.28 124.02 134.64 129.67 121.62C131.63 117.09 132.95 113.48 133.93 110.45C137.56 99.2001 138.35 96.4501 141.07 90.3001C142.48 87.1301 144.78 82.4501 148.44 76.9501C144.17 70.9401 137.07 62.4301 126.02 54.4501C118.89 49.3001 113.66 45.3901 105.31 43.0601C90.9 39.0401 77.81 42.5101 66.61 45.4801C59.51 47.3601 49.03 50.8801 37.46 57.7701L37.47 57.7601Z" fill="url(#paint0_linear_302_4)"/>
<path d="M150.75 64.7801C146.24 76.9001 141.73 89.0201 137.23 101.14C136.99 98.5901 136.74 96.0501 136.5 93.5001C140.37 83.6001 144.24 73.7101 148.1 63.8101L150.75 64.7801Z" fill="black"/>
<path d="M161.86 55.5401C160 52.0101 156.72 46.8301 151.24 41.9001C145.03 36.3001 138.72 33.4801 134.77 32.0701C132.08 42.2301 129.39 52.4001 126.7 62.5601C131.68 62.5501 137.79 62.1301 144.65 60.7601C151.48 59.3901 157.26 57.4401 161.85 55.5501L161.86 55.5401Z" fill="#001419"/>
<path d="M162.35 56.01C150.6 58.12 138.85 60.23 127.09 62.33C133.98 65.7 140.88 69.07 147.77 72.45C152.63 66.97 157.48 61.49 162.34 56.01H162.35Z" fill="#000001"/>
<path d="M162.14 55.06C153.01 47.39 143.89 39.72 134.76 32.05C142.5 32.34 150.24 32.64 157.98 32.93C159.37 40.3101 160.75 47.69 162.14 55.06Z" fill="#000001"/>
<path opacity="0.26" d="M103.6 23.8901C120.88 30.5001 138.16 37.1101 155.44 43.7201L152.17 55.7101C131.48 64.3101 110.78 72.9101 90.09 81.5101C94.59 62.3001 99.1 43.0901 103.6 23.8801V23.8901Z" fill="#00FFFF"/>
<path d="M164.08 55.4401L147.5 72.5301C151.04 59.7301 154.58 46.9301 158.12 34.1401C160.11 41.2401 162.09 48.3401 164.08 55.4401Z" fill="#00363B"/>
<path d="M80.83 52.7C93.89 52.66 103.45 57.47 104.75 63.85C105.01 65.13 105.04 66.99 103.99 69.49C106.84 71.28 111.2 73.76 116.81 75.95C124.18 78.82 126 78.18 128.88 80.77C135.06 86.34 134.99 96.78 134.97 100.32C134.92 108.24 132.31 114.15 131.07 116.62C130.72 117.32 130.35 117.99 129.91 118.68C124.93 126.5 119.43 129.23 113.63 134.82C111.36 137 108.35 140.35 105.44 145.21C104.23 144.42 102.45 143.24 100.35 141.75C94.66 137.71 94.1 136.72 91.41 134.93C85.87 131.26 80.37 130.25 76.09 129.46C72.75 128.85 70.29 128.76 65.35 128.6C55.11 128.26 47.69 129.18 45.78 129.44C42.72 129.84 39.07 130.45 35 131.4C39.79 121.74 40.92 113.77 41.03 108.2C41.12 103.77 40.56 101.63 40.68 96.78C40.9 87.66 43.27 80.38 45.27 75.61C44.91 68.9 44.28 68.05 45.16 65.7C47.92 58.37 58.01 56.23 67.04 54.32C72.71 53.12 77.52 52.78 80.82 52.7H80.83Z" fill="url(#paint1_linear_302_4)"/>
<path d="M88.67 68.2301C95.93 65.3401 100.59 63.4801 100.59 63.4801C100.59 63.4801 100.39 62.3701 100.08 60.6401C99.22 61.3601 97.89 62.2901 96.09 62.8201C94.08 63.4101 93.08 63.0301 91.75 63.7001C90.71 64.2201 89.46 65.3801 88.66 68.2301H88.67Z" fill="url(#paint2_linear_302_4)"/>
<path d="M77.86 74.78C78.25 74.81 78.63 74.84 79.02 74.86C78.96 75.3 78.9 75.75 78.84 76.19C78.5 76.14 78.17 76.1 77.83 76.05C77.84 75.62 77.85 75.2 77.86 74.77V74.78Z" fill="#48423B" stroke="#1E0E00" stroke-miterlimit="10"/>
<path d="M92.85 57.9599C93.95 57.5399 96.4 56.4599 97.97 57.5599C99.23 58.4399 99.46 60.3999 99.32 61.4499C98.58 66.9099 84.78 68.9499 83.61 69.1099C74.54 61.9599 73.31 59.3299 73.87 58.2499C75.07 55.9499 84.17 61.2699 92.86 57.9599H92.85Z" fill="url(#paint3_linear_302_4)"/>
<path d="M73.93 20.68C73.35 24.32 72.59 29.77 72.1 36.47C71.76 41.12 71.59 43.49 71.83 45.61C72.21 49.01 73.92 56.28 83.88 64.27C88.31 63.95 100.51 62.49 105.95 54.15C108.18 50.73 110.04 44.97 110.89 42.36C112.38 37.74 113.13 35.44 113.21 33.2C113.49 25.01 106.16 13.81 94.72 12.05C82.87 10.23 74.43 20.09 73.95 20.67L73.93 20.68Z" fill="#F9E0D1" stroke="#1E0E00" stroke-width="0.5" stroke-miterlimit="10"/>
<path d="M94.71 36.29C95.04 36.01 97.33 34.14 100.15 34.76C100.63 34.86 102.66 35.39 103.61 37.16C103.8 37.52 104.17 38.2 103.97 38.94C103.6 40.35 101.49 40.78 100.97 40.88C100.46 40.98 99.1 41.24 97.66 40.57C95.16 39.4 94.74 36.52 94.71 36.29Z" fill="#FFFAF9"/>
<path d="M94.5699 36.17C95.3199 35.7 97.1499 34.71 99.5499 34.92C100.51 35 102.2 35.15 103.49 36.53C104.8 37.94 104.85 39.7 104.84 40.19" stroke="#1E0E00" stroke-width="0.75" stroke-miterlimit="10" stroke-linecap="round"/>
<path d="M99.33 35.24C98.15 35.94 97.56 37.24 97.83 38.41C98.03 39.25 98.7 40.15 99.73 40.37C100.83 40.6 101.7 39.91 101.86 39.79C102.86 38.99 103.25 37.52 102.89 36.03C101.7 35.77 100.52 35.5 99.33 35.24Z" fill="#51D1C5"/>
<path d="M97.76 40.3601C97.98 40.5101 99.23 41.3701 100.68 40.9701C101.16 40.8401 101.52 40.6101 101.78 40.4101" stroke="#1E0E00" stroke-width="0.5" stroke-miterlimit="10" stroke-linecap="round"/>
<path d="M85.8 47.5701C85.49 47.1301 85.73 46.7901 85.54 46.0801C85.32 45.2501 84.82 45.1101 84.93 44.7801C85.12 44.2101 86.71 44.2701 87.07 44.2801C87.84 44.3101 88.63 44.3401 89.29 44.9201C89.37 44.9901 90.04 45.6001 90.07 46.2601C90.07 46.3501 90.09 46.8801 90.09 46.8801C90.09 46.8801 90.09 47.3201 90.06 47.5001C89.94 48.0801 88.85 48.3401 88.72 48.3701C87.74 48.6001 86.92 48.2401 86.56 48.0801C86.19 47.9201 85.97 47.8201 85.8 47.5701Z" fill="#F9E0D1"/>
<path d="M84.9 44.19C84.81 43.92 85.68 43.23 86.67 43C87.5 42.8 88.93 42.8 89.64 43.76C90.12 44.41 90.04 45.2 90.03 45.29C90 45.58 89.96 45.96 89.74 46.05C89.34 46.2 88.94 45.04 87.85 44.47C86.47 43.75 85.01 44.53 84.9 44.2V44.19Z" fill="url(#paint4_linear_302_4)"/>
<path d="M86.14 33.2001C86.31 32.9001 86.74 32.6301 87.09 32.6901C87.3 32.7301 87.48 32.8801 87.77 33.3301C88.23 34.0701 88.42 34.7601 88.57 35.3801C88.8 36.3101 88.92 36.7801 88.97 37.1701C89.09 38.0801 89.21 39.0801 88.79 40.1701C88.54 40.8101 88.12 41.4301 87.99 41.3801C87.8 41.3001 88.64 39.9701 88.53 38.3701C88.33 35.6801 85.57 34.2601 86.15 33.2001H86.14Z" fill="url(#paint5_linear_302_4)"/>
<path d="M93 31.1101C92.05 32.4101 91.54 33.5401 91.26 34.3301C90.85 35.4901 90.98 35.7201 91.08 35.7901C91.23 35.9001 91.5 35.7901 92.01 35.4901C93.45 34.6201 93.37 34.1601 94.27 33.6901C94.5 33.5701 95.71 32.9501 96.88 33.0801C96.99 33.0901 97.21 33.1201 97.45 33.0201C97.96 32.8001 98.36 32.0801 98.18 31.6401C97.98 31.1401 97.09 31.0901 95.7 31.0201C94.58 30.9701 93.64 31.0401 92.99 31.1101H93Z" fill="url(#paint6_linear_302_4)"/>
<path d="M95.71 31.8701C96.33 31.1101 98.3 31.8101 99.19 32.1301C99.6 32.2801 101.19 32.8701 102.99 34.4001C104.03 35.2901 105.05 36.4101 104.94 36.5501C104.91 36.5901 104.77 36.5901 103.24 35.5801C100.58 33.8301 100.83 33.7101 100.1 33.4201C97.96 32.5601 96.1 33.7501 95.6 32.8801C95.42 32.5601 95.5 32.1201 95.7 31.8701H95.71Z" fill="url(#paint7_linear_302_4)"/>
<path d="M94.96 29.07L95.16 29.94C97.88 30.18 99.94 30.03 101.4 29.82C102.42 29.67 103.73 29.41 105.06 30.07C106.02 30.55 106.6 31.33 106.68 31.26C106.74 31.21 106.48 30.76 104.94 28.8L101.12 28.9001L94.97 29.0601L94.96 29.07Z" fill="#183474"/>
<path d="M86.06 37.0301C86.06 37.0301 85.96 36.8801 85.93 36.8401C85.62 36.4601 85.82 36.6601 84.01 34.1401C83.8 33.8501 83.58 33.5501 83.35 33.2301C82.74 32.3901 81.76 31.8701 80.72 31.8601C80.65 31.8601 80.59 31.8601 80.52 31.8601C77.77 31.8601 75.78 32.3901 75.79 32.4701C75.8 32.5701 79.2 31.2101 81.65 32.8001C81.96 33.0001 82.73 33.7601 84.26 35.2801C85.12 36.1301 86.04 37.0701 86.07 37.0401L86.06 37.0301Z" fill="black" stroke="#1E0E00" stroke-width="0.5" stroke-miterlimit="10"/>
<path d="M74.6 34.9799C74.9 35.0799 75.34 35.1899 75.89 35.2099C77.05 35.2399 77.59 34.7999 78.42 34.7099C79.39 34.6099 80.13 35.09 81.22 35.79C83.02 36.94 84.13 38.4699 84.79 39.6199" fill="url(#paint8_linear_302_4)"/>
<path d="M86.78 31.55C86.29 31.85 85.95 31.84 85.74 31.8C84.91 31.61 84.75 30.44 83.77 28.99C83.26 28.24 82.74 27.71 82.41 27.4C79.33 26.64 77.7 25.31 76.88 24.47C76.5 24.08 75.9 23.39 75.97 23.31C76.06 23.21 77.1 24.24 78.52 25.05C80.59 26.22 81.66 25.89 83.09 26.56C84.28 27.12 85.74 28.38 86.77 31.57L86.78 31.55Z" fill="#183474"/>
<path d="M86.31 51.1899C86.84 52.1799 87.73 53.4399 89.15 53.8399C91.63 54.5399 94.31 52.2099 94.39 52.3399C94.45 52.4399 92.91 53.7199 90.51 54.6499C88.83 55.2999 87.33 55.5299 86.3 55.6199C86.13 55.0799 85.14 51.8799 86.13 51.2699C86.18 51.2399 86.24 51.2099 86.31 51.1899Z" fill="#EEE9E4" stroke="#1E0E00" stroke-width="0.5" stroke-miterlimit="10"/>
<path d="M93.02 50.67C93.84 51.02 94.8 51.59 95.39 52.56C96.07 53.69 95.87 54.73 96.08 54.74C96.36 54.75 97.36 52.89 96.36 51.56C95.69 50.66 94.32 50.27 93.02 50.67Z" fill="url(#paint9_linear_302_4)"/>
<path d="M74.53 28.84C75.48 28.5 78.37 27.6 81.48 28.84C84.97 30.22 86.75 33.45 86.54 33.68C86.4 33.82 85.39 32.75 82.87 31.37C81.91 30.85 80.63 30.16 78.86 29.62C77.78 29.29 76.32 28.95 74.53 28.86V28.84Z" fill="url(#paint10_linear_302_4)"/>
<path opacity="0.63" d="M104.53 48.5602C103.4 48.8902 101.94 49.2001 100.19 48.8001C99.44 48.6301 95.66 47.7701 93.72 43.4401C93.24 42.3701 92.4 40.0602 92.91 39.4302C93.48 38.7202 95.01 40.9902 98.06 42.0702C100.4 42.9002 100.77 42.0102 103.9 42.6202C105.83 43.0002 109.8 44.1402 109.85 45.5802C109.9 46.9602 106.31 48.0302 104.53 48.5602Z" fill="url(#paint11_linear_302_4)"/>
<path d="M99.96 35.1802C99.84 35.3002 98.76 36.4202 99.06 37.7802C99.11 37.9902 99.25 38.6402 99.81 38.9602C100.62 39.4302 101.99 39.0502 102.46 38.0302C102.81 37.2802 102.61 36.3402 101.95 35.6902C101.29 35.5202 100.63 35.3502 99.97 35.1802H99.96Z" fill="#05002B"/>
<path d="M99.98 11.5001C99.97 10.3901 99.78 7.78006 98 5.30006C96.27 2.88006 93.97 1.92006 92.95 1.50006C86.79 -0.98994 80.12 2.14006 75.21 4.44006C70.94 6.44006 67.13 8.23006 63.75 12.5301C59.58 17.8401 58.82 23.4901 58.64 25.5201C58.4 28.2101 58.64 30.4601 58.92 32.0301C59.14 31.0601 59.55 29.6501 60.4 28.1201C61.55 26.0501 63.15 24.4001 63.46 24.6001C63.77 24.8001 62.34 26.5901 62.39 29.3301C62.42 31.2901 63.2 33.0601 63.56 33.0201C63.9 32.9801 63.58 31.3901 64.21 29.4401C65.26 26.1801 68.21 24.1601 68.43 24.3601C68.59 24.4901 67.34 25.6501 66.24 28.0701C64.61 31.6401 64.5 35.3201 64.87 35.4101C65.12 35.4701 65.32 33.8801 66.49 32.1801C68.35 29.4901 70.51 29.6001 73.68 27.6201C76.46 25.8901 75.67 25.2601 81.44 19.5801C84.32 16.7501 86.49 14.6101 86.99 14.9901C87.46 15.3401 86.54 17.8301 84.79 19.5601C83.47 20.8701 81.84 21.5701 81.76 21.4501C81.53 21.0801 94.76 11.8801 95.77 13.0601C95.94 13.2601 95.6 13.5601 95.62 14.3601C95.68 16.5701 98.39 18.7901 99.91 18.3101C100.69 18.0601 100.81 17.2001 101.11 17.2601C101.79 17.3901 101.41 21.7601 101.19 26.5401C100.95 31.9801 100.84 34.7601 101.42 37.6201C102.16 41.2201 102.93 41.1201 103.01 43.3401C103.24 49.2301 97.98 54.1001 98.06 54.1601C98.14 54.2101 101.39 48.7801 103.25 49.3401C103.75 49.4901 103.9 49.9901 104.32 50.8001C106.13 54.2601 109.13 56.0701 109.22 55.9801C109.3 55.9001 107.2 54.3301 106.17 51.4201C105.38 49.1701 105.45 46.7501 105.94 46.6201C106.61 46.4401 107.16 50.7301 110.69 54.1401C113.87 57.2101 118.03 58.1801 118.38 57.6301C118.64 57.2201 116.62 56.2201 115.55 53.5601C114.56 51.1101 114.76 48.2401 115.44 48.0601C115.9 47.9401 116.86 49.0001 119.04 54.1301C119.21 53.2501 119.47 51.9501 119.76 50.3701C121.4 41.5701 122.21 37.1701 122.17 34.8601C122.05 28.4201 119.43 23.6801 117.1 19.4501C114.9 15.4701 113.31 12.6801 109.97 11.2701C106.18 9.68006 102.34 10.6101 102.34 10.6101C101.32 10.8601 100.49 11.2101 99.92 11.5001H99.98Z" fill="url(#paint12_linear_302_4)"/>
<path d="M83.86 5.48999C82.61 6.43999 81.2 7.39999 80.87 7.08999C80.59 6.82999 81.33 5.86999 81.09 5.62999C80.63 5.16999 76.69 7.70999 73.19 11.38C71.39 13.27 68.33 16.55 66.54 21.72C65.28 25.34 65 28.9 65.22 28.95C65.39 28.99 65.81 26.79 66.81 24.36C67.37 23 68.77 19.95 75.16 13.45C77.32 11.25 80.22 8.48999 83.85 5.49999L83.86 5.48999Z" fill="url(#paint13_linear_302_4)"/>
<path d="M112.44 16.02C112.44 16.1 112.44 16.23 112.44 16.38C112.44 26.22 115.46 33.53 116.34 35.55C118.35 40.12 120.62 43.17 120.71 43.12C120.8 43.07 118.81 39.94 117.35 35.54C116.2 32.06 115.78 29.03 115.62 26.96C114.56 23.31 113.5 19.67 112.44 16.02Z" fill="url(#paint14_linear_302_4)"/>
<path d="M77.99 18.6201C79.08 16.8601 80.16 15.1101 81.25 13.3501C83.5 12.4501 86.48 11.6701 90.04 11.8101C102.03 12.2701 110.34 22.73 111.83 24.67C111.13 26.19 110.42 27.7101 109.72 29.2401C107.58 26.8801 103.67 23.1501 97.95 20.5701C96.1 19.7301 91.91 18.0501 86.46 17.7901C82.93 17.6201 80.03 18.1101 77.99 18.6201Z" fill="#A93FA9"/>
<path d="M90.97 11.2C90.05 11.72 88.86 12.21 87.98 11.74C86.86 11.14 87.06 9.43998 86.21 9.19998C85.36 8.95998 84.23 10.4 83.23 11.76C81.41 14.24 80.51 15.47 79.12 17.93C75.69 24.03 67.61 25.57 67.72 25.8C67.81 25.99 73.23 24.42 79.39 20.39C82.85 18.13 85.41 15.83 85.7 16.14C85.99 16.45 83.73 18.99 83.51 19.23C82.4 20.47 80.68 22.36 77.9 23.74C76.35 24.51 75.24 24.73 75.27 24.81C75.31 24.93 78.05 24.58 80.8 23.16C83.13 21.96 84.5 20.48 85.88 18.96C87.31 17.39 89.3 14.85 90.95 11.2H90.97Z" fill="url(#paint15_linear_302_4)"/>
<path d="M101.67 13.5899C100.78 13.5099 99.8 17.0699 99.24 19.1299C98.57 21.6099 97.31 26.91 97.29 35.15C97.28 39.2 97.58 41.0499 98.49 42.9699C99.4 44.8799 100.61 46.2199 101.5 47.0499C100.96 46.2399 100.25 45.0399 99.69 43.4699C99.12 41.8899 98.73 40.0399 98.76 35.9099C98.78 32.8999 98.81 29.65 99.73 25.33C100.26 22.86 101.15 19.6999 102.72 16.2099C102.52 14.9999 102.19 13.6499 101.66 13.5999L101.67 13.5899Z" fill="url(#paint16_linear_302_4)"/>
<path d="M80.46 37.2501C81.72 37.1001 82.61 37.3401 83.2 37.5901C85.21 38.4401 85.76 40.3501 87.3 40.2701C87.45 40.2701 88 40.2301 88.35 39.8201C88.89 39.1901 88.52 38.1701 88.48 38.0801C86.26 37.4101 84.03 36.7301 81.81 36.0601C81.75 36.0601 81.18 36.0001 80.77 36.4401C80.47 36.7701 80.46 37.1601 80.46 37.2601V37.2501Z" fill="#48423B"/>
<path d="M39.59 51.9001C40.01 49.5001 40.42 47.0901 40.84 44.6901C42.77 43.9001 44.25 43.0301 45.27 42.3501C47.77 40.6901 48.49 39.5701 48.84 38.8201C49.01 38.4601 49.67 37.0701 49.21 36.6301C48.75 36.1901 47.5 36.9901 45.47 38.0101C40.34 40.5901 39.03 40.1601 37.32 42.1301C36.73 42.8101 35.95 43.9401 35.46 45.7101C34.89 47.2201 34.35 48.8001 33.84 50.4701C32.24 55.7401 31.39 60.6701 30.96 65.0301C31.8 61.3101 33.32 59.3001 34.6 58.1501C35.6 57.2401 37.25 56.1501 38.63 53.8501C39.1 53.0601 39.41 52.3501 39.59 51.8801V51.9001Z" fill="url(#paint17_linear_302_4)" stroke="#1E0E00" stroke-width="0.25" stroke-miterlimit="10"/>
<path d="M67.51 127.46C69.73 126.79 70.4 125.81 70.6 125.03C71.2 122.62 67.5 120.64 65.22 114.52C63.95 111.12 63.31 109.4 63.97 107.75C64.93 105.35 67.53 105.87 71.4 101.95C72.61 100.72 73.19 99.82 73.53 99.22C74.17 98.09 75.39 95.96 75.13 93.24C74.96 91.45 74.21 89.96 73.49 88.53C72.69 86.94 72.43 86.98 72.2 86.2C71.58 84.04 72.86 81.2 74.62 79.6C77.72 76.78 81.18 78.84 82.82 76.24C83.97 74.42 83.28 71.82 83.21 71.58C81.13 64.04 58.83 57.08 48.4 66.64C47.64 67.34 47.22 67.96 46.35 69.12C44.97 70.96 39.04 79.26 37.81 94.93C36.97 105.54 39.33 106.37 38.05 115.16C37.01 122.32 34.57 127.81 32.65 131.34C38.25 130.21 43 129.38 46.61 128.78C52.92 127.74 55.32 127.5 57.51 127.37C61.62 127.13 65.06 127.28 67.49 127.47L67.51 127.46Z" fill="url(#paint18_linear_302_4)"/>
<path d="M47.8399 82.3102C45.2799 79.6802 37.0499 81.4502 34.6399 85.9802C32.5399 89.9102 36.3599 93.0602 37.9199 104.2C38.9699 111.71 38.0099 115.81 38.9299 115.97C39.3399 116.04 40.0699 115.33 46.0499 95.0502C48.6899 86.0902 49.2199 83.7302 47.8399 82.3102Z" fill="url(#paint19_linear_302_4)"/>
<path d="M29.7 76.78C28.65 77.13 18.65 80.44 10.71 83.48C10.26 83.65 7.75998 84.63 4.99998 86.65C2.04998 88.8 1.37998 90.25 1.18998 90.7C1.03998 91.06 0.81998 91.67 0.82998 95.59C0.83998 101.22 1.29998 102.69 1.48998 103.27C1.91998 104.54 2.61998 105.98 2.72998 106.2C3.06998 106.89 3.66998 108.13 4.16998 108.81C6.67998 112.22 13.6 111.14 13.91 111.09C16.44 110.67 18.25 109.64 19.47 108.95C20.39 108.43 22.24 107.37 24.03 105.47C24.68 104.78 24.82 104.52 25.66 103.68C27 102.36 27.72 101.97 28.76 101.05C29.7 100.22 29.6 100.1 31.63 97.74C34.41 94.48 34.92 94.32 36.04 92.66C37.09 91.1 38.09 89.33 38.09 89.33C38.24 89.07 38.36 88.86 38.43 88.71C37.04 87.77 35.12 86.24 33.35 83.93C31.24 81.19 30.22 78.51 29.7 76.77V76.78Z" fill="#5668FF"/>
<path d="M52.61 70.2801C50.78 67.9701 48.94 65.6501 47.11 63.3401C46.84 67.1001 46.87 72.9401 48.79 79.6801C50.81 86.7701 53.96 91.5001 56.47 95.1901C62.26 103.71 68.3 108.79 79.53 118.07C84.92 122.53 89.77 126.22 93.74 129.12C98.81 132.8 103.88 136.48 108.96 140.15C109.22 138.62 109.48 137.09 109.75 135.56C101.04 129.7 87.04 119.27 74.26 104.31C69.61 98.8701 61.83 89.6501 55.06 75.6501C54 73.4601 53.18 71.5901 52.62 70.2701L52.61 70.2801Z" fill="#422468"/>
<path d="M55.4 65.2901C54.53 65.0401 53.44 64.8001 52.17 64.7001C50.62 64.5801 49.28 64.7001 48.25 64.8701C48.34 66.6001 48.56 68.9801 49.09 71.7501C49.43 73.5201 51.01 81.3501 56.33 90.0601C61.28 98.1701 67.71 103.24 71.69 107.46C81.83 115.46 92.1 124.23 102.36 133.85C104.6 135.95 106.81 138.06 108.97 140.16C109.99 138.93 111.02 137.7 112.04 136.46C97.38 121.07 85.61 110.42 77.07 103.17C71.05 98.0601 63.02 91.5601 58.5 79.9701C56.22 74.1201 55.59 68.8501 55.42 65.2801L55.4 65.2901Z" fill="#4073F0"/>
<path d="M43.27 32.1801C41.41 42.2301 39.55 52.2802 37.69 62.3302C37.72 62.3402 39.18 63.0001 39.18 63.0001C39.18 63.0001 82.64 71.9302 82.67 71.9402C82.82 71.8802 83.2 71.7101 83.47 71.2901C83.86 70.6801 83.7 70.0401 83.67 69.9301C85.33 61.6801 86.98 53.4401 88.64 45.1901C88.74 44.6501 88.84 43.7701 88.62 42.7501C87.86 39.2201 84.03 37.6301 83.24 37.3001C82.37 36.9401 80.77 36.4101 78.61 36.5001C70.59 34.7201 62.56 32.9302 54.54 31.1502C53.55 30.5702 52.03 29.8801 50.11 29.7301C49.16 29.6501 46.14 29.4101 44.02 31.3701C43.69 31.6801 43.45 31.9701 43.29 32.1801H43.27Z" fill="#8B76F5"/>
<path d="M44.32 38.96C47.79 39.59 51.27 40.22 54.74 40.85C54.44 41.26 53.15 42.97 51.08 43.13C49.74 43.23 48.72 42.62 47.6 41.96C46.02 41.02 44.97 39.85 44.32 38.97V38.96Z" fill="#4C2A95"/>
<path d="M42.42 37.17C57.81 40.24 73.21 43.31 88.6 46.38C88.76 45.99 88.97 45.34 88.98 44.52C89 41.31 85.73 38.93 84.23 37.85C79.86 34.67 66.48 31.51 48.5 29.75C47.82 29.71 45.73 29.69 44.34 31.14C43.82 31.69 43.57 32.26 43.28 32.96C42.9 33.87 42.45 35.28 42.42 37.17Z" fill="#4C2A95"/>
<path d="M45.06 30.4502C45.12 30.8802 45.24 31.3301 45.42 31.8001C46.43 34.3101 48.91 35.3902 49.74 35.7002C50.22 35.5502 50.73 35.3701 51.25 35.1401C53.2 34.2701 54.6 33.0602 55.54 32.0602C55.68 31.8602 55.81 31.6601 55.95 31.4601C55.17 31.0401 54.07 30.5302 52.69 30.0802C51.17 29.5902 50 29.2501 48.48 29.3401C47.7 29.3801 46.5 29.5901 45.06 30.4401V30.4502Z" fill="url(#paint20_linear_302_4)"/>
<path d="M46.24 30.89C46.17 32.05 48.14 33.13 49.74 33.4C50.7 33.57 52.88 33.68 53.41 32.52C53.81 31.65 53.07 30.51 52.54 29.96C51.19 28.56 48.8 28.58 47.34 29.54C46.97 29.78 46.29 30.23 46.25 30.89H46.24Z" fill="url(#paint21_linear_302_4)"/>
<path d="M48.45 30.65C48.27 31.14 48.52 31.62 48.57 31.7C49.07 32.66 50.69 33.13 51.58 32.45C51.62 32.42 52.16 31.99 52.15 31.34C52.13 30.45 51.09 29.74 50.16 29.72C49.56 29.71 48.7 29.97 48.46 30.65H48.45Z" fill="#EDE8F7"/>
<path d="M48.2 32.1899C48.2 32.6399 48.21 33.0799 48.22 33.5299C48.32 33.7299 48.5299 34.0799 48.9199 34.3699C49.0999 34.5099 49.5899 34.8699 50.2799 34.8199C50.9399 34.7699 51.37 34.3799 51.5 34.2599L51.76 32.9799C51.49 33.0999 50.9199 33.3199 50.1999 33.2399C49.0699 33.1199 48.3799 32.3899 48.2099 32.1899H48.2Z" fill="url(#paint22_linear_302_4)"/>
<path d="M61.03 41.8101C61.71 40.4601 62.39 39.1101 63.08 37.7501C63.59 36.7601 64.09 35.98 64.48 35.42C65.55 33.9 66.09 33.5901 66.33 33.4701C66.96 33.1601 67.57 33.11 68.14 33.12C70.8 33.16 74.49 34.31 75.39 34.6C75.63 34.72 75.87 34.8701 76.11 35.0601C77.54 36.2001 77.81 37.99 77.87 38.67C77.9 39.28 77.93 39.8801 77.96 40.4901C78.03 41.9201 78.11 43.35 78.19 44.78C76.8 43.75 74.24 42.1401 70.63 41.3801C66.29 40.4701 62.73 41.29 61.02 41.8L61.03 41.8101Z" fill="url(#paint23_linear_302_4)"/>
<path d="M77.78 76.3601H78.57C78.59 76.5301 78.63 76.7701 78.68 77.0701C78.93 78.4101 79.22 78.7001 79.04 79.1101C78.84 79.5601 78.16 79.9101 77.59 79.6901C77.02 79.4801 76.87 78.8201 76.86 78.7701C77.16 77.9701 77.47 77.1701 77.77 76.3701L77.78 76.3601Z" fill="#310042"/>
<path d="M65.18 34.55C69.32 35.45 73.47 36.36 77.61 37.26C77.61 36.88 77.57 36.03 77.05 35.17C76.3 33.93 75.11 33.6 74.82 33.53L68.32 32.21C67.93 32.34 67.44 32.55 66.93 32.88C66.08 33.43 65.51 34.09 65.17 34.55H65.18Z" fill="#8B76F5"/>
<path d="M58.6 37.6301C59.1744 37.6301 59.64 37.1644 59.64 36.59C59.64 36.0157 59.1744 35.55 58.6 35.55C58.0256 35.55 57.56 36.0157 57.56 36.59C57.56 37.1644 58.0256 37.6301 58.6 37.6301Z" fill="#EDE8F7"/>
<path d="M67.16 67.9801C75.3448 67.9801 81.98 61.3449 81.98 53.1601C81.98 44.9752 75.3448 38.3401 67.16 38.3401C58.9751 38.3401 52.34 44.9752 52.34 53.1601C52.34 61.3449 58.9751 67.9801 67.16 67.9801Z" fill="url(#paint24_linear_302_4)"/>
<path d="M67.11 66.2201C74.1903 66.2201 79.93 60.4804 79.93 53.4001C79.93 46.3198 74.1903 40.5801 67.11 40.5801C60.0297 40.5801 54.29 46.3198 54.29 53.4001C54.29 60.4804 60.0297 66.2201 67.11 66.2201Z" fill="url(#paint25_linear_302_4)"/>
<path d="M67.16 62.1701C72.1361 62.1701 76.17 58.1362 76.17 53.1601C76.17 48.1841 72.1361 44.1501 67.16 44.1501C62.1839 44.1501 58.15 48.1841 58.15 53.1601C58.15 58.1362 62.1839 62.1701 67.16 62.1701Z" fill="url(#paint26_linear_302_4)"/>
<path d="M67.11 59.8599C70.6777 59.8599 73.57 56.9677 73.57 53.3999C73.57 49.8322 70.6777 46.9399 67.11 46.9399C63.5422 46.9399 60.65 49.8322 60.65 53.3999C60.65 56.9677 63.5422 59.8599 67.11 59.8599Z" fill="#EDE8F7"/>
<path d="M43.77 85.0401C43.87 84.3101 44.1 83.2401 44.72 82.1201C45.57 80.5801 46.51 80.1401 47.71 78.9601C48.48 78.2101 50.96 75.7901 51.24 72.6901C51.42 70.7201 50.65 69.1601 49.8 67.4401C48.42 64.6601 46.09 62.1301 46.07 62.1101C46.49 59.0401 47.14 58.4401 47.14 58.4401C47.37 58.2201 47.77 57.9401 48.46 57.8101C49.69 57.8301 50.57 58.1201 51.12 58.3601C52.52 58.9701 52.93 59.7501 54.15 59.8301C54.31 59.8401 55.46 59.9201 55.95 59.2801C56.52 58.5301 56.07 56.9201 54.62 55.4601C52.18 54.6301 49.73 53.7901 47.29 52.9601C43.56 56.0701 41.66 57.5801 41.58 57.4901C41.5 57.3901 43.5 55.4701 47.58 51.7201C48.66 51.8701 49.56 51.9101 50.17 51.9201C51.89 51.9401 55.3 51.9601 58.7 50.0801C59.48 49.6501 60.08 49.2201 60.42 48.9501C60.54 48.6901 60.66 48.3201 60.5 48.0201C60.14 47.3201 58.52 47.4901 57.9 47.5501C56.09 47.7201 53.32 47.8101 48.74 47.6501C47.51 48.0201 46.29 48.3901 45.06 48.7701C42.12 51.5501 39.17 54.3401 36.23 57.1201C38.95 53.9101 41.67 50.7001 44.4 47.5001C46.48 45.8001 48.34 45.0201 49.41 44.6601C50.19 44.3901 50.92 44.1401 51.96 44.0001C53.41 43.8001 53.89 44.0401 54.79 43.6901C55.88 43.2701 56.97 42.2301 56.8 41.6901C56.63 41.1401 55.03 40.7901 48.63 41.7601C47.43 42.0901 46.1 42.5501 44.7 43.1701C42.32 44.2201 40.4 45.4501 38.93 46.5601C36.1 51.1001 34.46 53.0701 33.46 53.9701C33.21 54.2001 32.38 54.9101 31.95 56.1101C31.65 56.9601 31.66 57.7401 31.7 58.2401C31.59 60.2601 31.48 62.2801 31.37 64.3101C34.65 69.1101 34.67 71.4001 33.94 72.6001C33.62 73.1301 33.3 73.1901 33.09 73.7701C32.24 76.0901 35.71 79.3101 37.24 80.7401C38.52 81.9301 40.64 83.6301 43.76 85.0401H43.77Z" fill="url(#paint27_linear_302_4)" stroke="#1E0E00" stroke-width="0.25" stroke-miterlimit="10"/>
<path d="M130.02 132.67C127.5 131.41 122.54 128.48 118.73 122.73C114.89 116.94 114.28 111.38 113.96 108.15C113.45 103.03 112.22 93.0001 118.78 85.2801C120.66 83.0601 123.68 79.5101 126.76 79.7601C131.49 80.1501 137.17 89.5301 141.87 127.5C137.92 129.22 133.97 130.95 130.02 132.67Z" fill="url(#paint28_linear_302_4)"/>
<path d="M33.95 72.6001C33.4 72.7401 32.57 73.0101 31.71 73.5801C31.53 73.7001 29.63 74.9801 29.01 76.8301C27.82 80.3801 31.92 84.2901 33.16 85.4801C34.94 87.1801 36.61 88.7701 38.8 88.6501C41.63 88.4901 44.28 85.5201 45.27 81.2901C44.56 81.5901 43.2 82.0501 41.54 81.8301C39 81.4901 37.46 79.7801 36.65 78.8801C34.52 76.5101 34.07 73.8001 33.95 72.6201V72.6001Z" fill="#003CAD"/>
<path d="M103.05 75.76C102.98 75.54 102.89 75.13 103.06 74.76C103.51 73.81 105.19 74.22 105.5 73.53C105.89 72.68 103.94 70.72 101.8 69.86C101.01 69.54 100.03 69.17 99.04 69.6C98.89 69.66 97.86 70.13 97.58 71.24C97.43 71.84 97.8 72.25 97.59 72.43C97.33 72.65 96.78 72.11 95.87 71.91C94.89 71.7 93.51 71.88 92.97 72.66C92.4 73.48 93.16 74.4 92.64 74.89C92 75.49 90.7 74.28 89.65 74.92C88.82 75.43 88.71 76.78 88.68 77.3C88.62 78.1 88.82 78.68 88.86 78.81C88.95 79.07 89.09 79.35 89.37 79.74C90.37 81.14 91.17 81.12 91.81 82.3C92.11 82.85 92.18 83.33 92.26 83.31C92.43 83.27 91.68 81.37 92.53 80.02C93.03 79.23 94.08 78.63 95.03 78.72C95.99 78.82 96.48 79.59 96.84 79.37C97.21 79.14 96.7 78.3 97.05 77.28C97.35 76.42 98.14 75.8 98.83 75.54C99.52 75.28 100.44 75.4 102.3 75.65C102.62 75.69 102.88 75.73 103.04 75.76H103.05Z" fill="#F9E0D1" stroke="#1E0E00" stroke-width="0.25" stroke-miterlimit="10"/>
<path d="M89.56 74.96C88.72 77.17 89.01 78.36 89.43 79.05C90.17 80.24 91.98 80.93 91.97 82.11C91.97 82.26 91.94 82.66 92.1 83.16C92.23 83.56 92.4 83.76 92.56 84.03C92.7 84.26 93.42 85.48 93 86.23C92.72 86.74 91.95 86.98 91.35 86.87C90.47 86.71 89.99 85.82 89.52 84.92C89.36 84.61 88.97 83.83 88.69 82.45C88.51 81.57 88.23 80.15 88.5 78.31C88.7 76.92 89.14 75.79 89.55 74.95L89.56 74.96Z" fill="url(#paint29_linear_302_4)"/>
<path d="M109.56 132.95C109.42 131.81 109.15 130.06 108.54 128C106.29 120.41 102.52 119.55 101.03 113.19C99.39 106.2 101.39 102.49 102.16 101.26C102.99 99.9301 103.62 98.9401 104.73 98.6901C108.94 97.7601 115.07 108.71 117.89 116.17C120.17 122.19 120.88 127.45 121.13 130.76C119.89 130.98 117.8 131.51 115.64 132.96C113.86 134.15 112.7 135.51 112.02 136.46L109.56 132.94V132.95Z" fill="url(#paint30_linear_302_4)"/>
<path d="M107.14 101.26C109.57 103.37 112.84 103.76 115.38 102.26C118.38 100.48 119.83 96.38 118.68 92.49C119.38 93.65 120.49 95.32 122.04 97.15C122.91 98.18 123.59 98.83 123.99 99.23C126.63 101.89 127.52 103.7 129.84 106.69C131.76 109.17 131.54 108.43 137.61 115.06C140.6 118.33 142.1 119.97 142.37 120.64C144.19 125.04 142.45 129.71 139.85 135.69C139 137.64 138.33 138.67 137.38 139.52C137.21 139.68 134.22 142.26 130.61 141.41C128.64 140.94 128.71 139.98 125.79 138.61C124.85 138.17 124.3 138.04 123.81 137.86C122.48 137.36 121.65 136.44 120.77 135.46C117.93 132.29 116.55 128.65 116.55 128.65C113.91 121.66 111.89 114.82 110.62 110.88C109.9 108.66 108.76 105.3 107.13 101.24L107.14 101.26Z" fill="#5668FF"/>
<path d="M105.87 98.3401C105.65 98.9701 105.26 100.32 105.52 102C105.82 103.99 106.89 105.51 107.81 106.3C111.16 109.16 117.21 106.16 120.13 101.94C120.78 100.99 121.69 99.7801 121.62 98.1401C121.52 95.7701 119.48 93.5501 116.44 92.3701C116.7 92.9401 117.1 94.0301 116.85 95.3101C116.31 98.0501 113.26 99.1201 112.73 99.3201C109.51 100.54 106.59 98.7901 105.88 98.3401H105.87Z" fill="#003CAD"/>
<path d="M90.8 82.7401C90.69 83.3401 90.87 83.8801 91.08 84.3001C92.01 86.2001 94.68 88.4701 94.68 88.4701C97.8 91.1201 96.64 91.8401 99.11 93.6001C101.95 95.6201 103.95 95.0001 105.2 97.1101C106.02 98.4901 105.42 99.1901 106.27 100.08C107.8 101.68 111.43 101.16 113.74 99.6201C114.01 99.4401 116.71 97.5701 116.87 94.7201C116.92 93.7201 116.64 92.9601 116.53 92.6401C114.36 86.5401 115.76 81.5101 112.09 74.2201C111.69 73.4301 111.92 73.9701 109.28 69.3301C107.43 66.0701 105.99 63.4701 105.71 62.9501C102.99 58.0301 102.41 55.6801 99.65 52.6901C97.9 50.7901 97.41 50.9001 97.27 50.9801C96.41 51.4401 97.83 55.8001 97.97 56.2201C98.34 57.3401 98.61 57.8701 99.2 59.2801C100.6 62.5801 100.44 62.7801 101.35 64.8901C103.19 69.1401 105.08 71.1801 104.3 72.1501C103.9 72.6401 103.19 72.3601 102.47 73.1701" fill="url(#paint31_linear_302_4)"/>
<path d="M90.8 82.7401C90.69 83.3401 90.87 83.8801 91.08 84.3001C92.01 86.2001 94.68 88.4701 94.68 88.4701C97.8 91.1201 96.64 91.8401 99.11 93.6001C101.95 95.6201 103.95 95.0001 105.2 97.1101C106.02 98.4901 105.42 99.1901 106.27 100.08C107.8 101.68 111.43 101.16 113.74 99.6201C114.01 99.4401 116.71 97.5701 116.87 94.7201C116.92 93.7201 116.64 92.9601 116.53 92.6401C114.36 86.5401 115.76 81.5101 112.09 74.2201C111.69 73.4301 111.92 73.9701 109.28 69.3301C107.43 66.0701 105.99 63.4701 105.71 62.9501C102.99 58.0301 102.41 55.6801 99.65 52.6901C97.9 50.7901 97.41 50.9001 97.27 50.9801C96.41 51.4401 97.83 55.8001 97.97 56.2201C98.34 57.3401 98.61 57.8701 99.2 59.2801C100.6 62.5801 100.44 62.7801 101.35 64.8901C103.19 69.1401 105.08 71.1801 104.3 72.1501C103.9 72.6401 103.19 72.3601 102.47 73.1701" stroke="#1E0E00" stroke-width="0.25" stroke-miterlimit="10"/>
<path d="M43.53 69.83C39.11 69.23 34.69 68.63 30.27 68.03C30.85 75.39 31.44 82.75 32.02 90.1C29.17 82.95 26.32 75.79 23.47 68.64C20.5 71.43 17.53 74.23 14.56 77.02C16.9 73.27 19.23 69.53 21.57 65.78C18.47 64.41 15.37 63.05 12.26 61.68C15.38 61.3 18.5 60.93 21.62 60.55C19.15 56.13 16.69 51.7 14.22 47.28C18.01 50.78 21.8 54.28 25.6 57.78C27.17 52.95 28.74 48.12 30.3 43.29C30.28 48.37 30.26 53.45 30.24 58.54C32.8 58.21 35.35 57.88 37.91 57.55C36.5 59.5 35.09 61.45 33.68 63.4C36.96 65.55 40.25 67.69 43.53 69.84V69.83Z" fill="#CEFFEC"/>
<path d="M34.83 147.13C40.32 144.99 45.8 142.85 51.29 140.71C51.73 140.46 52.61 139.88 53.23 138.79C54.22 137.05 53.83 135.29 53.72 134.88C51.8 129.63 49.87 124.38 47.95 119.13C47.89 118.87 47.51 117.45 46.09 116.64C44.38 115.66 42.65 116.4 42.47 116.48C37.23 118 31.98 119.52 26.74 121.04C26.58 121.05 24.5 121.27 23.46 123.16C22.52 124.88 23.22 126.58 23.3 126.78C25.17 132.56 27.04 138.34 28.91 144.12C28.96 144.32 29.57 146.48 31.7 147.23C33.18 147.75 34.47 147.27 34.82 147.13H34.83Z" fill="black" stroke="#00ACE9" stroke-miterlimit="10"/>
<path d="M34.6725 137.113L29.9401 123.251L31.6187 122.678L35.8427 135.051L42.2862 132.851L42.7946 134.34L34.6725 137.113ZM45.1771 133.526L41.6278 123.13L43.171 122.603L43.7071 124.174L43.8154 124.137C43.8293 123.558 44.0297 123.023 44.4167 122.533C44.8036 122.043 45.3085 121.692 45.9312 121.48C46.0485 121.44 46.1959 121.392 46.3734 121.336C46.5509 121.281 46.6864 121.242 46.7797 121.22L47.3343 122.845C47.2755 122.85 47.1445 122.872 46.9412 122.911C46.7409 122.944 46.5347 122.997 46.3226 123.069C45.8173 123.242 45.4022 123.502 45.0776 123.849C44.7559 124.191 44.5431 124.586 44.4393 125.035C44.3385 125.477 44.3682 125.933 44.5284 126.402L46.7744 132.981L45.1771 133.526Z" fill="#00B4F1"/>
<path d="M103.62 14.5901C103.27 16.6801 102.94 19.6201 103.06 23.1401C103.37 32.3101 106.55 39.0801 106.65 39.0501C106.73 39.0301 104.7 34.9401 104.71 28.9901C104.71 26.0301 105.22 24.9101 105.05 21.7701C104.87 18.6901 104.18 16.2101 103.63 14.5901H103.62Z" fill="url(#paint32_linear_302_4)"/>
<path d="M107.44 18.53C106.61 20.24 104.89 24.39 105.64 29.66C106.23 33.83 108.09 36.68 108.65 37.5C110.23 39.8 112.03 41.27 113.25 42.12C112.12 41.25 110.6 39.72 110.32 37.61C110.2 36.73 110.32 35.79 110.49 35.77C110.72 35.74 110.78 37.26 111.87 38.62C112.82 39.8 114.15 40.35 114.25 40.22C114.36 40.08 112.99 39.23 112.04 37.55C111.47 36.55 111.24 35.58 111.01 33.51C110.54 29.18 110.64 25.48 110.73 22.99C110.78 21.5 110.84 20.28 110.88 19.53C110.36 20.41 109.84 21.29 109.31 22.17C108.69 20.96 108.06 19.75 107.44 18.54V18.53Z" fill="url(#paint33_linear_302_4)"/>
<path d="M94.91 46.03C95.0591 46.03 95.18 45.9091 95.18 45.76C95.18 45.6109 95.0591 45.49 94.91 45.49C94.7608 45.49 94.64 45.6109 94.64 45.76C94.64 45.9091 94.7608 46.03 94.91 46.03Z" fill="url(#paint34_linear_302_4)"/>
<path d="M97.06 44.54C97.2091 44.54 97.33 44.4191 97.33 44.27C97.33 44.1209 97.2091 44 97.06 44C96.9109 44 96.79 44.1209 96.79 44.27C96.79 44.4191 96.9109 44.54 97.06 44.54Z" fill="url(#paint35_linear_302_4)"/>
<path d="M100.08 47.58C100.229 47.58 100.35 47.4592 100.35 47.31C100.35 47.1609 100.229 47.04 100.08 47.04C99.9309 47.04 99.81 47.1609 99.81 47.31C99.81 47.4592 99.9309 47.58 100.08 47.58Z" fill="url(#paint36_linear_302_4)"/>
<path d="M101.18 43.81C101.268 43.81 101.34 43.7384 101.34 43.65C101.34 43.5616 101.268 43.49 101.18 43.49C101.092 43.49 101.02 43.5616 101.02 43.65C101.02 43.7384 101.092 43.81 101.18 43.81Z" fill="url(#paint37_linear_302_4)"/>
<path d="M89.24 42.4001C89.3283 42.4001 89.4 42.3284 89.4 42.2401C89.4 42.1517 89.3283 42.0801 89.24 42.0801C89.1516 42.0801 89.08 42.1517 89.08 42.2401C89.08 42.3284 89.1516 42.4001 89.24 42.4001Z" fill="url(#paint38_linear_302_4)"/>
<path d="M92.88 43.7101C92.9683 43.7101 93.04 43.6385 93.04 43.5501C93.04 43.4618 92.9683 43.3901 92.88 43.3901C92.7916 43.3901 92.72 43.4618 92.72 43.5501C92.72 43.6385 92.7916 43.7101 92.88 43.7101Z" fill="url(#paint39_linear_302_4)"/>
<path d="M90.64 41.3801C90.7283 41.3801 90.8 41.3084 90.8 41.2201C90.8 41.1317 90.7283 41.0601 90.64 41.0601C90.5516 41.0601 90.48 41.1317 90.48 41.2201C90.48 41.3084 90.5516 41.3801 90.64 41.3801Z" fill="url(#paint40_linear_302_4)"/>
<path d="M33.95 73.1401C35.58 75.3201 38.0699 77.8301 41.3499 78.1201C45.6799 78.5001 49.2499 74.8001 49.8399 75.5401C50.2899 76.1101 48.4099 78.5101 46.6199 80.0501C45.6099 80.9201 45.0199 81.4201 44.0999 81.7101C41.2399 82.6201 37.9799 80.6301 36.2599 78.6501C34.4899 76.6201 34.0799 74.3001 33.9599 73.1401H33.95Z" fill="url(#paint41_linear_302_4)"/>
<path d="M94.45 76.5002C95.98 78.2702 96.35 78.3102 96.54 78.2502C96.89 78.1302 96.74 77.6302 97.35 76.6902C97.61 76.2902 97.9 75.8401 98.43 75.5601C99.18 75.1601 99.79 75.4402 99.89 75.1802C100.01 74.8702 99.28 74.2902 98.48 73.6502C97.85 73.1502 97.5 72.8902 97.27 72.7502C96.9 72.5202 96.56 72.3502 96.29 72.2402C95.96 72.1102 95.38 71.9401 94.67 71.9901C94.14 72.0201 93.54 72.0702 93.13 72.4802C92.47 73.1502 92.9 74.4902 92.96 74.6602C93.3 75.1202 93.8 75.7602 94.44 76.5002H94.45Z" fill="url(#paint42_linear_302_4)"/>
<path opacity="0.74" d="M89.57 79.5801C90.15 80.7001 91.03 81.2301 91.41 81.4301C91.48 81.0201 91.74 79.8501 92.72 78.9901C93.5 78.3001 94.39 78.1201 94.54 78.0901C95.34 77.9301 95.85 78.1301 95.92 77.9501C96 77.7301 95.25 77.5101 94.27 76.5201C93.83 76.0801 93.57 75.7101 92.98 75.4701C92.68 75.3501 92.42 75.3101 92.23 75.2901C92.05 75.1401 91.56 74.7901 90.84 74.7701C90.6 74.7701 89.85 74.7401 89.32 75.3001C88.8 75.8501 88.69 76.7801 89.05 77.6101C89.07 78.0401 89.15 78.7901 89.56 79.5801H89.57Z" fill="url(#paint43_linear_302_4)"/>
<path d="M91.52 80.6201C91.66 79.4601 92.54 78.8401 92.77 78.6801C94.18 77.6901 96.57 77.8001 97.14 78.9201C97.59 79.8101 96.76 81.1201 96.13 81.7501C95 82.8701 92.93 83.4501 92 82.5101C91.36 81.8701 91.5 80.7701 91.52 80.6201Z" fill="url(#paint44_linear_302_4)"/>
<path d="M96.54 78.0001C96.63 76.6901 97.54 76.0301 97.78 75.8601C99.24 74.8101 101.82 75.0601 102.48 76.3601C103.01 77.4001 102.19 78.8401 101.54 79.5301C100.39 80.7501 98.2 81.3001 97.15 80.1801C96.43 79.4201 96.52 78.1801 96.53 78.0101L96.54 78.0001Z" fill="url(#paint45_linear_302_4)"/>
<path d="M99.46 74.0302C100.65 75.3202 101.14 75.9102 101.55 75.7802C101.9 75.6602 101.75 75.1602 102.36 74.2202C102.62 73.8202 102.91 73.3702 103.44 73.0902C104.19 72.6902 104.8 72.9702 104.9 72.7102C105.02 72.4002 104.29 71.8202 103.49 71.1802C102.81 70.6302 102.42 70.3702 102.28 70.2802C101.85 70.0102 101.45 69.8202 101.13 69.6902C100.87 69.5902 100.34 69.4302 99.68 69.5202C99.41 69.5602 98.8 69.6402 98.3 70.1002C97.5 70.8402 97.61 71.9602 97.63 72.1202C98.06 72.5602 98.69 73.2202 99.45 74.0402L99.46 74.0302Z" fill="url(#paint46_linear_302_4)"/>
<path d="M100.65 73.7601C100.75 72.5901 101.57 71.9901 101.79 71.8401C103.12 70.8901 105.44 71.0801 106.04 72.2401C106.51 73.1601 105.75 74.4501 105.16 75.0701C104.11 76.1701 102.13 76.6801 101.18 75.6901C100.54 75.0201 100.63 73.9101 100.64 73.7601H100.65Z" fill="url(#paint47_linear_302_4)"/>
<path d="M102.28 94.53C103.7 95.67 105.66 96.83 108.06 96.97C112.83 97.26 116.06 93.35 116.86 94.16C117.54 94.85 115.99 98.47 112.95 100.09C110.77 101.26 107.5 101.56 106.27 100.09C105.49 99.16 106.07 98.15 105.16 96.69C104.41 95.49 103.21 94.87 102.28 94.53Z" fill="url(#paint48_linear_302_4)"/>
</g>
<defs>
<linearGradient id="paint0_linear_302_4" x1="19.03" y1="95.3301" x2="148.45" y2="95.3301" gradientUnits="userSpaceOnUse">
<stop/>
<stop offset="0.39" stop-color="#011242"/>
</linearGradient>
<linearGradient id="paint1_linear_302_4" x1="32.745" y1="98.6747" x2="132.881" y2="99.5486" gradientUnits="userSpaceOnUse">
<stop offset="0.54" stop-color="#BA4ACA"/>
<stop offset="0.88" stop-color="#9830E3"/>
</linearGradient>
<linearGradient id="paint2_linear_302_4" x1="88.1593" y1="65.713" x2="100.602" y2="63.168" gradientUnits="userSpaceOnUse">
<stop offset="0.04" stop-color="#4073F0"/>
<stop offset="0.98" stop-color="#002B62"/>
</linearGradient>
<linearGradient id="paint3_linear_302_4" x1="86.55" y1="69.1199" x2="86.55" y2="57.0899" gradientUnits="userSpaceOnUse">
<stop offset="0.14" stop-color="#E1BCA2"/>
<stop offset="0.25" stop-color="#D6B29B"/>
<stop offset="0.43" stop-color="#BA9789"/>
<stop offset="0.67" stop-color="#8D6D6B"/>
<stop offset="0.78" stop-color="#75575C"/>
</linearGradient>
<linearGradient id="paint4_linear_302_4" x1="85.0984" y1="45.1593" x2="89.9088" y2="44.1754" gradientUnits="userSpaceOnUse">
<stop offset="0.14" stop-color="#F1D1C2"/>
<stop offset="0.31" stop-color="#ECC6B8"/>
<stop offset="0.59" stop-color="#E0AA9D"/>
<stop offset="0.78" stop-color="#D89589"/>
</linearGradient>
<linearGradient id="paint5_linear_302_4" x1="86.7914" y1="37.168" x2="88.8977" y2="36.7372" gradientUnits="userSpaceOnUse">
<stop offset="0.14" stop-color="#F9E0D1"/>
<stop offset="0.23" stop-color="#F0D5C7"/>
<stop offset="0.38" stop-color="#D9B9AD"/>
<stop offset="0.58" stop-color="#B48C84"/>
<stop offset="0.61" stop-color="#AE847D"/>
<stop offset="0.94" stop-color="#6B5A62"/>
</linearGradient>
<linearGradient id="paint6_linear_302_4" x1="90.6225" y1="33.7918" x2="98.3231" y2="32.2167" gradientUnits="userSpaceOnUse">
<stop offset="0.14" stop-color="#F9E0D1"/>
<stop offset="0.23" stop-color="#F0D5C7"/>
<stop offset="0.38" stop-color="#D9B9AD"/>
<stop offset="0.58" stop-color="#B48C84"/>
<stop offset="0.61" stop-color="#AE847D"/>
<stop offset="0.94" stop-color="#6B5A62"/>
</linearGradient>
<linearGradient id="paint7_linear_302_4" x1="96.0053" y1="35.0078" x2="104.294" y2="33.3125" gradientUnits="userSpaceOnUse">
<stop offset="0.14" stop-color="#F9E0D1"/>
<stop offset="0.23" stop-color="#F0D5C7"/>
<stop offset="0.38" stop-color="#D9B9AD"/>
<stop offset="0.58" stop-color="#B48C84"/>
<stop offset="0.61" stop-color="#AE847D"/>
<stop offset="0.94" stop-color="#6B5A62"/>
</linearGradient>
<linearGradient id="paint8_linear_302_4" x1="75.2583" y1="38.2204" x2="84.1247" y2="36.4068" gradientUnits="userSpaceOnUse">
<stop offset="0.14" stop-color="#F9E0D1"/>
<stop offset="0.23" stop-color="#F0D5C7"/>
<stop offset="0.38" stop-color="#D9B9AD"/>
<stop offset="0.58" stop-color="#B48C84"/>
<stop offset="0.61" stop-color="#AE847D"/>
<stop offset="0.94" stop-color="#6B5A62"/>
</linearGradient>
<linearGradient id="paint9_linear_302_4" x1="92.0872" y1="53.1743" x2="95.2883" y2="52.5602" gradientUnits="userSpaceOnUse">
<stop offset="0.14" stop-color="#E1BCA2"/>
<stop offset="0.44" stop-color="#D9B1A0"/>
<stop offset="0.94" stop-color="#C5959A"/>
<stop offset="1" stop-color="#C3929A"/>
</linearGradient>
<linearGradient id="paint10_linear_302_4" x1="75.2383" y1="32.2841" x2="85.8486" y2="30.1138" gradientUnits="userSpaceOnUse">
<stop offset="0.14" stop-color="#F9E0D1"/>
<stop offset="0.23" stop-color="#F0D5C7"/>
<stop offset="0.38" stop-color="#D9B9AD"/>
<stop offset="0.58" stop-color="#B48C84"/>
<stop offset="0.61" stop-color="#AE847D"/>
<stop offset="0.94" stop-color="#6B5A62"/>
</linearGradient>
<linearGradient id="paint11_linear_302_4" x1="94.905" y1="38.1772" x2="109.644" y2="47.9197" gradientUnits="userSpaceOnUse">
<stop offset="0.14" stop-color="#F9E0D1"/>
<stop offset="0.3" stop-color="#F8D5CE"/>
<stop offset="0.58" stop-color="#F7B9C9"/>
<stop offset="0.93" stop-color="#F58CBF"/>
<stop offset="1" stop-color="#F583BE"/>
</linearGradient>
<linearGradient id="paint12_linear_302_4" x1="84.28" y1="46.6601" x2="106.08" y2="8.90006" gradientUnits="userSpaceOnUse">
<stop offset="0.26" stop-color="#183474"/>
<stop offset="0.36" stop-color="#16397E"/>
<stop offset="0.53" stop-color="#11499A"/>
<stop offset="0.75" stop-color="#0962C8"/>
<stop offset="0.98" stop-color="#0080FF"/>
</linearGradient>
<linearGradient id="paint13_linear_302_4" x1="74.51" y1="5.48999" x2="74.51" y2="28.94" gradientUnits="userSpaceOnUse">
<stop offset="0.21" stop-color="#0061ED"/>
<stop offset="0.3" stop-color="#0A6AED"/>
<stop offset="0.45" stop-color="#2684EF"/>
<stop offset="0.65" stop-color="#54ADF2"/>
<stop offset="0.89" stop-color="#92E6F6"/>
<stop offset="0.91" stop-color="#9AEDF7"/>
</linearGradient>
<linearGradient id="paint14_linear_302_4" x1="112.44" y1="29.57" x2="120.72" y2="29.57" gradientUnits="userSpaceOnUse">
<stop offset="0.21" stop-color="#0075ED"/>
<stop offset="0.29" stop-color="#0A7CED"/>
<stop offset="0.43" stop-color="#268FEF"/>
<stop offset="0.61" stop-color="#54AFF1"/>
<stop offset="0.83" stop-color="#92DBF5"/>
<stop offset="0.91" stop-color="#ACEDF7"/>
</linearGradient>
<linearGradient id="paint15_linear_302_4" x1="79.35" y1="9.16998" x2="79.35" y2="25.82" gradientUnits="userSpaceOnUse">
<stop offset="0.21" stop-color="#0064ED"/>
<stop offset="0.29" stop-color="#0A6CED"/>
<stop offset="0.43" stop-color="#2682EF"/>
<stop offset="0.61" stop-color="#54A7F1"/>
<stop offset="0.83" stop-color="#92D9F5"/>
<stop offset="0.91" stop-color="#ACEDF7"/>
</linearGradient>
<linearGradient id="paint16_linear_302_4" x1="100.01" y1="13.5899" x2="100.01" y2="47.0399" gradientUnits="userSpaceOnUse">
<stop offset="0.21" stop-color="#0075ED"/>
<stop offset="0.29" stop-color="#0A7CED"/>
<stop offset="0.43" stop-color="#268FEF"/>
<stop offset="0.61" stop-color="#54AFF1"/>
<stop offset="0.83" stop-color="#92DBF5"/>
<stop offset="0.91" stop-color="#ACEDF7"/>
</linearGradient>
<linearGradient id="paint17_linear_302_4" x1="30.97" y1="50.7801" x2="49.38" y2="50.7801" gradientUnits="userSpaceOnUse">
<stop offset="0.26" stop-color="#F1D1C2"/>
<stop offset="0.33" stop-color="#E8C6B8"/>
<stop offset="0.46" stop-color="#D2AAA0"/>
<stop offset="0.51" stop-color="#C99E95"/>
</linearGradient>
<linearGradient id="paint18_linear_302_4" x1="74.3577" y1="121.572" x2="34.0927" y2="80.8557" gradientUnits="userSpaceOnUse">
<stop offset="0.04" stop-color="#4073F0"/>
<stop offset="0.98" stop-color="#131BA9"/>
</linearGradient>
<linearGradient id="paint19_linear_302_4" x1="48.9548" y1="103.588" x2="31.5293" y2="89.737" gradientUnits="userSpaceOnUse">
<stop stop-color="#3866D7"/>
<stop offset="0.76" stop-color="#010350"/>
</linearGradient>
<linearGradient id="paint20_linear_302_4" x1="45.06" y1="32.5202" x2="55.94" y2="32.5202" gradientUnits="userSpaceOnUse">
<stop/>
<stop offset="0.39" stop-color="#011242"/>
</linearGradient>
<linearGradient id="paint21_linear_302_4" x1="46.24" y1="31.19" x2="53.52" y2="31.19" gradientUnits="userSpaceOnUse">
<stop/>
<stop offset="0.39" stop-color="#011242"/>
</linearGradient>
<linearGradient id="paint22_linear_302_4" x1="48.2" y1="33.5099" x2="51.76" y2="33.5099" gradientUnits="userSpaceOnUse">
<stop/>
<stop offset="0.39" stop-color="#011242"/>
</linearGradient>
<linearGradient id="paint23_linear_302_4" x1="61.03" y1="38.96" x2="78.2" y2="38.96" gradientUnits="userSpaceOnUse">
<stop/>
<stop offset="0.39" stop-color="#000042"/>
</linearGradient>
<linearGradient id="paint24_linear_302_4" x1="52.33" y1="53.1601" x2="81.99" y2="53.1601" gradientUnits="userSpaceOnUse">
<stop offset="0.04" stop-color="#381392"/>
<stop offset="0.69" stop-color="#07003B"/>
<stop offset="1"/>
</linearGradient>
<linearGradient id="paint25_linear_302_4" x1="54.29" y1="53.4001" x2="79.94" y2="53.4001" gradientUnits="userSpaceOnUse">
<stop/>
<stop offset="0.57" stop-color="#1D407D"/>
</linearGradient>
<linearGradient id="paint26_linear_302_4" x1="58.15" y1="-8.99984" x2="76.18" y2="-8.99984" gradientUnits="userSpaceOnUse">
<stop offset="0.04" stop-color="#381392"/>
<stop offset="0.69" stop-color="#07003B"/>
<stop offset="1"/>
</linearGradient>
<linearGradient id="paint27_linear_302_4" x1="31.38" y1="63.1001" x2="60.58" y2="63.1001" gradientUnits="userSpaceOnUse">
<stop offset="0.04" stop-color="#F1D1C2"/>
<stop offset="0.26" stop-color="#F1D1C2"/>
<stop offset="0.67" stop-color="#F7C6BE"/>
<stop offset="0.98" stop-color="#FFBBBB"/>
</linearGradient>
<linearGradient id="paint28_linear_302_4" x1="113.868" y1="109.111" x2="138.194" y2="104.136" gradientUnits="userSpaceOnUse">
<stop offset="0.25" stop-color="#4073F0"/>
<stop offset="1" stop-color="#131BA9"/>
</linearGradient>
<linearGradient id="paint29_linear_302_4" x1="88.39" y1="80.93" x2="93.13" y2="80.93" gradientUnits="userSpaceOnUse">
<stop offset="0.07" stop-color="#F1D1C2"/>
<stop offset="0.23" stop-color="#E7C6B9"/>
<stop offset="0.51" stop-color="#CDAAA1"/>
<stop offset="0.88" stop-color="#A37D7A"/>
<stop offset="0.98" stop-color="#966E6E"/>
</linearGradient>
<linearGradient id="paint30_linear_302_4" x1="100.4" y1="117.55" x2="121.13" y2="117.55" gradientUnits="userSpaceOnUse">
<stop offset="0.19" stop-color="#AD3BDB"/>
<stop offset="0.26" stop-color="#A43AD0"/>
<stop offset="0.53" stop-color="#8938B2"/>
<stop offset="0.76" stop-color="#78379F"/>
<stop offset="0.92" stop-color="#733799"/>
</linearGradient>
<linearGradient id="paint31_linear_302_4" x1="103.82" y1="101.07" x2="103.82" y2="50.9601" gradientUnits="userSpaceOnUse">
<stop offset="0.04" stop-color="#F1D1C2"/>
<stop offset="0.74" stop-color="#F1D1C2"/>
<stop offset="0.88" stop-color="#F7C6BE"/>
<stop offset="0.98" stop-color="#FFBBBB"/>
</linearGradient>
<linearGradient id="paint32_linear_302_4" x1="103.03" y1="26.8201" x2="106.65" y2="26.8201" gradientUnits="userSpaceOnUse">
<stop offset="0.21" stop-color="#0075ED"/>
<stop offset="0.29" stop-color="#0A7CED"/>
<stop offset="0.43" stop-color="#268FEF"/>
<stop offset="0.61" stop-color="#54AFF1"/>
<stop offset="0.83" stop-color="#92DBF5"/>
<stop offset="0.91" stop-color="#ACEDF7"/>
</linearGradient>
<linearGradient id="paint33_linear_302_4" x1="106.39" y1="38.91" x2="114.62" y2="21.25" gradientUnits="userSpaceOnUse">
<stop offset="0.03" stop-color="#ACEDF7"/>
<stop offset="0.05" stop-color="#A1E4F6"/>
<stop offset="0.16" stop-color="#76C3F3"/>
<stop offset="0.27" stop-color="#52A7F1"/>
<stop offset="0.39" stop-color="#3490F0"/>
<stop offset="0.52" stop-color="#1D7EEE"/>
<stop offset="0.65" stop-color="#0C71ED"/>
<stop offset="0.8" stop-color="#036AED"/>
<stop offset="0.99" stop-color="#0068ED"/>
</linearGradient>
<linearGradient id="paint34_linear_302_4" x1="94.64" y1="45.76" x2="95.18" y2="45.76" gradientUnits="userSpaceOnUse">
<stop offset="0.26" stop-color="#183474"/>
<stop offset="0.36" stop-color="#16397E"/>
<stop offset="0.53" stop-color="#11499A"/>
<stop offset="0.75" stop-color="#0962C8"/>
<stop offset="0.98" stop-color="#0080FF"/>
</linearGradient>
<linearGradient id="paint35_linear_302_4" x1="96.79" y1="44.27" x2="97.33" y2="44.27" gradientUnits="userSpaceOnUse">
<stop offset="0.26" stop-color="#183474"/>
<stop offset="0.36" stop-color="#16397E"/>
<stop offset="0.53" stop-color="#11499A"/>
<stop offset="0.75" stop-color="#0962C8"/>
<stop offset="0.98" stop-color="#0080FF"/>
</linearGradient>
<linearGradient id="paint36_linear_302_4" x1="99.81" y1="47.31" x2="100.35" y2="47.31" gradientUnits="userSpaceOnUse">
<stop offset="0.26" stop-color="#183474"/>
<stop offset="0.36" stop-color="#16397E"/>
<stop offset="0.53" stop-color="#11499A"/>
<stop offset="0.75" stop-color="#0962C8"/>
<stop offset="0.98" stop-color="#0080FF"/>
</linearGradient>
<linearGradient id="paint37_linear_302_4" x1="101.03" y1="43.65" x2="101.34" y2="43.65" gradientUnits="userSpaceOnUse">
<stop offset="0.26" stop-color="#183474"/>
<stop offset="0.36" stop-color="#16397E"/>
<stop offset="0.53" stop-color="#11499A"/>
<stop offset="0.75" stop-color="#0962C8"/>
<stop offset="0.98" stop-color="#0080FF"/>
</linearGradient>
<linearGradient id="paint38_linear_302_4" x1="89.09" y1="42.2401" x2="89.4" y2="42.2401" gradientUnits="userSpaceOnUse">
<stop offset="0.26" stop-color="#183474"/>
<stop offset="0.36" stop-color="#16397E"/>
<stop offset="0.53" stop-color="#11499A"/>
<stop offset="0.75" stop-color="#0962C8"/>
<stop offset="0.98" stop-color="#0080FF"/>
</linearGradient>
<linearGradient id="paint39_linear_302_4" x1="92.72" y1="43.5501" x2="93.04" y2="43.5501" gradientUnits="userSpaceOnUse">
<stop offset="0.26" stop-color="#183474"/>
<stop offset="0.36" stop-color="#16397E"/>
<stop offset="0.53" stop-color="#11499A"/>
<stop offset="0.75" stop-color="#0962C8"/>
<stop offset="0.98" stop-color="#0080FF"/>
</linearGradient>
<linearGradient id="paint40_linear_302_4" x1="90.48" y1="41.2201" x2="90.79" y2="41.2201" gradientUnits="userSpaceOnUse">
<stop offset="0.26" stop-color="#183474"/>
<stop offset="0.36" stop-color="#16397E"/>
<stop offset="0.53" stop-color="#11499A"/>
<stop offset="0.75" stop-color="#0962C8"/>
<stop offset="0.98" stop-color="#0080FF"/>
</linearGradient>
<linearGradient id="paint41_linear_302_4" x1="41.9299" y1="73.1401" x2="41.9299" y2="81.9401" gradientUnits="userSpaceOnUse">
<stop offset="0.26" stop-color="#F1D1C2"/>
<stop offset="0.39" stop-color="#E7C6B9"/>
<stop offset="0.61" stop-color="#CDAAA1"/>
<stop offset="0.9" stop-color="#A37D7A"/>
<stop offset="0.98" stop-color="#966E6E"/>
</linearGradient>
<linearGradient id="paint42_linear_302_4" x1="96.7748" y1="75.9528" x2="89.699" y2="73.7272" gradientUnits="userSpaceOnUse">
<stop offset="0.26" stop-color="#F1D1C2"/>
<stop offset="0.48" stop-color="#EDC6B7"/>
<stop offset="0.87" stop-color="#E6AB9C"/>
</linearGradient>
<linearGradient id="paint43_linear_302_4" x1="96.8112" y1="79.5226" x2="89.9065" y2="77.3601" gradientUnits="userSpaceOnUse">
<stop offset="0.26" stop-color="#F1D1C2"/>
<stop offset="0.48" stop-color="#EDC6B7"/>
<stop offset="0.87" stop-color="#E6AB9C"/>
</linearGradient>
<linearGradient id="paint44_linear_302_4" x1="94.4668" y1="77.7845" x2="94.9734" y2="82.5694" gradientUnits="userSpaceOnUse">
<stop offset="0.09" stop-color="#F6C0B6"/>
<stop offset="0.48" stop-color="#F6CABE"/>
<stop offset="1" stop-color="#F9E0D1"/>
</linearGradient>
<linearGradient id="paint45_linear_302_4" x1="99.7354" y1="75.3194" x2="100.07" y2="80.8272" gradientUnits="userSpaceOnUse">
<stop offset="0.09" stop-color="#F6C0B6"/>
<stop offset="0.48" stop-color="#F6CABE"/>
<stop offset="1" stop-color="#F9E0D1"/>
</linearGradient>
<linearGradient id="paint46_linear_302_4" x1="101.836" y1="73.5144" x2="94.7903" y2="71.2984" gradientUnits="userSpaceOnUse">
<stop offset="0.26" stop-color="#F1D1C2"/>
<stop offset="0.48" stop-color="#EDC6B7"/>
<stop offset="0.87" stop-color="#E6AB9C"/>
</linearGradient>
<linearGradient id="paint47_linear_302_4" x1="103.473" y1="71.2748" x2="103.819" y2="76.1777" gradientUnits="userSpaceOnUse">
<stop offset="0.09" stop-color="#F6C0B6"/>
<stop offset="0.48" stop-color="#F6CABE"/>
<stop offset="1" stop-color="#F9E0D1"/>
</linearGradient>
<linearGradient id="paint48_linear_302_4" x1="109.914" y1="93.0232" x2="108.684" y2="101.09" gradientUnits="userSpaceOnUse">
<stop offset="0.26" stop-color="#F1D1C2"/>
<stop offset="0.39" stop-color="#E7C6B9"/>
<stop offset="0.61" stop-color="#CDAAA1"/>
<stop offset="0.9" stop-color="#A37D7A"/>
<stop offset="0.98" stop-color="#966E6E"/>
</linearGradient>
<clipPath id="clip0_302_4">
<rect width="163.25" height="165.576" fill="white" transform="translate(0.829651 0.584229)"/>
</clipPath>
</defs>
</svg>
