<svg  viewBox="0 0 1340 755" fill="none" xmlns="http://www.w3.org/2000/svg">
<path fill-rule="evenodd" clip-rule="evenodd" d="M207 65C207 29.1015 177.899 0 142 0H65C29.1015 0 0 29.1015 0 65V206V540.879C0 540.946 0.0543535 541 0.121402 541V541C0.192501 541 0.248374 541.061 0.242493 541.132C0.0819006 543.067 0 545.024 0 547V685C0 723.66 31.3401 755 70 755H1270C1308.66 755 1340 723.66 1340 685V547C1340 545.024 1339.92 543.067 1339.76 541.132C1339.75 541.061 1339.81 541 1339.88 541V541C1339.95 541 1340 540.946 1340 540.879V206V65C1340 29.1015 1310.9 0 1275 0H1198C1162.1 0 1133 29.1015 1133 65V141C1133 176.899 1103.9 206 1068 206H1065C1029.1 206 1000 235.101 1000 271V412C1000 447.898 970.899 477 935 477H900H440H405C369.101 477 340 447.898 340 412V271C340 235.101 310.899 206 275 206H272C236.101 206 207 176.899 207 141V65Z" fill="#D9D9D9"/>
</svg>
