<svg width="191" height="201" viewBox="0 0 191 201" fill="none" xmlns="http://www.w3.org/2000/svg">
<g clip-path="url(#clip0_302_2277)">
<path d="M140.72 27.5698H16.48V153.7H140.72V27.5698Z" fill="#2E395F"/>
<path d="M82.02 36.8101C55.17 36.8101 33.41 59.5901 33.41 87.7001C33.41 115.81 55.17 138.59 82.02 138.59C108.87 138.59 130.63 115.81 130.63 87.7001C130.63 59.5901 108.87 36.8101 82.02 36.8101ZM82.57 120.26C64.12 120.26 49.17 105.68 49.17 87.7001C49.17 69.7201 64.12 55.1401 82.57 55.1401C101.02 55.1401 115.97 69.7201 115.97 87.7001C115.97 105.68 101.02 120.26 82.57 120.26Z" fill="#69759C"/>
<path d="M148.44 49.6599H143.35V101.54H148.44V49.6599Z" fill="#575757" stroke="#1E0E00" stroke-width="0.25" stroke-miterlimit="10"/>
<path d="M57.6105 131.43V122.769L90.1366 87.1636C93.9538 82.9936 97.0973 79.3689 99.5672 76.2895C102.037 73.178 103.866 70.259 105.052 67.5325C106.271 64.7738 106.881 61.8869 106.881 58.8717C106.881 55.4073 106.047 52.4081 104.379 49.874C102.743 47.34 100.497 45.3833 97.6426 44.0039C94.7878 42.6246 91.5801 41.935 88.0195 41.935C84.2344 41.935 80.9305 42.7209 78.1077 44.2926C75.317 45.8323 73.1518 47.9975 71.6121 50.7882C70.1045 53.5789 69.3507 56.8508 69.3507 60.6038H57.9954C57.9954 54.8299 59.3266 49.7618 61.989 45.3993C64.6514 41.0368 68.2761 37.6366 72.8631 35.1988C77.4822 32.7609 82.6626 31.542 88.4044 31.542C94.1783 31.542 99.2946 32.7609 103.753 35.1988C108.212 37.6366 111.708 40.9245 114.242 45.0625C116.777 49.2004 118.044 53.8035 118.044 58.8717C118.044 62.4964 117.386 66.0409 116.071 69.5052C114.788 72.9374 112.542 76.7706 109.335 81.0048C106.159 85.2069 101.748 90.3392 96.1029 96.4018L73.9698 120.075V120.845H119.776V131.43H57.6105Z" fill="#11112D"/>
<path opacity="0.26" d="M82.42 71.52C100.08 61.35 117.73 51.18 135.39 41.01C138.05 44.72 140.7 48.43 143.36 52.14C136.33 75.8 129.3 99.45 122.27 123.11C108.99 105.92 95.7 88.72 82.42 71.53V71.52Z" fill="#00FFFF"/>
<path d="M148.883 51.7821C150.932 48.6086 148.941 43.6777 144.436 40.7688C139.931 37.8598 134.618 38.0744 132.569 41.2479C130.52 44.4215 132.511 49.3523 137.016 52.2613C141.521 55.1702 146.834 54.9557 148.883 51.7821Z" fill="#00DAE6"/>
<path d="M132.51 41.3599C133.39 39.7499 135.9 35.6899 140.86 33.5799C142.25 32.9899 148.01 30.5399 151.13 33.2399C155.06 36.6299 151.75 45.5498 151.32 46.7298C150.24 49.6398 148.71 51.7899 147.53 53.1899C142.52 49.2499 137.51 45.2999 132.5 41.3599H132.51Z" fill="#575757" stroke="#1E0E00" stroke-width="0.25" stroke-miterlimit="10"/>
<path d="M158.09 97.1298C157.52 96.1098 154.34 90.1698 156.28 83.3898C156.73 81.8198 158.25 77.3798 162.25 74.3898C164.43 73.0098 166.36 72.5398 167.81 70.1798C168.9 68.4098 168.9 66.8998 169.8 66.7198C170.9 66.5098 172.7 68.3898 173.04 70.4298C173.86 75.3798 166 80.8098 166.07 80.8798C166.1 80.9098 167.17 79.8598 167.81 79.2798C170.96 76.4198 172.96 76.2598 175.53 74.2198C176.21 73.6798 176.82 73.0998 179.52 69.4998C186.04 60.7698 188.14 56.5798 189.57 57.0298C189.99 57.1598 190.5 57.7398 190.65 59.9798C190 61.4898 188.98 63.7398 187.58 66.3898C183.82 73.5198 182.23 74.2898 180.61 78.5298C178.18 84.8798 180.79 85.6598 178.29 90.3298C175.89 94.8198 171.84 97.1498 167.75 99.5198C164.64 101.31 163.17 101.57 162.36 101.56C162.23 101.56 162.14 101.56 162.02 101.54C159.82 101.29 158.62 98.5698 158.11 97.1398L158.09 97.1298Z" fill="url(#paint0_linear_302_2277)" stroke="#1E0E00" stroke-width="0.25" stroke-miterlimit="10"/>
<path d="M174.95 90.1899C177.52 88.5299 180.1 86.8699 182.67 85.2199C182.71 84.5299 182.7 83.6299 182.5 82.6099C182.19 81.0199 181.56 79.8199 181.09 79.0699C181.78 74.7199 182.1 70.9699 182.25 68.0299C182.32 66.6999 182.47 63.2499 181.34 59.1799C181.08 58.2499 180.52 56.2799 179.93 56.3099C179.28 56.3499 178.93 58.8099 178.85 59.3399C178.35 62.8399 179.17 64.6999 179.43 67.3499C179.43 67.4499 179.45 67.5999 179.47 67.7999C179.84 72.6499 177.89 76.5799 177.27 77.7199C175.2 81.5799 173.58 81.3099 173.1 83.7899C172.62 86.2699 173.84 88.6199 174.95 90.1999V90.1899Z" fill="url(#paint1_linear_302_2277)" stroke="#1E0E00" stroke-width="0.25" stroke-miterlimit="10"/>
<path d="M177.07 91.4699C178.31 90.5399 179.87 89.0399 180.47 86.8299C180.84 85.4799 180.55 84.9299 180.47 81.9399C180.36 77.8199 180.86 77.4599 180.64 74.6899C180.49 72.8599 180.07 71.3899 179.23 68.4499C177.86 63.6899 176.74 59.7599 175.74 59.8499C174.95 59.9199 174.32 62.5199 174.58 64.7399C174.73 66.0599 175.17 66.9599 175.41 67.5199C176.53 70.1299 176.44 72.5599 176.32 76.0299C176.16 80.5899 174.9 85.4999 174.58 86.7299C174.01 88.8899 173.39 90.7599 174.25 91.5299C174.92 92.1299 176.18 91.7899 177.07 91.4499V91.4699Z" fill="url(#paint2_linear_302_2277)" stroke="#1E0E00" stroke-width="0.25" stroke-miterlimit="10"/>
<path d="M159.79 95.5599C160.76 93.4299 163.64 87.9199 169.9 84.9599C171.97 83.9799 173.93 83.4999 175.55 83.2699C174.62 81.7999 174.15 80.5199 173.89 79.6199C173.45 78.0599 173.55 77.2999 172.89 75.7999C172.31 74.4799 172.05 74.6399 171.45 73.3799C171.01 72.4599 169.91 70.1599 170.79 67.9299C171.07 67.2199 171.89 65.6199 172.84 65.6799C174.01 65.7499 174.14 68.2799 175.88 72.6499C178.14 78.3099 179.4 81.4699 181.91 83.6099C182.31 83.9499 183.2 84.6599 183.4 85.7999C183.62 87.0499 182.93 88.2399 181.85 89.5599C178.38 93.8399 175.05 94.9899 171.11 97.8199C170.72 98.0999 169.76 98.7999 168.31 99.1499C168.31 99.1499 167.45 99.3599 166.54 99.3599C164.66 99.3599 162.07 98.0099 159.78 95.5599H159.79Z" fill="#F1D1C2" stroke="#1E0E00" stroke-width="0.25" stroke-miterlimit="10"/>
<path d="M108.1 76.6001C109.57 82.3401 108.2 87.45 107.52 90C106.87 92.44 106.03 94.39 105.36 95.73C106.24 96.41 107.84 97.88 108.68 100.28C109 101.2 109.51 102.66 109.08 104.47C108.66 106.23 107.6 107.33 107.1 107.78C107.71 107.94 108.64 108.28 109.51 109.04C110.93 110.29 112.31 112.81 111.34 114.86C110.33 116.98 107.48 117.18 106.86 117.22C106.23 117.26 102.6 117.41 101.13 114.61C100.04 112.53 100.61 109.7 102.62 107.87C102.12 107.63 100.4 106.72 99.5499 104.67C98.8599 102.99 99.1399 101.49 99.2999 100.71C99.8299 98.1101 101.55 96.5301 102.21 95.9901C101.11 95.2401 94.7 90.73 93.33 82.08C91.71 71.87 98.5199 64.75 99.2199 64.04C101.12 65.4 106.28 69.4801 108.1 76.6001Z" fill="#1E005F"/>
<path d="M72.13 97.6599C69.7 100.73 74.75 109.06 71.76 111.21C71.13 111.67 70.48 111.6 70.02 112.31C68.89 114.06 71 117.35 71.76 118.55C76.01 125.19 91.43 132.67 95.42 134.56C96.18 133.75 97.1599 132.6 98.1599 131.1C99.0899 129.71 100.75 127.22 101.56 123.85C102.09 121.65 103.4 116.22 100.73 113.4C98.8599 111.43 96.45 112.21 94.75 109.69C93.8 108.28 93.83 106.96 93.67 106.07C92.44 99.2199 75.42 93.4699 72.12 97.6599H72.13Z" fill="#F1D1C2" stroke="#1E0E00" stroke-width="0.25" stroke-miterlimit="10"/>
<path d="M70.62 97.71C70.71 98.85 70.99 100.74 72.07 102.86C75.11 108.81 83.1 113.88 88.02 112.43C89.94 111.86 91.18 110.63 91.83 109.93C94.27 107.28 93.78 104.38 93.63 103.67C85.96 101.69 78.29 99.7 70.62 97.72V97.71Z" fill="url(#paint3_linear_302_2277)"/>
<path d="M59.15 75.99C56.88 77.56 58.82 83.95 60.64 87.54C61.68 89.59 63.83 92.04 64.63 91.67C64.94 91.53 65 90.98 64.99 90.49C65.83 95.23 67.95 97.64 69.09 98.69C70.06 99.59 71.02 100.15 72.93 101.27C74.28 102.06 76.6999 103.48 79.6599 104.58C83.9199 106.16 89.13 108.09 92.89 105.77C93.76 105.23 94.65 103.83 96.39 101.06C99.87 95.52 101.6 92.75 102.3 89.64C102.83 87.25 102.72 84.79 102.47 79.86C102.32 77.04 101.99 73.97 102.16 70.76C102.3 68.11 102.44 66.8 102.51 66.32C102.72 64.73 102.87 64.43 102.66 63.51C101.29 57.63 92.13 54.66 86.81 53.96C78.5 52.86 72.27 56.32 70.32 57.44C66.98 59.36 62.4 61.99 61.07 67.3C60.15 70.98 61.22 74.26 61.9 75.9C60.35 75.41 59.57 75.7 59.16 75.98L59.15 75.99Z" fill="#F1D1C2" stroke="#1E0E00" stroke-width="0.5" stroke-miterlimit="10"/>
<path d="M94.34 71.98C93.16 71.79 91.3899 74.33 90.9799 76.87C90.6799 78.73 91.1599 80.27 91.5999 81.67C92.4799 84.48 92.9899 86.12 93.6799 87.4C93.7899 87.6 94.0699 88.12 93.9699 88.75C93.8499 89.49 93.1799 90.01 93.1799 90.01C93.1799 90.01 94.1 88.69 94.63 88.87C94.83 88.94 94.87 89.19 94.96 89.17C95.13 89.13 95.1899 88.14 94.7899 87.32C94.4899 86.68 94 86.32 93.71 86.14C92.95 83.85 92.1899 81.56 91.4299 79.27C91.4499 76.77 92.1899 75.54 92.9199 74.89C93.8999 74.02 95.1999 73.84 95.2399 73.08C95.2699 72.62 94.82 72.06 94.33 71.98H94.34Z" fill="url(#paint4_linear_302_2277)"/>
<path d="M89.06 89.06C89.04 88.8 89.73 88.4 90.39 88.55C90.93 88.68 91.34 89.15 91.39 89.73C89.49 89.5 89.08 89.25 89.07 89.06H89.06Z" fill="url(#paint5_linear_302_2277)"/>
<path d="M89.6599 87.67C89.5299 87.46 90.35 86.26 91.49 86.24C92.68 86.21 93.56 87.5 93.44 87.67C93.37 87.78 92.91 87.39 92.03 87.29C90.66 87.13 89.7799 87.86 89.6599 87.67Z" fill="url(#paint6_linear_302_2277)"/>
<path d="M81.86 94.5398C84.72 95.0198 86.61 95.0798 87.84 95.0498C88.57 95.0298 89.5699 94.9498 91.1599 95.0098C92.2499 95.0498 92.47 95.0998 92.99 95.0498C93.78 94.9698 94.92 94.6598 96.27 93.5698C96.19 93.8398 96.04 94.2298 95.77 94.6198C94.8 96.0498 93.0899 96.3598 92.4099 96.4698C90.8399 96.7298 89.82 96.3398 87.76 95.7998C86.39 95.4398 84.39 94.9598 81.87 94.5398H81.86Z" fill="#F9FFE7" stroke="#1E0E00" stroke-width="0.25" stroke-miterlimit="10"/>
<path opacity="0.78" d="M87.3 98.58C87.82 98.96 88.78 99.56 90.12 99.8C90.92 99.94 92.48 100.22 93.9 99.29C95.73 98.1 95.88 95.84 95.9 95.55C95.03 96.09 93.66 96.7801 91.86 97.0701C88.32 97.6501 85.5199 96.27 84.5399 95.73C85.4599 96.68 86.38 97.6301 87.3 98.5701V98.58Z" fill="url(#paint7_linear_302_2277)"/>
<path d="M90.2199 91.7599C90.2599 92.0499 91.0499 92.2299 91.6699 92.1399C92.2299 92.0599 92.9 91.7499 92.87 91.4699C92.85 91.1999 92.1899 90.9899 91.6699 91.0099C90.9399 91.0299 90.1799 91.4699 90.2199 91.7699V91.7599Z" fill="url(#paint8_linear_302_2277)"/>
<path d="M73.47 79.8599C74.61 80.5399 76.7499 81.5799 79.5999 81.7599C81.3899 81.8699 82.88 81.5999 83.94 81.3099C84.17 80.9799 84.83 79.9699 84.65 78.7199C84.54 77.9899 84.2 77.4899 84.13 77.3999C83.2 76.1499 78.8 77.3299 73.47 79.8599Z" fill="#FFF1DC" stroke="#1E0E00" stroke-width="0.5" stroke-miterlimit="10"/>
<path d="M74.78 77.03C76.76 76.37 78.7499 75.71 80.7299 75.06C83.8099 75.52 84.59 75.42 84.65 75.21C84.73 74.9 83.28 74.15 81.99 73.85C81.04 73.63 80.42 73.71 80.25 73.74C79.49 73.85 78.95 74.15 78.55 74.39C77 75.31 75.58 76.39 74.78 77.03Z" fill="url(#paint9_linear_302_2277)"/>
<path d="M78.6 78.3898C78.6 78.4698 78.65 80.1399 80 80.9099C80.15 80.9899 81.33 81.6399 82.44 80.9899C83.32 80.4699 83.81 79.3399 83.51 78.3199C83.23 77.3799 82.4 76.9598 82.25 76.8898C82.1 76.8198 81.01 76.3698 79.89 76.9498C79.02 77.3998 78.68 78.1798 78.59 78.3998L78.6 78.3898Z" fill="#353F69"/>
<path d="M72.64 80.25C73.59 79.59 74.7 78.91 75.96 78.27C78.33 77.08 80.5499 76.4 82.3499 76.01C82.6899 76.26 83.39 76.71 84.38 76.84C85.72 77.01 86.7399 76.49 87.0999 76.29C86.2899 76.46 85.65 77.05 85.44 77.82C85.21 78.65 85.6 79.34 85.68 79.48C84.45 77.78 83.2 77.29 82.56 77.13C81.88 76.95 80.8 76.84 76.65 78.49C74.94 79.17 73.56 79.81 72.64 80.26V80.25Z" fill="#07003B"/>
<path d="M87.4 68.96C87.44 68.8 86.93 68.42 84.62 67.48C81.51 67.83 78.41 68.18 75.3 68.54C73.72 69.8 72.13 71.07 70.55 72.33C71.46 71.48 72.9 70.39 74.88 69.85C75.25 69.75 75.38 69.74 77.39 69.46C82.22 68.8 82.29 68.76 83.05 68.74C85.7 68.68 87.3299 69.22 87.4099 68.95L87.4 68.96Z" fill="#1E005F"/>
<path d="M100.78 78.1199C100.34 79.7899 99.5 80.4099 99.12 80.6299C98.74 80.8599 98.2199 81.0399 95.5999 80.9899C94.4999 80.9699 93.5799 80.9199 92.9099 80.8699C92.5299 79.1199 92.8 77.4299 93.8 76.7199C94.72 76.0599 96.01 76.4199 97.87 76.9399C99.14 77.2999 100.13 77.7599 100.78 78.1199Z" fill="#FFF1DC" stroke="#1E0E00" stroke-width="0.5" stroke-miterlimit="10"/>
<path d="M101.22 76.6101C99.74 76.0001 98.26 75.3901 96.78 74.7801C94.48 75.2101 93.9 75.1201 93.86 74.9201C93.8 74.6301 94.88 73.9401 95.85 73.6601C96.56 73.4601 97.02 73.5301 97.15 73.5601C97.72 73.6601 98.12 73.9401 98.42 74.1701C99.58 75.0201 100.64 76.0301 101.23 76.6201L101.22 76.6101Z" fill="url(#paint10_linear_302_2277)"/>
<path d="M99.21 77.6098C99.45 78.7398 99.0199 79.8299 98.1699 80.3199C97.6499 80.6199 96.8299 80.8198 96.2399 80.3898C95.5499 79.8798 95.16 78.7598 95.39 77.7598C95.61 76.8298 96.26 76.4199 96.38 76.3499C97.32 76.7699 98.26 77.1799 99.2 77.5999L99.21 77.6098Z" fill="#00ADB2"/>
<path d="M92.13 78.64C92.37 78.12 92.9699 77.02 94.2199 76.37C96.0199 75.44 97.89 76.14 98.52 76.37C99.18 76.62 99.68 76.93 100.02 77.18C100.84 77.08 101.66 76.97 102.48 76.87C101.83 77.06 101.04 77.41 100.78 78.11C100.59 78.62 100.77 79.13 100.61 79.18C100.38 79.26 100.07 78.11 98.9699 77.55C98.8299 77.48 98.6899 77.42 98.4099 77.34C96.9999 76.93 95.31 76.43 93.75 77.2C93.37 77.39 92.73 77.78 92.14 78.63L92.13 78.64Z" fill="#07003B"/>
<path d="M92.8 69.9599C92.73 69.7299 93.71 69.2199 94.67 68.7699C95.44 68.5999 96.8799 68.3899 98.5999 68.7699C100.23 69.1399 101.4 69.8899 102.02 70.3699C102.66 71.2399 103.3 72.0999 103.94 72.9699C103.61 72.5999 103.17 72.1799 102.63 71.7799C102.24 71.4899 101.86 71.2599 101.52 71.0799C99.11 69.9899 97.14 69.7799 95.7 69.8399C94.29 69.8999 92.88 70.2199 92.8 69.9599Z" fill="#1E005F"/>
<path d="M78.66 53.0599C76.3 51.5099 71.87 49.17 66.37 49.6C65.42 49.67 64.53 49.82 63.71 50.02C65.13 49.97 66.92 50.04 68.94 50.44C71.57 50.96 73.67 51.85 75.17 52.63C68.56 50.67 64.24 52.12 62.47 52.88C53.25 56.86 50.68 69.1699 49.1 76.7299C48.89 77.7499 48.49 79.8299 48.52 82.5499C48.55 85.0199 48.61 90.9599 52.59 95.1899C53.29 95.9399 53.96 96.4599 54.42 96.7899C53.64 96.9099 51.66 97.34 50.27 99.07C48.26 101.56 48.72 105.22 50.19 107.5C50.92 108.62 51.82 109.31 52.43 109.69C51.65 109.69 50.19 109.84 49.03 110.87C46.84 112.82 47.04 116.77 48.7 119.3C50.32 121.76 53.42 123 56.17 122.33C58.34 121.81 59.57 120.28 59.92 119.83C61.33 118.03 62.27 115.05 60.98 112.47C60.18 110.87 58.84 110.05 58.2 109.72C58.72 109.68 59.48 109.55 60.24 109.1C62.61 107.71 63.12 104.39 62.9 102.27C62.59 99.3999 60.8 97.56 60.16 96.96C61.11 95.93 62.55 94.41 64.39 92.66C67.08 90.11 68.97 88.6299 69.79 87.9399C73.85 84.4599 75.43 79.3999 77.26 73.5299C78.49 69.5999 79.91 63.4799 79.75 55.7499C81.91 57.1999 85.0199 59.6799 87.7999 63.5899C91.4099 68.6599 92.69 73.65 93.2 76.49C93.17 74.07 92.9 70.89 91.95 67.3C91.09 64.05 89.93 61.39 88.88 59.38C91.43 60.4 97.9899 63.4599 101.91 70.6699C103.3 73.2299 104.02 75.6799 104.4 77.6699C104.59 76.0199 104.8 72.3199 102.99 68.2299C101.53 64.9199 99.3999 62.86 98.1699 61.82C101.96 66.11 104.46 70.0699 106.06 72.9499C108.71 77.7199 109.23 80.16 109.38 80.96C110.2 85.25 109.44 88.91 108.8 91.07C109.61 89.28 110.68 86.3099 110.87 82.5099C110.93 81.3799 110.98 78.5299 110.04 75.0599C109.46 72.9199 108.83 71.76 104.81 64.27C104.56 63.8 102.53 60.03 102.32 59.63C104.06 60.82 107.82 63.76 110.29 69.07C112.59 74.02 112.58 78.4999 112.45 80.6199C112.98 78.6899 113.55 75.7899 113.36 72.2799C113.01 65.6599 110.18 61.0199 108.63 58.5399C106.44 55.0299 104.17 51.4099 99.5 49.1799C94.45 46.7699 89.76 47.4999 88.46 47.7499C83.09 48.7499 79.78 51.8999 78.66 53.0599Z" fill="#04008E"/>
<path d="M62.07 70.25C64.28 73.13 66.5 76.02 68.71 78.9C69.52 77.48 70.33 76.05 71.15 74.63C68.12 73.17 65.1 71.71 62.07 70.25Z" stroke="#8D46EB" stroke-width="1.5" stroke-miterlimit="10"/>
<path d="M64.29 76.7198L65.14 77.3898C65.55 77.7098 66.14 77.6398 66.46 77.2198L69.68 72.9998C70 72.5798 69.92 71.9898 69.51 71.6598L68.66 70.9898C68.25 70.6698 67.66 70.7398 67.34 71.1598L64.12 75.3798C63.8 75.7998 63.88 76.3898 64.29 76.7198Z" fill="#A1ECFF"/>
<path d="M67.92 79.0399L68.77 79.7099C69.18 80.0299 69.77 79.9599 70.09 79.5399L73.31 75.3199C73.63 74.8999 73.55 74.3099 73.14 73.9799L72.29 73.3099C71.88 72.9899 71.29 73.0599 70.97 73.4799L67.75 77.6999C67.43 78.1199 67.51 78.7099 67.92 79.0399Z" fill="#A1ECFF"/>
<path d="M58.41 69.1899C56.79 72.3099 54.45 77.7499 54.15 84.3199C53.96 88.4499 53.85 90.6199 55.12 93.0899C56.19 95.1899 57.9 96.8099 57.29 97.9199C56.84 98.7499 55.69 98.2299 54.23 99.2099C52.56 100.33 51.62 102.66 51.98 104.52C52.37 106.59 54.26 107.59 54.07 107.82C53.87 108.06 51.5 107.17 50.61 105.08C50.57 105 49.74 102.95 50.77 101.06C52.04 98.7399 54.81 99.0699 55.2 97.4399C55.49 96.2199 54.1 95.3599 52.95 93.4999C51.41 90.9999 51.41 88.4999 51.42 85.4499C51.44 77.2399 57.56 70.1699 58.42 69.1999L58.41 69.1899Z" fill="url(#paint11_linear_302_2277)"/>
<path d="M72.89 54.1399C72.5 53.7199 68.52 56.12 65.65 59.05C54.19 70.73 58.24 92.9999 58.65 93.0099C58.84 93.0099 58.39 88.1499 60.18 79.8099C61.21 75.0299 62.34 69.7599 65.65 64.0399C69.2 57.9199 73.31 54.5999 72.89 54.1399Z" fill="url(#paint12_linear_302_2277)"/>
<path d="M72.42 110.43C71.41 110.78 70.44 111.35 70.02 112.31C68.36 116.17 76.74 123.77 82.81 127.68C87.44 130.67 91.83 132.22 94.99 133.07C96.27 131.95 99.75 128.57 100.62 123.14C100.88 121.49 101.48 117.77 99.32 114.09C97.88 111.64 95.87 110.31 94.77 109.69C94.97 109.28 95.28 108.72 95.75 108.13C99.57 103.38 108.37 103.6 114.26 105.82C119.38 107.75 119.46 110.15 126.22 115.77C136.74 124.52 140.25 121.93 146.48 128.75C152.49 135.34 157.01 146.29 153.12 151.84C151.04 154.81 147.19 155.34 144.49 155.72C130.24 157.7 119.52 146.26 116.59 149.15C114.82 150.9 118.92 154.95 118.42 160.28C117.13 174.07 85.79 188.85 69.77 179.16C68.26 178.25 69.01 178.4 56.65 163.31C47.43 152.06 45.38 149.98 43.2 144.77C39.73 136.47 39.91 129.76 40.21 126.56C40.57 122.76 40.91 119.19 43.53 115.94C46.79 111.9 52.47 109.73 56.81 109.87C57.74 109.9 58.48 110.03 59.9 109.91C63.54 109.6 64.74 108.2 67.11 108.18C68.4 108.17 70.21 108.56 72.43 110.41L72.42 110.43Z" fill="url(#paint13_linear_302_2277)"/>
<path d="M151.29 96.26C147.55 96.3 144.61 98.34 142.87 99.55C138.28 102.73 136.12 106.96 135.22 109.06C135.22 109.06 127.56 123.78 136.38 141.43C137.39 143.44 138.38 145.44 140.53 146.49C142.45 147.43 143.93 146.95 145.35 148.34C146.78 149.75 146.17 151.12 147.18 152.05C149.17 153.88 155.7 152.34 158.97 148C162.45 143.39 159.17 139.69 162.62 131.65C164.59 127.05 166.2 127.01 167.44 123.39C168.8 119.38 168.73 113.87 164.78 106.2C161.77 100.24 156.63 96.2 151.29 96.27V96.26Z" fill="#BA4ACA"/>
<path d="M152.12 91.7201L150.94 93.4901C150.17 94.6401 150.21 96.1801 151.09 97.2601C152.01 98.3901 153.14 99.6001 154.52 100.77C157.49 103.29 160.56 104.75 163.03 105.6C165.02 106.29 166.87 103.95 166.99 103.86C167.87 103.12 168.36 102.35 168.5 102.11C168.85 101.54 169.62 100.27 169.48 99.2201C169.18 96.9501 164.84 97.5501 160.46 93.7301C159.04 92.4901 158.17 92.1501 156.88 91.0601C155.4 89.8201 153.19 90.1101 152.12 91.7101V91.7201Z" fill="#DA5DDF"/>
<path d="M33.32 133.67C28.44 137.99 26.82 142.18 26.18 144.64C23.45 155.18 30.85 164.48 40.65 176.59C49.05 186.97 52.91 187.5 54.96 187.39C60.29 187.11 63.83 182.01 64.26 181.37C68.45 175.13 66.64 166.5 65.69 161.94C65.3 160.06 64.88 158.8 64.33 155.64C63.41 150.34 63.82 147.96 63.21 146.11C61.9 142.08 58.54 137.75 50.81 134.09C44.98 133.95 39.15 133.81 33.31 133.67H33.32Z" fill="#BA4ACA"/>
<path d="M132.39 120.46C131.05 119.94 126.97 133.53 120.46 133.97C116.64 134.23 113.05 129.89 110.12 124.84C119.82 145.23 133.62 157.73 144.74 155.7C146.66 155.35 148.86 154.5 151.19 152.67C143.23 151.95 134.57 149.77 131.18 143.46C126.42 134.62 133.8 121 132.4 120.46H132.39Z" fill="url(#paint14_linear_302_2277)"/>
<path d="M82.74 183.41C85.58 174.67 88.43 165.93 91.27 157.18C91.27 158.41 91.23 159.68 91.14 160.99C90.61 168.39 88.53 174.66 86.25 179.58C85.08 180.86 83.91 182.13 82.74 183.41Z" fill="#002D46"/>
<path d="M149.51 104.31C140.01 122.94 128.83 133.32 120.27 139.38C110.07 146.6 103.01 148.15 85.87 157.71C72.2 165.34 61.74 172.71 55.12 177.67C57.72 181.62 60.32 185.56 62.92 189.51C66.54 186.21 72.12 181.37 79.38 176.13C101.46 160.17 114.46 158.19 130.33 147.09C138.8 141.16 149.95 131.34 160.18 114.59C156.62 111.16 153.07 107.74 149.51 104.31Z" fill="#CEFFFF"/>
<path d="M59.16 186.31C57.09 183.28 55.44 180.35 54.11 177.67C57.37 174.72 61.77 171 67.25 167.04C69.44 165.46 72.94 163.02 77.55 160.23C90.09 152.62 96.6 150.99 106.53 145.58C128.17 133.79 140.54 117.97 142.64 114.47C142.87 114.08 145.59 109.86 149.19 104.09C149.29 103.93 149.4 103.78 149.59 103.49C151.9 105.33 154.22 107.18 156.53 109.02C156.26 109.47 156 109.92 155.73 110.36C154.27 108.92 152.81 107.49 151.35 106.05C146.82 109.93 146.5 113.52 145.72 114.76C145.53 115.05 145.45 115.69 145.63 115.91C147.68 118.34 149.78 120.72 152.15 123.44C154.33 120.31 156.5 117.18 158.68 114.05C157.7 112.82 156.72 111.59 155.73 110.36C156 109.91 156.26 109.46 156.53 109.02C158.26 110.44 159.99 111.86 161.72 113.28C161.21 114.1 160.47 115.3 159.58 116.74C155.6 123.16 153.77 126.55 152.41 128.02C145.15 135.9 147.38 133.92 144.78 136.46C136.77 144.29 129.19 149.83 125.77 152.23C116.24 158.94 107.17 163.78 100.73 167.22C85.7599 175.2 83.77 175.55 78.42 179.13C75.38 181.17 73.27 182.82 71.69 184.08C69.65 185.7 66.72 187.99 62.7 191.07C61.53 189.63 60.34 188.04 59.15 186.31H59.16ZM76.31 177.83C80.68 174.83 85.04 171.85 89.45 168.83C87.23 165.84 85.13 163 82.86 159.95C78.46 162.87 74.1 165.77 69.59 168.76C71.92 171.91 74.06 174.79 76.31 177.83ZM68.33 170.03C68.18 170.06 68.06 170.05 68 170.11C64.39 173.25 60.77 176.37 57.21 179.57C56.96 179.79 56.99 180.68 57.21 181.05C58.26 182.75 59.42 184.39 60.57 186.03C61.33 187.11 62.14 188.16 62.87 189.14C66.89 185.65 70.79 182.25 74.79 178.77C72.64 175.87 70.51 172.99 68.32 170.04L68.33 170.03ZM134.22 129.93C136.3 132.41 138.36 134.88 140.66 137.62C144.34 133.86 147.9 130.22 151.5 126.55C149.06 123.74 146.88 121.24 144.75 118.79C141.22 122.53 137.81 126.14 134.22 129.93ZM102.82 161.13L96.42 152.5C92.3 154.74 88.3 156.91 84.2 159.14C86.48 162.22 88.64 165.12 90.78 168.02C94.85 165.69 98.81 163.42 102.82 161.13ZM97.63 152.12C99.23 154.28 100.73 156.33 102.26 158.35C103.94 160.58 103.95 160.57 106.4 159.41C106.98 159.13 107.57 158.88 108.15 158.58C110.77 157.23 113.39 155.87 115.92 154.56C113.93 151.87 112.08 149.35 110.17 146.86C110 146.64 109.43 146.5 109.18 146.62C105.37 148.4 101.58 150.23 97.64 152.12H97.63ZM122.71 138.83C124.86 141.45 126.91 143.97 129 146.51L139.55 138.45C137.3 135.78 135.21 133.28 133.16 130.85C129.62 133.55 126.24 136.14 122.72 138.83H122.71ZM128.05 147.34C127.9 146.91 127.89 146.8 127.83 146.73C126.52 145.1 125.19 143.48 123.88 141.84C122.56 140.187 121.01 139.883 119.23 140.93C116.51 142.52 113.78 144.12 111.18 145.64C113.09 148.22 114.94 150.74 116.84 153.23C117 153.45 117.61 153.58 117.84 153.44C121.26 151.44 124.64 149.39 128.06 147.35L128.05 147.34Z" fill="#353F69"/>
<path d="M82.63 53.26C82.38 52.69 85.2099 49.87 88.9899 49.48C95.7399 48.78 101.81 56.19 101.7 56.32C101.64 56.4 99.3099 53.39 94.8599 52.22C88.4799 50.54 82.96 54.01 82.63 53.27V53.26Z" fill="url(#paint15_linear_302_2277)"/>
<path d="M12.46 100.23L0.499969 97.8L12.53 36.75L24.49 39.18L12.46 100.23Z" fill="url(#paint16_linear_302_2277)" stroke="#1E0E00" stroke-width="0.75" stroke-miterlimit="10"/>
<path d="M36.09 111.34L10.53 99.6599L35.69 42.8799L61.26 54.5599L36.09 111.34Z" fill="url(#paint17_linear_302_2277)" stroke="#1E0E00" stroke-width="0.75" stroke-miterlimit="10"/>
<path d="M19.34 80.44C20.32 78.29 21.3 76.14 22.28 74C24.4 77.36 26.52 80.72 28.64 84.08L25.02 89.56C23.13 86.52 21.23 83.49 19.34 80.45V80.44Z" fill="url(#paint18_linear_302_2277)"/>
<path d="M12.74 95.2199C13.72 93.1099 14.69 91.0099 15.67 88.8999C17.99 92.1199 20.32 95.3399 22.64 98.5599C21.48 100.06 20.31 101.56 19.15 103.06C17.01 100.44 14.88 97.8299 12.74 95.2099V95.2199Z" fill="url(#paint19_linear_302_2277)"/>
<path d="M42.02 107.15C42.16 107.76 42.46 108.04 42.62 108.16C43.09 108.53 43.79 108.64 44.23 108.56C45.71 108.3 46.73 105.47 46.35 103.08C46.04 101.1 44.65 98.6598 43.46 98.7598C41.54 98.9298 41.68 105.67 42.02 107.14V107.15Z" fill="url(#paint20_linear_302_2277)" stroke="#1E0E00" stroke-width="0.2" stroke-miterlimit="10"/>
<path d="M30.75 93.7199C31.33 93.8599 31.87 93.7499 32.96 93.5399C34.46 93.2499 34.66 92.9799 36.27 92.5499C37.78 92.1499 39.12 91.9899 39.78 91.9099C41.46 91.7199 41.52 91.8699 42.19 91.6599C43.9 91.1499 45.35 89.6399 45.01 88.9699C44.78 88.5199 43.84 88.6099 40.97 88.6899C36.62 88.7999 34.39 88.7199 30.94 89.4299C29.34 89.7599 28.68 90.0099 28.42 90.5299C27.92 91.5599 29.16 93.3399 30.75 93.7199Z" fill="url(#paint21_linear_302_2277)" stroke="#1E0E00" stroke-width="0.2" stroke-miterlimit="10"/>
<path d="M41.07 102.17C41.48 102.68 41.89 102.83 42.09 102.89C42.69 103.06 43.38 102.92 43.75 102.7C44.98 101.95 44.61 98.9999 43.15 96.9499C41.95 95.2499 39.54 93.4999 38.5 93.9999C36.82 94.8199 40.08 100.95 41.07 102.17Z" fill="url(#paint22_linear_302_2277)" stroke="#1E0E00" stroke-width="0.2" stroke-miterlimit="10"/>
<path d="M20.04 109.04C19.3 108.57 18.29 107.78 17.59 106.59C16.48 104.69 16.79 102.84 16.99 101.49C17.32 99.2 17.66 96.05 17.81 91.77C20.92 89.6 24.02 87.43 27.13 85.26C30.08 84.57 32.6 84.02 34.59 83.61C36.37 83.24 37.59 83 38.08 83.52C38.68 84.16 37.8 85.62 37.26 86.31C35.24 88.86 31.12 89.15 29.69 89.19C27.58 90.45 25.48 91.71 23.37 92.97C23.13 94.09 22.9 95.2 22.66 96.32C21.76 100.58 20.89 104.83 20.05 109.07L20.04 109.04Z" fill="url(#paint23_linear_302_2277)" stroke="#1E0E00" stroke-width="0.25" stroke-miterlimit="10"/>
<path d="M34.15 129.29C40.82 133.02 46.67 134.27 48.75 132.41C49.16 132.05 49.54 131.45 49.62 130.43C48.46 129.06 47.06 126.93 47.22 124.39C47.36 122.2 48.52 121.9 48.96 119.58C49.56 116.39 48.3 112.03 45.04 110.04C42.9 108.74 40.75 108.99 40.36 107.68C40.08 106.76 40.87 105.76 41.69 104.71C43 103.04 43.83 103.09 44.47 101.81C44.63 101.5 45.52 99.61 44.39 98.41C43.55 97.52 41.87 97.31 40.63 97.7C39.21 98.15 39.01 99.18 36.63 102.51C35.25 104.44 34.17 105.69 34.18 105.7C34.19 105.7 35.41 104.15 36.63 102.51C39.66 98.44 39.99 97.44 39.98 96.42C39.98 96.16 39.96 93.92 38.67 93.45C36.99 92.83 34.17 95.57 32.13 97.56C28.44 101.15 26.33 104.54 26.25 104.5C26.11 104.43 29.95 98.06 29.95 98.06C31.7 95.16 32.41 94.03 32.02 92.58C31.67 91.3 30.48 89.88 29.02 89.75C27.47 89.61 26.22 90.99 24.83 92.58C22.07 95.73 21.13 98.64 19.44 104.1C19.06 105.33 18.83 106.2 18.98 107.33C19.29 109.66 20.97 111.24 22.33 112.5C29.98 119.54 31.23 120.23 32.46 122.34C33.26 123.72 34.21 125.97 34.15 129.3V129.29Z" fill="#F1D1C2"/>
<path d="M36.63 102.51C39.01 99.18 39.21 98.15 40.63 97.7C41.87 97.31 43.55 97.52 44.39 98.41C45.52 99.61 44.63 101.5 44.47 101.81C43.83 103.09 43 103.04 41.69 104.71C40.87 105.76 40.08 106.76 40.36 107.68C40.75 108.99 42.9 108.74 45.04 110.04C48.3 112.03 49.56 116.39 48.96 119.58C48.52 121.9 47.36 122.2 47.22 124.39C47.06 126.93 48.46 129.06 49.62 130.43C49.54 131.45 49.16 132.05 48.75 132.41C46.67 134.27 40.82 133.02 34.15 129.29V129.3C34.21 125.97 33.26 123.72 32.46 122.34C31.23 120.23 29.98 119.54 22.33 112.5C20.97 111.24 19.29 109.66 18.98 107.33C18.83 106.2 19.06 105.33 19.44 104.1C21.13 98.64 22.07 95.73 24.83 92.58C26.22 90.99 27.47 89.61 29.02 89.75C30.48 89.88 31.67 91.3 32.02 92.58C32.41 94.03 31.7 95.16 29.95 98.06C29.95 98.06 26.11 104.43 26.25 104.5C26.33 104.54 28.44 101.15 32.13 97.56C34.17 95.57 36.99 92.83 38.67 93.45C39.96 93.92 39.98 96.16 39.98 96.42C39.99 97.44 39.66 98.44 36.63 102.51ZM36.63 102.51C35.25 104.44 34.17 105.69 34.18 105.7C34.19 105.7 35.41 104.15 36.63 102.51Z" stroke="#1E0E00" stroke-width="0.25" stroke-miterlimit="10"/>
<path d="M85.4199 190.16C85.4199 190.16 85.16 188.35 84.86 186.57C84.46 184.21 84.2699 183.54 83.6599 182.98C83.3399 182.68 83 182.51 82.78 182.42C82.01 182.57 80.9299 182.9 79.9099 183.7C78.6499 184.68 78.54 185.56 77.36 186.57C76.03 187.72 75.2 187.43 73.85 188.16C70.66 189.89 68.88 194.96 70.42 196.85C71.02 197.58 72.12 197.82 72.97 197.73C75.6 197.43 77.89 193.68 78.55 188.32C79.27 186.24 80.79 185.11 81.82 185.37C83.02 185.67 83.44 187.82 83.49 188.08C83.68 189.06 83.5399 189.89 83.4099 190.39C82.8799 190.85 82.0099 191.74 81.4199 193.1C81.2199 193.56 79.95 196.51 81.5 198.92C81.71 199.24 82.71 200.8 84.05 200.75C85.68 200.69 87.05 198.31 87.24 196.29C87.24 196.29 87.3799 194.86 85.4099 190.15L85.4199 190.16ZM75.57 193.47C74.79 195.2 73.39 196.26 72.45 195.84C71.51 195.42 71.37 193.67 72.15 191.93C72.93 190.2 74.33 189.14 75.27 189.56C76.21 189.98 76.35 191.73 75.57 193.47ZM84.15 199.01C83.22 199.09 82.21 197.46 82.08 196.02C81.92 194.3 82.9499 192.34 83.9099 192.35C84.8399 192.36 85.68 194.2 85.7 195.74C85.72 197.12 85.08 198.93 84.15 199.01Z" fill="#2D008B"/>
<path d="M85.07 152.39C85.46 156.91 85.8399 161.44 86.2299 165.96C84.9599 171.78 83.6799 177.59 82.4099 183.41C82.5199 178.53 82.78 173.34 83.24 167.9C83.71 162.42 84.34 157.25 85.07 152.39Z" fill="#387083"/>
<path d="M98.2912 144.847C98.7805 144.506 98.5271 143.296 97.7251 142.145C96.9231 140.994 95.8762 140.338 95.3869 140.679C94.8975 141.02 95.1509 142.229 95.9529 143.38C96.7549 144.531 97.8018 145.188 98.2912 144.847Z" fill="#575757" stroke="#1E0E00" stroke-width="0.5" stroke-miterlimit="10"/>
<path d="M100.869 147.948C101.246 147.608 100.813 146.514 99.9019 145.506C98.9909 144.499 97.9467 143.958 97.5698 144.298C97.1929 144.639 97.6258 145.732 98.5369 146.74C99.4479 147.748 100.492 148.289 100.869 147.948Z" fill="#575757" stroke="#1E0E00" stroke-width="0.5" stroke-miterlimit="10"/>
<path d="M92.64 140.14C94.1753 140.14 95.42 138.877 95.42 137.32C95.42 135.763 94.1753 134.5 92.64 134.5C91.1046 134.5 89.86 135.763 89.86 137.32C89.86 138.877 91.1046 140.14 92.64 140.14Z" fill="#575757" stroke="#1E0E00" stroke-width="0.5" stroke-miterlimit="10"/>
<path d="M97.199 150.623C98.4162 150.205 98.6201 147.584 97.6544 144.768C96.6886 141.953 94.9191 140.008 93.7018 140.426C92.4846 140.843 92.2807 143.464 93.2464 146.28C94.2121 149.096 95.9818 151.04 97.199 150.623Z" fill="#575757" stroke="#1E0E00" stroke-width="0.5" stroke-miterlimit="10"/>
<path d="M92.6825 146.862C93.2786 146.84 93.7201 145.682 93.6687 144.274C93.6174 142.867 93.0926 141.744 92.4965 141.765C91.9004 141.787 91.4588 142.946 91.5102 144.353C91.5616 145.76 92.0864 146.884 92.6825 146.862Z" fill="#575757" stroke="#1E0E00" stroke-width="0.5" stroke-miterlimit="10"/>
<path d="M93.1258 150.937C93.6219 150.857 93.8479 149.7 93.6305 148.354C93.4131 147.007 92.8347 145.98 92.3385 146.06C91.8423 146.14 91.6164 147.297 91.8338 148.644C92.0512 149.99 92.6296 151.017 93.1258 150.937Z" fill="#575757" stroke="#1E0E00" stroke-width="0.5" stroke-miterlimit="10"/>
<path d="M102.049 155.443C102.672 155.023 102.043 153.001 100.645 150.926C99.2474 148.851 97.6092 147.51 96.9863 147.929C96.3634 148.349 96.9916 150.371 98.3895 152.446C99.7875 154.521 101.426 155.863 102.049 155.443Z" fill="#575757" stroke="#1E0E00" stroke-width="0.5" stroke-miterlimit="10"/>
<path d="M96.7774 157.821C97.5189 157.701 97.7946 155.593 97.3933 153.112C96.9919 150.632 96.0655 148.718 95.3241 148.838C94.5826 148.958 94.3069 151.066 94.7082 153.547C95.1095 156.027 96.036 157.941 96.7774 157.821Z" fill="#575757" stroke="#1E0E00" stroke-width="0.5" stroke-miterlimit="10"/>
<path opacity="0.78" d="M86.25 94.7098C87.86 94.3198 89.1299 94.3498 89.9799 94.4498C91.1799 94.5898 91.8999 94.8998 93.0399 94.6898C94.0099 94.5198 94.75 94.0598 95.21 93.7198C94.93 93.5698 94.43 93.3498 93.77 93.2898C93.04 93.2298 92.46 93.3998 92.15 93.5098C91.79 93.4098 91.3999 93.3398 90.9699 93.3098C88.7899 93.1398 87.06 94.1498 86.24 94.7098H86.25Z" fill="url(#paint24_linear_302_2277)"/>
<path d="M48.91 125.57C48.08 126.92 57.28 131.48 62.17 140.17C67.62 149.84 65.9 161.35 63.17 170.28C68.21 166.78 73.25 163.28 78.28 159.78C76.32 159.52 73.28 158.82 70.68 156.6C62.95 150 68.45 138.03 60.7 130.07C56.25 125.5 49.54 124.52 48.9 125.57H48.91Z" fill="url(#paint25_linear_302_2277)"/>
<path d="M71.79 141.27C75.63 140.78 79.47 140.3 83.31 139.81C83.24 140.29 83.0799 140.95 82.6599 141.59C81.0999 144 77.06 144.67 74.22 143.29C73.6 142.99 72.66 142.4 71.79 141.26V141.27Z" stroke="url(#paint26_linear_302_2277)" stroke-miterlimit="10"/>
<path d="M33.19 127.79C32.36 128.38 31.68 129.87 32.43 133.91C32.62 134.9 33.5 135.62 34.51 135.58C35.82 135.53 36.72 135.86 38.9 135.42C39.24 135.35 39.41 135.32 46.57 133.77C46.99 133.68 48.5 133.35 50.24 132.45C51.7 131.69 51.9 131.27 51.95 131.13C52.51 129.77 51.1 127.68 49.43 126.77C48.94 126.5 48.51 126.42 48.38 126.35C46.58 125.35 44.57 128.29 39.85 128.41C36.17 128.51 34.58 126.79 33.19 127.79Z" fill="#DA5DDF"/>
<path d="M120.79 131.809C121.219 131.394 120.776 130.24 119.801 129.232C118.825 128.224 117.687 127.743 117.258 128.158C116.83 128.572 117.273 129.726 118.248 130.734C119.223 131.742 120.362 132.223 120.79 131.809Z" fill="#575757" stroke="#1E0E00" stroke-width="0.5" stroke-miterlimit="10"/>
<path d="M123.857 134.578C124.175 134.181 123.573 133.171 122.513 132.321C121.453 131.471 120.336 131.104 120.018 131.5C119.7 131.897 120.302 132.907 121.362 133.757C122.422 134.607 123.539 134.974 123.857 134.578Z" fill="#575757" stroke="#1E0E00" stroke-width="0.5" stroke-miterlimit="10"/>
<path d="M114.455 128.168C115.971 127.924 116.998 126.479 116.75 124.941C116.502 123.404 115.072 122.356 113.556 122.6C112.041 122.845 111.013 124.29 111.261 125.827C111.51 127.365 112.94 128.413 114.455 128.168Z" fill="#575757" stroke="#1E0E00" stroke-width="0.5" stroke-miterlimit="10"/>
<path d="M120.641 137.688C121.776 137.082 121.559 134.462 120.156 131.836C118.754 129.211 116.697 127.574 115.562 128.18C114.426 128.786 114.643 131.406 116.046 134.032C117.449 136.658 119.506 138.295 120.641 137.688Z" fill="#575757" stroke="#1E0E00" stroke-width="0.5" stroke-miterlimit="10"/>
<path d="M115.573 134.81C116.158 134.693 116.41 133.479 116.135 132.098C115.86 130.717 115.163 129.691 114.578 129.808C113.993 129.924 113.741 131.139 114.016 132.52C114.291 133.901 114.988 134.926 115.573 134.81Z" fill="#575757" stroke="#1E0E00" stroke-width="0.5" stroke-miterlimit="10"/>
<path d="M117.936 137.869C118.328 137.554 117.951 136.437 117.095 135.375C116.24 134.312 115.229 133.707 114.837 134.022C114.446 134.337 114.822 135.454 115.678 136.516C116.534 137.579 117.545 138.184 117.936 137.869Z" fill="#575757" stroke="#1E0E00" stroke-width="0.5" stroke-miterlimit="10"/>
<path d="M123.595 143.339C124.307 143.103 124.247 140.986 123.459 138.611C122.672 136.237 121.455 134.503 120.742 134.74C120.029 134.976 120.09 137.093 120.878 139.468C121.665 141.842 122.882 143.576 123.595 143.339Z" fill="#575757" stroke="#1E0E00" stroke-width="0.5" stroke-miterlimit="10"/>
<path d="M125.348 141.484C125.781 140.871 124.467 139.199 122.414 137.751C120.36 136.303 118.344 135.626 117.912 136.24C117.479 136.854 118.793 138.526 120.846 139.974C122.9 141.422 124.916 142.098 125.348 141.484Z" fill="#575757" stroke="#1E0E00" stroke-width="0.5" stroke-miterlimit="10"/>
<path d="M142.408 119.196C142.765 118.719 142.144 117.65 141.02 116.811C139.896 115.971 138.696 115.677 138.339 116.155C137.982 116.632 138.603 117.701 139.727 118.541C140.85 119.381 142.051 119.674 142.408 119.196Z" fill="#575757" stroke="#1E0E00" stroke-width="0.5" stroke-miterlimit="10"/>
<path d="M143.384 119.146C144.442 118.294 145.041 117.282 144.722 116.887C144.404 116.491 143.287 116.861 142.229 117.713C141.171 118.565 140.572 119.577 140.891 119.973C141.209 120.369 142.325 119.998 143.384 119.146Z" fill="#575757" stroke="#1E0E00" stroke-width="0.5" stroke-miterlimit="10"/>
<path d="M135.557 116.512C137.014 116.029 137.798 114.439 137.308 112.961C136.818 111.482 135.239 110.676 133.782 111.159C132.324 111.643 131.54 113.233 132.031 114.711C132.521 116.189 134.1 116.996 135.557 116.512Z" fill="#575757" stroke="#1E0E00" stroke-width="0.5" stroke-miterlimit="10"/>
<path d="M143.189 125.026C144.213 124.246 143.582 121.694 141.779 119.326C139.975 116.957 137.684 115.669 136.66 116.448C135.636 117.228 136.268 119.78 138.071 122.148C139.874 124.517 142.165 125.805 143.189 125.026Z" fill="#575757" stroke="#1E0E00" stroke-width="0.5" stroke-miterlimit="10"/>
<path d="M137.107 120.749C137.208 119.344 136.807 118.171 136.212 118.128C135.617 118.085 135.053 119.19 134.952 120.594C134.851 121.999 135.252 123.172 135.847 123.215C136.442 123.258 137.006 122.154 137.107 120.749Z" fill="#575757" stroke="#1E0E00" stroke-width="0.5" stroke-miterlimit="10"/>
<path d="M138.102 126.668C138.537 126.417 138.337 125.255 137.655 124.074C136.973 122.893 136.067 122.139 135.632 122.39C135.197 122.641 135.397 123.803 136.079 124.984C136.761 126.165 137.667 126.919 138.102 126.668Z" fill="#575757" stroke="#1E0E00" stroke-width="0.5" stroke-miterlimit="10"/>
<path d="M145.431 130.103C146.134 129.84 145.997 127.727 145.123 125.383C144.249 123.038 142.97 121.351 142.267 121.613C141.563 121.875 141.7 123.988 142.574 126.333C143.448 128.677 144.727 130.365 145.431 130.103Z" fill="#575757" stroke="#1E0E00" stroke-width="0.5" stroke-miterlimit="10"/>
<path d="M148.564 126.998C148.872 126.313 147.264 124.922 144.972 123.891C142.681 122.86 140.573 122.58 140.265 123.265C139.957 123.95 141.565 125.341 143.856 126.371C146.148 127.402 148.256 127.683 148.564 126.998Z" fill="#575757" stroke="#1E0E00" stroke-width="0.5" stroke-miterlimit="10"/>
<path d="M71.3354 145.11V143.364H71.5945V143.637H71.6172C71.6536 143.544 71.7123 143.472 71.7934 143.42C71.8744 143.368 71.9718 143.342 72.0854 143.342C72.2006 143.342 72.2964 143.368 72.3729 143.42C72.4502 143.472 72.5104 143.544 72.5536 143.637H72.5718C72.6165 143.547 72.6835 143.475 72.7729 143.422C72.8623 143.369 72.9695 143.342 73.0945 143.342C73.2506 143.342 73.3782 143.391 73.4775 143.488C73.5767 143.585 73.6263 143.736 73.6263 143.942V145.11H73.3581V143.942C73.3581 143.813 73.3229 143.721 73.2525 143.666C73.182 143.61 73.0991 143.583 73.0036 143.583C72.8809 143.583 72.7858 143.62 72.7184 143.694C72.651 143.767 72.6172 143.861 72.6172 143.973V145.11H72.3445V143.914C72.3445 143.815 72.3123 143.735 72.2479 143.675C72.1835 143.613 72.1006 143.583 71.9991 143.583C71.9294 143.583 71.8642 143.601 71.8036 143.638C71.7438 143.675 71.6953 143.727 71.6581 143.793C71.6218 143.858 71.6036 143.933 71.6036 144.019V145.11H71.3354Z" fill="#DBD4FF"/>
<path d="M75.6038 146.408C75.4381 146.408 75.2927 146.369 75.1676 146.29C75.0434 146.211 74.9462 146.101 74.876 145.959C74.8067 145.817 74.7721 145.651 74.7721 145.462C74.7721 145.27 74.8067 145.103 74.876 144.961C74.9462 144.818 75.0434 144.708 75.1676 144.629C75.2927 144.55 75.4381 144.51 75.6038 144.51C75.7696 144.51 75.9146 144.55 76.0389 144.629C76.1639 144.708 76.2611 144.818 76.3305 144.961C76.4006 145.103 76.4356 145.27 76.4356 145.462C76.4356 145.651 76.4006 145.817 76.3305 145.959C76.2611 146.101 76.1639 146.211 76.0389 146.29C75.9146 146.369 75.7696 146.408 75.6038 146.408ZM75.6038 146.155C75.7297 146.155 75.8333 146.122 75.9146 146.058C75.9958 145.993 76.056 145.909 76.095 145.803C76.1341 145.698 76.1536 145.584 76.1536 145.462C76.1536 145.339 76.1341 145.225 76.095 145.119C76.056 145.013 75.9958 144.927 75.9146 144.862C75.8333 144.796 75.7297 144.764 75.6038 144.764C75.478 144.764 75.3744 144.796 75.2931 144.862C75.2119 144.927 75.1517 145.013 75.1127 145.119C75.0736 145.225 75.0541 145.339 75.0541 145.462C75.0541 145.584 75.0736 145.698 75.1127 145.803C75.1517 145.909 75.2119 145.993 75.2931 146.058C75.3744 146.122 75.478 146.155 75.6038 146.155Z" fill="#DBD4FF"/>
<path d="M79.2438 144.747L78.5439 146.64H78.2482L77.5483 144.747H77.8637L78.3862 146.255H78.4059L78.9284 144.747H79.2438Z" fill="#DBD4FF"/>
<path d="M81.05 145.96V144.111H81.3341V145.96H81.05ZM81.1944 143.803C81.1391 143.803 81.0913 143.784 81.0512 143.746C81.0119 143.708 80.9922 143.663 80.9922 143.61C80.9922 143.557 81.0119 143.512 81.0512 143.474C81.0913 143.436 81.1391 143.417 81.1944 143.417C81.2498 143.417 81.2972 143.436 81.3365 143.474C81.3766 143.512 81.3967 143.557 81.3967 143.61C81.3967 143.663 81.3766 143.708 81.3365 143.746C81.2972 143.784 81.2498 143.803 81.1944 143.803Z" fill="#DBD4FF"/>
<path d="M83.1416 144.706C82.9726 144.706 82.8269 144.669 82.7044 144.595C82.5826 144.519 82.4887 144.414 82.4225 144.28C82.357 144.144 82.3243 143.987 82.3243 143.807C82.3243 143.627 82.357 143.469 82.4225 143.332C82.4887 143.194 82.5807 143.087 82.6987 143.01C82.8174 142.933 82.9559 142.894 83.1142 142.894C83.2055 142.894 83.2956 142.909 83.3847 142.94C83.4737 142.97 83.5547 143.019 83.6278 143.088C83.7008 143.156 83.7591 143.245 83.8024 143.357C83.8458 143.469 83.8675 143.607 83.8675 143.77V143.885H82.5161V143.652H83.5935C83.5935 143.553 83.5738 143.465 83.5342 143.387C83.4954 143.309 83.4398 143.248 83.3676 143.203C83.296 143.158 83.2116 143.136 83.1142 143.136C83.0069 143.136 82.914 143.163 82.8357 143.216C82.758 143.268 82.6983 143.337 82.6565 143.421C82.6146 143.506 82.5937 143.596 82.5937 143.693V143.848C82.5937 143.981 82.6165 144.093 82.6622 144.185C82.7086 144.276 82.7729 144.346 82.8551 144.394C82.9372 144.441 83.0327 144.464 83.1416 144.464C83.2123 144.464 83.2762 144.455 83.3333 144.435C83.3911 144.414 83.441 144.384 83.4828 144.343C83.5247 144.302 83.557 144.251 83.5799 144.191L83.8401 144.264C83.8127 144.352 83.7667 144.429 83.702 144.496C83.6373 144.563 83.5574 144.614 83.4623 144.652C83.3672 144.688 83.2603 144.706 83.1416 144.706Z" fill="#DBD4FF"/>
<path d="M70.55 136.45C72.5658 136.45 74.2 134.914 74.2 133.02C74.2 131.125 72.5658 129.59 70.55 129.59C68.5341 129.59 66.9 131.125 66.9 133.02C66.9 134.914 68.5341 136.45 70.55 136.45Z" fill="url(#paint27_linear_302_2277)"/>
<path d="M68.3152 132.343V132.092H70.0684V132.343H69.3333V134.43H69.0503V132.343H68.3152ZM70.5653 132.314L71.1936 134.095H71.2184L71.8467 132.314H72.1154L71.3383 134.43H71.0737L70.2966 132.314H70.5653Z" fill="#DBD4FF"/>
<path opacity="0.63" d="M23.8299 109.87C23.5799 109.91 22.37 110.11 21.32 109.35C20.07 108.44 19.52 106.5 20.25 105.42C21.03 104.26 23.4 103.92 25.32 105.5C25.38 105.55 26.64 106.54 26.44 107.84C26.2 109.44 24.0099 109.83 23.8299 109.87Z" fill="url(#paint28_linear_302_2277)"/>
<path opacity="0.63" d="M30.57 111.29C30.32 111.33 29.11 111.53 28.06 110.77C26.81 109.86 26.2599 107.92 26.9899 106.84C27.7699 105.68 30.14 105.34 32.06 106.92C32.12 106.97 33.3799 107.96 33.1799 109.26C32.9399 110.86 30.75 111.25 30.57 111.29Z" fill="url(#paint29_linear_302_2277)"/>
<path opacity="0.63" d="M37.07 111.9C36.87 111.94 35.93 112.12 35.12 111.54C34.16 110.85 33.77 109.35 34.37 108.49C35.01 107.56 36.87 107.24 38.33 108.44C38.38 108.48 39.34 109.23 39.16 110.25C38.93 111.51 37.21 111.87 37.07 111.89V111.9Z" fill="url(#paint30_linear_302_2277)"/>
<path d="M80.1899 77.27C79.9099 78.18 80.2299 79.11 80.9099 79.53C81.3999 79.84 82.1699 79.94 82.6799 79.53C83.2799 79.05 83.3999 77.95 82.7299 77.09C82.4799 77.01 82.1399 76.93 81.7299 76.92C81.0299 76.91 80.4899 77.12 80.1899 77.26V77.27Z" fill="#05001F"/>
<path d="M96.3499 76.6799C95.8299 77.9499 96.27 79.1599 97.03 79.4899C97.51 79.6999 98.1999 79.5799 98.5999 79.1499C99.1199 78.5799 99.1 77.5399 98.38 76.8199C97.7 76.7699 97.0299 76.7199 96.3499 76.6799Z" fill="#110046"/>
<path d="M32.52 50.8699C33.5 48.7199 34.48 46.5699 35.46 44.4299C37.58 47.7899 39.7 51.1499 41.82 54.5099L38.2 59.9899C36.31 56.9499 34.41 53.9199 32.52 50.8799V50.8699Z" fill="url(#paint31_linear_302_2277)"/>
<path d="M25.91 65.6499C26.89 63.4999 27.87 61.35 28.85 59.21C30.97 62.57 33.09 65.9299 35.21 69.2899L31.59 74.77C29.7 71.73 27.8 68.7 25.91 65.66V65.6499Z" fill="url(#paint32_linear_302_2277)"/>
<path d="M22.33 47.9899C22.77 45.7799 23.2 43.5699 23.64 41.3599C19.93 42.2699 16.22 43.1799 12.51 44.0799C12.11 46.2299 11.71 48.3799 11.31 50.5399C14.99 49.6899 18.66 48.8399 22.34 47.9899H22.33Z" fill="url(#paint33_linear_302_2277)"/>
<path d="M19.36 62.98C19.85 60.81 20.34 58.65 20.82 56.48C16.96 57.42 13.1 58.37 9.24997 59.31C8.84997 61.46 8.44996 63.61 8.04996 65.77C11.82 64.84 15.59 63.91 19.36 62.98Z" fill="url(#paint34_linear_302_2277)"/>
<path d="M16.35 78.5099C16.79 76.2899 17.24 74.0799 17.68 71.8599C13.82 72.7999 9.95995 73.7499 6.10995 74.6899C5.70995 76.8399 5.30997 78.9899 4.90997 81.1499C8.71997 80.2699 12.54 79.3899 16.35 78.5099Z" fill="url(#paint35_linear_302_2277)"/>
<path d="M12.54 94.6099C13.32 92.3799 14.11 90.1499 14.89 87.9199C10.87 88.8599 6.85997 89.7899 2.83997 90.7299C2.74997 92.6299 2.65996 94.5299 2.57996 96.4199C5.89996 95.8199 9.22996 95.2099 12.55 94.6099H12.54Z" fill="url(#paint36_linear_302_2277)"/>
<path d="M17.61 130.85L10.98 127.95L4.83997 131.77L5.54996 124.57L0.0299683 119.9L7.08997 118.36L9.81998 111.66L13.47 117.9L20.69 118.43L15.88 123.83L17.61 130.85Z" fill="#31B4D8"/>
<path d="M21.92 146.99L17.89 146.18L14.93 149.04L14.46 144.95L10.82 143.02L14.56 141.31L15.28 137.25L18.06 140.28L22.14 139.71L20.12 143.29L21.92 146.99Z" fill="#31B4D8"/>
</g>
<defs>
<linearGradient id="paint0_linear_302_2277" x1="166.21" y1="70.1098" x2="182.82" y2="86.7198" gradientUnits="userSpaceOnUse">
<stop offset="0.26" stop-color="#F1D1C2"/>
<stop offset="0.44" stop-color="#E8C6B8"/>
<stop offset="0.75" stop-color="#D2AAA0"/>
<stop offset="0.87" stop-color="#C99E95"/>
</linearGradient>
<linearGradient id="paint1_linear_302_2277" x1="172.99" y1="73.2399" x2="182.69" y2="73.2399" gradientUnits="userSpaceOnUse">
<stop offset="0.26" stop-color="#F1D1C2"/>
<stop offset="0.44" stop-color="#E8C6B8"/>
<stop offset="0.75" stop-color="#D2AAA0"/>
<stop offset="0.87" stop-color="#C99E95"/>
</linearGradient>
<linearGradient id="paint2_linear_302_2277" x1="177.26" y1="59.8599" x2="177.26" y2="91.8799" gradientUnits="userSpaceOnUse">
<stop offset="0.21" stop-color="#F1D1C2"/>
<stop offset="0.37" stop-color="#E8C6B8"/>
<stop offset="0.64" stop-color="#D2AAA0"/>
<stop offset="0.75" stop-color="#C99E95"/>
</linearGradient>
<linearGradient id="paint3_linear_302_2277" x1="76.57" y1="108.48" x2="87.51" y2="97.5399" gradientUnits="userSpaceOnUse">
<stop offset="0.14" stop-color="#C7A69E"/>
<stop offset="0.26" stop-color="#BC9D97"/>
<stop offset="0.47" stop-color="#A08684"/>
<stop offset="0.74" stop-color="#736067"/>
<stop offset="0.78" stop-color="#6B5A62"/>
</linearGradient>
<linearGradient id="paint4_linear_302_2277" x1="93.0699" y1="90.02" x2="93.0699" y2="71.97" gradientUnits="userSpaceOnUse">
<stop stop-color="#DFB298"/>
<stop offset="0.14" stop-color="#D4A892"/>
<stop offset="0.39" stop-color="#B88D82"/>
<stop offset="0.48" stop-color="#AE847D"/>
</linearGradient>
<linearGradient id="paint5_linear_302_2277" x1="89.06" y1="89.13" x2="91.38" y2="89.13" gradientUnits="userSpaceOnUse">
<stop offset="0.55" stop-color="#DFB298"/>
<stop offset="0.68" stop-color="#D4A892"/>
<stop offset="0.92" stop-color="#B88D82"/>
<stop offset="1" stop-color="#AE847D"/>
</linearGradient>
<linearGradient id="paint6_linear_302_2277" x1="89.6499" y1="86.97" x2="93.45" y2="86.97" gradientUnits="userSpaceOnUse">
<stop offset="0.14" stop-color="#F1D1C2"/>
<stop offset="0.31" stop-color="#ECC6B8"/>
<stop offset="0.59" stop-color="#E0AA9D"/>
<stop offset="0.78" stop-color="#D89589"/>
</linearGradient>
<linearGradient id="paint7_linear_302_2277" x1="90.22" y1="99.96" x2="90.22" y2="95.56" gradientUnits="userSpaceOnUse">
<stop stop-color="#F1D1C2"/>
<stop offset="0.35" stop-color="#DB3556" stop-opacity="0.78"/>
<stop offset="0.48" stop-color="#DC415E" stop-opacity="0.75"/>
<stop offset="0.66" stop-color="#E16376" stop-opacity="0.67"/>
<stop offset="0.85" stop-color="#E99C9D" stop-opacity="0.53"/>
<stop offset="1" stop-color="#F1D1C2" stop-opacity="0.4"/>
</linearGradient>
<linearGradient id="paint8_linear_302_2277" x1="90.2199" y1="91.5799" x2="92.88" y2="91.5799" gradientUnits="userSpaceOnUse">
<stop offset="0.55" stop-color="#DFB298"/>
<stop offset="0.68" stop-color="#D4A892"/>
<stop offset="0.92" stop-color="#B88D82"/>
<stop offset="1" stop-color="#AE847D"/>
</linearGradient>
<linearGradient id="paint9_linear_302_2277" x1="74.78" y1="75.37" x2="84.65" y2="75.37" gradientUnits="userSpaceOnUse">
<stop offset="0.14" stop-color="#F9E0D1"/>
<stop offset="0.23" stop-color="#F0D5C7"/>
<stop offset="0.38" stop-color="#D9B9AD"/>
<stop offset="0.58" stop-color="#B48C84"/>
<stop offset="0.61" stop-color="#AE847D"/>
<stop offset="0.94" stop-color="#6B5A62"/>
</linearGradient>
<linearGradient id="paint10_linear_302_2277" x1="93.86" y1="75.0601" x2="101.22" y2="75.0601" gradientUnits="userSpaceOnUse">
<stop offset="0.14" stop-color="#F9E0D1"/>
<stop offset="0.23" stop-color="#F0D5C7"/>
<stop offset="0.38" stop-color="#D9B9AD"/>
<stop offset="0.58" stop-color="#B48C84"/>
<stop offset="0.61" stop-color="#AE847D"/>
<stop offset="0.94" stop-color="#6B5A62"/>
</linearGradient>
<linearGradient id="paint11_linear_302_2277" x1="50.25" y1="88.5199" x2="58.41" y2="88.5199" gradientUnits="userSpaceOnUse">
<stop stop-color="#000067"/>
<stop offset="0.14" stop-color="#040069"/>
<stop offset="0.29" stop-color="#110071"/>
<stop offset="0.44" stop-color="#26007E"/>
<stop offset="0.59" stop-color="#440090"/>
<stop offset="0.67" stop-color="#56009B"/>
</linearGradient>
<linearGradient id="paint12_linear_302_2277" x1="57.63" y1="73.5499" x2="72.92" y2="73.5499" gradientUnits="userSpaceOnUse">
<stop stop-color="#000067"/>
<stop offset="0.14" stop-color="#040069"/>
<stop offset="0.29" stop-color="#110071"/>
<stop offset="0.44" stop-color="#26007E"/>
<stop offset="0.59" stop-color="#440090"/>
<stop offset="0.67" stop-color="#56009B"/>
</linearGradient>
<linearGradient id="paint13_linear_302_2277" x1="40.06" y1="143.3" x2="154.57" y2="143.3" gradientUnits="userSpaceOnUse">
<stop offset="0.54" stop-color="#BA4ACA"/>
<stop offset="0.87" stop-color="#944B97"/>
</linearGradient>
<linearGradient id="paint14_linear_302_2277" x1="110.12" y1="138.18" x2="151.18" y2="138.18" gradientUnits="userSpaceOnUse">
<stop offset="0.14" stop-color="#BA4ACA"/>
<stop offset="0.29" stop-color="#B048BF"/>
<stop offset="0.54" stop-color="#9644A3"/>
<stop offset="0.78" stop-color="#783F82"/>
</linearGradient>
<linearGradient id="paint15_linear_302_2277" x1="82.62" y1="52.87" x2="101.7" y2="52.87" gradientUnits="userSpaceOnUse">
<stop stop-color="#000067"/>
<stop offset="0.14" stop-color="#040069"/>
<stop offset="0.29" stop-color="#110071"/>
<stop offset="0.44" stop-color="#26007E"/>
<stop offset="0.59" stop-color="#440090"/>
<stop offset="0.67" stop-color="#56009B"/>
</linearGradient>
<linearGradient id="paint16_linear_302_2277" x1="30.8543" y1="68.3605" x2="52.243" y2="67.0449" gradientUnits="userSpaceOnUse">
<stop offset="0.09" stop-color="#44505E"/>
<stop offset="0.49" stop-color="#5C637C"/>
</linearGradient>
<linearGradient id="paint17_linear_302_2277" x1="10.53" y1="77.1099" x2="61.26" y2="77.1099" gradientUnits="userSpaceOnUse">
<stop offset="0.09" stop-color="#44505E"/>
<stop offset="0.49" stop-color="#5C637C"/>
</linearGradient>
<linearGradient id="paint18_linear_302_2277" x1="19.34" y1="81.78" x2="28.64" y2="81.78" gradientUnits="userSpaceOnUse">
<stop stop-color="#44505E"/>
<stop offset="0.12" stop-color="#848CB0"/>
</linearGradient>
<linearGradient id="paint19_linear_302_2277" x1="12.8047" y1="96.2585" x2="22.466" y2="95.6574" gradientUnits="userSpaceOnUse">
<stop stop-color="#44505E"/>
<stop offset="0.12" stop-color="#848CB0"/>
</linearGradient>
<linearGradient id="paint20_linear_302_2277" x1="41.82" y1="103.68" x2="46.43" y2="103.68" gradientUnits="userSpaceOnUse">
<stop offset="0.26" stop-color="#F1D1C2"/>
<stop offset="0.44" stop-color="#E8C6B8"/>
<stop offset="0.75" stop-color="#D2AAA0"/>
<stop offset="0.87" stop-color="#C99E95"/>
</linearGradient>
<linearGradient id="paint21_linear_302_2277" x1="45.06" y1="91.2099" x2="28.31" y2="91.2099" gradientUnits="userSpaceOnUse">
<stop offset="0.26" stop-color="#F1D1C2"/>
<stop offset="0.44" stop-color="#E8C6B8"/>
<stop offset="0.75" stop-color="#D2AAA0"/>
<stop offset="0.87" stop-color="#C99E95"/>
</linearGradient>
<linearGradient id="paint22_linear_302_2277" x1="38.03" y1="98.4399" x2="44.49" y2="98.4399" gradientUnits="userSpaceOnUse">
<stop offset="0.26" stop-color="#F1D1C2"/>
<stop offset="0.44" stop-color="#E8C6B8"/>
<stop offset="0.75" stop-color="#D2AAA0"/>
<stop offset="0.87" stop-color="#C99E95"/>
</linearGradient>
<linearGradient id="paint23_linear_302_2277" x1="27.54" y1="83.21" x2="27.54" y2="109.04" gradientUnits="userSpaceOnUse">
<stop offset="0.1" stop-color="#F1D1C2"/>
<stop offset="0.19" stop-color="#E8C6B8"/>
<stop offset="0.35" stop-color="#D2AAA0"/>
<stop offset="0.41" stop-color="#C99E95"/>
<stop offset="1" stop-color="#CB9792"/>
</linearGradient>
<linearGradient id="paint24_linear_302_2277" x1="86.25" y1="94.0098" x2="95.21" y2="94.0098" gradientUnits="userSpaceOnUse">
<stop stop-color="#DB3556" stop-opacity="0.78"/>
<stop offset="1" stop-color="#F1D1C2"/>
</linearGradient>
<linearGradient id="paint25_linear_302_2277" x1="48.86" y1="147.74" x2="78.29" y2="147.74" gradientUnits="userSpaceOnUse">
<stop offset="0.14" stop-color="#BA4ACA"/>
<stop offset="0.29" stop-color="#B048BF"/>
<stop offset="0.54" stop-color="#9644A3"/>
<stop offset="0.78" stop-color="#783F82"/>
</linearGradient>
<linearGradient id="paint26_linear_302_2277" x1="70.86" y1="141.87" x2="83.9" y2="141.87" gradientUnits="userSpaceOnUse">
<stop offset="0.26" stop-color="#8B54FF"/>
<stop offset="0.36" stop-color="#915BF4"/>
<stop offset="0.54" stop-color="#A16ED8"/>
<stop offset="0.77" stop-color="#BC8EAB"/>
<stop offset="0.87" stop-color="#C99E95"/>
</linearGradient>
<linearGradient id="paint27_linear_302_2277" x1="66.9" y1="133.02" x2="74.19" y2="133.02" gradientUnits="userSpaceOnUse">
<stop offset="0.26" stop-color="#411B8D"/>
<stop offset="0.42" stop-color="#44258E"/>
<stop offset="0.7" stop-color="#4E4193"/>
<stop offset="1" stop-color="#5B679A"/>
</linearGradient>
<linearGradient id="paint28_linear_302_2277" x1="25.0149" y1="105.166" x2="21.0843" y2="109.155" gradientUnits="userSpaceOnUse">
<stop offset="0.14" stop-color="#F1D1C2"/>
<stop offset="0.38" stop-color="#F1C6B9"/>
<stop offset="0.8" stop-color="#F2AAA1"/>
<stop offset="0.85" stop-color="#F3A79E"/>
<stop offset="1" stop-color="#F3A49C"/>
</linearGradient>
<linearGradient id="paint29_linear_302_2277" x1="31.7572" y1="106.587" x2="27.8335" y2="110.569" gradientUnits="userSpaceOnUse">
<stop offset="0.14" stop-color="#F1D1C2"/>
<stop offset="0.38" stop-color="#F1C6B9"/>
<stop offset="0.8" stop-color="#F2AAA1"/>
<stop offset="0.85" stop-color="#F3A79E"/>
<stop offset="1" stop-color="#F3A49C"/>
</linearGradient>
<linearGradient id="paint30_linear_302_2277" x1="36.4945" y1="110.138" x2="33.3499" y2="113.329" gradientUnits="userSpaceOnUse">
<stop offset="0.14" stop-color="#F1D1C2"/>
<stop offset="0.38" stop-color="#F1C6B9"/>
<stop offset="0.8" stop-color="#F2AAA1"/>
<stop offset="0.85" stop-color="#F3A79E"/>
<stop offset="1" stop-color="#F3A49C"/>
</linearGradient>
<linearGradient id="paint31_linear_302_2277" x1="32.52" y1="52.1999" x2="41.82" y2="52.1999" gradientUnits="userSpaceOnUse">
<stop stop-color="#44505E"/>
<stop offset="0.12" stop-color="#848CB0"/>
</linearGradient>
<linearGradient id="paint32_linear_302_2277" x1="25.91" y1="66.99" x2="35.22" y2="66.99" gradientUnits="userSpaceOnUse">
<stop stop-color="#44505E"/>
<stop offset="0.12" stop-color="#848CB0"/>
</linearGradient>
<linearGradient id="paint33_linear_302_2277" x1="11.3" y1="45.9499" x2="23.63" y2="45.9499" gradientUnits="userSpaceOnUse">
<stop stop-color="#44505E"/>
<stop offset="0.12" stop-color="#848CB0"/>
</linearGradient>
<linearGradient id="paint34_linear_302_2277" x1="8.04996" y1="61.13" x2="20.82" y2="61.13" gradientUnits="userSpaceOnUse">
<stop stop-color="#44505E"/>
<stop offset="0.12" stop-color="#848CB0"/>
</linearGradient>
<linearGradient id="paint35_linear_302_2277" x1="4.90997" y1="76.5099" x2="17.69" y2="76.5099" gradientUnits="userSpaceOnUse">
<stop stop-color="#44505E"/>
<stop offset="0.12" stop-color="#848CB0"/>
</linearGradient>
<linearGradient id="paint36_linear_302_2277" x1="2.56996" y1="92.1799" x2="14.88" y2="92.1799" gradientUnits="userSpaceOnUse">
<stop stop-color="#44505E"/>
<stop offset="0.12" stop-color="#848CB0"/>
</linearGradient>
<clipPath id="clip0_302_2277">
<rect width="190.62" height="200.321" fill="white" transform="translate(0.0299683 0.429932)"/>
</clipPath>
</defs>
</svg>
